<?xml version="1.0" encoding="utf-8" standalone="no"?>
<!DOCTYPE svg PUBLIC "-//W3C//DTD SVG 1.1//EN"
  "http://www.w3.org/Graphics/SVG/1.1/DTD/svg11.dtd">
<!-- Created with matplotlib (https://matplotlib.org/) -->
<svg height="518.4pt" version="1.1" viewBox="0 0 921.6 518.4" width="921.6pt" xmlns="http://www.w3.org/2000/svg" xmlns:xlink="http://www.w3.org/1999/xlink">
 <defs>
  <style type="text/css">
*{stroke-linecap:butt;stroke-linejoin:round;}
  </style>
 </defs>
 <g id="figure_1">
  <g id="patch_1">
   <path d="M 0 518.4 
L 921.6 518.4 
L 921.6 0 
L 0 0 
z
" style="fill:none;"/>
  </g>
  <g id="axes_1">
   <g id="patch_2">
    <path d="M 113.8925 305.4784 
L 893.52 305.4784 
L 893.52 37.98 
L 113.8925 37.98 
z
" style="fill:none;"/>
   </g>
   <g id="matplotlib.axis_1">
    <g id="xtick_1">
     <g id="line2d_1">
      <defs>
       <path d="M 0 0 
L 0 3.5 
" id="mffba669bb7" style="stroke:#000000;stroke-width:0.8;"/>
      </defs>
      <g>
       <use style="stroke:#000000;stroke-width:0.8;" x="113.8925" xlink:href="#mffba669bb7" y="305.4784"/>
      </g>
     </g>
     <g id="text_1">
      <!-- 0 -->
      <defs>
       <path d="M 31.78125 66.40625 
Q 24.171875 66.40625 20.328125 58.90625 
Q 16.5 51.421875 16.5 36.375 
Q 16.5 21.390625 20.328125 13.890625 
Q 24.171875 6.390625 31.78125 6.390625 
Q 39.453125 6.390625 43.28125 13.890625 
Q 47.125 21.390625 47.125 36.375 
Q 47.125 51.421875 43.28125 58.90625 
Q 39.453125 66.40625 31.78125 66.40625 
z
M 31.78125 74.21875 
Q 44.046875 74.21875 50.515625 64.515625 
Q 56.984375 54.828125 56.984375 36.375 
Q 56.984375 17.96875 50.515625 8.265625 
Q 44.046875 -1.421875 31.78125 -1.421875 
Q 19.53125 -1.421875 13.0625 8.265625 
Q 6.59375 17.96875 6.59375 36.375 
Q 6.59375 54.828125 13.0625 64.515625 
Q 19.53125 74.21875 31.78125 74.21875 
z
" id="DejaVuSans-48"/>
      </defs>
      <g transform="translate(105.62125 332.234337)scale(0.26 -0.26)">
       <use xlink:href="#DejaVuSans-48"/>
      </g>
     </g>
    </g>
    <g id="xtick_2">
     <g id="line2d_2">
      <g>
       <use style="stroke:#000000;stroke-width:0.8;" x="263.820865" xlink:href="#mffba669bb7" y="305.4784"/>
      </g>
     </g>
     <g id="text_2">
      <!-- 100 -->
      <defs>
       <path d="M 12.40625 8.296875 
L 28.515625 8.296875 
L 28.515625 63.921875 
L 10.984375 60.40625 
L 10.984375 69.390625 
L 28.421875 72.90625 
L 38.28125 72.90625 
L 38.28125 8.296875 
L 54.390625 8.296875 
L 54.390625 0 
L 12.40625 0 
z
" id="DejaVuSans-49"/>
      </defs>
      <g transform="translate(239.007115 332.234337)scale(0.26 -0.26)">
       <use xlink:href="#DejaVuSans-49"/>
       <use x="63.623047" xlink:href="#DejaVuSans-48"/>
       <use x="127.246094" xlink:href="#DejaVuSans-48"/>
      </g>
     </g>
    </g>
    <g id="xtick_3">
     <g id="line2d_3">
      <g>
       <use style="stroke:#000000;stroke-width:0.8;" x="413.749231" xlink:href="#mffba669bb7" y="305.4784"/>
      </g>
     </g>
     <g id="text_3">
      <!-- 200 -->
      <defs>
       <path d="M 19.1875 8.296875 
L 53.609375 8.296875 
L 53.609375 0 
L 7.328125 0 
L 7.328125 8.296875 
Q 12.9375 14.109375 22.625 23.890625 
Q 32.328125 33.6875 34.8125 36.53125 
Q 39.546875 41.84375 41.421875 45.53125 
Q 43.3125 49.21875 43.3125 52.78125 
Q 43.3125 58.59375 39.234375 62.25 
Q 35.15625 65.921875 28.609375 65.921875 
Q 23.96875 65.921875 18.8125 64.3125 
Q 13.671875 62.703125 7.8125 59.421875 
L 7.8125 69.390625 
Q 13.765625 71.78125 18.9375 73 
Q 24.125 74.21875 28.421875 74.21875 
Q 39.75 74.21875 46.484375 68.546875 
Q 53.21875 62.890625 53.21875 53.421875 
Q 53.21875 48.921875 51.53125 44.890625 
Q 49.859375 40.875 45.40625 35.40625 
Q 44.1875 33.984375 37.640625 27.21875 
Q 31.109375 20.453125 19.1875 8.296875 
z
" id="DejaVuSans-50"/>
      </defs>
      <g transform="translate(388.935481 332.234337)scale(0.26 -0.26)">
       <use xlink:href="#DejaVuSans-50"/>
       <use x="63.623047" xlink:href="#DejaVuSans-48"/>
       <use x="127.246094" xlink:href="#DejaVuSans-48"/>
      </g>
     </g>
    </g>
    <g id="xtick_4">
     <g id="line2d_4">
      <g>
       <use style="stroke:#000000;stroke-width:0.8;" x="563.677596" xlink:href="#mffba669bb7" y="305.4784"/>
      </g>
     </g>
     <g id="text_4">
      <!-- 300 -->
      <defs>
       <path d="M 40.578125 39.3125 
Q 47.65625 37.796875 51.625 33 
Q 55.609375 28.21875 55.609375 21.1875 
Q 55.609375 10.40625 48.1875 4.484375 
Q 40.765625 -1.421875 27.09375 -1.421875 
Q 22.515625 -1.421875 17.65625 -0.515625 
Q 12.796875 0.390625 7.625 2.203125 
L 7.625 11.71875 
Q 11.71875 9.328125 16.59375 8.109375 
Q 21.484375 6.890625 26.8125 6.890625 
Q 36.078125 6.890625 40.9375 10.546875 
Q 45.796875 14.203125 45.796875 21.1875 
Q 45.796875 27.640625 41.28125 31.265625 
Q 36.765625 34.90625 28.71875 34.90625 
L 20.21875 34.90625 
L 20.21875 43.015625 
L 29.109375 43.015625 
Q 36.375 43.015625 40.234375 45.921875 
Q 44.09375 48.828125 44.09375 54.296875 
Q 44.09375 59.90625 40.109375 62.90625 
Q 36.140625 65.921875 28.71875 65.921875 
Q 24.65625 65.921875 20.015625 65.03125 
Q 15.375 64.15625 9.8125 62.3125 
L 9.8125 71.09375 
Q 15.4375 72.65625 20.34375 73.4375 
Q 25.25 74.21875 29.59375 74.21875 
Q 40.828125 74.21875 47.359375 69.109375 
Q 53.90625 64.015625 53.90625 55.328125 
Q 53.90625 49.265625 50.4375 45.09375 
Q 46.96875 40.921875 40.578125 39.3125 
z
" id="DejaVuSans-51"/>
      </defs>
      <g transform="translate(538.863846 332.234337)scale(0.26 -0.26)">
       <use xlink:href="#DejaVuSans-51"/>
       <use x="63.623047" xlink:href="#DejaVuSans-48"/>
       <use x="127.246094" xlink:href="#DejaVuSans-48"/>
      </g>
     </g>
    </g>
    <g id="xtick_5">
     <g id="line2d_5">
      <g>
       <use style="stroke:#000000;stroke-width:0.8;" x="713.605962" xlink:href="#mffba669bb7" y="305.4784"/>
      </g>
     </g>
     <g id="text_5">
      <!-- 400 -->
      <defs>
       <path d="M 37.796875 64.3125 
L 12.890625 25.390625 
L 37.796875 25.390625 
z
M 35.203125 72.90625 
L 47.609375 72.90625 
L 47.609375 25.390625 
L 58.015625 25.390625 
L 58.015625 17.1875 
L 47.609375 17.1875 
L 47.609375 0 
L 37.796875 0 
L 37.796875 17.1875 
L 4.890625 17.1875 
L 4.890625 26.703125 
z
" id="DejaVuSans-52"/>
      </defs>
      <g transform="translate(688.792212 332.234337)scale(0.26 -0.26)">
       <use xlink:href="#DejaVuSans-52"/>
       <use x="63.623047" xlink:href="#DejaVuSans-48"/>
       <use x="127.246094" xlink:href="#DejaVuSans-48"/>
      </g>
     </g>
    </g>
    <g id="xtick_6">
     <g id="line2d_6">
      <g>
       <use style="stroke:#000000;stroke-width:0.8;" x="863.534327" xlink:href="#mffba669bb7" y="305.4784"/>
      </g>
     </g>
     <g id="text_6">
      <!-- 500 -->
      <defs>
       <path d="M 10.796875 72.90625 
L 49.515625 72.90625 
L 49.515625 64.59375 
L 19.828125 64.59375 
L 19.828125 46.734375 
Q 21.96875 47.46875 24.109375 47.828125 
Q 26.265625 48.1875 28.421875 48.1875 
Q 40.625 48.1875 47.75 41.5 
Q 54.890625 34.8125 54.890625 23.390625 
Q 54.890625 11.625 47.5625 5.09375 
Q 40.234375 -1.421875 26.90625 -1.421875 
Q 22.3125 -1.421875 17.546875 -0.640625 
Q 12.796875 0.140625 7.71875 1.703125 
L 7.71875 11.625 
Q 12.109375 9.234375 16.796875 8.0625 
Q 21.484375 6.890625 26.703125 6.890625 
Q 35.15625 6.890625 40.078125 11.328125 
Q 45.015625 15.765625 45.015625 23.390625 
Q 45.015625 31 40.078125 35.4375 
Q 35.15625 39.890625 26.703125 39.890625 
Q 22.75 39.890625 18.8125 39.015625 
Q 14.890625 38.140625 10.796875 36.28125 
z
" id="DejaVuSans-53"/>
      </defs>
      <g transform="translate(838.720577 332.234337)scale(0.26 -0.26)">
       <use xlink:href="#DejaVuSans-53"/>
       <use x="63.623047" xlink:href="#DejaVuSans-48"/>
       <use x="127.246094" xlink:href="#DejaVuSans-48"/>
      </g>
     </g>
    </g>
   </g>
   <g id="matplotlib.axis_2">
    <g id="ytick_1">
     <g id="line2d_7">
      <defs>
       <path d="M 0 0 
L -3.5 0 
" id="m7c4c1936a6" style="stroke:#000000;stroke-width:0.8;"/>
      </defs>
      <g>
       <use style="stroke:#000000;stroke-width:0.8;" x="113.8925" xlink:href="#m7c4c1936a6" y="243.748"/>
      </g>
     </g>
     <g id="text_7">
      <!-- 70 -->
      <defs>
       <path d="M 8.203125 72.90625 
L 55.078125 72.90625 
L 55.078125 68.703125 
L 28.609375 0 
L 18.3125 0 
L 43.21875 64.59375 
L 8.203125 64.59375 
z
" id="DejaVuSans-55"/>
      </defs>
      <g transform="translate(73.8075 253.625969)scale(0.26 -0.26)">
       <use xlink:href="#DejaVuSans-55"/>
       <use x="63.623047" xlink:href="#DejaVuSans-48"/>
      </g>
     </g>
    </g>
    <g id="ytick_2">
     <g id="line2d_8">
      <g>
       <use style="stroke:#000000;stroke-width:0.8;" x="113.8925" xlink:href="#m7c4c1936a6" y="175.158667"/>
      </g>
     </g>
     <g id="text_8">
      <!-- 80 -->
      <defs>
       <path d="M 31.78125 34.625 
Q 24.75 34.625 20.71875 30.859375 
Q 16.703125 27.09375 16.703125 20.515625 
Q 16.703125 13.921875 20.71875 10.15625 
Q 24.75 6.390625 31.78125 6.390625 
Q 38.8125 6.390625 42.859375 10.171875 
Q 46.921875 13.96875 46.921875 20.515625 
Q 46.921875 27.09375 42.890625 30.859375 
Q 38.875 34.625 31.78125 34.625 
z
M 21.921875 38.8125 
Q 15.578125 40.375 12.03125 44.71875 
Q 8.5 49.078125 8.5 55.328125 
Q 8.5 64.0625 14.71875 69.140625 
Q 20.953125 74.21875 31.78125 74.21875 
Q 42.671875 74.21875 48.875 69.140625 
Q 55.078125 64.0625 55.078125 55.328125 
Q 55.078125 49.078125 51.53125 44.71875 
Q 48 40.375 41.703125 38.8125 
Q 48.828125 37.15625 52.796875 32.3125 
Q 56.78125 27.484375 56.78125 20.515625 
Q 56.78125 9.90625 50.3125 4.234375 
Q 43.84375 -1.421875 31.78125 -1.421875 
Q 19.734375 -1.421875 13.25 4.234375 
Q 6.78125 9.90625 6.78125 20.515625 
Q 6.78125 27.484375 10.78125 32.3125 
Q 14.796875 37.15625 21.921875 38.8125 
z
M 18.3125 54.390625 
Q 18.3125 48.734375 21.84375 45.5625 
Q 25.390625 42.390625 31.78125 42.390625 
Q 38.140625 42.390625 41.71875 45.5625 
Q 45.3125 48.734375 45.3125 54.390625 
Q 45.3125 60.0625 41.71875 63.234375 
Q 38.140625 66.40625 31.78125 66.40625 
Q 25.390625 66.40625 21.84375 63.234375 
Q 18.3125 60.0625 18.3125 54.390625 
z
" id="DejaVuSans-56"/>
      </defs>
      <g transform="translate(73.8075 185.036635)scale(0.26 -0.26)">
       <use xlink:href="#DejaVuSans-56"/>
       <use x="63.623047" xlink:href="#DejaVuSans-48"/>
      </g>
     </g>
    </g>
    <g id="ytick_3">
     <g id="line2d_9">
      <g>
       <use style="stroke:#000000;stroke-width:0.8;" x="113.8925" xlink:href="#m7c4c1936a6" y="106.569333"/>
      </g>
     </g>
     <g id="text_9">
      <!-- 90 -->
      <defs>
       <path d="M 10.984375 1.515625 
L 10.984375 10.5 
Q 14.703125 8.734375 18.5 7.8125 
Q 22.3125 6.890625 25.984375 6.890625 
Q 35.75 6.890625 40.890625 13.453125 
Q 46.046875 20.015625 46.78125 33.40625 
Q 43.953125 29.203125 39.59375 26.953125 
Q 35.25 24.703125 29.984375 24.703125 
Q 19.046875 24.703125 12.671875 31.3125 
Q 6.296875 37.9375 6.296875 49.421875 
Q 6.296875 60.640625 12.9375 67.421875 
Q 19.578125 74.21875 30.609375 74.21875 
Q 43.265625 74.21875 49.921875 64.515625 
Q 56.59375 54.828125 56.59375 36.375 
Q 56.59375 19.140625 48.40625 8.859375 
Q 40.234375 -1.421875 26.421875 -1.421875 
Q 22.703125 -1.421875 18.890625 -0.6875 
Q 15.09375 0.046875 10.984375 1.515625 
z
M 30.609375 32.421875 
Q 37.25 32.421875 41.125 36.953125 
Q 45.015625 41.5 45.015625 49.421875 
Q 45.015625 57.28125 41.125 61.84375 
Q 37.25 66.40625 30.609375 66.40625 
Q 23.96875 66.40625 20.09375 61.84375 
Q 16.21875 57.28125 16.21875 49.421875 
Q 16.21875 41.5 20.09375 36.953125 
Q 23.96875 32.421875 30.609375 32.421875 
z
" id="DejaVuSans-57"/>
      </defs>
      <g transform="translate(73.8075 116.447302)scale(0.26 -0.26)">
       <use xlink:href="#DejaVuSans-57"/>
       <use x="63.623047" xlink:href="#DejaVuSans-48"/>
      </g>
     </g>
    </g>
    <g id="ytick_4">
     <g id="line2d_10">
      <g>
       <use style="stroke:#000000;stroke-width:0.8;" x="113.8925" xlink:href="#m7c4c1936a6" y="37.98"/>
      </g>
     </g>
     <g id="text_10">
      <!-- 100 -->
      <g transform="translate(57.265 47.857969)scale(0.26 -0.26)">
       <use xlink:href="#DejaVuSans-49"/>
       <use x="63.623047" xlink:href="#DejaVuSans-48"/>
       <use x="127.246094" xlink:href="#DejaVuSans-48"/>
      </g>
     </g>
    </g>
    <g id="text_11">
     <!-- VMAF -->
     <defs>
      <path d="M 28.609375 0 
L 0.78125 72.90625 
L 11.078125 72.90625 
L 34.1875 11.53125 
L 57.328125 72.90625 
L 67.578125 72.90625 
L 39.796875 0 
z
" id="DejaVuSans-86"/>
      <path d="M 9.8125 72.90625 
L 24.515625 72.90625 
L 43.109375 23.296875 
L 61.8125 72.90625 
L 76.515625 72.90625 
L 76.515625 0 
L 66.890625 0 
L 66.890625 64.015625 
L 48.09375 14.015625 
L 38.1875 14.015625 
L 19.390625 64.015625 
L 19.390625 0 
L 9.8125 0 
z
" id="DejaVuSans-77"/>
      <path d="M 34.1875 63.1875 
L 20.796875 26.90625 
L 47.609375 26.90625 
z
M 28.609375 72.90625 
L 39.796875 72.90625 
L 67.578125 0 
L 57.328125 0 
L 50.6875 18.703125 
L 17.828125 18.703125 
L 11.1875 0 
L 0.78125 0 
z
" id="DejaVuSans-65"/>
      <path d="M 9.8125 72.90625 
L 51.703125 72.90625 
L 51.703125 64.59375 
L 19.671875 64.59375 
L 19.671875 43.109375 
L 48.578125 43.109375 
L 48.578125 34.8125 
L 19.671875 34.8125 
L 19.671875 0 
L 9.8125 0 
z
" id="DejaVuSans-70"/>
     </defs>
     <g transform="translate(47.857813 208.208419)rotate(-90)scale(0.26 -0.26)">
      <use xlink:href="#DejaVuSans-86"/>
      <use x="68.408203" xlink:href="#DejaVuSans-77"/>
      <use x="154.6875" xlink:href="#DejaVuSans-65"/>
      <use x="223.095703" xlink:href="#DejaVuSans-70"/>
     </g>
    </g>
   </g>
   <g id="line2d_11">
    <path clip-path="url(#p76f14d855e)" style="fill:none;stroke:#808080;stroke-linecap:square;stroke-width:0.4;"/>
   </g>
   <g id="line2d_12">
    <path clip-path="url(#p76f14d855e)" style="fill:none;stroke:#808080;stroke-linecap:square;stroke-width:0.4;"/>
   </g>
   <g id="line2d_13">
    <path clip-path="url(#p76f14d855e)" style="fill:none;stroke:#808080;stroke-linecap:square;stroke-width:0.4;"/>
   </g>
   <g id="line2d_14">
    <path clip-path="url(#p76f14d855e)" style="fill:none;stroke:#808080;stroke-linecap:square;stroke-width:0.4;"/>
   </g>
   <g id="line2d_15">
    <path clip-path="url(#p76f14d855e)" style="fill:none;stroke:#808080;stroke-linecap:square;stroke-width:0.4;"/>
   </g>
   <g id="line2d_16">
    <path clip-path="url(#p76f14d855e)" style="fill:none;stroke:#808080;stroke-linecap:square;stroke-width:0.4;"/>
   </g>
   <g id="line2d_17">
    <path clip-path="url(#p76f14d855e)" style="fill:none;stroke:#808080;stroke-linecap:square;stroke-width:0.4;"/>
   </g>
   <g id="line2d_18">
    <path clip-path="url(#p76f14d855e)" style="fill:none;stroke:#808080;stroke-linecap:square;stroke-width:0.4;"/>
   </g>
   <g id="line2d_19">
    <path clip-path="url(#p76f14d855e)" style="fill:none;stroke:#808080;stroke-linecap:square;stroke-width:0.4;"/>
   </g>
   <g id="line2d_20">
    <path clip-path="url(#p76f14d855e)" style="fill:none;stroke:#808080;stroke-linecap:square;stroke-width:0.4;"/>
   </g>
   <g id="line2d_21">
    <path clip-path="url(#p76f14d855e)" style="fill:none;stroke:#808080;stroke-linecap:square;stroke-width:0.4;"/>
   </g>
   <g id="line2d_22">
    <path clip-path="url(#p76f14d855e)" style="fill:none;stroke:#808080;stroke-linecap:square;stroke-width:0.4;"/>
   </g>
   <g id="line2d_23">
    <path clip-path="url(#p76f14d855e)" style="fill:none;stroke:#808080;stroke-linecap:square;stroke-width:0.4;"/>
   </g>
   <g id="line2d_24">
    <path clip-path="url(#p76f14d855e)" style="fill:none;stroke:#808080;stroke-linecap:square;stroke-width:0.4;"/>
   </g>
   <g id="line2d_25">
    <path clip-path="url(#p76f14d855e)" style="fill:none;stroke:#808080;stroke-linecap:square;stroke-width:0.4;"/>
   </g>
   <g id="line2d_26">
    <path clip-path="url(#p76f14d855e)" style="fill:none;stroke:#808080;stroke-linecap:square;stroke-width:0.4;"/>
   </g>
   <g id="line2d_27">
    <path clip-path="url(#p76f14d855e)" style="fill:none;stroke:#808080;stroke-linecap:square;stroke-width:0.4;"/>
   </g>
   <g id="line2d_28">
    <path clip-path="url(#p76f14d855e)" style="fill:none;stroke:#808080;stroke-linecap:square;stroke-width:0.4;"/>
   </g>
   <g id="line2d_29">
    <path clip-path="url(#p76f14d855e)" style="fill:none;stroke:#808080;stroke-linecap:square;stroke-width:0.4;"/>
   </g>
   <g id="line2d_30">
    <path clip-path="url(#p76f14d855e)" style="fill:none;stroke:#808080;stroke-linecap:square;stroke-width:0.4;"/>
   </g>
   <g id="line2d_31">
    <path clip-path="url(#p76f14d855e)" style="fill:none;stroke:#808080;stroke-linecap:square;stroke-width:0.4;"/>
   </g>
   <g id="line2d_32">
    <path clip-path="url(#p76f14d855e)" style="fill:none;stroke:#808080;stroke-linecap:square;stroke-width:0.4;"/>
   </g>
   <g id="line2d_33">
    <path clip-path="url(#p76f14d855e)" style="fill:none;stroke:#808080;stroke-linecap:square;stroke-width:0.4;"/>
   </g>
   <g id="line2d_34">
    <path clip-path="url(#p76f14d855e)" style="fill:none;stroke:#808080;stroke-linecap:square;stroke-width:0.4;"/>
   </g>
   <g id="line2d_35">
    <path clip-path="url(#p76f14d855e)" style="fill:none;stroke:#808080;stroke-linecap:square;stroke-width:0.4;"/>
   </g>
   <g id="line2d_36">
    <path clip-path="url(#p76f14d855e)" style="fill:none;stroke:#808080;stroke-linecap:square;stroke-width:0.4;"/>
   </g>
   <g id="line2d_37">
    <path clip-path="url(#p76f14d855e)" style="fill:none;stroke:#808080;stroke-linecap:square;stroke-width:0.4;"/>
   </g>
   <g id="line2d_38">
    <path clip-path="url(#p76f14d855e)" style="fill:none;stroke:#808080;stroke-linecap:square;stroke-width:0.4;"/>
   </g>
   <g id="line2d_39">
    <path clip-path="url(#p76f14d855e)" style="fill:none;stroke:#808080;stroke-linecap:square;stroke-width:0.4;"/>
   </g>
   <g id="line2d_40">
    <path clip-path="url(#p76f14d855e)" style="fill:none;stroke:#808080;stroke-linecap:square;stroke-width:0.4;"/>
   </g>
   <g id="line2d_41">
    <path clip-path="url(#p76f14d855e)" d="M 113.8925 518.105333 
L 893.52 518.105333 
" style="fill:none;stroke:#808080;stroke-linecap:square;stroke-width:0.4;"/>
   </g>
   <g id="line2d_42">
    <path clip-path="url(#p76f14d855e)" d="M 113.8925 511.2464 
L 893.52 511.2464 
" style="fill:none;stroke:#808080;stroke-linecap:square;stroke-width:0.4;"/>
   </g>
   <g id="line2d_43">
    <path clip-path="url(#p76f14d855e)" d="M 113.8925 504.387467 
L 893.52 504.387467 
" style="fill:none;stroke:#808080;stroke-linecap:square;stroke-width:0.4;"/>
   </g>
   <g id="line2d_44">
    <path clip-path="url(#p76f14d855e)" d="M 113.8925 497.528533 
L 893.52 497.528533 
" style="fill:none;stroke:#808080;stroke-linecap:square;stroke-width:0.4;"/>
   </g>
   <g id="line2d_45">
    <path clip-path="url(#p76f14d855e)" d="M 113.8925 490.6696 
L 893.52 490.6696 
" style="fill:none;stroke:#808080;stroke-linecap:square;stroke-width:0.4;"/>
   </g>
   <g id="line2d_46">
    <path clip-path="url(#p76f14d855e)" d="M 113.8925 483.810667 
L 893.52 483.810667 
" style="fill:none;stroke:#808080;stroke-linecap:square;stroke-width:0.4;"/>
   </g>
   <g id="line2d_47">
    <path clip-path="url(#p76f14d855e)" d="M 113.8925 476.951733 
L 893.52 476.951733 
" style="fill:none;stroke:#808080;stroke-linecap:square;stroke-width:0.4;"/>
   </g>
   <g id="line2d_48">
    <path clip-path="url(#p76f14d855e)" d="M 113.8925 470.0928 
L 893.52 470.0928 
" style="fill:none;stroke:#808080;stroke-linecap:square;stroke-width:0.4;"/>
   </g>
   <g id="line2d_49">
    <path clip-path="url(#p76f14d855e)" d="M 113.8925 463.233867 
L 893.52 463.233867 
" style="fill:none;stroke:#808080;stroke-linecap:square;stroke-width:0.4;"/>
   </g>
   <g id="line2d_50">
    <path clip-path="url(#p76f14d855e)" d="M 113.8925 456.374933 
L 893.52 456.374933 
" style="fill:none;stroke:#808080;stroke-linecap:square;stroke-width:0.4;"/>
   </g>
   <g id="line2d_51">
    <path clip-path="url(#p76f14d855e)" d="M 113.8925 449.516 
L 893.52 449.516 
" style="fill:none;stroke:#808080;stroke-linecap:square;stroke-width:0.4;"/>
   </g>
   <g id="line2d_52">
    <path clip-path="url(#p76f14d855e)" d="M 113.8925 442.657067 
L 893.52 442.657067 
" style="fill:none;stroke:#808080;stroke-linecap:square;stroke-width:0.4;"/>
   </g>
   <g id="line2d_53">
    <path clip-path="url(#p76f14d855e)" d="M 113.8925 435.798133 
L 893.52 435.798133 
" style="fill:none;stroke:#808080;stroke-linecap:square;stroke-width:0.4;"/>
   </g>
   <g id="line2d_54">
    <path clip-path="url(#p76f14d855e)" d="M 113.8925 428.9392 
L 893.52 428.9392 
" style="fill:none;stroke:#808080;stroke-linecap:square;stroke-width:0.4;"/>
   </g>
   <g id="line2d_55">
    <path clip-path="url(#p76f14d855e)" d="M 113.8925 422.080267 
L 893.52 422.080267 
" style="fill:none;stroke:#808080;stroke-linecap:square;stroke-width:0.4;"/>
   </g>
   <g id="line2d_56">
    <path clip-path="url(#p76f14d855e)" d="M 113.8925 415.221333 
L 893.52 415.221333 
" style="fill:none;stroke:#808080;stroke-linecap:square;stroke-width:0.4;"/>
   </g>
   <g id="line2d_57">
    <path clip-path="url(#p76f14d855e)" d="M 113.8925 408.3624 
L 893.52 408.3624 
" style="fill:none;stroke:#808080;stroke-linecap:square;stroke-width:0.4;"/>
   </g>
   <g id="line2d_58">
    <path clip-path="url(#p76f14d855e)" d="M 113.8925 401.503467 
L 893.52 401.503467 
" style="fill:none;stroke:#808080;stroke-linecap:square;stroke-width:0.4;"/>
   </g>
   <g id="line2d_59">
    <path clip-path="url(#p76f14d855e)" d="M 113.8925 394.644533 
L 893.52 394.644533 
" style="fill:none;stroke:#808080;stroke-linecap:square;stroke-width:0.4;"/>
   </g>
   <g id="line2d_60">
    <path clip-path="url(#p76f14d855e)" d="M 113.8925 387.7856 
L 893.52 387.7856 
" style="fill:none;stroke:#808080;stroke-linecap:square;stroke-width:0.4;"/>
   </g>
   <g id="line2d_61">
    <path clip-path="url(#p76f14d855e)" d="M 113.8925 380.926667 
L 893.52 380.926667 
" style="fill:none;stroke:#808080;stroke-linecap:square;stroke-width:0.4;"/>
   </g>
   <g id="line2d_62">
    <path clip-path="url(#p76f14d855e)" d="M 113.8925 374.067733 
L 893.52 374.067733 
" style="fill:none;stroke:#808080;stroke-linecap:square;stroke-width:0.4;"/>
   </g>
   <g id="line2d_63">
    <path clip-path="url(#p76f14d855e)" d="M 113.8925 367.2088 
L 893.52 367.2088 
" style="fill:none;stroke:#808080;stroke-linecap:square;stroke-width:0.4;"/>
   </g>
   <g id="line2d_64">
    <path clip-path="url(#p76f14d855e)" d="M 113.8925 360.349867 
L 893.52 360.349867 
" style="fill:none;stroke:#808080;stroke-linecap:square;stroke-width:0.4;"/>
   </g>
   <g id="line2d_65">
    <path clip-path="url(#p76f14d855e)" d="M 113.8925 353.490933 
L 893.52 353.490933 
" style="fill:none;stroke:#808080;stroke-linecap:square;stroke-width:0.4;"/>
   </g>
   <g id="line2d_66">
    <path clip-path="url(#p76f14d855e)" d="M 113.8925 346.632 
L 893.52 346.632 
" style="fill:none;stroke:#808080;stroke-linecap:square;stroke-width:0.4;"/>
   </g>
   <g id="line2d_67">
    <path clip-path="url(#p76f14d855e)" d="M 113.8925 339.773067 
L 893.52 339.773067 
" style="fill:none;stroke:#808080;stroke-linecap:square;stroke-width:0.4;"/>
   </g>
   <g id="line2d_68">
    <path clip-path="url(#p76f14d855e)" d="M 113.8925 332.914133 
L 893.52 332.914133 
" style="fill:none;stroke:#808080;stroke-linecap:square;stroke-width:0.4;"/>
   </g>
   <g id="line2d_69">
    <path clip-path="url(#p76f14d855e)" d="M 113.8925 326.0552 
L 893.52 326.0552 
" style="fill:none;stroke:#808080;stroke-linecap:square;stroke-width:0.4;"/>
   </g>
   <g id="line2d_70">
    <path clip-path="url(#p76f14d855e)" d="M 113.8925 319.196267 
L 893.52 319.196267 
" style="fill:none;stroke:#808080;stroke-linecap:square;stroke-width:0.4;"/>
   </g>
   <g id="line2d_71">
    <path clip-path="url(#p76f14d855e)" d="M 113.8925 312.337333 
L 893.52 312.337333 
" style="fill:none;stroke:#808080;stroke-linecap:square;stroke-width:0.4;"/>
   </g>
   <g id="line2d_72">
    <path clip-path="url(#p76f14d855e)" d="M 113.8925 305.4784 
L 893.52 305.4784 
" style="fill:none;stroke:#808080;stroke-linecap:square;stroke-width:0.4;"/>
   </g>
   <g id="line2d_73">
    <path clip-path="url(#p76f14d855e)" d="M 113.8925 298.619467 
L 893.52 298.619467 
" style="fill:none;stroke:#808080;stroke-linecap:square;stroke-width:0.4;"/>
   </g>
   <g id="line2d_74">
    <path clip-path="url(#p76f14d855e)" d="M 113.8925 291.760533 
L 893.52 291.760533 
" style="fill:none;stroke:#808080;stroke-linecap:square;stroke-width:0.4;"/>
   </g>
   <g id="line2d_75">
    <path clip-path="url(#p76f14d855e)" d="M 113.8925 284.9016 
L 893.52 284.9016 
" style="fill:none;stroke:#808080;stroke-linecap:square;stroke-width:0.4;"/>
   </g>
   <g id="line2d_76">
    <path clip-path="url(#p76f14d855e)" d="M 113.8925 278.042667 
L 893.52 278.042667 
" style="fill:none;stroke:#808080;stroke-linecap:square;stroke-width:0.4;"/>
   </g>
   <g id="line2d_77">
    <path clip-path="url(#p76f14d855e)" d="M 113.8925 271.183733 
L 893.52 271.183733 
" style="fill:none;stroke:#808080;stroke-linecap:square;stroke-width:0.4;"/>
   </g>
   <g id="line2d_78">
    <path clip-path="url(#p76f14d855e)" d="M 113.8925 264.3248 
L 893.52 264.3248 
" style="fill:none;stroke:#808080;stroke-linecap:square;stroke-width:0.4;"/>
   </g>
   <g id="line2d_79">
    <path clip-path="url(#p76f14d855e)" d="M 113.8925 257.465867 
L 893.52 257.465867 
" style="fill:none;stroke:#808080;stroke-linecap:square;stroke-width:0.4;"/>
   </g>
   <g id="line2d_80">
    <path clip-path="url(#p76f14d855e)" d="M 113.8925 250.606933 
L 893.52 250.606933 
" style="fill:none;stroke:#808080;stroke-linecap:square;stroke-width:0.4;"/>
   </g>
   <g id="line2d_81">
    <path clip-path="url(#p76f14d855e)" d="M 113.8925 243.748 
L 893.52 243.748 
" style="fill:none;stroke:#808080;stroke-linecap:square;stroke-width:0.4;"/>
   </g>
   <g id="line2d_82">
    <path clip-path="url(#p76f14d855e)" d="M 113.8925 236.889067 
L 893.52 236.889067 
" style="fill:none;stroke:#808080;stroke-linecap:square;stroke-width:0.4;"/>
   </g>
   <g id="line2d_83">
    <path clip-path="url(#p76f14d855e)" d="M 113.8925 230.030133 
L 893.52 230.030133 
" style="fill:none;stroke:#808080;stroke-linecap:square;stroke-width:0.4;"/>
   </g>
   <g id="line2d_84">
    <path clip-path="url(#p76f14d855e)" d="M 113.8925 223.1712 
L 893.52 223.1712 
" style="fill:none;stroke:#808080;stroke-linecap:square;stroke-width:0.4;"/>
   </g>
   <g id="line2d_85">
    <path clip-path="url(#p76f14d855e)" d="M 113.8925 216.312267 
L 893.52 216.312267 
" style="fill:none;stroke:#808080;stroke-linecap:square;stroke-width:0.4;"/>
   </g>
   <g id="line2d_86">
    <path clip-path="url(#p76f14d855e)" d="M 113.8925 209.453333 
L 893.52 209.453333 
" style="fill:none;stroke:#808080;stroke-linecap:square;stroke-width:0.4;"/>
   </g>
   <g id="line2d_87">
    <path clip-path="url(#p76f14d855e)" d="M 113.8925 202.5944 
L 893.52 202.5944 
" style="fill:none;stroke:#808080;stroke-linecap:square;stroke-width:0.4;"/>
   </g>
   <g id="line2d_88">
    <path clip-path="url(#p76f14d855e)" d="M 113.8925 195.735467 
L 893.52 195.735467 
" style="fill:none;stroke:#808080;stroke-linecap:square;stroke-width:0.4;"/>
   </g>
   <g id="line2d_89">
    <path clip-path="url(#p76f14d855e)" d="M 113.8925 188.876533 
L 893.52 188.876533 
" style="fill:none;stroke:#808080;stroke-linecap:square;stroke-width:0.4;"/>
   </g>
   <g id="line2d_90">
    <path clip-path="url(#p76f14d855e)" d="M 113.8925 182.0176 
L 893.52 182.0176 
" style="fill:none;stroke:#808080;stroke-linecap:square;stroke-width:0.4;"/>
   </g>
   <g id="line2d_91">
    <path clip-path="url(#p76f14d855e)" d="M 113.8925 175.158667 
L 893.52 175.158667 
" style="fill:none;stroke:#808080;stroke-linecap:square;stroke-width:0.4;"/>
   </g>
   <g id="line2d_92">
    <path clip-path="url(#p76f14d855e)" d="M 113.8925 168.299733 
L 893.52 168.299733 
" style="fill:none;stroke:#808080;stroke-linecap:square;stroke-width:0.4;"/>
   </g>
   <g id="line2d_93">
    <path clip-path="url(#p76f14d855e)" d="M 113.8925 161.4408 
L 893.52 161.4408 
" style="fill:none;stroke:#808080;stroke-linecap:square;stroke-width:0.4;"/>
   </g>
   <g id="line2d_94">
    <path clip-path="url(#p76f14d855e)" d="M 113.8925 154.581867 
L 893.52 154.581867 
" style="fill:none;stroke:#808080;stroke-linecap:square;stroke-width:0.4;"/>
   </g>
   <g id="line2d_95">
    <path clip-path="url(#p76f14d855e)" d="M 113.8925 147.722933 
L 893.52 147.722933 
" style="fill:none;stroke:#808080;stroke-linecap:square;stroke-width:0.4;"/>
   </g>
   <g id="line2d_96">
    <path clip-path="url(#p76f14d855e)" d="M 113.8925 140.864 
L 893.52 140.864 
" style="fill:none;stroke:#808080;stroke-linecap:square;stroke-width:0.4;"/>
   </g>
   <g id="line2d_97">
    <path clip-path="url(#p76f14d855e)" d="M 113.8925 134.005067 
L 893.52 134.005067 
" style="fill:none;stroke:#808080;stroke-linecap:square;stroke-width:0.4;"/>
   </g>
   <g id="line2d_98">
    <path clip-path="url(#p76f14d855e)" d="M 113.8925 127.146133 
L 893.52 127.146133 
" style="fill:none;stroke:#808080;stroke-linecap:square;stroke-width:0.4;"/>
   </g>
   <g id="line2d_99">
    <path clip-path="url(#p76f14d855e)" d="M 113.8925 120.2872 
L 893.52 120.2872 
" style="fill:none;stroke:#808080;stroke-linecap:square;stroke-width:0.4;"/>
   </g>
   <g id="line2d_100">
    <path clip-path="url(#p76f14d855e)" d="M 113.8925 113.428267 
L 893.52 113.428267 
" style="fill:none;stroke:#808080;stroke-linecap:square;stroke-width:0.4;"/>
   </g>
   <g id="line2d_101">
    <path clip-path="url(#p76f14d855e)" d="M 113.8925 106.569333 
L 893.52 106.569333 
" style="fill:none;stroke:#808080;stroke-linecap:square;stroke-width:0.4;"/>
   </g>
   <g id="line2d_102">
    <path clip-path="url(#p76f14d855e)" d="M 113.8925 99.7104 
L 893.52 99.7104 
" style="fill:none;stroke:#808080;stroke-linecap:square;stroke-width:0.4;"/>
   </g>
   <g id="line2d_103">
    <path clip-path="url(#p76f14d855e)" d="M 113.8925 92.851467 
L 893.52 92.851467 
" style="fill:none;stroke:#808080;stroke-linecap:square;stroke-width:0.4;"/>
   </g>
   <g id="line2d_104">
    <path clip-path="url(#p76f14d855e)" d="M 113.8925 85.992533 
L 893.52 85.992533 
" style="fill:none;stroke:#808080;stroke-linecap:square;stroke-width:0.4;"/>
   </g>
   <g id="line2d_105">
    <path clip-path="url(#p76f14d855e)" d="M 113.8925 79.1336 
L 893.52 79.1336 
" style="fill:none;stroke:#808080;stroke-linecap:square;stroke-width:0.4;"/>
   </g>
   <g id="line2d_106">
    <path clip-path="url(#p76f14d855e)" d="M 113.8925 72.274667 
L 893.52 72.274667 
" style="fill:none;stroke:#808080;stroke-linecap:square;stroke-width:0.4;"/>
   </g>
   <g id="line2d_107">
    <path clip-path="url(#p76f14d855e)" d="M 113.8925 65.415733 
L 893.52 65.415733 
" style="fill:none;stroke:#808080;stroke-linecap:square;stroke-width:0.4;"/>
   </g>
   <g id="line2d_108">
    <path clip-path="url(#p76f14d855e)" d="M 113.8925 58.5568 
L 893.52 58.5568 
" style="fill:none;stroke:#808080;stroke-linecap:square;stroke-width:0.4;"/>
   </g>
   <g id="line2d_109">
    <path clip-path="url(#p76f14d855e)" d="M 113.8925 51.697867 
L 893.52 51.697867 
" style="fill:none;stroke:#808080;stroke-linecap:square;stroke-width:0.4;"/>
   </g>
   <g id="line2d_110">
    <path clip-path="url(#p76f14d855e)" d="M 113.8925 44.838933 
L 893.52 44.838933 
" style="fill:none;stroke:#808080;stroke-linecap:square;stroke-width:0.4;"/>
   </g>
   <g id="line2d_111">
    <path clip-path="url(#p76f14d855e)" style="fill:none;stroke:#000000;stroke-linecap:square;stroke-width:0.6;"/>
   </g>
   <g id="line2d_112">
    <path clip-path="url(#p76f14d855e)" style="fill:none;stroke:#000000;stroke-linecap:square;stroke-width:0.6;"/>
   </g>
   <g id="line2d_113">
    <path clip-path="url(#p76f14d855e)" style="fill:none;stroke:#000000;stroke-linecap:square;stroke-width:0.6;"/>
   </g>
   <g id="line2d_114">
    <path clip-path="url(#p76f14d855e)" style="fill:none;stroke:#000000;stroke-linecap:square;stroke-width:0.6;"/>
   </g>
   <g id="line2d_115">
    <path clip-path="url(#p76f14d855e)" style="fill:none;stroke:#000000;stroke-linecap:square;stroke-width:0.6;"/>
   </g>
   <g id="line2d_116">
    <path clip-path="url(#p76f14d855e)" style="fill:none;stroke:#000000;stroke-linecap:square;stroke-width:0.6;"/>
   </g>
   <g id="line2d_117">
    <path clip-path="url(#p76f14d855e)" d="M 113.8925 518.105333 
L 893.52 518.105333 
" style="fill:none;stroke:#000000;stroke-linecap:square;stroke-width:0.6;"/>
   </g>
   <g id="line2d_118">
    <path clip-path="url(#p76f14d855e)" d="M 113.8925 483.810667 
L 893.52 483.810667 
" style="fill:none;stroke:#000000;stroke-linecap:square;stroke-width:0.6;"/>
   </g>
   <g id="line2d_119">
    <path clip-path="url(#p76f14d855e)" d="M 113.8925 449.516 
L 893.52 449.516 
" style="fill:none;stroke:#000000;stroke-linecap:square;stroke-width:0.6;"/>
   </g>
   <g id="line2d_120">
    <path clip-path="url(#p76f14d855e)" d="M 113.8925 415.221333 
L 893.52 415.221333 
" style="fill:none;stroke:#000000;stroke-linecap:square;stroke-width:0.6;"/>
   </g>
   <g id="line2d_121">
    <path clip-path="url(#p76f14d855e)" d="M 113.8925 380.926667 
L 893.52 380.926667 
" style="fill:none;stroke:#000000;stroke-linecap:square;stroke-width:0.6;"/>
   </g>
   <g id="line2d_122">
    <path clip-path="url(#p76f14d855e)" d="M 113.8925 346.632 
L 893.52 346.632 
" style="fill:none;stroke:#000000;stroke-linecap:square;stroke-width:0.6;"/>
   </g>
   <g id="line2d_123">
    <path clip-path="url(#p76f14d855e)" d="M 113.8925 312.337333 
L 893.52 312.337333 
" style="fill:none;stroke:#000000;stroke-linecap:square;stroke-width:0.6;"/>
   </g>
   <g id="line2d_124">
    <path clip-path="url(#p76f14d855e)" d="M 113.8925 278.042667 
L 893.52 278.042667 
" style="fill:none;stroke:#000000;stroke-linecap:square;stroke-width:0.6;"/>
   </g>
   <g id="line2d_125">
    <path clip-path="url(#p76f14d855e)" d="M 113.8925 243.748 
L 893.52 243.748 
" style="fill:none;stroke:#000000;stroke-linecap:square;stroke-width:0.6;"/>
   </g>
   <g id="line2d_126">
    <path clip-path="url(#p76f14d855e)" d="M 113.8925 209.453333 
L 893.52 209.453333 
" style="fill:none;stroke:#000000;stroke-linecap:square;stroke-width:0.6;"/>
   </g>
   <g id="line2d_127">
    <path clip-path="url(#p76f14d855e)" d="M 113.8925 175.158667 
L 893.52 175.158667 
" style="fill:none;stroke:#000000;stroke-linecap:square;stroke-width:0.6;"/>
   </g>
   <g id="line2d_128">
    <path clip-path="url(#p76f14d855e)" d="M 113.8925 140.864 
L 893.52 140.864 
" style="fill:none;stroke:#000000;stroke-linecap:square;stroke-width:0.6;"/>
   </g>
   <g id="line2d_129">
    <path clip-path="url(#p76f14d855e)" d="M 113.8925 106.569333 
L 893.52 106.569333 
" style="fill:none;stroke:#000000;stroke-linecap:square;stroke-width:0.6;"/>
   </g>
   <g id="line2d_130">
    <path clip-path="url(#p76f14d855e)" d="M 113.8925 72.274667 
L 893.52 72.274667 
" style="fill:none;stroke:#000000;stroke-linecap:square;stroke-width:0.6;"/>
   </g>
   <g id="line2d_131">
    <path clip-path="url(#p76f14d855e)" d="M 113.8925 161.728875 
L 115.391784 149.808049 
L 116.891067 155.78218 
L 118.390351 134.567499 
L 119.889635 154.04687 
L 121.388918 151.001503 
L 122.888202 156.845315 
L 124.387486 112.015326 
L 125.886769 146.419736 
L 127.386053 149.986381 
L 128.885337 154.581867 
L 130.38462 135.918709 
L 131.883904 167.833326 
L 133.383188 162.750856 
L 134.882471 173.361626 
L 136.381755 122.873018 
L 137.881038 152.771108 
L 139.380322 153.14835 
L 140.879606 167.778454 
L 142.378889 156.262305 
L 143.878173 180.645813 
L 145.377457 174.6854 
L 146.87674 178.35493 
L 148.376024 136.378258 
L 149.875308 200.708193 
L 151.374591 193.972721 
L 152.873875 209.021221 
L 154.373159 171.009012 
L 155.872442 185.817449 
L 157.371726 166.948523 
L 158.87101 162.79201 
L 160.370293 98.496369 
L 161.869577 138.74459 
L 163.368861 151.371886 
L 164.868144 169.081652 
L 166.367428 165.377828 
L 167.866712 198.046927 
L 169.365995 189.775054 
L 170.865279 188.334678 
L 172.364563 130.630471 
L 173.863846 159.89754 
L 175.36313 166.749614 
L 176.862413 188.663906 
L 178.361697 158.731521 
L 179.860981 178.972234 
L 181.360264 159.952411 
L 182.859548 167.058266 
L 184.358832 119.807075 
L 185.858115 192.635229 
L 187.357399 183.890089 
L 188.856683 158.114217 
L 190.355966 73.317225 
L 191.85525 128.222986 
L 193.354534 192.75869 
L 194.853817 209.542499 
L 196.353101 174.095532 
L 197.852385 212.196907 
L 199.351668 212.340944 
L 200.850952 219.577119 
L 202.350236 201.085435 
L 203.849519 248.274896 
L 205.348803 203.698688 
L 206.848087 199.617623 
L 208.34737 132.173731 
L 209.846654 183.149324 
L 211.345937 220.811727 
L 212.845221 215.235414 
L 214.344505 240.352828 
L 215.843788 212.210625 
L 217.343072 215.921307 
L 218.842356 175.947444 
L 220.341639 267.932599 
L 221.840923 253.453391 
L 223.340207 209.700255 
L 224.83949 225.146573 
L 226.338774 198.34872 
L 227.838058 191.352608 
L 229.337341 138.449655 
L 230.836625 102.659741 
L 232.335909 116.988053 
L 233.835192 116.199276 
L 235.334476 126.432804 
L 236.83376 121.384629 
L 238.333043 136.549731 
L 239.832327 125.479413 
L 241.331611 140.232978 
L 242.830894 100.019052 
L 244.330178 122.996479 
L 245.829462 112.090775 
L 247.328745 126.645431 
L 248.828029 118.469583 
L 250.327313 123.250259 
L 251.826596 101.82981 
L 253.32588 100.382575 
L 254.825163 100.704945 
L 256.324447 124.937557 
L 257.823731 116.459915 
L 259.323014 129.533042 
L 260.822298 117.468178 
L 262.321582 133.874747 
L 263.820865 131.295788 
L 265.320149 133.641543 
L 266.819433 122.612378 
L 268.318716 146.076789 
L 269.818 151.289579 
L 271.317284 159.51344 
L 272.816567 144.965642 
L 274.315851 156.920763 
L 275.815135 146.378582 
L 277.314418 146.666658 
L 278.813702 112.756091 
L 280.312986 127.502798 
L 281.812269 139.224715 
L 283.311553 129.217531 
L 284.810837 145.246858 
L 286.31012 139.636251 
L 287.809404 142.866809 
L 289.308688 147.133065 
L 290.807971 107.371829 
L 292.307255 120.623288 
L 293.806538 123.730385 
L 295.305822 134.937882 
L 296.805106 122.440905 
L 298.304389 136.508577 
L 299.803673 133.620966 
L 301.302957 129.533042 
L 302.80224 108.414386 
L 304.301524 135.904991 
L 305.800808 138.970934 
L 307.300091 151.358168 
L 308.799375 125.033582 
L 310.298659 122.818146 
L 311.797942 131.823926 
L 313.297226 135.712941 
L 314.79651 106.322412 
L 316.295793 126.624854 
L 317.795077 129.334133 
L 319.294361 134.574358 
L 320.793644 120.60957 
L 322.292928 132.983086 
L 323.792212 126.473958 
L 325.291495 131.522133 
L 326.790779 108.39381 
L 328.290062 128.716829 
L 329.789346 125.534284 
L 331.28863 133.216289 
L 332.787913 114.004417 
L 334.287197 121.137708 
L 335.786481 125.280503 
L 337.285764 128.284716 
L 338.785048 95.053184 
L 340.284332 118.147213 
L 341.783615 120.93194 
L 343.282899 130.170923 
L 344.782183 116.898887 
L 346.281466 129.437017 
L 347.78075 124.999287 
L 349.280034 130.589318 
L 350.779317 124.388842 
L 352.278601 149.019272 
L 353.777885 145.10968 
L 355.277168 147.057617 
L 356.776452 134.82128 
L 358.275736 145.095962 
L 359.775019 143.017705 
L 361.274303 142.180915 
L 362.773587 117.687664 
L 364.27287 133.422057 
L 365.772154 93.249285 
L 367.271438 116.946899 
L 368.770721 113.078461 
L 370.270005 119.573871 
L 371.769288 101.733785 
L 373.268572 122.159689 
L 374.767856 114.813771 
L 376.267139 130.904829 
L 377.766423 77.754954 
L 379.265707 120.945658 
L 380.76499 133.991349 
L 382.264274 138.737731 
L 383.763558 125.49313 
L 385.262841 152.400726 
L 386.762125 139.883173 
L 388.261409 135.308264 
L 389.760692 78.070465 
L 391.259976 118.963426 
L 392.75926 134.444038 
L 394.258543 145.178269 
L 395.757827 138.092991 
L 397.257111 145.178269 
L 398.756394 128.380741 
L 400.255678 110.238863 
L 401.754962 97.940795 
L 403.254245 130.184641 
L 404.753529 148.182482 
L 406.252813 162.59996 
L 407.752096 135.301405 
L 409.25138 161.104712 
L 410.750663 146.255122 
L 412.249947 149.197604 
L 413.749231 78.886678 
L 415.248514 108.345797 
L 416.747798 117.920868 
L 418.247082 122.694686 
L 419.746365 134.032502 
L 421.245649 169.211971 
L 422.744933 160.631446 
L 424.244216 156.982493 
L 425.7435 109.786173 
L 427.242784 152.290983 
L 428.742067 152.771108 
L 430.241351 168.141978 
L 431.740635 147.496589 
L 433.239918 145.665253 
L 434.739202 128.037795 
L 436.238486 123.222823 
L 437.737769 103.263327 
L 439.237053 151.269002 
L 440.736337 149.622858 
L 442.23562 133.483788 
L 443.734904 169.088511 
L 445.234187 159.780938 
L 446.733471 158.29255 
L 448.232755 128.490484 
L 449.732038 153.923409 
L 451.231322 67.747771 
L 452.730606 92.824031 
L 454.229889 55.710343 
L 455.729173 152.606494 
L 457.228457 158.340562 
L 458.72774 157.318581 
L 460.227024 96.411253 
L 461.726308 122.694686 
L 464.724875 159.657477 
L 466.224159 143.717316 
L 467.723442 164.575333 
L 469.222726 150.000099 
L 470.72201 143.072577 
L 472.221293 99.360594 
L 473.720577 174.10925 
L 475.219861 153.539309 
L 476.719144 151.365027 
L 478.218428 138.758307 
L 479.717712 166.9691 
L 481.216995 158.457164 
L 482.716279 157.469478 
L 484.215563 95.567604 
L 485.714846 139.457919 
L 487.21413 172.127018 
L 488.713413 159.095045 
L 490.212697 172.291633 
L 491.711981 187.888847 
L 493.211264 151.111246 
L 494.710548 172.559131 
L 496.209832 162.538229 
L 497.709115 147.462294 
L 499.208399 156.982493 
L 500.707683 135.308264 
L 502.206966 86.822464 
L 503.70625 105.36902 
L 505.205534 117.7151 
L 506.704817 117.399589 
L 508.204101 130.335537 
L 509.703385 121.151426 
L 511.202668 142.503285 
L 512.701952 116.761708 
L 514.201236 132.077706 
L 515.700519 106.342989 
L 517.199803 127.982923 
L 518.699087 120.726172 
L 520.19837 130.760791 
L 521.697654 119.861946 
L 523.196937 120.760466 
L 524.696221 111.665521 
L 526.195505 113.579163 
L 527.694788 81.746854 
L 529.194072 111.644944 
L 530.693356 105.087804 
L 532.192639 112.900129 
L 533.691923 98.530663 
L 535.191207 129.292979 
L 536.69049 123.88814 
L 538.189774 123.819551 
L 539.689058 102.687177 
L 541.188341 121.233733 
L 542.687625 112.865834 
L 544.186909 115.986649 
L 545.686192 120.47925 
L 547.185476 133.888465 
L 548.68476 109.210023 
L 550.184043 107.735352 
L 551.683327 66.08105 
L 553.182611 97.179454 
L 554.681894 88.626364 
L 556.181178 93.166978 
L 557.680462 78.461425 
L 559.179745 99.51835 
L 560.679029 100.965585 
L 562.178312 93.338451 
L 563.677596 70.018078 
L 565.17688 90.711479 
L 566.676163 100.252256 
L 568.175447 103.798324 
L 569.674731 91.630577 
L 571.174014 106.432155 
L 574.172582 80.628847 
L 575.671865 37.98 
L 577.171149 79.990967 
L 578.670433 88.530339 
L 580.169716 104.573384 
L 581.669 89.579755 
L 583.168284 110.170273 
L 584.667567 121.727576 
L 586.166851 127.626259 
L 587.666135 105.938311 
L 589.165418 146.831272 
L 590.664702 136.734922 
L 592.163986 130.06118 
L 593.663269 116.583376 
L 595.162553 127.934911 
L 596.661837 111.795841 
L 598.16112 97.981949 
L 599.660404 55.895534 
L 601.159688 102.467691 
L 602.658971 104.038387 
L 604.158255 100.293409 
L 605.657538 97.055993 
L 607.156822 121.12399 
L 608.656106 119.827651 
L 610.155389 113.949546 
L 611.654673 84.072032 
L 613.153957 105.595365 
L 614.65324 105.149534 
L 616.152524 109.628418 
L 617.651808 84.504145 
L 619.151091 104.01781 
L 622.149659 92.529097 
L 623.648942 66.574893 
L 625.148226 94.257548 
L 626.64751 96.774777 
L 628.146793 108.935665 
L 629.646077 105.17697 
L 631.145361 124.128203 
L 632.644644 121.782447 
L 634.143928 123.538334 
L 635.643212 90.958401 
L 637.142495 114.319928 
L 638.641779 118.263815 
L 640.141062 130.520729 
L 641.640346 105.231841 
L 643.13963 111.836994 
L 644.638913 108.236054 
L 646.138197 119.045733 
L 647.637481 72.706779 
L 649.136764 102.207052 
L 650.636048 96.136896 
L 652.135332 120.650723 
L 653.634615 90.375392 
L 655.133899 105.540493 
L 656.633183 99.223416 
L 658.132466 115.623125 
L 659.63175 80.525963 
L 661.131034 106.692794 
L 662.630317 107.070035 
L 664.129601 114.752041 
L 665.628885 93.276721 
L 667.128168 118.963426 
L 668.627452 100.121936 
L 670.126736 101.500582 
L 671.626019 64.27715 
L 673.125303 98.180858 
L 674.624587 105.026073 
L 676.12387 138.044978 
L 677.623154 121.569821 
L 679.122438 133.751286 
L 680.621721 130.136628 
L 682.121005 146.488325 
L 683.620288 136.728063 
L 685.119572 153.127773 
L 686.618856 146.762683 
L 688.118139 152.023485 
L 689.617423 131.357518 
L 691.116707 125.506848 
L 692.61599 102.769484 
L 694.115274 103.866914 
L 695.614558 72.878253 
L 697.113841 93.852871 
L 698.613125 91.088721 
L 700.112409 113.942687 
L 703.110976 114.916655 
L 704.61026 112.824681 
L 706.109543 133.1477 
L 707.608827 109.882198 
L 709.108111 125.479413 
L 710.607394 122.235137 
L 712.106678 132.708728 
L 713.605962 117.701382 
L 715.105245 123.648077 
L 716.604529 116.871451 
L 718.103813 123.147375 
L 719.603096 96.939391 
L 721.10238 132.948791 
L 722.601663 132.839048 
L 724.100947 135.20538 
L 725.600231 124.443714 
L 727.099514 133.566095 
L 728.598798 128.483625 
L 730.098082 136.302809 
L 731.597365 145.678971 
L 733.096649 115.794599 
L 734.595933 80.944358 
L 736.095216 98.983353 
L 737.5945 120.822197 
L 739.093784 104.895754 
L 740.593067 119.923677 
L 742.092351 110.293734 
L 743.591635 111.295138 
L 745.090918 88.921298 
L 746.590202 80.834615 
L 748.089486 110.561233 
L 749.588769 105.513058 
L 751.088053 110.232004 
L 752.587337 101.528017 
L 754.08662 130.788227 
L 755.585904 128.373882 
L 757.085188 116.487351 
L 758.584471 93.839153 
L 760.083755 132.406935 
L 761.583038 133.298597 
L 763.082322 150.809453 
L 764.581606 135.520891 
L 766.080889 154.094882 
L 767.580173 147.126206 
L 769.079457 144.430645 
L 770.57874 77.995017 
L 772.078024 113.764354 
L 773.577308 118.510736 
L 775.076591 144.512953 
L 776.575875 135.232816 
L 778.075159 161.406505 
L 779.574442 155.734167 
L 781.073726 139.883173 
L 782.57301 111.274562 
L 784.072293 139.663687 
L 785.571577 133.024239 
L 787.070861 145.486921 
L 788.570144 128.998045 
L 790.069428 144.101417 
L 791.568712 128.126961 
L 793.067995 124.292817 
L 794.567279 62.816198 
L 796.066563 99.51835 
L 797.565846 126.679726 
L 799.06513 142.805078 
L 800.564413 172.545413 
L 802.063697 178.135444 
L 803.562981 184.672007 
L 805.062264 132.160014 
L 806.561548 161.331057 
L 808.060832 156.529804 
L 809.560115 162.414769 
L 811.059399 132.393217 
L 812.558683 134.053079 
L 814.057966 130.472716 
L 817.056534 99.552645 
L 818.555817 37.98 
L 820.055101 59.249552 
L 821.554385 89.072194 
L 823.053668 108.064581 
L 824.552952 128.895161 
L 826.052236 179.520948 
L 827.551519 192.724395 
L 829.050803 37.98 
L 830.550087 130.877393 
L 833.548654 219.734874 
L 835.047937 204.110224 
L 836.547221 180.98876 
L 838.046505 130.795086 
L 839.545788 161.063559 
L 841.045072 186.050653 
L 842.544356 191.455492 
L 844.043639 191.428057 
L 845.542923 189.54185 
L 847.042207 180.975042 
L 848.54149 161.372211 
L 850.040774 170.528887 
L 851.540058 160.329653 
L 853.039341 171.886955 
L 854.538625 154.321227 
L 856.037909 177.182052 
L 857.537192 191.606389 
L 859.036476 196.592833 
L 860.53576 179.57582 
L 862.035043 189.514414 
L 863.534327 169.726391 
L 865.033611 171.763495 
L 866.532894 105.224982 
L 868.032178 122.440905 
L 871.030745 142.914821 
L 872.530029 140.829705 
L 874.029313 154.725904 
L 875.528596 163.964887 
L 877.02788 137.626583 
L 878.527163 62.754467 
L 880.026447 111.356869 
L 881.525731 144.300326 
L 883.025014 136.913254 
L 884.524298 108.32522 
L 886.023582 118.771376 
L 887.522865 100.492318 
L 889.022149 108.949383 
L 890.521433 76.328296 
L 892.020716 123.894999 
L 893.52 137.509982 
L 893.52 137.509982 
" style="fill:none;stroke:#1f77b4;stroke-linecap:square;stroke-width:0.7;"/>
   </g>
   <g id="patch_3">
    <path d="M 113.8925 305.4784 
L 113.8925 37.98 
" style="fill:none;stroke:#000000;stroke-linecap:square;stroke-linejoin:miter;stroke-width:0.8;"/>
   </g>
   <g id="patch_4">
    <path d="M 893.52 305.4784 
L 893.52 37.98 
" style="fill:none;stroke:#000000;stroke-linecap:square;stroke-linejoin:miter;stroke-width:0.8;"/>
   </g>
   <g id="patch_5">
    <path d="M 113.8925 305.4784 
L 893.52 305.4784 
" style="fill:none;stroke:#000000;stroke-linecap:square;stroke-linejoin:miter;stroke-width:0.8;"/>
   </g>
   <g id="patch_6">
    <path d="M 113.8925 37.98 
L 893.52 37.98 
" style="fill:none;stroke:#000000;stroke-linecap:square;stroke-linejoin:miter;stroke-width:0.8;"/>
   </g>
   <g id="legend_1">
    <g id="line2d_132">
     <path d="M 367.878594 401.648792 
L 419.878594 401.648792 
" style="fill:none;stroke:#1f77b4;stroke-linecap:square;stroke-width:0.7;"/>
    </g>
    <g id="line2d_133"/>
    <g id="text_12">
     <!-- Frames: 521  -->
     <defs>
      <path d="M 41.109375 46.296875 
Q 39.59375 47.171875 37.8125 47.578125 
Q 36.03125 48 33.890625 48 
Q 26.265625 48 22.1875 43.046875 
Q 18.109375 38.09375 18.109375 28.8125 
L 18.109375 0 
L 9.078125 0 
L 9.078125 54.6875 
L 18.109375 54.6875 
L 18.109375 46.1875 
Q 20.953125 51.171875 25.484375 53.578125 
Q 30.03125 56 36.53125 56 
Q 37.453125 56 38.578125 55.875 
Q 39.703125 55.765625 41.0625 55.515625 
z
" id="DejaVuSans-114"/>
      <path d="M 34.28125 27.484375 
Q 23.390625 27.484375 19.1875 25 
Q 14.984375 22.515625 14.984375 16.5 
Q 14.984375 11.71875 18.140625 8.90625 
Q 21.296875 6.109375 26.703125 6.109375 
Q 34.1875 6.109375 38.703125 11.40625 
Q 43.21875 16.703125 43.21875 25.484375 
L 43.21875 27.484375 
z
M 52.203125 31.203125 
L 52.203125 0 
L 43.21875 0 
L 43.21875 8.296875 
Q 40.140625 3.328125 35.546875 0.953125 
Q 30.953125 -1.421875 24.3125 -1.421875 
Q 15.921875 -1.421875 10.953125 3.296875 
Q 6 8.015625 6 15.921875 
Q 6 25.140625 12.171875 29.828125 
Q 18.359375 34.515625 30.609375 34.515625 
L 43.21875 34.515625 
L 43.21875 35.40625 
Q 43.21875 41.609375 39.140625 45 
Q 35.0625 48.390625 27.6875 48.390625 
Q 23 48.390625 18.546875 47.265625 
Q 14.109375 46.140625 10.015625 43.890625 
L 10.015625 52.203125 
Q 14.9375 54.109375 19.578125 55.046875 
Q 24.21875 56 28.609375 56 
Q 40.484375 56 46.34375 49.84375 
Q 52.203125 43.703125 52.203125 31.203125 
z
" id="DejaVuSans-97"/>
      <path d="M 52 44.1875 
Q 55.375 50.25 60.0625 53.125 
Q 64.75 56 71.09375 56 
Q 79.640625 56 84.28125 50.015625 
Q 88.921875 44.046875 88.921875 33.015625 
L 88.921875 0 
L 79.890625 0 
L 79.890625 32.71875 
Q 79.890625 40.578125 77.09375 44.375 
Q 74.3125 48.1875 68.609375 48.1875 
Q 61.625 48.1875 57.5625 43.546875 
Q 53.515625 38.921875 53.515625 30.90625 
L 53.515625 0 
L 44.484375 0 
L 44.484375 32.71875 
Q 44.484375 40.625 41.703125 44.40625 
Q 38.921875 48.1875 33.109375 48.1875 
Q 26.21875 48.1875 22.15625 43.53125 
Q 18.109375 38.875 18.109375 30.90625 
L 18.109375 0 
L 9.078125 0 
L 9.078125 54.6875 
L 18.109375 54.6875 
L 18.109375 46.1875 
Q 21.1875 51.21875 25.484375 53.609375 
Q 29.78125 56 35.6875 56 
Q 41.65625 56 45.828125 52.96875 
Q 50 49.953125 52 44.1875 
z
" id="DejaVuSans-109"/>
      <path d="M 56.203125 29.59375 
L 56.203125 25.203125 
L 14.890625 25.203125 
Q 15.484375 15.921875 20.484375 11.0625 
Q 25.484375 6.203125 34.421875 6.203125 
Q 39.59375 6.203125 44.453125 7.46875 
Q 49.3125 8.734375 54.109375 11.28125 
L 54.109375 2.78125 
Q 49.265625 0.734375 44.1875 -0.34375 
Q 39.109375 -1.421875 33.890625 -1.421875 
Q 20.796875 -1.421875 13.15625 6.1875 
Q 5.515625 13.8125 5.515625 26.8125 
Q 5.515625 40.234375 12.765625 48.109375 
Q 20.015625 56 32.328125 56 
Q 43.359375 56 49.78125 48.890625 
Q 56.203125 41.796875 56.203125 29.59375 
z
M 47.21875 32.234375 
Q 47.125 39.59375 43.09375 43.984375 
Q 39.0625 48.390625 32.421875 48.390625 
Q 24.90625 48.390625 20.390625 44.140625 
Q 15.875 39.890625 15.1875 32.171875 
z
" id="DejaVuSans-101"/>
      <path d="M 44.28125 53.078125 
L 44.28125 44.578125 
Q 40.484375 46.53125 36.375 47.5 
Q 32.28125 48.484375 27.875 48.484375 
Q 21.1875 48.484375 17.84375 46.4375 
Q 14.5 44.390625 14.5 40.28125 
Q 14.5 37.15625 16.890625 35.375 
Q 19.28125 33.59375 26.515625 31.984375 
L 29.59375 31.296875 
Q 39.15625 29.25 43.1875 25.515625 
Q 47.21875 21.78125 47.21875 15.09375 
Q 47.21875 7.46875 41.1875 3.015625 
Q 35.15625 -1.421875 24.609375 -1.421875 
Q 20.21875 -1.421875 15.453125 -0.5625 
Q 10.6875 0.296875 5.421875 2 
L 5.421875 11.28125 
Q 10.40625 8.6875 15.234375 7.390625 
Q 20.0625 6.109375 24.8125 6.109375 
Q 31.15625 6.109375 34.5625 8.28125 
Q 37.984375 10.453125 37.984375 14.40625 
Q 37.984375 18.0625 35.515625 20.015625 
Q 33.0625 21.96875 24.703125 23.78125 
L 21.578125 24.515625 
Q 13.234375 26.265625 9.515625 29.90625 
Q 5.8125 33.546875 5.8125 39.890625 
Q 5.8125 47.609375 11.28125 51.796875 
Q 16.75 56 26.8125 56 
Q 31.78125 56 36.171875 55.265625 
Q 40.578125 54.546875 44.28125 53.078125 
z
" id="DejaVuSans-115"/>
      <path d="M 11.71875 12.40625 
L 22.015625 12.40625 
L 22.015625 0 
L 11.71875 0 
z
M 11.71875 51.703125 
L 22.015625 51.703125 
L 22.015625 39.3125 
L 11.71875 39.3125 
z
" id="DejaVuSans-58"/>
      <path id="DejaVuSans-32"/>
     </defs>
     <g transform="translate(440.678594 335.259417)scale(0.26 -0.26)">
      <use xlink:href="#DejaVuSans-70"/>
      <use x="50.269531" xlink:href="#DejaVuSans-114"/>
      <use x="91.382812" xlink:href="#DejaVuSans-97"/>
      <use x="152.662109" xlink:href="#DejaVuSans-109"/>
      <use x="250.074219" xlink:href="#DejaVuSans-101"/>
      <use x="311.597656" xlink:href="#DejaVuSans-115"/>
      <use x="363.697266" xlink:href="#DejaVuSans-58"/>
      <use x="397.388672" xlink:href="#DejaVuSans-32"/>
      <use x="429.175781" xlink:href="#DejaVuSans-53"/>
      <use x="492.798828" xlink:href="#DejaVuSans-50"/>
      <use x="556.421875" xlink:href="#DejaVuSans-49"/>
      <use x="620.044922" xlink:href="#DejaVuSans-32"/>
     </g>
     <!-- Mean:86.194 -->
     <defs>
      <path d="M 54.890625 33.015625 
L 54.890625 0 
L 45.90625 0 
L 45.90625 32.71875 
Q 45.90625 40.484375 42.875 44.328125 
Q 39.84375 48.1875 33.796875 48.1875 
Q 26.515625 48.1875 22.3125 43.546875 
Q 18.109375 38.921875 18.109375 30.90625 
L 18.109375 0 
L 9.078125 0 
L 9.078125 54.6875 
L 18.109375 54.6875 
L 18.109375 46.1875 
Q 21.34375 51.125 25.703125 53.5625 
Q 30.078125 56 35.796875 56 
Q 45.21875 56 50.046875 50.171875 
Q 54.890625 44.34375 54.890625 33.015625 
z
" id="DejaVuSans-110"/>
      <path d="M 33.015625 40.375 
Q 26.375 40.375 22.484375 35.828125 
Q 18.609375 31.296875 18.609375 23.390625 
Q 18.609375 15.53125 22.484375 10.953125 
Q 26.375 6.390625 33.015625 6.390625 
Q 39.65625 6.390625 43.53125 10.953125 
Q 47.40625 15.53125 47.40625 23.390625 
Q 47.40625 31.296875 43.53125 35.828125 
Q 39.65625 40.375 33.015625 40.375 
z
M 52.59375 71.296875 
L 52.59375 62.3125 
Q 48.875 64.0625 45.09375 64.984375 
Q 41.3125 65.921875 37.59375 65.921875 
Q 27.828125 65.921875 22.671875 59.328125 
Q 17.53125 52.734375 16.796875 39.40625 
Q 19.671875 43.65625 24.015625 45.921875 
Q 28.375 48.1875 33.59375 48.1875 
Q 44.578125 48.1875 50.953125 41.515625 
Q 57.328125 34.859375 57.328125 23.390625 
Q 57.328125 12.15625 50.6875 5.359375 
Q 44.046875 -1.421875 33.015625 -1.421875 
Q 20.359375 -1.421875 13.671875 8.265625 
Q 6.984375 17.96875 6.984375 36.375 
Q 6.984375 53.65625 15.1875 63.9375 
Q 23.390625 74.21875 37.203125 74.21875 
Q 40.921875 74.21875 44.703125 73.484375 
Q 48.484375 72.75 52.59375 71.296875 
z
" id="DejaVuSans-54"/>
      <path d="M 10.6875 12.40625 
L 21 12.40625 
L 21 0 
L 10.6875 0 
z
" id="DejaVuSans-46"/>
     </defs>
     <g transform="translate(440.678594 364.37373)scale(0.26 -0.26)">
      <use xlink:href="#DejaVuSans-77"/>
      <use x="86.279297" xlink:href="#DejaVuSans-101"/>
      <use x="147.802734" xlink:href="#DejaVuSans-97"/>
      <use x="209.082031" xlink:href="#DejaVuSans-110"/>
      <use x="272.460938" xlink:href="#DejaVuSans-58"/>
      <use x="306.152344" xlink:href="#DejaVuSans-56"/>
      <use x="369.775391" xlink:href="#DejaVuSans-54"/>
      <use x="433.398438" xlink:href="#DejaVuSans-46"/>
      <use x="465.185547" xlink:href="#DejaVuSans-49"/>
      <use x="528.808594" xlink:href="#DejaVuSans-57"/>
      <use x="592.431641" xlink:href="#DejaVuSans-52"/>
     </g>
     <!-- Median:86.652 -->
     <defs>
      <path d="M 45.40625 46.390625 
L 45.40625 75.984375 
L 54.390625 75.984375 
L 54.390625 0 
L 45.40625 0 
L 45.40625 8.203125 
Q 42.578125 3.328125 38.25 0.953125 
Q 33.9375 -1.421875 27.875 -1.421875 
Q 17.96875 -1.421875 11.734375 6.484375 
Q 5.515625 14.40625 5.515625 27.296875 
Q 5.515625 40.1875 11.734375 48.09375 
Q 17.96875 56 27.875 56 
Q 33.9375 56 38.25 53.625 
Q 42.578125 51.265625 45.40625 46.390625 
z
M 14.796875 27.296875 
Q 14.796875 17.390625 18.875 11.75 
Q 22.953125 6.109375 30.078125 6.109375 
Q 37.203125 6.109375 41.296875 11.75 
Q 45.40625 17.390625 45.40625 27.296875 
Q 45.40625 37.203125 41.296875 42.84375 
Q 37.203125 48.484375 30.078125 48.484375 
Q 22.953125 48.484375 18.875 42.84375 
Q 14.796875 37.203125 14.796875 27.296875 
z
" id="DejaVuSans-100"/>
      <path d="M 9.421875 54.6875 
L 18.40625 54.6875 
L 18.40625 0 
L 9.421875 0 
z
M 9.421875 75.984375 
L 18.40625 75.984375 
L 18.40625 64.59375 
L 9.421875 64.59375 
z
" id="DejaVuSans-105"/>
     </defs>
     <g transform="translate(440.678594 393.488042)scale(0.26 -0.26)">
      <use xlink:href="#DejaVuSans-77"/>
      <use x="86.279297" xlink:href="#DejaVuSans-101"/>
      <use x="147.802734" xlink:href="#DejaVuSans-100"/>
      <use x="211.279297" xlink:href="#DejaVuSans-105"/>
      <use x="239.0625" xlink:href="#DejaVuSans-97"/>
      <use x="300.341797" xlink:href="#DejaVuSans-110"/>
      <use x="363.720703" xlink:href="#DejaVuSans-58"/>
      <use x="397.412109" xlink:href="#DejaVuSans-56"/>
      <use x="461.035156" xlink:href="#DejaVuSans-54"/>
      <use x="524.658203" xlink:href="#DejaVuSans-46"/>
      <use x="556.445312" xlink:href="#DejaVuSans-54"/>
      <use x="620.068359" xlink:href="#DejaVuSans-53"/>
      <use x="683.691406" xlink:href="#DejaVuSans-50"/>
     </g>
     <!-- 0.01%: 66.584  -->
     <defs>
      <path d="M 72.703125 32.078125 
Q 68.453125 32.078125 66.03125 28.46875 
Q 63.625 24.859375 63.625 18.40625 
Q 63.625 12.0625 66.03125 8.421875 
Q 68.453125 4.78125 72.703125 4.78125 
Q 76.859375 4.78125 79.265625 8.421875 
Q 81.6875 12.0625 81.6875 18.40625 
Q 81.6875 24.8125 79.265625 28.4375 
Q 76.859375 32.078125 72.703125 32.078125 
z
M 72.703125 38.28125 
Q 80.421875 38.28125 84.953125 32.90625 
Q 89.5 27.546875 89.5 18.40625 
Q 89.5 9.28125 84.9375 3.921875 
Q 80.375 -1.421875 72.703125 -1.421875 
Q 64.890625 -1.421875 60.34375 3.921875 
Q 55.8125 9.28125 55.8125 18.40625 
Q 55.8125 27.59375 60.375 32.9375 
Q 64.9375 38.28125 72.703125 38.28125 
z
M 22.3125 68.015625 
Q 18.109375 68.015625 15.6875 64.375 
Q 13.28125 60.75 13.28125 54.390625 
Q 13.28125 47.953125 15.671875 44.328125 
Q 18.0625 40.71875 22.3125 40.71875 
Q 26.5625 40.71875 28.96875 44.328125 
Q 31.390625 47.953125 31.390625 54.390625 
Q 31.390625 60.6875 28.953125 64.34375 
Q 26.515625 68.015625 22.3125 68.015625 
z
M 66.40625 74.21875 
L 74.21875 74.21875 
L 28.609375 -1.421875 
L 20.796875 -1.421875 
z
M 22.3125 74.21875 
Q 30.03125 74.21875 34.609375 68.875 
Q 39.203125 63.53125 39.203125 54.390625 
Q 39.203125 45.171875 34.640625 39.84375 
Q 30.078125 34.515625 22.3125 34.515625 
Q 14.546875 34.515625 10.03125 39.859375 
Q 5.515625 45.21875 5.515625 54.390625 
Q 5.515625 63.484375 10.046875 68.84375 
Q 14.59375 74.21875 22.3125 74.21875 
z
" id="DejaVuSans-37"/>
     </defs>
     <g transform="translate(440.678594 422.602355)scale(0.26 -0.26)">
      <use xlink:href="#DejaVuSans-48"/>
      <use x="63.623047" xlink:href="#DejaVuSans-46"/>
      <use x="95.410156" xlink:href="#DejaVuSans-48"/>
      <use x="159.033203" xlink:href="#DejaVuSans-49"/>
      <use x="222.65625" xlink:href="#DejaVuSans-37"/>
      <use x="317.675781" xlink:href="#DejaVuSans-58"/>
      <use x="351.367188" xlink:href="#DejaVuSans-32"/>
      <use x="383.154297" xlink:href="#DejaVuSans-54"/>
      <use x="446.777344" xlink:href="#DejaVuSans-54"/>
      <use x="510.400391" xlink:href="#DejaVuSans-46"/>
      <use x="542.1875" xlink:href="#DejaVuSans-53"/>
      <use x="605.810547" xlink:href="#DejaVuSans-56"/>
      <use x="669.433594" xlink:href="#DejaVuSans-52"/>
      <use x="733.056641" xlink:href="#DejaVuSans-32"/>
     </g>
     <!-- 0.1%: 67.572  -->
     <g transform="translate(440.678594 451.716667)scale(0.26 -0.26)">
      <use xlink:href="#DejaVuSans-48"/>
      <use x="63.623047" xlink:href="#DejaVuSans-46"/>
      <use x="95.410156" xlink:href="#DejaVuSans-49"/>
      <use x="159.033203" xlink:href="#DejaVuSans-37"/>
      <use x="254.052734" xlink:href="#DejaVuSans-58"/>
      <use x="287.744141" xlink:href="#DejaVuSans-32"/>
      <use x="319.53125" xlink:href="#DejaVuSans-54"/>
      <use x="383.154297" xlink:href="#DejaVuSans-55"/>
      <use x="446.777344" xlink:href="#DejaVuSans-46"/>
      <use x="478.564453" xlink:href="#DejaVuSans-53"/>
      <use x="542.1875" xlink:href="#DejaVuSans-55"/>
      <use x="605.810547" xlink:href="#DejaVuSans-50"/>
      <use x="669.433594" xlink:href="#DejaVuSans-32"/>
     </g>
     <!-- 1%: 73.375 -->
     <g transform="translate(440.678594 480.83098)scale(0.26 -0.26)">
      <use xlink:href="#DejaVuSans-49"/>
      <use x="63.623047" xlink:href="#DejaVuSans-37"/>
      <use x="158.642578" xlink:href="#DejaVuSans-58"/>
      <use x="192.333984" xlink:href="#DejaVuSans-32"/>
      <use x="224.121094" xlink:href="#DejaVuSans-55"/>
      <use x="287.744141" xlink:href="#DejaVuSans-51"/>
      <use x="351.367188" xlink:href="#DejaVuSans-46"/>
      <use x="383.154297" xlink:href="#DejaVuSans-51"/>
      <use x="446.777344" xlink:href="#DejaVuSans-55"/>
      <use x="510.400391" xlink:href="#DejaVuSans-53"/>
     </g>
    </g>
   </g>
  </g>
 </g>
 <defs>
  <clipPath id="p76f14d855e">
   <rect height="267.4984" width="779.6275" x="113.8925" y="37.98"/>
  </clipPath>
 </defs>
</svg>
