<?xml version="1.0" encoding="utf-8" standalone="no"?>
<!DOCTYPE svg PUBLIC "-//W3C//DTD SVG 1.1//EN"
  "http://www.w3.org/Graphics/SVG/1.1/DTD/svg11.dtd">
<!-- Created with matplotlib (https://matplotlib.org/) -->
<svg height="1555.2pt" version="1.1" viewBox="0 0 2764.8 1555.2" width="2764.8pt" xmlns="http://www.w3.org/2000/svg" xmlns:xlink="http://www.w3.org/1999/xlink">
 <defs>
  <style type="text/css">
*{stroke-linecap:butt;stroke-linejoin:round;}
  </style>
 </defs>
 <g id="figure_1">
  <g id="patch_1">
   <path d="M 0 1555.2 
L 2764.8 1555.2 
L 2764.8 0 
L 0 0 
z
" style="fill:#ffffff;"/>
  </g>
  <g id="axes_1">
   <g id="patch_2">
    <path d="M 50.5325 1395.0428 
L 2754 1395.0428 
L 2754 14.58 
L 50.5325 14.58 
z
" style="fill:#ffffff;"/>
   </g>
   <g id="matplotlib.axis_1">
    <g id="xtick_1">
     <g id="line2d_1">
      <defs>
       <path d="M 0 0 
L 0 3.5 
" id="m515259e4ae" style="stroke:#000000;stroke-width:0.8;"/>
      </defs>
      <g>
       <use style="stroke:#000000;stroke-width:0.8;" x="50.5325" xlink:href="#m515259e4ae" y="1395.0428"/>
      </g>
     </g>
     <g id="text_1">
      <!-- 0 -->
      <defs>
       <path d="M 31.78125 66.40625 
Q 24.171875 66.40625 20.328125 58.90625 
Q 16.5 51.421875 16.5 36.375 
Q 16.5 21.390625 20.328125 13.890625 
Q 24.171875 6.390625 31.78125 6.390625 
Q 39.453125 6.390625 43.28125 13.890625 
Q 47.125 21.390625 47.125 36.375 
Q 47.125 51.421875 43.28125 58.90625 
Q 39.453125 66.40625 31.78125 66.40625 
z
M 31.78125 74.21875 
Q 44.046875 74.21875 50.515625 64.515625 
Q 56.984375 54.828125 56.984375 36.375 
Q 56.984375 17.96875 50.515625 8.265625 
Q 44.046875 -1.421875 31.78125 -1.421875 
Q 19.53125 -1.421875 13.0625 8.265625 
Q 6.59375 17.96875 6.59375 36.375 
Q 6.59375 54.828125 13.0625 64.515625 
Q 19.53125 74.21875 31.78125 74.21875 
z
" id="DejaVuSans-48"/>
      </defs>
      <g transform="translate(47.35125 1409.641237)scale(0.1 -0.1)">
       <use xlink:href="#DejaVuSans-48"/>
      </g>
     </g>
    </g>
    <g id="xtick_2">
     <g id="line2d_2">
      <g>
       <use style="stroke:#000000;stroke-width:0.8;" x="570.430096" xlink:href="#m515259e4ae" y="1395.0428"/>
      </g>
     </g>
     <g id="text_2">
      <!-- 100 -->
      <defs>
       <path d="M 12.40625 8.296875 
L 28.515625 8.296875 
L 28.515625 63.921875 
L 10.984375 60.40625 
L 10.984375 69.390625 
L 28.421875 72.90625 
L 38.28125 72.90625 
L 38.28125 8.296875 
L 54.390625 8.296875 
L 54.390625 0 
L 12.40625 0 
z
" id="DejaVuSans-49"/>
      </defs>
      <g transform="translate(560.886346 1409.641237)scale(0.1 -0.1)">
       <use xlink:href="#DejaVuSans-49"/>
       <use x="63.623047" xlink:href="#DejaVuSans-48"/>
       <use x="127.246094" xlink:href="#DejaVuSans-48"/>
      </g>
     </g>
    </g>
    <g id="xtick_3">
     <g id="line2d_3">
      <g>
       <use style="stroke:#000000;stroke-width:0.8;" x="1090.327692" xlink:href="#m515259e4ae" y="1395.0428"/>
      </g>
     </g>
     <g id="text_3">
      <!-- 200 -->
      <defs>
       <path d="M 19.1875 8.296875 
L 53.609375 8.296875 
L 53.609375 0 
L 7.328125 0 
L 7.328125 8.296875 
Q 12.9375 14.109375 22.625 23.890625 
Q 32.328125 33.6875 34.8125 36.53125 
Q 39.546875 41.84375 41.421875 45.53125 
Q 43.3125 49.21875 43.3125 52.78125 
Q 43.3125 58.59375 39.234375 62.25 
Q 35.15625 65.921875 28.609375 65.921875 
Q 23.96875 65.921875 18.8125 64.3125 
Q 13.671875 62.703125 7.8125 59.421875 
L 7.8125 69.390625 
Q 13.765625 71.78125 18.9375 73 
Q 24.125 74.21875 28.421875 74.21875 
Q 39.75 74.21875 46.484375 68.546875 
Q 53.21875 62.890625 53.21875 53.421875 
Q 53.21875 48.921875 51.53125 44.890625 
Q 49.859375 40.875 45.40625 35.40625 
Q 44.1875 33.984375 37.640625 27.21875 
Q 31.109375 20.453125 19.1875 8.296875 
z
" id="DejaVuSans-50"/>
      </defs>
      <g transform="translate(1080.783942 1409.641237)scale(0.1 -0.1)">
       <use xlink:href="#DejaVuSans-50"/>
       <use x="63.623047" xlink:href="#DejaVuSans-48"/>
       <use x="127.246094" xlink:href="#DejaVuSans-48"/>
      </g>
     </g>
    </g>
    <g id="xtick_4">
     <g id="line2d_4">
      <g>
       <use style="stroke:#000000;stroke-width:0.8;" x="1610.225288" xlink:href="#m515259e4ae" y="1395.0428"/>
      </g>
     </g>
     <g id="text_4">
      <!-- 300 -->
      <defs>
       <path d="M 40.578125 39.3125 
Q 47.65625 37.796875 51.625 33 
Q 55.609375 28.21875 55.609375 21.1875 
Q 55.609375 10.40625 48.1875 4.484375 
Q 40.765625 -1.421875 27.09375 -1.421875 
Q 22.515625 -1.421875 17.65625 -0.515625 
Q 12.796875 0.390625 7.625 2.203125 
L 7.625 11.71875 
Q 11.71875 9.328125 16.59375 8.109375 
Q 21.484375 6.890625 26.8125 6.890625 
Q 36.078125 6.890625 40.9375 10.546875 
Q 45.796875 14.203125 45.796875 21.1875 
Q 45.796875 27.640625 41.28125 31.265625 
Q 36.765625 34.90625 28.71875 34.90625 
L 20.21875 34.90625 
L 20.21875 43.015625 
L 29.109375 43.015625 
Q 36.375 43.015625 40.234375 45.921875 
Q 44.09375 48.828125 44.09375 54.296875 
Q 44.09375 59.90625 40.109375 62.90625 
Q 36.140625 65.921875 28.71875 65.921875 
Q 24.65625 65.921875 20.015625 65.03125 
Q 15.375 64.15625 9.8125 62.3125 
L 9.8125 71.09375 
Q 15.4375 72.65625 20.34375 73.4375 
Q 25.25 74.21875 29.59375 74.21875 
Q 40.828125 74.21875 47.359375 69.109375 
Q 53.90625 64.015625 53.90625 55.328125 
Q 53.90625 49.265625 50.4375 45.09375 
Q 46.96875 40.921875 40.578125 39.3125 
z
" id="DejaVuSans-51"/>
      </defs>
      <g transform="translate(1600.681538 1409.641237)scale(0.1 -0.1)">
       <use xlink:href="#DejaVuSans-51"/>
       <use x="63.623047" xlink:href="#DejaVuSans-48"/>
       <use x="127.246094" xlink:href="#DejaVuSans-48"/>
      </g>
     </g>
    </g>
    <g id="xtick_5">
     <g id="line2d_5">
      <g>
       <use style="stroke:#000000;stroke-width:0.8;" x="2130.122885" xlink:href="#m515259e4ae" y="1395.0428"/>
      </g>
     </g>
     <g id="text_5">
      <!-- 400 -->
      <defs>
       <path d="M 37.796875 64.3125 
L 12.890625 25.390625 
L 37.796875 25.390625 
z
M 35.203125 72.90625 
L 47.609375 72.90625 
L 47.609375 25.390625 
L 58.015625 25.390625 
L 58.015625 17.1875 
L 47.609375 17.1875 
L 47.609375 0 
L 37.796875 0 
L 37.796875 17.1875 
L 4.890625 17.1875 
L 4.890625 26.703125 
z
" id="DejaVuSans-52"/>
      </defs>
      <g transform="translate(2120.579135 1409.641237)scale(0.1 -0.1)">
       <use xlink:href="#DejaVuSans-52"/>
       <use x="63.623047" xlink:href="#DejaVuSans-48"/>
       <use x="127.246094" xlink:href="#DejaVuSans-48"/>
      </g>
     </g>
    </g>
    <g id="xtick_6">
     <g id="line2d_6">
      <g>
       <use style="stroke:#000000;stroke-width:0.8;" x="2650.020481" xlink:href="#m515259e4ae" y="1395.0428"/>
      </g>
     </g>
     <g id="text_6">
      <!-- 500 -->
      <defs>
       <path d="M 10.796875 72.90625 
L 49.515625 72.90625 
L 49.515625 64.59375 
L 19.828125 64.59375 
L 19.828125 46.734375 
Q 21.96875 47.46875 24.109375 47.828125 
Q 26.265625 48.1875 28.421875 48.1875 
Q 40.625 48.1875 47.75 41.5 
Q 54.890625 34.8125 54.890625 23.390625 
Q 54.890625 11.625 47.5625 5.09375 
Q 40.234375 -1.421875 26.90625 -1.421875 
Q 22.3125 -1.421875 17.546875 -0.640625 
Q 12.796875 0.140625 7.71875 1.703125 
L 7.71875 11.625 
Q 12.109375 9.234375 16.796875 8.0625 
Q 21.484375 6.890625 26.703125 6.890625 
Q 35.15625 6.890625 40.078125 11.328125 
Q 45.015625 15.765625 45.015625 23.390625 
Q 45.015625 31 40.078125 35.4375 
Q 35.15625 39.890625 26.703125 39.890625 
Q 22.75 39.890625 18.8125 39.015625 
Q 14.890625 38.140625 10.796875 36.28125 
z
" id="DejaVuSans-53"/>
      </defs>
      <g transform="translate(2640.476731 1409.641237)scale(0.1 -0.1)">
       <use xlink:href="#DejaVuSans-53"/>
       <use x="63.623047" xlink:href="#DejaVuSans-48"/>
       <use x="127.246094" xlink:href="#DejaVuSans-48"/>
      </g>
     </g>
    </g>
   </g>
   <g id="matplotlib.axis_2">
    <g id="ytick_1">
     <g id="line2d_7">
      <defs>
       <path d="M 0 0 
L -3.5 0 
" id="m3a617248c2" style="stroke:#000000;stroke-width:0.8;"/>
      </defs>
      <g>
       <use style="stroke:#000000;stroke-width:0.8;" x="50.5325" xlink:href="#m3a617248c2" y="1232.635412"/>
      </g>
     </g>
     <g id="text_7">
      <!-- 70 -->
      <defs>
       <path d="M 8.203125 72.90625 
L 55.078125 72.90625 
L 55.078125 68.703125 
L 28.609375 0 
L 18.3125 0 
L 43.21875 64.59375 
L 8.203125 64.59375 
z
" id="DejaVuSans-55"/>
      </defs>
      <g transform="translate(30.8075 1236.434631)scale(0.1 -0.1)">
       <use xlink:href="#DejaVuSans-55"/>
       <use x="63.623047" xlink:href="#DejaVuSans-48"/>
      </g>
     </g>
    </g>
    <g id="ytick_2">
     <g id="line2d_8">
      <g>
       <use style="stroke:#000000;stroke-width:0.8;" x="50.5325" xlink:href="#m3a617248c2" y="1029.626176"/>
      </g>
     </g>
     <g id="text_8">
      <!-- 75 -->
      <g transform="translate(30.8075 1033.425395)scale(0.1 -0.1)">
       <use xlink:href="#DejaVuSans-55"/>
       <use x="63.623047" xlink:href="#DejaVuSans-53"/>
      </g>
     </g>
    </g>
    <g id="ytick_3">
     <g id="line2d_9">
      <g>
       <use style="stroke:#000000;stroke-width:0.8;" x="50.5325" xlink:href="#m3a617248c2" y="826.616941"/>
      </g>
     </g>
     <g id="text_9">
      <!-- 80 -->
      <defs>
       <path d="M 31.78125 34.625 
Q 24.75 34.625 20.71875 30.859375 
Q 16.703125 27.09375 16.703125 20.515625 
Q 16.703125 13.921875 20.71875 10.15625 
Q 24.75 6.390625 31.78125 6.390625 
Q 38.8125 6.390625 42.859375 10.171875 
Q 46.921875 13.96875 46.921875 20.515625 
Q 46.921875 27.09375 42.890625 30.859375 
Q 38.875 34.625 31.78125 34.625 
z
M 21.921875 38.8125 
Q 15.578125 40.375 12.03125 44.71875 
Q 8.5 49.078125 8.5 55.328125 
Q 8.5 64.0625 14.71875 69.140625 
Q 20.953125 74.21875 31.78125 74.21875 
Q 42.671875 74.21875 48.875 69.140625 
Q 55.078125 64.0625 55.078125 55.328125 
Q 55.078125 49.078125 51.53125 44.71875 
Q 48 40.375 41.703125 38.8125 
Q 48.828125 37.15625 52.796875 32.3125 
Q 56.78125 27.484375 56.78125 20.515625 
Q 56.78125 9.90625 50.3125 4.234375 
Q 43.84375 -1.421875 31.78125 -1.421875 
Q 19.734375 -1.421875 13.25 4.234375 
Q 6.78125 9.90625 6.78125 20.515625 
Q 6.78125 27.484375 10.78125 32.3125 
Q 14.796875 37.15625 21.921875 38.8125 
z
M 18.3125 54.390625 
Q 18.3125 48.734375 21.84375 45.5625 
Q 25.390625 42.390625 31.78125 42.390625 
Q 38.140625 42.390625 41.71875 45.5625 
Q 45.3125 48.734375 45.3125 54.390625 
Q 45.3125 60.0625 41.71875 63.234375 
Q 38.140625 66.40625 31.78125 66.40625 
Q 25.390625 66.40625 21.84375 63.234375 
Q 18.3125 60.0625 18.3125 54.390625 
z
" id="DejaVuSans-56"/>
      </defs>
      <g transform="translate(30.8075 830.41616)scale(0.1 -0.1)">
       <use xlink:href="#DejaVuSans-56"/>
       <use x="63.623047" xlink:href="#DejaVuSans-48"/>
      </g>
     </g>
    </g>
    <g id="ytick_4">
     <g id="line2d_10">
      <g>
       <use style="stroke:#000000;stroke-width:0.8;" x="50.5325" xlink:href="#m3a617248c2" y="623.607706"/>
      </g>
     </g>
     <g id="text_10">
      <!-- 85 -->
      <g transform="translate(30.8075 627.406925)scale(0.1 -0.1)">
       <use xlink:href="#DejaVuSans-56"/>
       <use x="63.623047" xlink:href="#DejaVuSans-53"/>
      </g>
     </g>
    </g>
    <g id="ytick_5">
     <g id="line2d_11">
      <g>
       <use style="stroke:#000000;stroke-width:0.8;" x="50.5325" xlink:href="#m3a617248c2" y="420.598471"/>
      </g>
     </g>
     <g id="text_11">
      <!-- 90 -->
      <defs>
       <path d="M 10.984375 1.515625 
L 10.984375 10.5 
Q 14.703125 8.734375 18.5 7.8125 
Q 22.3125 6.890625 25.984375 6.890625 
Q 35.75 6.890625 40.890625 13.453125 
Q 46.046875 20.015625 46.78125 33.40625 
Q 43.953125 29.203125 39.59375 26.953125 
Q 35.25 24.703125 29.984375 24.703125 
Q 19.046875 24.703125 12.671875 31.3125 
Q 6.296875 37.9375 6.296875 49.421875 
Q 6.296875 60.640625 12.9375 67.421875 
Q 19.578125 74.21875 30.609375 74.21875 
Q 43.265625 74.21875 49.921875 64.515625 
Q 56.59375 54.828125 56.59375 36.375 
Q 56.59375 19.140625 48.40625 8.859375 
Q 40.234375 -1.421875 26.421875 -1.421875 
Q 22.703125 -1.421875 18.890625 -0.6875 
Q 15.09375 0.046875 10.984375 1.515625 
z
M 30.609375 32.421875 
Q 37.25 32.421875 41.125 36.953125 
Q 45.015625 41.5 45.015625 49.421875 
Q 45.015625 57.28125 41.125 61.84375 
Q 37.25 66.40625 30.609375 66.40625 
Q 23.96875 66.40625 20.09375 61.84375 
Q 16.21875 57.28125 16.21875 49.421875 
Q 16.21875 41.5 20.09375 36.953125 
Q 23.96875 32.421875 30.609375 32.421875 
z
" id="DejaVuSans-57"/>
      </defs>
      <g transform="translate(30.8075 424.397689)scale(0.1 -0.1)">
       <use xlink:href="#DejaVuSans-57"/>
       <use x="63.623047" xlink:href="#DejaVuSans-48"/>
      </g>
     </g>
    </g>
    <g id="ytick_6">
     <g id="line2d_12">
      <g>
       <use style="stroke:#000000;stroke-width:0.8;" x="50.5325" xlink:href="#m3a617248c2" y="217.589235"/>
      </g>
     </g>
     <g id="text_12">
      <!-- 95 -->
      <g transform="translate(30.8075 221.388454)scale(0.1 -0.1)">
       <use xlink:href="#DejaVuSans-57"/>
       <use x="63.623047" xlink:href="#DejaVuSans-53"/>
      </g>
     </g>
    </g>
    <g id="ytick_7">
     <g id="line2d_13">
      <g>
       <use style="stroke:#000000;stroke-width:0.8;" x="50.5325" xlink:href="#m3a617248c2" y="14.58"/>
      </g>
     </g>
     <g id="text_13">
      <!-- 100 -->
      <g transform="translate(24.445 18.379219)scale(0.1 -0.1)">
       <use xlink:href="#DejaVuSans-49"/>
       <use x="63.623047" xlink:href="#DejaVuSans-48"/>
       <use x="127.246094" xlink:href="#DejaVuSans-48"/>
      </g>
     </g>
    </g>
    <g id="text_14">
     <!-- VMAF -->
     <defs>
      <path d="M 28.609375 0 
L 0.78125 72.90625 
L 11.078125 72.90625 
L 34.1875 11.53125 
L 57.328125 72.90625 
L 67.578125 72.90625 
L 39.796875 0 
z
" id="DejaVuSans-86"/>
      <path d="M 9.8125 72.90625 
L 24.515625 72.90625 
L 43.109375 23.296875 
L 61.8125 72.90625 
L 76.515625 72.90625 
L 76.515625 0 
L 66.890625 0 
L 66.890625 64.015625 
L 48.09375 14.015625 
L 38.1875 14.015625 
L 19.390625 64.015625 
L 19.390625 0 
L 9.8125 0 
z
" id="DejaVuSans-77"/>
      <path d="M 34.1875 63.1875 
L 20.796875 26.90625 
L 47.609375 26.90625 
z
M 28.609375 72.90625 
L 39.796875 72.90625 
L 67.578125 0 
L 57.328125 0 
L 50.6875 18.703125 
L 17.828125 18.703125 
L 11.1875 0 
L 0.78125 0 
z
" id="DejaVuSans-65"/>
      <path d="M 9.8125 72.90625 
L 51.703125 72.90625 
L 51.703125 64.59375 
L 19.671875 64.59375 
L 19.671875 43.109375 
L 48.578125 43.109375 
L 48.578125 34.8125 
L 19.671875 34.8125 
L 19.671875 0 
L 9.8125 0 
z
" id="DejaVuSans-70"/>
     </defs>
     <g transform="translate(18.365312 718.841869)rotate(-90)scale(0.1 -0.1)">
      <use xlink:href="#DejaVuSans-86"/>
      <use x="68.408203" xlink:href="#DejaVuSans-77"/>
      <use x="154.6875" xlink:href="#DejaVuSans-65"/>
      <use x="223.095703" xlink:href="#DejaVuSans-70"/>
     </g>
    </g>
   </g>
   <g id="line2d_14">
    <path clip-path="url(#pb1bc6df37e)" style="fill:none;stroke:#808080;stroke-linecap:square;stroke-width:0.4;"/>
   </g>
   <g id="line2d_15">
    <path clip-path="url(#pb1bc6df37e)" style="fill:none;stroke:#808080;stroke-linecap:square;stroke-width:0.4;"/>
   </g>
   <g id="line2d_16">
    <path clip-path="url(#pb1bc6df37e)" style="fill:none;stroke:#808080;stroke-linecap:square;stroke-width:0.4;"/>
   </g>
   <g id="line2d_17">
    <path clip-path="url(#pb1bc6df37e)" style="fill:none;stroke:#808080;stroke-linecap:square;stroke-width:0.4;"/>
   </g>
   <g id="line2d_18">
    <path clip-path="url(#pb1bc6df37e)" style="fill:none;stroke:#808080;stroke-linecap:square;stroke-width:0.4;"/>
   </g>
   <g id="line2d_19">
    <path clip-path="url(#pb1bc6df37e)" style="fill:none;stroke:#808080;stroke-linecap:square;stroke-width:0.4;"/>
   </g>
   <g id="line2d_20">
    <path clip-path="url(#pb1bc6df37e)" style="fill:none;stroke:#808080;stroke-linecap:square;stroke-width:0.4;"/>
   </g>
   <g id="line2d_21">
    <path clip-path="url(#pb1bc6df37e)" style="fill:none;stroke:#808080;stroke-linecap:square;stroke-width:0.4;"/>
   </g>
   <g id="line2d_22">
    <path clip-path="url(#pb1bc6df37e)" style="fill:none;stroke:#808080;stroke-linecap:square;stroke-width:0.4;"/>
   </g>
   <g id="line2d_23">
    <path clip-path="url(#pb1bc6df37e)" style="fill:none;stroke:#808080;stroke-linecap:square;stroke-width:0.4;"/>
   </g>
   <g id="line2d_24">
    <path clip-path="url(#pb1bc6df37e)" style="fill:none;stroke:#808080;stroke-linecap:square;stroke-width:0.4;"/>
   </g>
   <g id="line2d_25">
    <path clip-path="url(#pb1bc6df37e)" style="fill:none;stroke:#808080;stroke-linecap:square;stroke-width:0.4;"/>
   </g>
   <g id="line2d_26">
    <path clip-path="url(#pb1bc6df37e)" style="fill:none;stroke:#808080;stroke-linecap:square;stroke-width:0.4;"/>
   </g>
   <g id="line2d_27">
    <path clip-path="url(#pb1bc6df37e)" style="fill:none;stroke:#808080;stroke-linecap:square;stroke-width:0.4;"/>
   </g>
   <g id="line2d_28">
    <path clip-path="url(#pb1bc6df37e)" style="fill:none;stroke:#808080;stroke-linecap:square;stroke-width:0.4;"/>
   </g>
   <g id="line2d_29">
    <path clip-path="url(#pb1bc6df37e)" style="fill:none;stroke:#808080;stroke-linecap:square;stroke-width:0.4;"/>
   </g>
   <g id="line2d_30">
    <path clip-path="url(#pb1bc6df37e)" style="fill:none;stroke:#808080;stroke-linecap:square;stroke-width:0.4;"/>
   </g>
   <g id="line2d_31">
    <path clip-path="url(#pb1bc6df37e)" style="fill:none;stroke:#808080;stroke-linecap:square;stroke-width:0.4;"/>
   </g>
   <g id="line2d_32">
    <path clip-path="url(#pb1bc6df37e)" style="fill:none;stroke:#808080;stroke-linecap:square;stroke-width:0.4;"/>
   </g>
   <g id="line2d_33">
    <path clip-path="url(#pb1bc6df37e)" style="fill:none;stroke:#808080;stroke-linecap:square;stroke-width:0.4;"/>
   </g>
   <g id="line2d_34">
    <path clip-path="url(#pb1bc6df37e)" style="fill:none;stroke:#808080;stroke-linecap:square;stroke-width:0.4;"/>
   </g>
   <g id="line2d_35">
    <path clip-path="url(#pb1bc6df37e)" style="fill:none;stroke:#808080;stroke-linecap:square;stroke-width:0.4;"/>
   </g>
   <g id="line2d_36">
    <path clip-path="url(#pb1bc6df37e)" style="fill:none;stroke:#808080;stroke-linecap:square;stroke-width:0.4;"/>
   </g>
   <g id="line2d_37">
    <path clip-path="url(#pb1bc6df37e)" style="fill:none;stroke:#808080;stroke-linecap:square;stroke-width:0.4;"/>
   </g>
   <g id="line2d_38">
    <path clip-path="url(#pb1bc6df37e)" style="fill:none;stroke:#808080;stroke-linecap:square;stroke-width:0.4;"/>
   </g>
   <g id="line2d_39">
    <path clip-path="url(#pb1bc6df37e)" style="fill:none;stroke:#808080;stroke-linecap:square;stroke-width:0.4;"/>
   </g>
   <g id="line2d_40">
    <path clip-path="url(#pb1bc6df37e)" style="fill:none;stroke:#808080;stroke-linecap:square;stroke-width:0.4;"/>
   </g>
   <g id="line2d_41">
    <path clip-path="url(#pb1bc6df37e)" style="fill:none;stroke:#808080;stroke-linecap:square;stroke-width:0.4;"/>
   </g>
   <g id="line2d_42">
    <path clip-path="url(#pb1bc6df37e)" style="fill:none;stroke:#808080;stroke-linecap:square;stroke-width:0.4;"/>
   </g>
   <g id="line2d_43">
    <path clip-path="url(#pb1bc6df37e)" style="fill:none;stroke:#808080;stroke-linecap:square;stroke-width:0.4;"/>
   </g>
   <g id="line2d_44">
    <path clip-path="url(#pb1bc6df37e)" style="fill:none;stroke:#808080;stroke-linecap:square;stroke-width:0.4;"/>
   </g>
   <g id="line2d_45">
    <path clip-path="url(#pb1bc6df37e)" style="fill:none;stroke:#808080;stroke-linecap:square;stroke-width:0.4;"/>
   </g>
   <g id="line2d_46">
    <path clip-path="url(#pb1bc6df37e)" style="fill:none;stroke:#808080;stroke-linecap:square;stroke-width:0.4;"/>
   </g>
   <g id="line2d_47">
    <path clip-path="url(#pb1bc6df37e)" style="fill:none;stroke:#808080;stroke-linecap:square;stroke-width:0.4;"/>
   </g>
   <g id="line2d_48">
    <path clip-path="url(#pb1bc6df37e)" style="fill:none;stroke:#808080;stroke-linecap:square;stroke-width:0.4;"/>
   </g>
   <g id="line2d_49">
    <path clip-path="url(#pb1bc6df37e)" style="fill:none;stroke:#808080;stroke-linecap:square;stroke-width:0.4;"/>
   </g>
   <g id="line2d_50">
    <path clip-path="url(#pb1bc6df37e)" style="fill:none;stroke:#808080;stroke-linecap:square;stroke-width:0.4;"/>
   </g>
   <g id="line2d_51">
    <path clip-path="url(#pb1bc6df37e)" style="fill:none;stroke:#808080;stroke-linecap:square;stroke-width:0.4;"/>
   </g>
   <g id="line2d_52">
    <path clip-path="url(#pb1bc6df37e)" style="fill:none;stroke:#808080;stroke-linecap:square;stroke-width:0.4;"/>
   </g>
   <g id="line2d_53">
    <path clip-path="url(#pb1bc6df37e)" style="fill:none;stroke:#808080;stroke-linecap:square;stroke-width:0.4;"/>
   </g>
   <g id="line2d_54">
    <path clip-path="url(#pb1bc6df37e)" style="fill:none;stroke:#808080;stroke-linecap:square;stroke-width:0.4;"/>
   </g>
   <g id="line2d_55">
    <path clip-path="url(#pb1bc6df37e)" style="fill:none;stroke:#808080;stroke-linecap:square;stroke-width:0.4;"/>
   </g>
   <g id="line2d_56">
    <path clip-path="url(#pb1bc6df37e)" style="fill:none;stroke:#808080;stroke-linecap:square;stroke-width:0.4;"/>
   </g>
   <g id="line2d_57">
    <path clip-path="url(#pb1bc6df37e)" style="fill:none;stroke:#808080;stroke-linecap:square;stroke-width:0.4;"/>
   </g>
   <g id="line2d_58">
    <path clip-path="url(#pb1bc6df37e)" style="fill:none;stroke:#808080;stroke-linecap:square;stroke-width:0.4;"/>
   </g>
   <g id="line2d_59">
    <path clip-path="url(#pb1bc6df37e)" style="fill:none;stroke:#808080;stroke-linecap:square;stroke-width:0.4;"/>
   </g>
   <g id="line2d_60">
    <path clip-path="url(#pb1bc6df37e)" style="fill:none;stroke:#808080;stroke-linecap:square;stroke-width:0.4;"/>
   </g>
   <g id="line2d_61">
    <path clip-path="url(#pb1bc6df37e)" style="fill:none;stroke:#808080;stroke-linecap:square;stroke-width:0.4;"/>
   </g>
   <g id="line2d_62">
    <path clip-path="url(#pb1bc6df37e)" style="fill:none;stroke:#808080;stroke-linecap:square;stroke-width:0.4;"/>
   </g>
   <g id="line2d_63">
    <path clip-path="url(#pb1bc6df37e)" style="fill:none;stroke:#808080;stroke-linecap:square;stroke-width:0.4;"/>
   </g>
   <g id="line2d_64">
    <path clip-path="url(#pb1bc6df37e)" style="fill:none;stroke:#808080;stroke-linecap:square;stroke-width:0.4;"/>
   </g>
   <g id="line2d_65">
    <path clip-path="url(#pb1bc6df37e)" style="fill:none;stroke:#808080;stroke-linecap:square;stroke-width:0.4;"/>
   </g>
   <g id="line2d_66">
    <path clip-path="url(#pb1bc6df37e)" style="fill:none;stroke:#808080;stroke-linecap:square;stroke-width:0.4;"/>
   </g>
   <g id="line2d_67">
    <path clip-path="url(#pb1bc6df37e)" style="fill:none;stroke:#808080;stroke-linecap:square;stroke-width:0.4;"/>
   </g>
   <g id="line2d_68">
    <path clip-path="url(#pb1bc6df37e)" style="fill:none;stroke:#808080;stroke-linecap:square;stroke-width:0.4;"/>
   </g>
   <g id="line2d_69">
    <path clip-path="url(#pb1bc6df37e)" style="fill:none;stroke:#808080;stroke-linecap:square;stroke-width:0.4;"/>
   </g>
   <g id="line2d_70">
    <path clip-path="url(#pb1bc6df37e)" style="fill:none;stroke:#808080;stroke-linecap:square;stroke-width:0.4;"/>
   </g>
   <g id="line2d_71">
    <path clip-path="url(#pb1bc6df37e)" style="fill:none;stroke:#808080;stroke-linecap:square;stroke-width:0.4;"/>
   </g>
   <g id="line2d_72">
    <path clip-path="url(#pb1bc6df37e)" style="fill:none;stroke:#808080;stroke-linecap:square;stroke-width:0.4;"/>
   </g>
   <g id="line2d_73">
    <path clip-path="url(#pb1bc6df37e)" style="fill:none;stroke:#808080;stroke-linecap:square;stroke-width:0.4;"/>
   </g>
   <g id="line2d_74">
    <path clip-path="url(#pb1bc6df37e)" style="fill:none;stroke:#808080;stroke-linecap:square;stroke-width:0.4;"/>
   </g>
   <g id="line2d_75">
    <path clip-path="url(#pb1bc6df37e)" style="fill:none;stroke:#808080;stroke-linecap:square;stroke-width:0.4;"/>
   </g>
   <g id="line2d_76">
    <path clip-path="url(#pb1bc6df37e)" style="fill:none;stroke:#808080;stroke-linecap:square;stroke-width:0.4;"/>
   </g>
   <g id="line2d_77">
    <path clip-path="url(#pb1bc6df37e)" d="M 50.5325 1516.848341 
L 2754 1516.848341 
" style="fill:none;stroke:#808080;stroke-linecap:square;stroke-width:0.4;"/>
   </g>
   <g id="line2d_78">
    <path clip-path="url(#pb1bc6df37e)" d="M 50.5325 1476.246494 
L 2754 1476.246494 
" style="fill:none;stroke:#808080;stroke-linecap:square;stroke-width:0.4;"/>
   </g>
   <g id="line2d_79">
    <path clip-path="url(#pb1bc6df37e)" d="M 50.5325 1435.644647 
L 2754 1435.644647 
" style="fill:none;stroke:#808080;stroke-linecap:square;stroke-width:0.4;"/>
   </g>
   <g id="line2d_80">
    <path clip-path="url(#pb1bc6df37e)" d="M 50.5325 1395.0428 
L 2754 1395.0428 
" style="fill:none;stroke:#808080;stroke-linecap:square;stroke-width:0.4;"/>
   </g>
   <g id="line2d_81">
    <path clip-path="url(#pb1bc6df37e)" d="M 50.5325 1354.440953 
L 2754 1354.440953 
" style="fill:none;stroke:#808080;stroke-linecap:square;stroke-width:0.4;"/>
   </g>
   <g id="line2d_82">
    <path clip-path="url(#pb1bc6df37e)" d="M 50.5325 1313.839106 
L 2754 1313.839106 
" style="fill:none;stroke:#808080;stroke-linecap:square;stroke-width:0.4;"/>
   </g>
   <g id="line2d_83">
    <path clip-path="url(#pb1bc6df37e)" d="M 50.5325 1273.237259 
L 2754 1273.237259 
" style="fill:none;stroke:#808080;stroke-linecap:square;stroke-width:0.4;"/>
   </g>
   <g id="line2d_84">
    <path clip-path="url(#pb1bc6df37e)" d="M 50.5325 1232.635412 
L 2754 1232.635412 
" style="fill:none;stroke:#808080;stroke-linecap:square;stroke-width:0.4;"/>
   </g>
   <g id="line2d_85">
    <path clip-path="url(#pb1bc6df37e)" d="M 50.5325 1192.033565 
L 2754 1192.033565 
" style="fill:none;stroke:#808080;stroke-linecap:square;stroke-width:0.4;"/>
   </g>
   <g id="line2d_86">
    <path clip-path="url(#pb1bc6df37e)" d="M 50.5325 1151.431718 
L 2754 1151.431718 
" style="fill:none;stroke:#808080;stroke-linecap:square;stroke-width:0.4;"/>
   </g>
   <g id="line2d_87">
    <path clip-path="url(#pb1bc6df37e)" d="M 50.5325 1110.829871 
L 2754 1110.829871 
" style="fill:none;stroke:#808080;stroke-linecap:square;stroke-width:0.4;"/>
   </g>
   <g id="line2d_88">
    <path clip-path="url(#pb1bc6df37e)" d="M 50.5325 1070.228024 
L 2754 1070.228024 
" style="fill:none;stroke:#808080;stroke-linecap:square;stroke-width:0.4;"/>
   </g>
   <g id="line2d_89">
    <path clip-path="url(#pb1bc6df37e)" d="M 50.5325 1029.626176 
L 2754 1029.626176 
" style="fill:none;stroke:#808080;stroke-linecap:square;stroke-width:0.4;"/>
   </g>
   <g id="line2d_90">
    <path clip-path="url(#pb1bc6df37e)" d="M 50.5325 989.024329 
L 2754 989.024329 
" style="fill:none;stroke:#808080;stroke-linecap:square;stroke-width:0.4;"/>
   </g>
   <g id="line2d_91">
    <path clip-path="url(#pb1bc6df37e)" d="M 50.5325 948.422482 
L 2754 948.422482 
" style="fill:none;stroke:#808080;stroke-linecap:square;stroke-width:0.4;"/>
   </g>
   <g id="line2d_92">
    <path clip-path="url(#pb1bc6df37e)" d="M 50.5325 907.820635 
L 2754 907.820635 
" style="fill:none;stroke:#808080;stroke-linecap:square;stroke-width:0.4;"/>
   </g>
   <g id="line2d_93">
    <path clip-path="url(#pb1bc6df37e)" d="M 50.5325 867.218788 
L 2754 867.218788 
" style="fill:none;stroke:#808080;stroke-linecap:square;stroke-width:0.4;"/>
   </g>
   <g id="line2d_94">
    <path clip-path="url(#pb1bc6df37e)" d="M 50.5325 826.616941 
L 2754 826.616941 
" style="fill:none;stroke:#808080;stroke-linecap:square;stroke-width:0.4;"/>
   </g>
   <g id="line2d_95">
    <path clip-path="url(#pb1bc6df37e)" d="M 50.5325 786.015094 
L 2754 786.015094 
" style="fill:none;stroke:#808080;stroke-linecap:square;stroke-width:0.4;"/>
   </g>
   <g id="line2d_96">
    <path clip-path="url(#pb1bc6df37e)" d="M 50.5325 745.413247 
L 2754 745.413247 
" style="fill:none;stroke:#808080;stroke-linecap:square;stroke-width:0.4;"/>
   </g>
   <g id="line2d_97">
    <path clip-path="url(#pb1bc6df37e)" d="M 50.5325 704.8114 
L 2754 704.8114 
" style="fill:none;stroke:#808080;stroke-linecap:square;stroke-width:0.4;"/>
   </g>
   <g id="line2d_98">
    <path clip-path="url(#pb1bc6df37e)" d="M 50.5325 664.209553 
L 2754 664.209553 
" style="fill:none;stroke:#808080;stroke-linecap:square;stroke-width:0.4;"/>
   </g>
   <g id="line2d_99">
    <path clip-path="url(#pb1bc6df37e)" d="M 50.5325 623.607706 
L 2754 623.607706 
" style="fill:none;stroke:#808080;stroke-linecap:square;stroke-width:0.4;"/>
   </g>
   <g id="line2d_100">
    <path clip-path="url(#pb1bc6df37e)" d="M 50.5325 583.005859 
L 2754 583.005859 
" style="fill:none;stroke:#808080;stroke-linecap:square;stroke-width:0.4;"/>
   </g>
   <g id="line2d_101">
    <path clip-path="url(#pb1bc6df37e)" d="M 50.5325 542.404012 
L 2754 542.404012 
" style="fill:none;stroke:#808080;stroke-linecap:square;stroke-width:0.4;"/>
   </g>
   <g id="line2d_102">
    <path clip-path="url(#pb1bc6df37e)" d="M 50.5325 501.802165 
L 2754 501.802165 
" style="fill:none;stroke:#808080;stroke-linecap:square;stroke-width:0.4;"/>
   </g>
   <g id="line2d_103">
    <path clip-path="url(#pb1bc6df37e)" d="M 50.5325 461.200318 
L 2754 461.200318 
" style="fill:none;stroke:#808080;stroke-linecap:square;stroke-width:0.4;"/>
   </g>
   <g id="line2d_104">
    <path clip-path="url(#pb1bc6df37e)" d="M 50.5325 420.598471 
L 2754 420.598471 
" style="fill:none;stroke:#808080;stroke-linecap:square;stroke-width:0.4;"/>
   </g>
   <g id="line2d_105">
    <path clip-path="url(#pb1bc6df37e)" d="M 50.5325 379.996624 
L 2754 379.996624 
" style="fill:none;stroke:#808080;stroke-linecap:square;stroke-width:0.4;"/>
   </g>
   <g id="line2d_106">
    <path clip-path="url(#pb1bc6df37e)" d="M 50.5325 339.394776 
L 2754 339.394776 
" style="fill:none;stroke:#808080;stroke-linecap:square;stroke-width:0.4;"/>
   </g>
   <g id="line2d_107">
    <path clip-path="url(#pb1bc6df37e)" d="M 50.5325 298.792929 
L 2754 298.792929 
" style="fill:none;stroke:#808080;stroke-linecap:square;stroke-width:0.4;"/>
   </g>
   <g id="line2d_108">
    <path clip-path="url(#pb1bc6df37e)" d="M 50.5325 258.191082 
L 2754 258.191082 
" style="fill:none;stroke:#808080;stroke-linecap:square;stroke-width:0.4;"/>
   </g>
   <g id="line2d_109">
    <path clip-path="url(#pb1bc6df37e)" d="M 50.5325 217.589235 
L 2754 217.589235 
" style="fill:none;stroke:#808080;stroke-linecap:square;stroke-width:0.4;"/>
   </g>
   <g id="line2d_110">
    <path clip-path="url(#pb1bc6df37e)" d="M 50.5325 176.987388 
L 2754 176.987388 
" style="fill:none;stroke:#808080;stroke-linecap:square;stroke-width:0.4;"/>
   </g>
   <g id="line2d_111">
    <path clip-path="url(#pb1bc6df37e)" d="M 50.5325 136.385541 
L 2754 136.385541 
" style="fill:none;stroke:#808080;stroke-linecap:square;stroke-width:0.4;"/>
   </g>
   <g id="line2d_112">
    <path clip-path="url(#pb1bc6df37e)" d="M 50.5325 95.783694 
L 2754 95.783694 
" style="fill:none;stroke:#808080;stroke-linecap:square;stroke-width:0.4;"/>
   </g>
   <g id="line2d_113">
    <path clip-path="url(#pb1bc6df37e)" d="M 50.5325 55.181847 
L 2754 55.181847 
" style="fill:none;stroke:#808080;stroke-linecap:square;stroke-width:0.4;"/>
   </g>
   <g id="line2d_114">
    <path clip-path="url(#pb1bc6df37e)" style="fill:none;stroke:#000000;stroke-linecap:square;stroke-width:0.6;"/>
   </g>
   <g id="line2d_115">
    <path clip-path="url(#pb1bc6df37e)" style="fill:none;stroke:#000000;stroke-linecap:square;stroke-width:0.6;"/>
   </g>
   <g id="line2d_116">
    <path clip-path="url(#pb1bc6df37e)" style="fill:none;stroke:#000000;stroke-linecap:square;stroke-width:0.6;"/>
   </g>
   <g id="line2d_117">
    <path clip-path="url(#pb1bc6df37e)" style="fill:none;stroke:#000000;stroke-linecap:square;stroke-width:0.6;"/>
   </g>
   <g id="line2d_118">
    <path clip-path="url(#pb1bc6df37e)" style="fill:none;stroke:#000000;stroke-linecap:square;stroke-width:0.6;"/>
   </g>
   <g id="line2d_119">
    <path clip-path="url(#pb1bc6df37e)" style="fill:none;stroke:#000000;stroke-linecap:square;stroke-width:0.6;"/>
   </g>
   <g id="line2d_120">
    <path clip-path="url(#pb1bc6df37e)" style="fill:none;stroke:#000000;stroke-linecap:square;stroke-width:0.6;"/>
   </g>
   <g id="line2d_121">
    <path clip-path="url(#pb1bc6df37e)" style="fill:none;stroke:#000000;stroke-linecap:square;stroke-width:0.6;"/>
   </g>
   <g id="line2d_122">
    <path clip-path="url(#pb1bc6df37e)" style="fill:none;stroke:#000000;stroke-linecap:square;stroke-width:0.6;"/>
   </g>
   <g id="line2d_123">
    <path clip-path="url(#pb1bc6df37e)" style="fill:none;stroke:#000000;stroke-linecap:square;stroke-width:0.6;"/>
   </g>
   <g id="line2d_124">
    <path clip-path="url(#pb1bc6df37e)" style="fill:none;stroke:#000000;stroke-linecap:square;stroke-width:0.6;"/>
   </g>
   <g id="line2d_125">
    <path clip-path="url(#pb1bc6df37e)" style="fill:none;stroke:#000000;stroke-linecap:square;stroke-width:0.6;"/>
   </g>
   <g id="line2d_126">
    <path clip-path="url(#pb1bc6df37e)" style="fill:none;stroke:#000000;stroke-linecap:square;stroke-width:0.6;"/>
   </g>
   <g id="line2d_127">
    <path clip-path="url(#pb1bc6df37e)" d="M 50.5325 1435.644647 
L 2754 1435.644647 
" style="fill:none;stroke:#000000;stroke-linecap:square;stroke-width:0.6;"/>
   </g>
   <g id="line2d_128">
    <path clip-path="url(#pb1bc6df37e)" d="M 50.5325 1232.635412 
L 2754 1232.635412 
" style="fill:none;stroke:#000000;stroke-linecap:square;stroke-width:0.6;"/>
   </g>
   <g id="line2d_129">
    <path clip-path="url(#pb1bc6df37e)" d="M 50.5325 1029.626176 
L 2754 1029.626176 
" style="fill:none;stroke:#000000;stroke-linecap:square;stroke-width:0.6;"/>
   </g>
   <g id="line2d_130">
    <path clip-path="url(#pb1bc6df37e)" d="M 50.5325 826.616941 
L 2754 826.616941 
" style="fill:none;stroke:#000000;stroke-linecap:square;stroke-width:0.6;"/>
   </g>
   <g id="line2d_131">
    <path clip-path="url(#pb1bc6df37e)" d="M 50.5325 623.607706 
L 2754 623.607706 
" style="fill:none;stroke:#000000;stroke-linecap:square;stroke-width:0.6;"/>
   </g>
   <g id="line2d_132">
    <path clip-path="url(#pb1bc6df37e)" d="M 50.5325 420.598471 
L 2754 420.598471 
" style="fill:none;stroke:#000000;stroke-linecap:square;stroke-width:0.6;"/>
   </g>
   <g id="line2d_133">
    <path clip-path="url(#pb1bc6df37e)" d="M 50.5325 217.589235 
L 2754 217.589235 
" style="fill:none;stroke:#000000;stroke-linecap:square;stroke-width:0.6;"/>
   </g>
   <g id="line2d_134">
    <path clip-path="url(#pb1bc6df37e)" d="M 50.5325 747.118525 
L 55.731476 676.552514 
L 60.930452 711.916723 
L 66.129428 586.33521 
L 71.328404 701.644456 
L 76.52738 683.617236 
L 81.726356 718.21001 
L 86.925332 452.836337 
L 92.124308 656.495202 
L 97.323284 677.608162 
L 102.52226 704.8114 
L 107.721236 594.333774 
L 112.920212 783.254169 
L 118.119187 753.1682 
L 123.318163 815.979257 
L 128.517139 517.109061 
L 133.716115 694.092512 
L 138.915091 696.325614 
L 144.114067 782.929354 
L 149.313043 714.758853 
L 154.512019 859.098419 
L 159.710995 823.815414 
L 164.909971 845.537402 
L 170.108947 597.054098 
L 175.307923 977.858821 
L 180.506899 937.987808 
L 185.705875 1027.06826 
L 190.904851 802.052824 
L 196.103827 889.712212 
L 201.302803 778.01653 
L 206.501779 753.411811 
L 211.700755 372.810097 
L 216.899731 611.061735 
L 222.098707 685.809736 
L 227.297683 790.643705 
L 232.496659 768.718707 
L 237.695635 962.105305 
L 242.894611 913.139477 
L 248.093587 904.613089 
L 253.292562 563.02975 
L 258.491538 736.277831 
L 263.690514 776.839077 
L 268.88949 906.561978 
L 274.088466 729.375517 
L 279.287442 849.191568 
L 284.486418 736.602646 
L 289.685394 778.66616 
L 294.88437 498.960035 
L 300.083346 930.070447 
L 305.282322 878.303092 
L 310.481298 725.721351 
L 315.680274 223.760716 
L 320.87925 548.778502 
L 326.078226 930.801281 
L 331.277202 1030.154 
L 336.476178 820.323655 
L 341.675154 1045.866915 
L 346.87413 1046.719554 
L 352.073106 1089.554503 
L 357.272082 980.091923 
L 362.471058 1259.432631 
L 367.670034 995.561227 
L 372.86901 971.403128 
L 378.067986 572.165166 
L 383.266962 873.918093 
L 388.465937 1096.862835 
L 393.664913 1063.853534 
L 398.863889 1212.537497 
L 404.062865 1045.948119 
L 409.261841 1067.913718 
L 414.460817 831.286154 
L 419.659793 1375.797524 
L 424.858769 1290.087025 
L 430.057745 1031.087843 
L 435.256721 1122.523203 
L 440.455697 963.891786 
L 445.654673 922.477902 
L 450.853649 609.315856 
L 456.052625 397.455418 
L 461.251601 482.272676 
L 466.450577 477.603464 
L 471.649553 538.18142 
L 476.848529 508.29846 
L 482.047505 598.069144 
L 487.246481 532.537763 
L 492.445457 619.872336 
L 497.644433 381.823707 
L 502.843409 517.839894 
L 508.042385 453.282957 
L 513.241361 539.440077 
L 518.440337 491.042675 
L 523.639312 519.342163 
L 528.838288 392.542594 
L 534.037264 383.975605 
L 539.23624 385.883891 
L 544.435216 529.330217 
L 549.634192 479.146334 
L 554.833168 556.533455 
L 560.032144 485.114806 
L 565.23112 582.234424 
L 570.430096 566.968129 
L 575.629072 580.853961 
L 580.828048 515.566191 
L 586.027024 654.46511 
L 591.226 685.322513 
L 596.424976 734.004128 
L 601.623952 647.88761 
L 606.822928 718.65663 
L 612.021904 656.251591 
L 617.22088 657.956868 
L 622.419856 457.221337 
L 627.618832 544.515308 
L 632.817808 613.903864 
L 638.016784 554.66577 
L 643.21576 649.552286 
L 648.414736 616.339975 
L 653.613712 635.463445 
L 658.812688 660.717794 
L 664.011663 425.348887 
L 669.210639 503.791655 
L 674.409615 522.184292 
L 679.608591 588.52771 
L 684.807567 514.551145 
L 690.006543 597.825533 
L 695.205519 580.732155 
L 700.404495 556.533455 
L 705.603471 431.520367 
L 710.802447 594.25257 
L 716.001423 612.401596 
L 721.200399 685.728532 
L 726.399375 529.898643 
L 731.598351 516.784246 
L 736.797327 570.094471 
L 741.996303 593.115719 
L 747.195279 419.136804 
L 752.394255 539.318271 
L 757.593231 555.356001 
L 762.792207 586.375812 
L 767.991183 503.710452 
L 773.190159 576.956184 
L 778.389135 538.425031 
L 783.588111 568.30799 
L 788.787087 431.398562 
L 793.986063 551.701835 
L 799.185038 532.862578 
L 804.384014 578.336646 
L 809.58299 464.610873 
L 814.781966 506.836794 
L 819.980942 531.360309 
L 825.179918 549.143918 
L 830.378894 352.427969 
L 835.57787 489.134388 
L 840.776846 505.618738 
L 845.975822 560.309426 
L 851.174798 481.744852 
L 856.373774 555.965029 
L 861.57275 529.695634 
L 866.771726 562.786139 
L 871.970702 526.082069 
L 877.169678 671.883302 
L 882.368654 648.740249 
L 887.56763 660.271174 
L 892.766606 587.837479 
L 897.965582 648.659046 
L 903.164558 636.356686 
L 908.363534 631.403261 
L 913.56251 486.414065 
L 918.761486 579.554702 
L 923.960462 341.749684 
L 929.159437 482.029065 
L 934.358413 459.129623 
L 939.557389 497.579573 
L 944.756365 391.974168 
L 949.955341 512.886469 
L 955.154317 469.401891 
L 960.353293 564.653824 
L 965.552269 250.030111 
L 970.751245 505.699942 
L 975.950221 582.924655 
L 981.149197 611.021133 
L 986.348173 532.618967 
L 991.547149 691.900013 
L 996.746125 617.801642 
L 1001.945101 590.72021 
L 1007.144077 251.897796 
L 1012.343053 493.966008 
L 1017.542029 585.604377 
L 1022.741005 649.146268 
L 1027.939981 607.20456 
L 1033.138957 649.146268 
L 1038.337933 549.712344 
L 1043.536909 442.320459 
L 1048.735885 369.521347 
L 1053.934861 560.39063 
L 1059.133837 666.929877 
L 1064.332812 752.274959 
L 1069.531788 590.679608 
L 1074.730764 743.423757 
L 1079.92974 655.520758 
L 1085.128716 672.93895 
L 1090.327692 256.729416 
L 1095.526668 431.114349 
L 1100.725644 487.794527 
L 1105.92462 516.053413 
L 1111.123596 583.168266 
L 1116.322572 791.41514 
L 1121.521548 740.622229 
L 1126.720524 719.022046 
L 1131.9195 439.640737 
L 1137.118476 691.250383 
L 1142.317452 694.092512 
L 1147.516428 785.081252 
L 1152.715404 662.869692 
L 1157.91438 652.028999 
L 1163.113356 547.682252 
L 1168.312332 519.179755 
L 1173.511308 401.02838 
L 1178.710284 685.200708 
L 1183.90926 675.456265 
L 1189.108236 579.920118 
L 1194.307212 790.684307 
L 1199.506187 735.5876 
L 1204.705163 726.776999 
L 1209.904139 550.361974 
L 1215.103115 700.913623 
L 1220.302091 190.792016 
L 1225.501067 339.232369 
L 1230.700043 119.535775 
L 1235.899019 693.118068 
L 1241.097995 727.061212 
L 1246.296971 721.011537 
L 1251.495947 360.467135 
L 1256.694923 516.053413 
L 1261.893899 627.018261 
L 1267.092875 734.856767 
L 1272.291851 640.498074 
L 1277.490827 763.968291 
L 1282.689803 677.689366 
L 1287.888779 636.681501 
L 1293.087755 377.925929 
L 1298.286731 820.404859 
L 1303.485707 698.639919 
L 1308.684683 685.769134 
L 1313.883659 611.142939 
L 1319.082635 778.138336 
L 1324.281611 727.751444 
L 1329.480587 721.904778 
L 1334.679562 355.473108 
L 1339.878538 615.284327 
L 1345.077514 808.670925 
L 1350.27649 731.527415 
L 1355.475466 809.645369 
L 1360.674442 901.973969 
L 1365.873418 684.266865 
L 1371.072394 811.228841 
L 1376.27137 751.909543 
L 1381.470346 662.666683 
L 1386.669322 719.022046 
L 1391.868298 590.72021 
L 1397.067274 303.705753 
L 1402.26625 413.493147 
L 1407.465226 486.576472 
L 1412.664202 484.708787 
L 1417.863178 561.283871 
L 1423.062154 506.917997 
L 1428.26113 633.311547 
L 1433.460106 480.932815 
L 1438.659082 571.59674 
L 1443.858058 419.25861 
L 1449.057034 547.357437 
L 1454.25601 504.400683 
L 1459.454986 563.801185 
L 1464.653962 499.28485 
L 1469.852937 504.603692 
L 1475.051913 450.765643 
L 1480.250889 462.093558 
L 1485.449865 273.660386 
L 1490.648841 450.643837 
L 1495.847817 411.828472 
L 1501.046793 458.073975 
L 1506.245769 373.013106 
L 1511.444745 555.11239 
L 1516.643721 523.118134 
L 1521.842697 522.712116 
L 1527.041673 397.617825 
L 1532.240649 507.40522 
L 1537.439625 457.870966 
L 1542.638601 476.344807 
L 1547.837577 502.939016 
L 1553.036553 582.315627 
L 1558.235529 436.230182 
L 1563.434505 427.500785 
L 1568.633481 180.925767 
L 1573.832457 365.014542 
L 1579.031433 314.384039 
L 1584.230409 341.262461 
L 1589.429385 254.212101 
L 1594.628361 378.859772 
L 1599.827337 387.426762 
L 1605.026312 342.277508 
L 1610.225288 204.231228 
L 1615.424264 326.727 
L 1620.62324 383.204169 
L 1625.822216 404.195324 
L 1631.021192 332.167648 
L 1636.220168 419.786434 
L 1646.61812 267.042285 
L 1651.817096 14.58 
L 1657.016072 263.266313 
L 1662.215048 313.815613 
L 1667.414024 408.783333 
L 1672.613 320.027695 
L 1677.811976 441.91444 
L 1683.010952 510.328553 
L 1688.209928 545.246141 
L 1693.408904 416.863101 
L 1698.60788 658.931313 
L 1703.806856 599.165394 
L 1709.005832 559.659797 
L 1714.204808 479.877167 
L 1719.403784 547.073224 
L 1724.60276 451.537078 
L 1729.801736 369.764958 
L 1735.000712 120.632025 
L 1740.199687 396.318566 
L 1745.398663 405.616389 
L 1750.597639 383.447781 
L 1755.796615 364.283709 
L 1760.995591 506.75559 
L 1766.194567 499.081841 
L 1771.393543 464.286058 
L 1776.592519 287.424412 
L 1781.791495 414.833008 
L 1786.990471 412.193888 
L 1792.189447 438.706894 
L 1797.388423 289.982329 
L 1802.587399 405.494583 
L 1807.786375 370.861208 
L 1812.985351 337.48649 
L 1818.184327 183.8491 
L 1823.383303 347.718155 
L 1828.582279 362.619033 
L 1833.781255 434.606108 
L 1838.980231 412.356296 
L 1844.179207 524.539199 
L 1849.378183 510.653367 
L 1854.577159 521.04744 
L 1859.776135 328.188667 
L 1864.975111 466.478558 
L 1870.174087 489.82462 
L 1875.373062 562.380121 
L 1880.572038 412.68111 
L 1885.771014 451.780689 
L 1890.96999 430.464719 
L 1896.168966 494.45323 
L 1901.367942 220.147152 
L 1906.566918 394.775696 
L 1911.765894 358.843061 
L 1916.96487 503.954063 
L 1922.163846 324.73751 
L 1927.362822 414.508194 
L 1932.561798 377.113892 
L 1937.760774 474.192909 
L 1942.95975 266.433257 
L 1948.158726 421.329304 
L 1953.357702 423.562405 
L 1958.556678 469.036474 
L 1963.755654 341.912091 
L 1968.95463 493.966008 
L 1974.153606 382.432734 
L 1979.352582 390.593706 
L 1984.551558 170.247482 
L 1989.750534 370.942412 
L 1994.94951 411.463055 
L 2000.148486 606.920347 
L 2005.347462 509.39471 
L 2010.546437 581.50359 
L 2015.745413 560.106417 
L 2020.944389 656.90122 
L 2026.143365 599.124792 
L 2031.342341 696.203808 
L 2036.541317 658.525294 
L 2041.740293 689.666911 
L 2046.939269 567.333546 
L 2052.138245 532.70017 
L 2057.337221 398.105047 
L 2062.536197 404.601343 
L 2067.735173 221.162198 
L 2072.934149 345.322646 
L 2078.133125 328.960102 
L 2083.332101 464.245456 
L 2088.531077 467.006382 
L 2093.730053 470.010918 
L 2098.929029 457.627355 
L 2104.128005 577.930628 
L 2109.326981 440.209163 
L 2114.525957 532.537763 
L 2119.724933 513.333089 
L 2124.923909 575.33211 
L 2130.122885 486.495268 
L 2135.321861 521.69707 
L 2140.520837 481.582445 
L 2145.719812 518.733135 
L 2150.918788 363.593477 
L 2156.117764 576.753174 
L 2161.31674 576.103545 
L 2166.515716 590.111182 
L 2171.714692 526.406884 
L 2176.913668 580.407341 
L 2182.112644 550.321372 
L 2187.31162 596.607478 
L 2192.510596 652.110203 
L 2197.709572 475.207955 
L 2202.908548 268.90997 
L 2208.107524 375.692828 
L 2213.3065 504.969109 
L 2218.505476 410.69162 
L 2223.704452 499.650267 
L 2228.903428 442.645274 
L 2234.102404 448.573143 
L 2239.30138 316.129918 
L 2244.500356 268.26034 
L 2249.699332 444.228746 
L 2254.898308 414.345786 
L 2260.097284 442.279857 
L 2265.29626 390.756113 
L 2270.495236 563.963593 
L 2275.694212 549.671742 
L 2280.893187 479.308741 
L 2286.092163 345.241442 
L 2291.291139 573.545628 
L 2296.490115 578.823869 
L 2301.689091 682.480384 
L 2306.888067 591.978867 
L 2312.087043 701.928669 
L 2317.286019 660.677192 
L 2322.484995 644.720666 
L 2327.683971 251.451176 
L 2332.882947 463.189808 
L 2338.081923 491.286286 
L 2343.280899 645.207889 
L 2348.479875 590.273589 
L 2353.678851 745.210238 
L 2358.877827 711.63251 
L 2364.076803 617.801642 
L 2369.275779 448.451338 
L 2374.474755 616.502383 
L 2379.673731 577.199795 
L 2384.872707 650.973351 
L 2390.071683 553.36651 
L 2395.270659 642.771778 
L 2400.469635 548.210076 
L 2405.668611 525.513643 
L 2410.867587 161.599288 
L 2416.066562 378.859772 
L 2421.265538 539.643086 
L 2426.464514 635.098029 
L 2431.66349 811.147637 
L 2436.862466 844.238143 
L 2442.061442 882.931703 
L 2447.260418 572.083962 
L 2452.459394 744.763618 
L 2457.65837 716.342325 
L 2462.857346 751.178709 
L 2468.056322 573.464425 
L 2473.255298 583.290072 
L 2478.454274 562.095908 
L 2483.65325 467.534206 
L 2488.852226 379.062781 
L 2494.051202 14.58 
L 2499.250178 140.486328 
L 2504.449154 317.023159 
L 2509.64813 429.449673 
L 2514.847106 552.757483 
L 2520.046082 852.439716 
L 2525.245058 930.598271 
L 2530.444034 14.58 
L 2535.64301 564.491417 
L 2540.841986 821.74472 
L 2546.040962 1090.488345 
L 2551.239937 997.997338 
L 2556.438913 861.128511 
L 2561.637889 564.004194 
L 2566.836865 743.180145 
L 2572.035841 891.092674 
L 2577.234817 923.08693 
L 2582.433793 922.924522 
L 2587.632769 911.759014 
L 2592.831745 861.047307 
L 2598.030721 745.007229 
L 2603.229697 799.210694 
L 2608.428673 738.835748 
L 2613.627649 807.24986 
L 2618.826625 703.26853 
L 2624.025601 838.594486 
L 2629.224577 923.98017 
L 2634.423553 953.497713 
L 2639.622529 852.764531 
L 2644.821505 911.596607 
L 2650.020481 794.460278 
L 2655.219457 806.519027 
L 2660.418433 412.640509 
L 2665.617409 514.551145 
L 2670.816385 575.941137 
L 2676.015361 635.747658 
L 2681.214337 623.404697 
L 2686.413312 705.664039 
L 2691.612288 760.354727 
L 2696.811264 604.443634 
L 2702.01024 161.233872 
L 2707.209216 448.93856 
L 2712.408192 643.949231 
L 2717.607168 600.221042 
L 2722.806144 430.992543 
L 2728.00512 492.829157 
L 2733.204096 384.625234 
L 2738.403072 434.687312 
L 2743.602048 241.584927 
L 2748.801024 523.158736 
L 2754 603.753403 
L 2754 603.753403 
" style="fill:none;stroke:#1f77b4;stroke-linecap:square;stroke-width:0.7;"/>
   </g>
   <g id="patch_3">
    <path d="M 50.5325 1395.0428 
L 50.5325 14.58 
" style="fill:none;stroke:#000000;stroke-linecap:square;stroke-linejoin:miter;stroke-width:0.8;"/>
   </g>
   <g id="patch_4">
    <path d="M 2754 1395.0428 
L 2754 14.58 
" style="fill:none;stroke:#000000;stroke-linecap:square;stroke-linejoin:miter;stroke-width:0.8;"/>
   </g>
   <g id="patch_5">
    <path d="M 50.5325 1395.0428 
L 2754 1395.0428 
" style="fill:none;stroke:#000000;stroke-linecap:square;stroke-linejoin:miter;stroke-width:0.8;"/>
   </g>
   <g id="patch_6">
    <path d="M 50.5325 14.58 
L 2754 14.58 
" style="fill:none;stroke:#000000;stroke-linecap:square;stroke-linejoin:miter;stroke-width:0.8;"/>
   </g>
   <g id="legend_1">
    <g id="patch_7">
     <path d="M 1350.024844 1555.93094 
L 1458.507656 1555.93094 
Q 1460.507656 1555.93094 1460.507656 1553.93094 
L 1460.507656 1473.06594 
Q 1460.507656 1471.06594 1458.507656 1471.06594 
L 1350.024844 1471.06594 
Q 1348.024844 1471.06594 1348.024844 1473.06594 
L 1348.024844 1553.93094 
Q 1348.024844 1555.93094 1350.024844 1555.93094 
z
" style="fill:#4c4c4c;opacity:0.5;stroke:#4c4c4c;stroke-linejoin:miter;"/>
    </g>
    <g id="patch_8">
     <path d="M 1348.024844 1553.93094 
L 1456.507656 1553.93094 
Q 1458.507656 1553.93094 1458.507656 1551.93094 
L 1458.507656 1471.06594 
Q 1458.507656 1469.06594 1456.507656 1469.06594 
L 1348.024844 1469.06594 
Q 1346.024844 1469.06594 1346.024844 1471.06594 
L 1346.024844 1551.93094 
Q 1346.024844 1553.93094 1348.024844 1553.93094 
z
" style="fill:#ffffff;stroke:#cccccc;stroke-linejoin:miter;"/>
    </g>
    <g id="line2d_135">
     <path d="M 1350.024844 1511.797659 
L 1370.024844 1511.797659 
" style="fill:none;stroke:#1f77b4;stroke-linecap:square;stroke-width:0.7;"/>
    </g>
    <g id="line2d_136"/>
    <g id="text_15">
     <!-- Frames: 521  -->
     <defs>
      <path d="M 41.109375 46.296875 
Q 39.59375 47.171875 37.8125 47.578125 
Q 36.03125 48 33.890625 48 
Q 26.265625 48 22.1875 43.046875 
Q 18.109375 38.09375 18.109375 28.8125 
L 18.109375 0 
L 9.078125 0 
L 9.078125 54.6875 
L 18.109375 54.6875 
L 18.109375 46.1875 
Q 20.953125 51.171875 25.484375 53.578125 
Q 30.03125 56 36.53125 56 
Q 37.453125 56 38.578125 55.875 
Q 39.703125 55.765625 41.0625 55.515625 
z
" id="DejaVuSans-114"/>
      <path d="M 34.28125 27.484375 
Q 23.390625 27.484375 19.1875 25 
Q 14.984375 22.515625 14.984375 16.5 
Q 14.984375 11.71875 18.140625 8.90625 
Q 21.296875 6.109375 26.703125 6.109375 
Q 34.1875 6.109375 38.703125 11.40625 
Q 43.21875 16.703125 43.21875 25.484375 
L 43.21875 27.484375 
z
M 52.203125 31.203125 
L 52.203125 0 
L 43.21875 0 
L 43.21875 8.296875 
Q 40.140625 3.328125 35.546875 0.953125 
Q 30.953125 -1.421875 24.3125 -1.421875 
Q 15.921875 -1.421875 10.953125 3.296875 
Q 6 8.015625 6 15.921875 
Q 6 25.140625 12.171875 29.828125 
Q 18.359375 34.515625 30.609375 34.515625 
L 43.21875 34.515625 
L 43.21875 35.40625 
Q 43.21875 41.609375 39.140625 45 
Q 35.0625 48.390625 27.6875 48.390625 
Q 23 48.390625 18.546875 47.265625 
Q 14.109375 46.140625 10.015625 43.890625 
L 10.015625 52.203125 
Q 14.9375 54.109375 19.578125 55.046875 
Q 24.21875 56 28.609375 56 
Q 40.484375 56 46.34375 49.84375 
Q 52.203125 43.703125 52.203125 31.203125 
z
" id="DejaVuSans-97"/>
      <path d="M 52 44.1875 
Q 55.375 50.25 60.0625 53.125 
Q 64.75 56 71.09375 56 
Q 79.640625 56 84.28125 50.015625 
Q 88.921875 44.046875 88.921875 33.015625 
L 88.921875 0 
L 79.890625 0 
L 79.890625 32.71875 
Q 79.890625 40.578125 77.09375 44.375 
Q 74.3125 48.1875 68.609375 48.1875 
Q 61.625 48.1875 57.5625 43.546875 
Q 53.515625 38.921875 53.515625 30.90625 
L 53.515625 0 
L 44.484375 0 
L 44.484375 32.71875 
Q 44.484375 40.625 41.703125 44.40625 
Q 38.921875 48.1875 33.109375 48.1875 
Q 26.21875 48.1875 22.15625 43.53125 
Q 18.109375 38.875 18.109375 30.90625 
L 18.109375 0 
L 9.078125 0 
L 9.078125 54.6875 
L 18.109375 54.6875 
L 18.109375 46.1875 
Q 21.1875 51.21875 25.484375 53.609375 
Q 29.78125 56 35.6875 56 
Q 41.65625 56 45.828125 52.96875 
Q 50 49.953125 52 44.1875 
z
" id="DejaVuSans-109"/>
      <path d="M 56.203125 29.59375 
L 56.203125 25.203125 
L 14.890625 25.203125 
Q 15.484375 15.921875 20.484375 11.0625 
Q 25.484375 6.203125 34.421875 6.203125 
Q 39.59375 6.203125 44.453125 7.46875 
Q 49.3125 8.734375 54.109375 11.28125 
L 54.109375 2.78125 
Q 49.265625 0.734375 44.1875 -0.34375 
Q 39.109375 -1.421875 33.890625 -1.421875 
Q 20.796875 -1.421875 13.15625 6.1875 
Q 5.515625 13.8125 5.515625 26.8125 
Q 5.515625 40.234375 12.765625 48.109375 
Q 20.015625 56 32.328125 56 
Q 43.359375 56 49.78125 48.890625 
Q 56.203125 41.796875 56.203125 29.59375 
z
M 47.21875 32.234375 
Q 47.125 39.59375 43.09375 43.984375 
Q 39.0625 48.390625 32.421875 48.390625 
Q 24.90625 48.390625 20.390625 44.140625 
Q 15.875 39.890625 15.1875 32.171875 
z
" id="DejaVuSans-101"/>
      <path d="M 44.28125 53.078125 
L 44.28125 44.578125 
Q 40.484375 46.53125 36.375 47.5 
Q 32.28125 48.484375 27.875 48.484375 
Q 21.1875 48.484375 17.84375 46.4375 
Q 14.5 44.390625 14.5 40.28125 
Q 14.5 37.15625 16.890625 35.375 
Q 19.28125 33.59375 26.515625 31.984375 
L 29.59375 31.296875 
Q 39.15625 29.25 43.1875 25.515625 
Q 47.21875 21.78125 47.21875 15.09375 
Q 47.21875 7.46875 41.1875 3.015625 
Q 35.15625 -1.421875 24.609375 -1.421875 
Q 20.21875 -1.421875 15.453125 -0.5625 
Q 10.6875 0.296875 5.421875 2 
L 5.421875 11.28125 
Q 10.40625 8.6875 15.234375 7.390625 
Q 20.0625 6.109375 24.8125 6.109375 
Q 31.15625 6.109375 34.5625 8.28125 
Q 37.984375 10.453125 37.984375 14.40625 
Q 37.984375 18.0625 35.515625 20.015625 
Q 33.0625 21.96875 24.703125 23.78125 
L 21.578125 24.515625 
Q 13.234375 26.265625 9.515625 29.90625 
Q 5.8125 33.546875 5.8125 39.890625 
Q 5.8125 47.609375 11.28125 51.796875 
Q 16.75 56 26.8125 56 
Q 31.78125 56 36.171875 55.265625 
Q 40.578125 54.546875 44.28125 53.078125 
z
" id="DejaVuSans-115"/>
      <path d="M 11.71875 12.40625 
L 22.015625 12.40625 
L 22.015625 0 
L 11.71875 0 
z
M 11.71875 51.703125 
L 22.015625 51.703125 
L 22.015625 39.3125 
L 11.71875 39.3125 
z
" id="DejaVuSans-58"/>
      <path id="DejaVuSans-32"/>
     </defs>
     <g transform="translate(1378.024844 1480.664378)scale(0.1 -0.1)">
      <use xlink:href="#DejaVuSans-70"/>
      <use x="50.269531" xlink:href="#DejaVuSans-114"/>
      <use x="91.382812" xlink:href="#DejaVuSans-97"/>
      <use x="152.662109" xlink:href="#DejaVuSans-109"/>
      <use x="250.074219" xlink:href="#DejaVuSans-101"/>
      <use x="311.597656" xlink:href="#DejaVuSans-115"/>
      <use x="363.697266" xlink:href="#DejaVuSans-58"/>
      <use x="397.388672" xlink:href="#DejaVuSans-32"/>
      <use x="429.175781" xlink:href="#DejaVuSans-53"/>
      <use x="492.798828" xlink:href="#DejaVuSans-50"/>
      <use x="556.421875" xlink:href="#DejaVuSans-49"/>
      <use x="620.044922" xlink:href="#DejaVuSans-32"/>
     </g>
     <!-- Mean:86.194 -->
     <defs>
      <path d="M 54.890625 33.015625 
L 54.890625 0 
L 45.90625 0 
L 45.90625 32.71875 
Q 45.90625 40.484375 42.875 44.328125 
Q 39.84375 48.1875 33.796875 48.1875 
Q 26.515625 48.1875 22.3125 43.546875 
Q 18.109375 38.921875 18.109375 30.90625 
L 18.109375 0 
L 9.078125 0 
L 9.078125 54.6875 
L 18.109375 54.6875 
L 18.109375 46.1875 
Q 21.34375 51.125 25.703125 53.5625 
Q 30.078125 56 35.796875 56 
Q 45.21875 56 50.046875 50.171875 
Q 54.890625 44.34375 54.890625 33.015625 
z
" id="DejaVuSans-110"/>
      <path d="M 33.015625 40.375 
Q 26.375 40.375 22.484375 35.828125 
Q 18.609375 31.296875 18.609375 23.390625 
Q 18.609375 15.53125 22.484375 10.953125 
Q 26.375 6.390625 33.015625 6.390625 
Q 39.65625 6.390625 43.53125 10.953125 
Q 47.40625 15.53125 47.40625 23.390625 
Q 47.40625 31.296875 43.53125 35.828125 
Q 39.65625 40.375 33.015625 40.375 
z
M 52.59375 71.296875 
L 52.59375 62.3125 
Q 48.875 64.0625 45.09375 64.984375 
Q 41.3125 65.921875 37.59375 65.921875 
Q 27.828125 65.921875 22.671875 59.328125 
Q 17.53125 52.734375 16.796875 39.40625 
Q 19.671875 43.65625 24.015625 45.921875 
Q 28.375 48.1875 33.59375 48.1875 
Q 44.578125 48.1875 50.953125 41.515625 
Q 57.328125 34.859375 57.328125 23.390625 
Q 57.328125 12.15625 50.6875 5.359375 
Q 44.046875 -1.421875 33.015625 -1.421875 
Q 20.359375 -1.421875 13.671875 8.265625 
Q 6.984375 17.96875 6.984375 36.375 
Q 6.984375 53.65625 15.1875 63.9375 
Q 23.390625 74.21875 37.203125 74.21875 
Q 40.921875 74.21875 44.703125 73.484375 
Q 48.484375 72.75 52.59375 71.296875 
z
" id="DejaVuSans-54"/>
      <path d="M 10.6875 12.40625 
L 21 12.40625 
L 21 0 
L 10.6875 0 
z
" id="DejaVuSans-46"/>
     </defs>
     <g transform="translate(1378.024844 1491.86219)scale(0.1 -0.1)">
      <use xlink:href="#DejaVuSans-77"/>
      <use x="86.279297" xlink:href="#DejaVuSans-101"/>
      <use x="147.802734" xlink:href="#DejaVuSans-97"/>
      <use x="209.082031" xlink:href="#DejaVuSans-110"/>
      <use x="272.460938" xlink:href="#DejaVuSans-58"/>
      <use x="306.152344" xlink:href="#DejaVuSans-56"/>
      <use x="369.775391" xlink:href="#DejaVuSans-54"/>
      <use x="433.398438" xlink:href="#DejaVuSans-46"/>
      <use x="465.185547" xlink:href="#DejaVuSans-49"/>
      <use x="528.808594" xlink:href="#DejaVuSans-57"/>
      <use x="592.431641" xlink:href="#DejaVuSans-52"/>
     </g>
     <!-- 0.01%: 66.584  -->
     <defs>
      <path d="M 72.703125 32.078125 
Q 68.453125 32.078125 66.03125 28.46875 
Q 63.625 24.859375 63.625 18.40625 
Q 63.625 12.0625 66.03125 8.421875 
Q 68.453125 4.78125 72.703125 4.78125 
Q 76.859375 4.78125 79.265625 8.421875 
Q 81.6875 12.0625 81.6875 18.40625 
Q 81.6875 24.8125 79.265625 28.4375 
Q 76.859375 32.078125 72.703125 32.078125 
z
M 72.703125 38.28125 
Q 80.421875 38.28125 84.953125 32.90625 
Q 89.5 27.546875 89.5 18.40625 
Q 89.5 9.28125 84.9375 3.921875 
Q 80.375 -1.421875 72.703125 -1.421875 
Q 64.890625 -1.421875 60.34375 3.921875 
Q 55.8125 9.28125 55.8125 18.40625 
Q 55.8125 27.59375 60.375 32.9375 
Q 64.9375 38.28125 72.703125 38.28125 
z
M 22.3125 68.015625 
Q 18.109375 68.015625 15.6875 64.375 
Q 13.28125 60.75 13.28125 54.390625 
Q 13.28125 47.953125 15.671875 44.328125 
Q 18.0625 40.71875 22.3125 40.71875 
Q 26.5625 40.71875 28.96875 44.328125 
Q 31.390625 47.953125 31.390625 54.390625 
Q 31.390625 60.6875 28.953125 64.34375 
Q 26.515625 68.015625 22.3125 68.015625 
z
M 66.40625 74.21875 
L 74.21875 74.21875 
L 28.609375 -1.421875 
L 20.796875 -1.421875 
z
M 22.3125 74.21875 
Q 30.03125 74.21875 34.609375 68.875 
Q 39.203125 63.53125 39.203125 54.390625 
Q 39.203125 45.171875 34.640625 39.84375 
Q 30.078125 34.515625 22.3125 34.515625 
Q 14.546875 34.515625 10.03125 39.859375 
Q 5.515625 45.21875 5.515625 54.390625 
Q 5.515625 63.484375 10.046875 68.84375 
Q 14.59375 74.21875 22.3125 74.21875 
z
" id="DejaVuSans-37"/>
     </defs>
     <g transform="translate(1378.024844 1503.060003)scale(0.1 -0.1)">
      <use xlink:href="#DejaVuSans-48"/>
      <use x="63.623047" xlink:href="#DejaVuSans-46"/>
      <use x="95.410156" xlink:href="#DejaVuSans-48"/>
      <use x="159.033203" xlink:href="#DejaVuSans-49"/>
      <use x="222.65625" xlink:href="#DejaVuSans-37"/>
      <use x="317.675781" xlink:href="#DejaVuSans-58"/>
      <use x="351.367188" xlink:href="#DejaVuSans-32"/>
      <use x="383.154297" xlink:href="#DejaVuSans-54"/>
      <use x="446.777344" xlink:href="#DejaVuSans-54"/>
      <use x="510.400391" xlink:href="#DejaVuSans-46"/>
      <use x="542.1875" xlink:href="#DejaVuSans-53"/>
      <use x="605.810547" xlink:href="#DejaVuSans-56"/>
      <use x="669.433594" xlink:href="#DejaVuSans-52"/>
      <use x="733.056641" xlink:href="#DejaVuSans-32"/>
     </g>
     <!-- 0.1%: 67.572  -->
     <g transform="translate(1378.024844 1514.257815)scale(0.1 -0.1)">
      <use xlink:href="#DejaVuSans-48"/>
      <use x="63.623047" xlink:href="#DejaVuSans-46"/>
      <use x="95.410156" xlink:href="#DejaVuSans-49"/>
      <use x="159.033203" xlink:href="#DejaVuSans-37"/>
      <use x="254.052734" xlink:href="#DejaVuSans-58"/>
      <use x="287.744141" xlink:href="#DejaVuSans-32"/>
      <use x="319.53125" xlink:href="#DejaVuSans-54"/>
      <use x="383.154297" xlink:href="#DejaVuSans-55"/>
      <use x="446.777344" xlink:href="#DejaVuSans-46"/>
      <use x="478.564453" xlink:href="#DejaVuSans-53"/>
      <use x="542.1875" xlink:href="#DejaVuSans-55"/>
      <use x="605.810547" xlink:href="#DejaVuSans-50"/>
      <use x="669.433594" xlink:href="#DejaVuSans-32"/>
     </g>
     <!-- 1%: 73.375  -->
     <g transform="translate(1378.024844 1525.455627)scale(0.1 -0.1)">
      <use xlink:href="#DejaVuSans-49"/>
      <use x="63.623047" xlink:href="#DejaVuSans-37"/>
      <use x="158.642578" xlink:href="#DejaVuSans-58"/>
      <use x="192.333984" xlink:href="#DejaVuSans-32"/>
      <use x="224.121094" xlink:href="#DejaVuSans-55"/>
      <use x="287.744141" xlink:href="#DejaVuSans-51"/>
      <use x="351.367188" xlink:href="#DejaVuSans-46"/>
      <use x="383.154297" xlink:href="#DejaVuSans-51"/>
      <use x="446.777344" xlink:href="#DejaVuSans-55"/>
      <use x="510.400391" xlink:href="#DejaVuSans-53"/>
      <use x="574.023438" xlink:href="#DejaVuSans-32"/>
     </g>
     <!-- 25%: 83.469  -->
     <g transform="translate(1378.024844 1536.65344)scale(0.1 -0.1)">
      <use xlink:href="#DejaVuSans-50"/>
      <use x="63.623047" xlink:href="#DejaVuSans-53"/>
      <use x="127.246094" xlink:href="#DejaVuSans-37"/>
      <use x="222.265625" xlink:href="#DejaVuSans-58"/>
      <use x="255.957031" xlink:href="#DejaVuSans-32"/>
      <use x="287.744141" xlink:href="#DejaVuSans-56"/>
      <use x="351.367188" xlink:href="#DejaVuSans-51"/>
      <use x="414.990234" xlink:href="#DejaVuSans-46"/>
      <use x="446.777344" xlink:href="#DejaVuSans-52"/>
      <use x="510.400391" xlink:href="#DejaVuSans-54"/>
      <use x="574.023438" xlink:href="#DejaVuSans-57"/>
      <use x="637.646484" xlink:href="#DejaVuSans-32"/>
     </g>
     <!-- 75%: 89.314 -->
     <g transform="translate(1378.024844 1547.851253)scale(0.1 -0.1)">
      <use xlink:href="#DejaVuSans-55"/>
      <use x="63.623047" xlink:href="#DejaVuSans-53"/>
      <use x="127.246094" xlink:href="#DejaVuSans-37"/>
      <use x="222.265625" xlink:href="#DejaVuSans-58"/>
      <use x="255.957031" xlink:href="#DejaVuSans-32"/>
      <use x="287.744141" xlink:href="#DejaVuSans-56"/>
      <use x="351.367188" xlink:href="#DejaVuSans-57"/>
      <use x="414.990234" xlink:href="#DejaVuSans-46"/>
      <use x="446.777344" xlink:href="#DejaVuSans-51"/>
      <use x="510.400391" xlink:href="#DejaVuSans-49"/>
      <use x="574.023438" xlink:href="#DejaVuSans-52"/>
     </g>
    </g>
   </g>
  </g>
 </g>
 <defs>
  <clipPath id="pb1bc6df37e">
   <rect height="1380.4628" width="2703.4675" x="50.5325" y="14.58"/>
  </clipPath>
 </defs>
</svg>
