<?xml version="1.0" encoding="utf-8" standalone="no"?>
<!DOCTYPE svg PUBLIC "-//W3C//DTD SVG 1.1//EN"
  "http://www.w3.org/Graphics/SVG/1.1/DTD/svg11.dtd">
<!-- Created with matplotlib (https://matplotlib.org/) -->
<svg height="518.4pt" version="1.1" viewBox="0 0 921.6 518.4" width="921.6pt" xmlns="http://www.w3.org/2000/svg" xmlns:xlink="http://www.w3.org/1999/xlink">
 <defs>
  <style type="text/css">
*{stroke-linecap:butt;stroke-linejoin:round;}
  </style>
 </defs>
 <g id="figure_1">
  <g id="patch_1">
   <path d="M 0 518.4 
L 921.6 518.4 
L 921.6 0 
L 0 0 
z
" style="fill:#ffffff;"/>
  </g>
  <g id="axes_1">
   <g id="patch_2">
    <path d="M 121.79 216.6836 
L 891.36 216.6836 
L 891.36 40.86 
L 121.79 40.86 
z
" style="fill:#ffffff;"/>
   </g>
   <g id="matplotlib.axis_1">
    <g id="xtick_1">
     <g id="line2d_1">
      <defs>
       <path d="M 0 0 
L 0 3.5 
" id="m041a2a0ad0" style="stroke:#000000;stroke-width:0.8;"/>
      </defs>
      <g>
       <use style="stroke:#000000;stroke-width:0.8;" x="121.79" xlink:href="#m041a2a0ad0" y="216.6836"/>
      </g>
     </g>
     <g id="text_1">
      <!-- 0 -->
      <defs>
       <path d="M 31.78125 66.40625 
Q 24.171875 66.40625 20.328125 58.90625 
Q 16.5 51.421875 16.5 36.375 
Q 16.5 21.390625 20.328125 13.890625 
Q 24.171875 6.390625 31.78125 6.390625 
Q 39.453125 6.390625 43.28125 13.890625 
Q 47.125 21.390625 47.125 36.375 
Q 47.125 51.421875 43.28125 58.90625 
Q 39.453125 66.40625 31.78125 66.40625 
z
M 31.78125 74.21875 
Q 44.046875 74.21875 50.515625 64.515625 
Q 56.984375 54.828125 56.984375 36.375 
Q 56.984375 17.96875 50.515625 8.265625 
Q 44.046875 -1.421875 31.78125 -1.421875 
Q 19.53125 -1.421875 13.0625 8.265625 
Q 6.59375 17.96875 6.59375 36.375 
Q 6.59375 54.828125 13.0625 64.515625 
Q 19.53125 74.21875 31.78125 74.21875 
z
" id="DejaVuSans-48"/>
      </defs>
      <g transform="translate(112.8825 244.959225)scale(0.28 -0.28)">
       <use xlink:href="#DejaVuSans-48"/>
      </g>
     </g>
    </g>
    <g id="xtick_2">
     <g id="line2d_2">
      <g>
       <use style="stroke:#000000;stroke-width:0.8;" x="269.784231" xlink:href="#m041a2a0ad0" y="216.6836"/>
      </g>
     </g>
     <g id="text_2">
      <!-- 100 -->
      <defs>
       <path d="M 12.40625 8.296875 
L 28.515625 8.296875 
L 28.515625 63.921875 
L 10.984375 60.40625 
L 10.984375 69.390625 
L 28.421875 72.90625 
L 38.28125 72.90625 
L 38.28125 8.296875 
L 54.390625 8.296875 
L 54.390625 0 
L 12.40625 0 
z
" id="DejaVuSans-49"/>
      </defs>
      <g transform="translate(243.061731 244.959225)scale(0.28 -0.28)">
       <use xlink:href="#DejaVuSans-49"/>
       <use x="63.623047" xlink:href="#DejaVuSans-48"/>
       <use x="127.246094" xlink:href="#DejaVuSans-48"/>
      </g>
     </g>
    </g>
    <g id="xtick_3">
     <g id="line2d_3">
      <g>
       <use style="stroke:#000000;stroke-width:0.8;" x="417.778462" xlink:href="#m041a2a0ad0" y="216.6836"/>
      </g>
     </g>
     <g id="text_3">
      <!-- 200 -->
      <defs>
       <path d="M 19.1875 8.296875 
L 53.609375 8.296875 
L 53.609375 0 
L 7.328125 0 
L 7.328125 8.296875 
Q 12.9375 14.109375 22.625 23.890625 
Q 32.328125 33.6875 34.8125 36.53125 
Q 39.546875 41.84375 41.421875 45.53125 
Q 43.3125 49.21875 43.3125 52.78125 
Q 43.3125 58.59375 39.234375 62.25 
Q 35.15625 65.921875 28.609375 65.921875 
Q 23.96875 65.921875 18.8125 64.3125 
Q 13.671875 62.703125 7.8125 59.421875 
L 7.8125 69.390625 
Q 13.765625 71.78125 18.9375 73 
Q 24.125 74.21875 28.421875 74.21875 
Q 39.75 74.21875 46.484375 68.546875 
Q 53.21875 62.890625 53.21875 53.421875 
Q 53.21875 48.921875 51.53125 44.890625 
Q 49.859375 40.875 45.40625 35.40625 
Q 44.1875 33.984375 37.640625 27.21875 
Q 31.109375 20.453125 19.1875 8.296875 
z
" id="DejaVuSans-50"/>
      </defs>
      <g transform="translate(391.055962 244.959225)scale(0.28 -0.28)">
       <use xlink:href="#DejaVuSans-50"/>
       <use x="63.623047" xlink:href="#DejaVuSans-48"/>
       <use x="127.246094" xlink:href="#DejaVuSans-48"/>
      </g>
     </g>
    </g>
    <g id="xtick_4">
     <g id="line2d_4">
      <g>
       <use style="stroke:#000000;stroke-width:0.8;" x="565.772692" xlink:href="#m041a2a0ad0" y="216.6836"/>
      </g>
     </g>
     <g id="text_4">
      <!-- 300 -->
      <defs>
       <path d="M 40.578125 39.3125 
Q 47.65625 37.796875 51.625 33 
Q 55.609375 28.21875 55.609375 21.1875 
Q 55.609375 10.40625 48.1875 4.484375 
Q 40.765625 -1.421875 27.09375 -1.421875 
Q 22.515625 -1.421875 17.65625 -0.515625 
Q 12.796875 0.390625 7.625 2.203125 
L 7.625 11.71875 
Q 11.71875 9.328125 16.59375 8.109375 
Q 21.484375 6.890625 26.8125 6.890625 
Q 36.078125 6.890625 40.9375 10.546875 
Q 45.796875 14.203125 45.796875 21.1875 
Q 45.796875 27.640625 41.28125 31.265625 
Q 36.765625 34.90625 28.71875 34.90625 
L 20.21875 34.90625 
L 20.21875 43.015625 
L 29.109375 43.015625 
Q 36.375 43.015625 40.234375 45.921875 
Q 44.09375 48.828125 44.09375 54.296875 
Q 44.09375 59.90625 40.109375 62.90625 
Q 36.140625 65.921875 28.71875 65.921875 
Q 24.65625 65.921875 20.015625 65.03125 
Q 15.375 64.15625 9.8125 62.3125 
L 9.8125 71.09375 
Q 15.4375 72.65625 20.34375 73.4375 
Q 25.25 74.21875 29.59375 74.21875 
Q 40.828125 74.21875 47.359375 69.109375 
Q 53.90625 64.015625 53.90625 55.328125 
Q 53.90625 49.265625 50.4375 45.09375 
Q 46.96875 40.921875 40.578125 39.3125 
z
" id="DejaVuSans-51"/>
      </defs>
      <g transform="translate(539.050192 244.959225)scale(0.28 -0.28)">
       <use xlink:href="#DejaVuSans-51"/>
       <use x="63.623047" xlink:href="#DejaVuSans-48"/>
       <use x="127.246094" xlink:href="#DejaVuSans-48"/>
      </g>
     </g>
    </g>
    <g id="xtick_5">
     <g id="line2d_5">
      <g>
       <use style="stroke:#000000;stroke-width:0.8;" x="713.766923" xlink:href="#m041a2a0ad0" y="216.6836"/>
      </g>
     </g>
     <g id="text_5">
      <!-- 400 -->
      <defs>
       <path d="M 37.796875 64.3125 
L 12.890625 25.390625 
L 37.796875 25.390625 
z
M 35.203125 72.90625 
L 47.609375 72.90625 
L 47.609375 25.390625 
L 58.015625 25.390625 
L 58.015625 17.1875 
L 47.609375 17.1875 
L 47.609375 0 
L 37.796875 0 
L 37.796875 17.1875 
L 4.890625 17.1875 
L 4.890625 26.703125 
z
" id="DejaVuSans-52"/>
      </defs>
      <g transform="translate(687.044423 244.959225)scale(0.28 -0.28)">
       <use xlink:href="#DejaVuSans-52"/>
       <use x="63.623047" xlink:href="#DejaVuSans-48"/>
       <use x="127.246094" xlink:href="#DejaVuSans-48"/>
      </g>
     </g>
    </g>
    <g id="xtick_6">
     <g id="line2d_6">
      <g>
       <use style="stroke:#000000;stroke-width:0.8;" x="861.761154" xlink:href="#m041a2a0ad0" y="216.6836"/>
      </g>
     </g>
     <g id="text_6">
      <!-- 500 -->
      <defs>
       <path d="M 10.796875 72.90625 
L 49.515625 72.90625 
L 49.515625 64.59375 
L 19.828125 64.59375 
L 19.828125 46.734375 
Q 21.96875 47.46875 24.109375 47.828125 
Q 26.265625 48.1875 28.421875 48.1875 
Q 40.625 48.1875 47.75 41.5 
Q 54.890625 34.8125 54.890625 23.390625 
Q 54.890625 11.625 47.5625 5.09375 
Q 40.234375 -1.421875 26.90625 -1.421875 
Q 22.3125 -1.421875 17.546875 -0.640625 
Q 12.796875 0.140625 7.71875 1.703125 
L 7.71875 11.625 
Q 12.109375 9.234375 16.796875 8.0625 
Q 21.484375 6.890625 26.703125 6.890625 
Q 35.15625 6.890625 40.078125 11.328125 
Q 45.015625 15.765625 45.015625 23.390625 
Q 45.015625 31 40.078125 35.4375 
Q 35.15625 39.890625 26.703125 39.890625 
Q 22.75 39.890625 18.8125 39.015625 
Q 14.890625 38.140625 10.796875 36.28125 
z
" id="DejaVuSans-53"/>
      </defs>
      <g transform="translate(835.038654 244.959225)scale(0.28 -0.28)">
       <use xlink:href="#DejaVuSans-53"/>
       <use x="63.623047" xlink:href="#DejaVuSans-48"/>
       <use x="127.246094" xlink:href="#DejaVuSans-48"/>
      </g>
     </g>
    </g>
   </g>
   <g id="matplotlib.axis_2">
    <g id="ytick_1">
     <g id="line2d_7">
      <defs>
       <path d="M 0 0 
L -3.5 0 
" id="maf3a40433a" style="stroke:#000000;stroke-width:0.8;"/>
      </defs>
      <g>
       <use style="stroke:#000000;stroke-width:0.8;" x="121.79" xlink:href="#maf3a40433a" y="131.025949"/>
      </g>
     </g>
     <g id="text_7">
      <!-- 80 -->
      <defs>
       <path d="M 31.78125 34.625 
Q 24.75 34.625 20.71875 30.859375 
Q 16.703125 27.09375 16.703125 20.515625 
Q 16.703125 13.921875 20.71875 10.15625 
Q 24.75 6.390625 31.78125 6.390625 
Q 38.8125 6.390625 42.859375 10.171875 
Q 46.921875 13.96875 46.921875 20.515625 
Q 46.921875 27.09375 42.890625 30.859375 
Q 38.875 34.625 31.78125 34.625 
z
M 21.921875 38.8125 
Q 15.578125 40.375 12.03125 44.71875 
Q 8.5 49.078125 8.5 55.328125 
Q 8.5 64.0625 14.71875 69.140625 
Q 20.953125 74.21875 31.78125 74.21875 
Q 42.671875 74.21875 48.875 69.140625 
Q 55.078125 64.0625 55.078125 55.328125 
Q 55.078125 49.078125 51.53125 44.71875 
Q 48 40.375 41.703125 38.8125 
Q 48.828125 37.15625 52.796875 32.3125 
Q 56.78125 27.484375 56.78125 20.515625 
Q 56.78125 9.90625 50.3125 4.234375 
Q 43.84375 -1.421875 31.78125 -1.421875 
Q 19.734375 -1.421875 13.25 4.234375 
Q 6.78125 9.90625 6.78125 20.515625 
Q 6.78125 27.484375 10.78125 32.3125 
Q 14.796875 37.15625 21.921875 38.8125 
z
M 18.3125 54.390625 
Q 18.3125 48.734375 21.84375 45.5625 
Q 25.390625 42.390625 31.78125 42.390625 
Q 38.140625 42.390625 41.71875 45.5625 
Q 45.3125 48.734375 45.3125 54.390625 
Q 45.3125 60.0625 41.71875 63.234375 
Q 38.140625 66.40625 31.78125 66.40625 
Q 25.390625 66.40625 21.84375 63.234375 
Q 18.3125 60.0625 18.3125 54.390625 
z
" id="DejaVuSans-56"/>
      </defs>
      <g transform="translate(79.16 141.663761)scale(0.28 -0.28)">
       <use xlink:href="#DejaVuSans-56"/>
       <use x="63.623047" xlink:href="#DejaVuSans-48"/>
      </g>
     </g>
    </g>
    <g id="ytick_2">
     <g id="line2d_8">
      <g>
       <use style="stroke:#000000;stroke-width:0.8;" x="121.79" xlink:href="#maf3a40433a" y="40.86"/>
      </g>
     </g>
     <g id="text_8">
      <!-- 100 -->
      <g transform="translate(61.345 51.497812)scale(0.28 -0.28)">
       <use xlink:href="#DejaVuSans-49"/>
       <use x="63.623047" xlink:href="#DejaVuSans-48"/>
       <use x="127.246094" xlink:href="#DejaVuSans-48"/>
      </g>
     </g>
    </g>
    <g id="text_9">
     <!-- VMAF -->
     <defs>
      <path d="M 28.609375 0 
L 0.78125 72.90625 
L 11.078125 72.90625 
L 34.1875 11.53125 
L 57.328125 72.90625 
L 67.578125 72.90625 
L 39.796875 0 
z
" id="DejaVuSans-86"/>
      <path d="M 9.8125 72.90625 
L 24.515625 72.90625 
L 43.109375 23.296875 
L 61.8125 72.90625 
L 76.515625 72.90625 
L 76.515625 0 
L 66.890625 0 
L 66.890625 64.015625 
L 48.09375 14.015625 
L 38.1875 14.015625 
L 19.390625 64.015625 
L 19.390625 0 
L 9.8125 0 
z
" id="DejaVuSans-77"/>
      <path d="M 34.1875 63.1875 
L 20.796875 26.90625 
L 47.609375 26.90625 
z
M 28.609375 72.90625 
L 39.796875 72.90625 
L 67.578125 0 
L 57.328125 0 
L 50.6875 18.703125 
L 17.828125 18.703125 
L 11.1875 0 
L 0.78125 0 
z
" id="DejaVuSans-65"/>
      <path d="M 9.8125 72.90625 
L 51.703125 72.90625 
L 51.703125 64.59375 
L 19.671875 64.59375 
L 19.671875 43.109375 
L 48.578125 43.109375 
L 48.578125 34.8125 
L 19.671875 34.8125 
L 19.671875 0 
L 9.8125 0 
z
" id="DejaVuSans-70"/>
     </defs>
     <g transform="translate(51.521875 168.057113)rotate(-90)scale(0.28 -0.28)">
      <use xlink:href="#DejaVuSans-86"/>
      <use x="68.408203" xlink:href="#DejaVuSans-77"/>
      <use x="154.6875" xlink:href="#DejaVuSans-65"/>
      <use x="223.095703" xlink:href="#DejaVuSans-70"/>
     </g>
    </g>
   </g>
   <g id="line2d_9">
    <path clip-path="url(#pc358356c3f)" d="M 121.79 491.689744 
L 891.36 491.689744 
" style="fill:none;stroke:#808080;stroke-linecap:square;stroke-width:0.4;"/>
   </g>
   <g id="line2d_10">
    <path clip-path="url(#pc358356c3f)" d="M 121.79 487.181446 
L 891.36 487.181446 
" style="fill:none;stroke:#808080;stroke-linecap:square;stroke-width:0.4;"/>
   </g>
   <g id="line2d_11">
    <path clip-path="url(#pc358356c3f)" d="M 121.79 482.673149 
L 891.36 482.673149 
" style="fill:none;stroke:#808080;stroke-linecap:square;stroke-width:0.4;"/>
   </g>
   <g id="line2d_12">
    <path clip-path="url(#pc358356c3f)" d="M 121.79 478.164851 
L 891.36 478.164851 
" style="fill:none;stroke:#808080;stroke-linecap:square;stroke-width:0.4;"/>
   </g>
   <g id="line2d_13">
    <path clip-path="url(#pc358356c3f)" d="M 121.79 473.656554 
L 891.36 473.656554 
" style="fill:none;stroke:#808080;stroke-linecap:square;stroke-width:0.4;"/>
   </g>
   <g id="line2d_14">
    <path clip-path="url(#pc358356c3f)" d="M 121.79 469.148256 
L 891.36 469.148256 
" style="fill:none;stroke:#808080;stroke-linecap:square;stroke-width:0.4;"/>
   </g>
   <g id="line2d_15">
    <path clip-path="url(#pc358356c3f)" d="M 121.79 464.639959 
L 891.36 464.639959 
" style="fill:none;stroke:#808080;stroke-linecap:square;stroke-width:0.4;"/>
   </g>
   <g id="line2d_16">
    <path clip-path="url(#pc358356c3f)" d="M 121.79 460.131662 
L 891.36 460.131662 
" style="fill:none;stroke:#808080;stroke-linecap:square;stroke-width:0.4;"/>
   </g>
   <g id="line2d_17">
    <path clip-path="url(#pc358356c3f)" d="M 121.79 455.623364 
L 891.36 455.623364 
" style="fill:none;stroke:#808080;stroke-linecap:square;stroke-width:0.4;"/>
   </g>
   <g id="line2d_18">
    <path clip-path="url(#pc358356c3f)" d="M 121.79 451.115067 
L 891.36 451.115067 
" style="fill:none;stroke:#808080;stroke-linecap:square;stroke-width:0.4;"/>
   </g>
   <g id="line2d_19">
    <path clip-path="url(#pc358356c3f)" d="M 121.79 446.606769 
L 891.36 446.606769 
" style="fill:none;stroke:#808080;stroke-linecap:square;stroke-width:0.4;"/>
   </g>
   <g id="line2d_20">
    <path clip-path="url(#pc358356c3f)" d="M 121.79 442.098472 
L 891.36 442.098472 
" style="fill:none;stroke:#808080;stroke-linecap:square;stroke-width:0.4;"/>
   </g>
   <g id="line2d_21">
    <path clip-path="url(#pc358356c3f)" d="M 121.79 437.590174 
L 891.36 437.590174 
" style="fill:none;stroke:#808080;stroke-linecap:square;stroke-width:0.4;"/>
   </g>
   <g id="line2d_22">
    <path clip-path="url(#pc358356c3f)" d="M 121.79 433.081877 
L 891.36 433.081877 
" style="fill:none;stroke:#808080;stroke-linecap:square;stroke-width:0.4;"/>
   </g>
   <g id="line2d_23">
    <path clip-path="url(#pc358356c3f)" d="M 121.79 428.573579 
L 891.36 428.573579 
" style="fill:none;stroke:#808080;stroke-linecap:square;stroke-width:0.4;"/>
   </g>
   <g id="line2d_24">
    <path clip-path="url(#pc358356c3f)" d="M 121.79 424.065282 
L 891.36 424.065282 
" style="fill:none;stroke:#808080;stroke-linecap:square;stroke-width:0.4;"/>
   </g>
   <g id="line2d_25">
    <path clip-path="url(#pc358356c3f)" d="M 121.79 419.556985 
L 891.36 419.556985 
" style="fill:none;stroke:#808080;stroke-linecap:square;stroke-width:0.4;"/>
   </g>
   <g id="line2d_26">
    <path clip-path="url(#pc358356c3f)" d="M 121.79 415.048687 
L 891.36 415.048687 
" style="fill:none;stroke:#808080;stroke-linecap:square;stroke-width:0.4;"/>
   </g>
   <g id="line2d_27">
    <path clip-path="url(#pc358356c3f)" d="M 121.79 410.54039 
L 891.36 410.54039 
" style="fill:none;stroke:#808080;stroke-linecap:square;stroke-width:0.4;"/>
   </g>
   <g id="line2d_28">
    <path clip-path="url(#pc358356c3f)" d="M 121.79 406.032092 
L 891.36 406.032092 
" style="fill:none;stroke:#808080;stroke-linecap:square;stroke-width:0.4;"/>
   </g>
   <g id="line2d_29">
    <path clip-path="url(#pc358356c3f)" d="M 121.79 401.523795 
L 891.36 401.523795 
" style="fill:none;stroke:#808080;stroke-linecap:square;stroke-width:0.4;"/>
   </g>
   <g id="line2d_30">
    <path clip-path="url(#pc358356c3f)" d="M 121.79 397.015497 
L 891.36 397.015497 
" style="fill:none;stroke:#808080;stroke-linecap:square;stroke-width:0.4;"/>
   </g>
   <g id="line2d_31">
    <path clip-path="url(#pc358356c3f)" d="M 121.79 392.5072 
L 891.36 392.5072 
" style="fill:none;stroke:#808080;stroke-linecap:square;stroke-width:0.4;"/>
   </g>
   <g id="line2d_32">
    <path clip-path="url(#pc358356c3f)" d="M 121.79 387.998903 
L 891.36 387.998903 
" style="fill:none;stroke:#808080;stroke-linecap:square;stroke-width:0.4;"/>
   </g>
   <g id="line2d_33">
    <path clip-path="url(#pc358356c3f)" d="M 121.79 383.490605 
L 891.36 383.490605 
" style="fill:none;stroke:#808080;stroke-linecap:square;stroke-width:0.4;"/>
   </g>
   <g id="line2d_34">
    <path clip-path="url(#pc358356c3f)" d="M 121.79 378.982308 
L 891.36 378.982308 
" style="fill:none;stroke:#808080;stroke-linecap:square;stroke-width:0.4;"/>
   </g>
   <g id="line2d_35">
    <path clip-path="url(#pc358356c3f)" d="M 121.79 374.47401 
L 891.36 374.47401 
" style="fill:none;stroke:#808080;stroke-linecap:square;stroke-width:0.4;"/>
   </g>
   <g id="line2d_36">
    <path clip-path="url(#pc358356c3f)" d="M 121.79 369.965713 
L 891.36 369.965713 
" style="fill:none;stroke:#808080;stroke-linecap:square;stroke-width:0.4;"/>
   </g>
   <g id="line2d_37">
    <path clip-path="url(#pc358356c3f)" d="M 121.79 365.457415 
L 891.36 365.457415 
" style="fill:none;stroke:#808080;stroke-linecap:square;stroke-width:0.4;"/>
   </g>
   <g id="line2d_38">
    <path clip-path="url(#pc358356c3f)" d="M 121.79 360.949118 
L 891.36 360.949118 
" style="fill:none;stroke:#808080;stroke-linecap:square;stroke-width:0.4;"/>
   </g>
   <g id="line2d_39">
    <path clip-path="url(#pc358356c3f)" d="M 121.79 356.440821 
L 891.36 356.440821 
" style="fill:none;stroke:#808080;stroke-linecap:square;stroke-width:0.4;"/>
   </g>
   <g id="line2d_40">
    <path clip-path="url(#pc358356c3f)" d="M 121.79 351.932523 
L 891.36 351.932523 
" style="fill:none;stroke:#808080;stroke-linecap:square;stroke-width:0.4;"/>
   </g>
   <g id="line2d_41">
    <path clip-path="url(#pc358356c3f)" d="M 121.79 347.424226 
L 891.36 347.424226 
" style="fill:none;stroke:#808080;stroke-linecap:square;stroke-width:0.4;"/>
   </g>
   <g id="line2d_42">
    <path clip-path="url(#pc358356c3f)" d="M 121.79 342.915928 
L 891.36 342.915928 
" style="fill:none;stroke:#808080;stroke-linecap:square;stroke-width:0.4;"/>
   </g>
   <g id="line2d_43">
    <path clip-path="url(#pc358356c3f)" d="M 121.79 338.407631 
L 891.36 338.407631 
" style="fill:none;stroke:#808080;stroke-linecap:square;stroke-width:0.4;"/>
   </g>
   <g id="line2d_44">
    <path clip-path="url(#pc358356c3f)" d="M 121.79 333.899333 
L 891.36 333.899333 
" style="fill:none;stroke:#808080;stroke-linecap:square;stroke-width:0.4;"/>
   </g>
   <g id="line2d_45">
    <path clip-path="url(#pc358356c3f)" d="M 121.79 329.391036 
L 891.36 329.391036 
" style="fill:none;stroke:#808080;stroke-linecap:square;stroke-width:0.4;"/>
   </g>
   <g id="line2d_46">
    <path clip-path="url(#pc358356c3f)" d="M 121.79 324.882738 
L 891.36 324.882738 
" style="fill:none;stroke:#808080;stroke-linecap:square;stroke-width:0.4;"/>
   </g>
   <g id="line2d_47">
    <path clip-path="url(#pc358356c3f)" d="M 121.79 320.374441 
L 891.36 320.374441 
" style="fill:none;stroke:#808080;stroke-linecap:square;stroke-width:0.4;"/>
   </g>
   <g id="line2d_48">
    <path clip-path="url(#pc358356c3f)" d="M 121.79 315.866144 
L 891.36 315.866144 
" style="fill:none;stroke:#808080;stroke-linecap:square;stroke-width:0.4;"/>
   </g>
   <g id="line2d_49">
    <path clip-path="url(#pc358356c3f)" d="M 121.79 311.357846 
L 891.36 311.357846 
" style="fill:none;stroke:#808080;stroke-linecap:square;stroke-width:0.4;"/>
   </g>
   <g id="line2d_50">
    <path clip-path="url(#pc358356c3f)" d="M 121.79 306.849549 
L 891.36 306.849549 
" style="fill:none;stroke:#808080;stroke-linecap:square;stroke-width:0.4;"/>
   </g>
   <g id="line2d_51">
    <path clip-path="url(#pc358356c3f)" d="M 121.79 302.341251 
L 891.36 302.341251 
" style="fill:none;stroke:#808080;stroke-linecap:square;stroke-width:0.4;"/>
   </g>
   <g id="line2d_52">
    <path clip-path="url(#pc358356c3f)" d="M 121.79 297.832954 
L 891.36 297.832954 
" style="fill:none;stroke:#808080;stroke-linecap:square;stroke-width:0.4;"/>
   </g>
   <g id="line2d_53">
    <path clip-path="url(#pc358356c3f)" d="M 121.79 293.324656 
L 891.36 293.324656 
" style="fill:none;stroke:#808080;stroke-linecap:square;stroke-width:0.4;"/>
   </g>
   <g id="line2d_54">
    <path clip-path="url(#pc358356c3f)" d="M 121.79 288.816359 
L 891.36 288.816359 
" style="fill:none;stroke:#808080;stroke-linecap:square;stroke-width:0.4;"/>
   </g>
   <g id="line2d_55">
    <path clip-path="url(#pc358356c3f)" d="M 121.79 284.308062 
L 891.36 284.308062 
" style="fill:none;stroke:#808080;stroke-linecap:square;stroke-width:0.4;"/>
   </g>
   <g id="line2d_56">
    <path clip-path="url(#pc358356c3f)" d="M 121.79 279.799764 
L 891.36 279.799764 
" style="fill:none;stroke:#808080;stroke-linecap:square;stroke-width:0.4;"/>
   </g>
   <g id="line2d_57">
    <path clip-path="url(#pc358356c3f)" d="M 121.79 275.291467 
L 891.36 275.291467 
" style="fill:none;stroke:#808080;stroke-linecap:square;stroke-width:0.4;"/>
   </g>
   <g id="line2d_58">
    <path clip-path="url(#pc358356c3f)" d="M 121.79 270.783169 
L 891.36 270.783169 
" style="fill:none;stroke:#808080;stroke-linecap:square;stroke-width:0.4;"/>
   </g>
   <g id="line2d_59">
    <path clip-path="url(#pc358356c3f)" d="M 121.79 266.274872 
L 891.36 266.274872 
" style="fill:none;stroke:#808080;stroke-linecap:square;stroke-width:0.4;"/>
   </g>
   <g id="line2d_60">
    <path clip-path="url(#pc358356c3f)" d="M 121.79 261.766574 
L 891.36 261.766574 
" style="fill:none;stroke:#808080;stroke-linecap:square;stroke-width:0.4;"/>
   </g>
   <g id="line2d_61">
    <path clip-path="url(#pc358356c3f)" d="M 121.79 257.258277 
L 891.36 257.258277 
" style="fill:none;stroke:#808080;stroke-linecap:square;stroke-width:0.4;"/>
   </g>
   <g id="line2d_62">
    <path clip-path="url(#pc358356c3f)" d="M 121.79 252.749979 
L 891.36 252.749979 
" style="fill:none;stroke:#808080;stroke-linecap:square;stroke-width:0.4;"/>
   </g>
   <g id="line2d_63">
    <path clip-path="url(#pc358356c3f)" d="M 121.79 248.241682 
L 891.36 248.241682 
" style="fill:none;stroke:#808080;stroke-linecap:square;stroke-width:0.4;"/>
   </g>
   <g id="line2d_64">
    <path clip-path="url(#pc358356c3f)" d="M 121.79 243.733385 
L 891.36 243.733385 
" style="fill:none;stroke:#808080;stroke-linecap:square;stroke-width:0.4;"/>
   </g>
   <g id="line2d_65">
    <path clip-path="url(#pc358356c3f)" d="M 121.79 239.225087 
L 891.36 239.225087 
" style="fill:none;stroke:#808080;stroke-linecap:square;stroke-width:0.4;"/>
   </g>
   <g id="line2d_66">
    <path clip-path="url(#pc358356c3f)" d="M 121.79 234.71679 
L 891.36 234.71679 
" style="fill:none;stroke:#808080;stroke-linecap:square;stroke-width:0.4;"/>
   </g>
   <g id="line2d_67">
    <path clip-path="url(#pc358356c3f)" d="M 121.79 230.208492 
L 891.36 230.208492 
" style="fill:none;stroke:#808080;stroke-linecap:square;stroke-width:0.4;"/>
   </g>
   <g id="line2d_68">
    <path clip-path="url(#pc358356c3f)" d="M 121.79 225.700195 
L 891.36 225.700195 
" style="fill:none;stroke:#808080;stroke-linecap:square;stroke-width:0.4;"/>
   </g>
   <g id="line2d_69">
    <path clip-path="url(#pc358356c3f)" d="M 121.79 221.191897 
L 891.36 221.191897 
" style="fill:none;stroke:#808080;stroke-linecap:square;stroke-width:0.4;"/>
   </g>
   <g id="line2d_70">
    <path clip-path="url(#pc358356c3f)" d="M 121.79 216.6836 
L 891.36 216.6836 
" style="fill:none;stroke:#808080;stroke-linecap:square;stroke-width:0.4;"/>
   </g>
   <g id="line2d_71">
    <path clip-path="url(#pc358356c3f)" d="M 121.79 212.175303 
L 891.36 212.175303 
" style="fill:none;stroke:#808080;stroke-linecap:square;stroke-width:0.4;"/>
   </g>
   <g id="line2d_72">
    <path clip-path="url(#pc358356c3f)" d="M 121.79 207.667005 
L 891.36 207.667005 
" style="fill:none;stroke:#808080;stroke-linecap:square;stroke-width:0.4;"/>
   </g>
   <g id="line2d_73">
    <path clip-path="url(#pc358356c3f)" d="M 121.79 203.158708 
L 891.36 203.158708 
" style="fill:none;stroke:#808080;stroke-linecap:square;stroke-width:0.4;"/>
   </g>
   <g id="line2d_74">
    <path clip-path="url(#pc358356c3f)" d="M 121.79 198.65041 
L 891.36 198.65041 
" style="fill:none;stroke:#808080;stroke-linecap:square;stroke-width:0.4;"/>
   </g>
   <g id="line2d_75">
    <path clip-path="url(#pc358356c3f)" d="M 121.79 194.142113 
L 891.36 194.142113 
" style="fill:none;stroke:#808080;stroke-linecap:square;stroke-width:0.4;"/>
   </g>
   <g id="line2d_76">
    <path clip-path="url(#pc358356c3f)" d="M 121.79 189.633815 
L 891.36 189.633815 
" style="fill:none;stroke:#808080;stroke-linecap:square;stroke-width:0.4;"/>
   </g>
   <g id="line2d_77">
    <path clip-path="url(#pc358356c3f)" d="M 121.79 185.125518 
L 891.36 185.125518 
" style="fill:none;stroke:#808080;stroke-linecap:square;stroke-width:0.4;"/>
   </g>
   <g id="line2d_78">
    <path clip-path="url(#pc358356c3f)" d="M 121.79 180.617221 
L 891.36 180.617221 
" style="fill:none;stroke:#808080;stroke-linecap:square;stroke-width:0.4;"/>
   </g>
   <g id="line2d_79">
    <path clip-path="url(#pc358356c3f)" d="M 121.79 176.108923 
L 891.36 176.108923 
" style="fill:none;stroke:#808080;stroke-linecap:square;stroke-width:0.4;"/>
   </g>
   <g id="line2d_80">
    <path clip-path="url(#pc358356c3f)" d="M 121.79 171.600626 
L 891.36 171.600626 
" style="fill:none;stroke:#808080;stroke-linecap:square;stroke-width:0.4;"/>
   </g>
   <g id="line2d_81">
    <path clip-path="url(#pc358356c3f)" d="M 121.79 167.092328 
L 891.36 167.092328 
" style="fill:none;stroke:#808080;stroke-linecap:square;stroke-width:0.4;"/>
   </g>
   <g id="line2d_82">
    <path clip-path="url(#pc358356c3f)" d="M 121.79 162.584031 
L 891.36 162.584031 
" style="fill:none;stroke:#808080;stroke-linecap:square;stroke-width:0.4;"/>
   </g>
   <g id="line2d_83">
    <path clip-path="url(#pc358356c3f)" d="M 121.79 158.075733 
L 891.36 158.075733 
" style="fill:none;stroke:#808080;stroke-linecap:square;stroke-width:0.4;"/>
   </g>
   <g id="line2d_84">
    <path clip-path="url(#pc358356c3f)" d="M 121.79 153.567436 
L 891.36 153.567436 
" style="fill:none;stroke:#808080;stroke-linecap:square;stroke-width:0.4;"/>
   </g>
   <g id="line2d_85">
    <path clip-path="url(#pc358356c3f)" d="M 121.79 149.059138 
L 891.36 149.059138 
" style="fill:none;stroke:#808080;stroke-linecap:square;stroke-width:0.4;"/>
   </g>
   <g id="line2d_86">
    <path clip-path="url(#pc358356c3f)" d="M 121.79 144.550841 
L 891.36 144.550841 
" style="fill:none;stroke:#808080;stroke-linecap:square;stroke-width:0.4;"/>
   </g>
   <g id="line2d_87">
    <path clip-path="url(#pc358356c3f)" d="M 121.79 140.042544 
L 891.36 140.042544 
" style="fill:none;stroke:#808080;stroke-linecap:square;stroke-width:0.4;"/>
   </g>
   <g id="line2d_88">
    <path clip-path="url(#pc358356c3f)" d="M 121.79 135.534246 
L 891.36 135.534246 
" style="fill:none;stroke:#808080;stroke-linecap:square;stroke-width:0.4;"/>
   </g>
   <g id="line2d_89">
    <path clip-path="url(#pc358356c3f)" d="M 121.79 131.025949 
L 891.36 131.025949 
" style="fill:none;stroke:#808080;stroke-linecap:square;stroke-width:0.4;"/>
   </g>
   <g id="line2d_90">
    <path clip-path="url(#pc358356c3f)" d="M 121.79 126.517651 
L 891.36 126.517651 
" style="fill:none;stroke:#808080;stroke-linecap:square;stroke-width:0.4;"/>
   </g>
   <g id="line2d_91">
    <path clip-path="url(#pc358356c3f)" d="M 121.79 122.009354 
L 891.36 122.009354 
" style="fill:none;stroke:#808080;stroke-linecap:square;stroke-width:0.4;"/>
   </g>
   <g id="line2d_92">
    <path clip-path="url(#pc358356c3f)" d="M 121.79 117.501056 
L 891.36 117.501056 
" style="fill:none;stroke:#808080;stroke-linecap:square;stroke-width:0.4;"/>
   </g>
   <g id="line2d_93">
    <path clip-path="url(#pc358356c3f)" d="M 121.79 112.992759 
L 891.36 112.992759 
" style="fill:none;stroke:#808080;stroke-linecap:square;stroke-width:0.4;"/>
   </g>
   <g id="line2d_94">
    <path clip-path="url(#pc358356c3f)" d="M 121.79 108.484462 
L 891.36 108.484462 
" style="fill:none;stroke:#808080;stroke-linecap:square;stroke-width:0.4;"/>
   </g>
   <g id="line2d_95">
    <path clip-path="url(#pc358356c3f)" d="M 121.79 103.976164 
L 891.36 103.976164 
" style="fill:none;stroke:#808080;stroke-linecap:square;stroke-width:0.4;"/>
   </g>
   <g id="line2d_96">
    <path clip-path="url(#pc358356c3f)" d="M 121.79 99.467867 
L 891.36 99.467867 
" style="fill:none;stroke:#808080;stroke-linecap:square;stroke-width:0.4;"/>
   </g>
   <g id="line2d_97">
    <path clip-path="url(#pc358356c3f)" d="M 121.79 94.959569 
L 891.36 94.959569 
" style="fill:none;stroke:#808080;stroke-linecap:square;stroke-width:0.4;"/>
   </g>
   <g id="line2d_98">
    <path clip-path="url(#pc358356c3f)" d="M 121.79 90.451272 
L 891.36 90.451272 
" style="fill:none;stroke:#808080;stroke-linecap:square;stroke-width:0.4;"/>
   </g>
   <g id="line2d_99">
    <path clip-path="url(#pc358356c3f)" d="M 121.79 85.942974 
L 891.36 85.942974 
" style="fill:none;stroke:#808080;stroke-linecap:square;stroke-width:0.4;"/>
   </g>
   <g id="line2d_100">
    <path clip-path="url(#pc358356c3f)" d="M 121.79 81.434677 
L 891.36 81.434677 
" style="fill:none;stroke:#808080;stroke-linecap:square;stroke-width:0.4;"/>
   </g>
   <g id="line2d_101">
    <path clip-path="url(#pc358356c3f)" d="M 121.79 76.926379 
L 891.36 76.926379 
" style="fill:none;stroke:#808080;stroke-linecap:square;stroke-width:0.4;"/>
   </g>
   <g id="line2d_102">
    <path clip-path="url(#pc358356c3f)" d="M 121.79 72.418082 
L 891.36 72.418082 
" style="fill:none;stroke:#808080;stroke-linecap:square;stroke-width:0.4;"/>
   </g>
   <g id="line2d_103">
    <path clip-path="url(#pc358356c3f)" d="M 121.79 67.909785 
L 891.36 67.909785 
" style="fill:none;stroke:#808080;stroke-linecap:square;stroke-width:0.4;"/>
   </g>
   <g id="line2d_104">
    <path clip-path="url(#pc358356c3f)" d="M 121.79 63.401487 
L 891.36 63.401487 
" style="fill:none;stroke:#808080;stroke-linecap:square;stroke-width:0.4;"/>
   </g>
   <g id="line2d_105">
    <path clip-path="url(#pc358356c3f)" d="M 121.79 58.89319 
L 891.36 58.89319 
" style="fill:none;stroke:#808080;stroke-linecap:square;stroke-width:0.4;"/>
   </g>
   <g id="line2d_106">
    <path clip-path="url(#pc358356c3f)" d="M 121.79 54.384892 
L 891.36 54.384892 
" style="fill:none;stroke:#808080;stroke-linecap:square;stroke-width:0.4;"/>
   </g>
   <g id="line2d_107">
    <path clip-path="url(#pc358356c3f)" d="M 121.79 49.876595 
L 891.36 49.876595 
" style="fill:none;stroke:#808080;stroke-linecap:square;stroke-width:0.4;"/>
   </g>
   <g id="line2d_108">
    <path clip-path="url(#pc358356c3f)" d="M 121.79 45.368297 
L 891.36 45.368297 
" style="fill:none;stroke:#808080;stroke-linecap:square;stroke-width:0.4;"/>
   </g>
   <g id="line2d_109">
    <path clip-path="url(#pc358356c3f)" d="M 121.79 491.689744 
L 891.36 491.689744 
" style="fill:none;stroke:#000000;stroke-linecap:square;stroke-width:0.6;"/>
   </g>
   <g id="line2d_110">
    <path clip-path="url(#pc358356c3f)" d="M 121.79 469.148256 
L 891.36 469.148256 
" style="fill:none;stroke:#000000;stroke-linecap:square;stroke-width:0.6;"/>
   </g>
   <g id="line2d_111">
    <path clip-path="url(#pc358356c3f)" d="M 121.79 446.606769 
L 891.36 446.606769 
" style="fill:none;stroke:#000000;stroke-linecap:square;stroke-width:0.6;"/>
   </g>
   <g id="line2d_112">
    <path clip-path="url(#pc358356c3f)" d="M 121.79 424.065282 
L 891.36 424.065282 
" style="fill:none;stroke:#000000;stroke-linecap:square;stroke-width:0.6;"/>
   </g>
   <g id="line2d_113">
    <path clip-path="url(#pc358356c3f)" d="M 121.79 401.523795 
L 891.36 401.523795 
" style="fill:none;stroke:#000000;stroke-linecap:square;stroke-width:0.6;"/>
   </g>
   <g id="line2d_114">
    <path clip-path="url(#pc358356c3f)" d="M 121.79 378.982308 
L 891.36 378.982308 
" style="fill:none;stroke:#000000;stroke-linecap:square;stroke-width:0.6;"/>
   </g>
   <g id="line2d_115">
    <path clip-path="url(#pc358356c3f)" d="M 121.79 356.440821 
L 891.36 356.440821 
" style="fill:none;stroke:#000000;stroke-linecap:square;stroke-width:0.6;"/>
   </g>
   <g id="line2d_116">
    <path clip-path="url(#pc358356c3f)" d="M 121.79 333.899333 
L 891.36 333.899333 
" style="fill:none;stroke:#000000;stroke-linecap:square;stroke-width:0.6;"/>
   </g>
   <g id="line2d_117">
    <path clip-path="url(#pc358356c3f)" d="M 121.79 311.357846 
L 891.36 311.357846 
" style="fill:none;stroke:#000000;stroke-linecap:square;stroke-width:0.6;"/>
   </g>
   <g id="line2d_118">
    <path clip-path="url(#pc358356c3f)" d="M 121.79 288.816359 
L 891.36 288.816359 
" style="fill:none;stroke:#000000;stroke-linecap:square;stroke-width:0.6;"/>
   </g>
   <g id="line2d_119">
    <path clip-path="url(#pc358356c3f)" d="M 121.79 266.274872 
L 891.36 266.274872 
" style="fill:none;stroke:#000000;stroke-linecap:square;stroke-width:0.6;"/>
   </g>
   <g id="line2d_120">
    <path clip-path="url(#pc358356c3f)" d="M 121.79 243.733385 
L 891.36 243.733385 
" style="fill:none;stroke:#000000;stroke-linecap:square;stroke-width:0.6;"/>
   </g>
   <g id="line2d_121">
    <path clip-path="url(#pc358356c3f)" d="M 121.79 221.191897 
L 891.36 221.191897 
" style="fill:none;stroke:#000000;stroke-linecap:square;stroke-width:0.6;"/>
   </g>
   <g id="line2d_122">
    <path clip-path="url(#pc358356c3f)" d="M 121.79 198.65041 
L 891.36 198.65041 
" style="fill:none;stroke:#000000;stroke-linecap:square;stroke-width:0.6;"/>
   </g>
   <g id="line2d_123">
    <path clip-path="url(#pc358356c3f)" d="M 121.79 176.108923 
L 891.36 176.108923 
" style="fill:none;stroke:#000000;stroke-linecap:square;stroke-width:0.6;"/>
   </g>
   <g id="line2d_124">
    <path clip-path="url(#pc358356c3f)" d="M 121.79 153.567436 
L 891.36 153.567436 
" style="fill:none;stroke:#000000;stroke-linecap:square;stroke-width:0.6;"/>
   </g>
   <g id="line2d_125">
    <path clip-path="url(#pc358356c3f)" d="M 121.79 131.025949 
L 891.36 131.025949 
" style="fill:none;stroke:#000000;stroke-linecap:square;stroke-width:0.6;"/>
   </g>
   <g id="line2d_126">
    <path clip-path="url(#pc358356c3f)" d="M 121.79 108.484462 
L 891.36 108.484462 
" style="fill:none;stroke:#000000;stroke-linecap:square;stroke-width:0.6;"/>
   </g>
   <g id="line2d_127">
    <path clip-path="url(#pc358356c3f)" d="M 121.79 85.942974 
L 891.36 85.942974 
" style="fill:none;stroke:#000000;stroke-linecap:square;stroke-width:0.6;"/>
   </g>
   <g id="line2d_128">
    <path clip-path="url(#pc358356c3f)" d="M 121.79 63.401487 
L 891.36 63.401487 
" style="fill:none;stroke:#000000;stroke-linecap:square;stroke-width:0.6;"/>
   </g>
   <g id="line2d_129">
    <path clip-path="url(#pc358356c3f)" d="M 121.79 122.198702 
L 123.269942 114.363281 
L 124.749885 118.290008 
L 126.229827 104.345844 
L 127.709769 117.149409 
L 129.189712 115.147725 
L 130.669654 118.988795 
L 132.149596 89.522563 
L 133.629538 112.136182 
L 135.109481 114.480497 
L 136.589423 117.501056 
L 138.069365 105.233979 
L 139.549308 126.211087 
L 141.02925 122.870439 
L 142.509192 129.844775 
L 143.989135 96.659197 
L 145.469077 116.310866 
L 146.949019 116.558822 
L 148.428962 126.175021 
L 149.908904 118.605589 
L 151.388846 134.632587 
L 152.868788 130.714876 
L 154.348731 133.126815 
L 155.828673 105.536035 
L 157.308615 147.819357 
L 158.788558 143.392209 
L 160.2685 153.283413 
L 161.748442 128.298429 
L 163.228385 138.031843 
L 164.708327 125.629517 
L 166.188269 122.897488 
L 167.668212 80.636708 
L 169.148154 107.091398 
L 170.628096 115.391173 
L 172.108038 127.031597 
L 173.587981 124.597117 
L 175.067923 146.070137 
L 176.547865 140.633131 
L 178.027808 139.686388 
L 179.50775 101.758082 
L 180.987692 120.994987 
L 182.467635 125.498776 
L 183.947577 139.902786 
L 185.427519 120.228576 
L 186.907462 133.532562 
L 188.387404 121.031053 
L 189.867346 125.701649 
L 191.347288 94.643988 
L 192.827231 142.513091 
L 194.307173 136.765011 
L 195.787115 119.82283 
L 197.267058 64.086748 
L 198.747 100.175669 
L 200.226942 142.59424 
L 201.706885 153.626044 
L 203.186827 130.327163 
L 204.666769 155.370755 
L 206.146712 155.465429 
L 207.626654 160.221683 
L 209.106596 148.067313 
L 210.586538 179.084399 
L 212.066481 149.784974 
L 213.546423 147.102537 
L 215.026365 102.772449 
L 216.506308 136.278115 
L 217.98625 161.033176 
L 219.466192 157.367931 
L 220.946135 173.877316 
L 222.426077 155.379771 
L 223.906019 157.81876 
L 225.385962 131.544403 
L 226.865904 192.00518 
L 228.345846 182.488164 
L 229.825788 153.729735 
L 231.305731 163.88242 
L 232.785673 146.268502 
L 234.265615 141.670039 
L 235.745558 106.897541 
L 237.2255 83.373245 
L 238.705442 92.791078 
L 240.185385 92.272624 
L 241.665327 98.999004 
L 243.145269 95.680897 
L 244.625212 105.648742 
L 246.105154 98.37235 
L 247.585096 108.069698 
L 249.065038 81.63755 
L 250.544981 96.740347 
L 252.024923 89.572154 
L 253.504865 99.138761 
L 254.984808 93.76487 
L 256.46475 96.907154 
L 257.944692 82.827741 
L 259.424635 81.87649 
L 260.904577 82.08838 
L 262.384519 98.016195 
L 263.864462 92.443939 
L 265.344404 101.036754 
L 266.824346 93.106659 
L 268.304288 103.890506 
L 269.784231 102.195387 
L 271.264173 103.737224 
L 272.744115 96.487882 
L 274.224058 111.910768 
L 275.704 115.337074 
L 277.183942 120.742522 
L 278.663885 111.180423 
L 280.143827 119.038386 
L 281.623769 112.109133 
L 283.103712 112.298481 
L 284.583654 90.009459 
L 286.063596 99.702298 
L 287.543538 107.406978 
L 289.023481 100.829372 
L 290.503423 111.365264 
L 291.983365 107.677476 
L 293.463308 109.800884 
L 294.94325 112.605045 
L 296.423192 86.470445 
L 297.903135 95.180476 
L 299.383077 97.222735 
L 300.863019 104.589293 
L 302.342962 96.375175 
L 303.822904 105.621693 
L 305.302846 103.723699 
L 306.782788 101.036754 
L 308.262731 87.155706 
L 309.742673 105.224962 
L 311.222615 107.240171 
L 312.702558 115.382157 
L 314.1825 98.079311 
L 315.662442 96.623131 
L 317.142385 102.542526 
L 318.622327 105.09873 
L 320.102269 85.780676 
L 321.582212 99.125236 
L 323.062154 100.906014 
L 324.542096 104.350353 
L 326.022038 95.171459 
L 327.501981 103.304428 
L 328.981923 99.026054 
L 330.461865 102.34416 
L 331.941808 87.142181 
L 333.42175 100.500267 
L 334.901692 98.408417 
L 336.381635 103.45771 
L 337.861577 90.829969 
L 339.341519 95.518598 
L 340.821462 98.24161 
L 342.301404 100.216244 
L 343.781346 78.373543 
L 345.261288 93.55298 
L 346.741231 95.383349 
L 348.221173 101.456026 
L 349.701115 92.73247 
L 351.181058 100.973638 
L 352.661 98.05677 
L 354.140942 101.731032 
L 355.620885 97.655531 
L 357.100827 113.844827 
L 358.580769 111.275098 
L 360.060712 112.555454 
L 361.540654 104.512651 
L 363.020596 111.266081 
L 364.500538 109.900067 
L 365.980481 109.350055 
L 367.460423 93.250925 
L 368.940365 103.592959 
L 370.420308 77.187861 
L 371.90025 92.764028 
L 373.380192 90.221349 
L 374.860135 94.490706 
L 376.340077 82.764625 
L 377.820019 96.190334 
L 379.299962 91.361948 
L 380.779904 101.938414 
L 382.259846 67.003617 
L 383.739788 95.392366 
L 385.219731 103.967148 
L 386.699673 107.086889 
L 388.179615 98.381367 
L 389.659558 116.067418 
L 391.1395 107.839775 
L 392.619442 104.832741 
L 394.099385 67.210999 
L 395.579327 94.089468 
L 397.059269 104.264695 
L 398.539212 111.320181 
L 400.019154 106.663109 
L 401.499096 111.320181 
L 402.979038 100.27936 
L 404.458981 88.354913 
L 405.938923 80.271536 
L 407.418865 101.465042 
L 408.898808 113.294815 
L 410.37875 122.771256 
L 411.858692 104.828232 
L 413.338635 121.788447 
L 414.818577 112.027983 
L 416.298519 113.962043 
L 417.778462 67.747486 
L 419.258404 87.110623 
L 420.738346 93.404207 
L 422.218288 96.541982 
L 423.698231 103.994197 
L 425.178173 127.117255 
L 426.658115 121.477375 
L 428.138058 119.078961 
L 429.618 88.057366 
L 431.097942 115.995285 
L 432.577885 116.310866 
L 434.057827 126.41396 
L 435.537769 112.843985 
L 437.017712 111.64027 
L 438.497654 100.053945 
L 439.977596 96.889121 
L 441.457538 83.769975 
L 442.937481 115.323549 
L 444.417423 114.241557 
L 445.897365 103.633533 
L 447.377308 127.036105 
L 448.85725 120.918346 
L 450.337192 119.940045 
L 451.817135 100.351493 
L 453.297077 117.06826 
L 454.777019 60.426011 
L 456.256962 76.908346 
L 457.736904 52.513949 
L 459.216846 116.202667 
L 460.696788 119.971603 
L 462.176731 119.299867 
L 463.656673 79.266186 
L 465.136615 96.541982 
L 468.0965 120.837197 
L 469.576442 110.359913 
L 471.056385 124.069646 
L 472.536327 114.489514 
L 474.016269 109.936133 
L 475.496212 81.204754 
L 476.976154 130.336179 
L 478.456096 116.815795 
L 479.936038 115.386665 
L 481.415981 107.100414 
L 482.895923 125.643042 
L 484.375865 120.048244 
L 485.855808 119.39905 
L 487.33575 78.711665 
L 488.815692 107.560261 
L 490.295635 129.033281 
L 491.775577 120.467516 
L 493.255519 129.14148 
L 494.735462 139.393349 
L 496.215404 115.219858 
L 497.695346 129.317304 
L 499.175288 122.730681 
L 500.655231 112.821444 
L 502.135173 119.078961 
L 503.615115 104.832741 
L 505.095058 72.963586 
L 506.575 85.154022 
L 508.054942 93.268958 
L 509.534885 93.061576 
L 511.014827 101.564225 
L 512.494769 95.527615 
L 513.974712 109.561945 
L 515.454654 92.642304 
L 516.934596 102.709333 
L 518.414538 85.794201 
L 519.894481 100.017879 
L 521.374423 95.2481 
L 522.854365 101.843739 
L 524.334308 94.680055 
L 525.81425 95.270642 
L 527.294192 89.292639 
L 528.774135 90.550454 
L 530.254077 69.627446 
L 531.734019 89.279114 
L 533.213962 84.969182 
L 534.693904 90.104133 
L 536.173846 80.65925 
L 537.653788 100.878964 
L 539.133731 97.326425 
L 540.613673 97.281342 
L 542.093615 83.391278 
L 543.573558 95.581714 
L 545.0535 90.081591 
L 546.533442 92.132867 
L 548.013385 95.085802 
L 549.493327 103.899523 
L 550.973269 87.678669 
L 552.453212 86.709385 
L 553.933154 59.330495 
L 555.413096 79.771115 
L 556.893038 74.149268 
L 558.372981 77.133761 
L 559.852923 67.467971 
L 561.332865 81.308445 
L 562.812808 82.259695 
L 564.29275 77.246469 
L 565.772692 61.918257 
L 567.252635 75.519791 
L 568.732577 81.790832 
L 570.212519 84.121622 
L 571.692462 76.123903 
L 573.172404 85.852808 
L 576.132288 68.892593 
L 577.612231 40.86 
L 579.092173 68.473322 
L 580.572115 74.086152 
L 582.052058 84.63106 
L 583.532 74.775922 
L 585.011942 88.309831 
L 586.491885 95.906312 
L 587.971827 99.783447 
L 589.451769 85.528211 
L 590.931712 112.40668 
L 592.411654 105.770466 
L 593.891596 101.383893 
L 595.371538 92.525089 
L 596.851481 99.986321 
L 598.331423 89.378297 
L 599.811365 80.298586 
L 601.291308 52.635673 
L 602.77125 83.247012 
L 604.251192 84.279413 
L 605.731135 81.817882 
L 607.211077 79.689966 
L 608.691019 95.509582 
L 610.170962 94.657513 
L 611.650904 90.793902 
L 613.130846 71.155759 
L 614.610788 85.302796 
L 616.090731 85.009757 
L 617.570673 87.953675 
L 619.050615 71.439782 
L 620.530558 84.265888 
L 623.490442 76.71449 
L 624.970385 59.655092 
L 626.450327 77.85058 
L 627.930269 79.505126 
L 629.410212 87.498337 
L 630.890154 85.02779 
L 632.370096 97.484216 
L 633.850038 95.942378 
L 635.329981 97.096502 
L 636.809923 75.682089 
L 638.289865 91.03735 
L 639.769808 93.629621 
L 641.24975 101.685949 
L 642.729692 85.063856 
L 644.209635 89.405347 
L 645.689577 87.038491 
L 647.169519 94.143567 
L 648.649462 63.68551 
L 650.129404 83.075697 
L 651.609346 79.085854 
L 653.089288 95.198509 
L 654.569231 75.298884 
L 656.049173 85.26673 
L 657.529115 81.114588 
L 659.009058 91.893927 
L 660.489 68.824969 
L 661.968942 86.024124 
L 663.448885 86.27208 
L 664.928827 91.321373 
L 666.408769 77.205894 
L 667.888712 94.089468 
L 669.368654 81.705175 
L 670.848596 82.611343 
L 672.328538 58.144812 
L 673.808481 80.429327 
L 675.288423 84.928607 
L 676.768365 106.631551 
L 678.248308 95.802621 
L 679.72825 103.809357 
L 681.208192 101.433484 
L 682.688135 112.181265 
L 684.168077 105.765958 
L 685.648019 116.545297 
L 687.127962 112.361597 
L 688.607904 115.819461 
L 690.087846 102.235961 
L 691.567788 98.390384 
L 693.047731 83.445378 
L 694.527673 84.166705 
L 696.007615 63.798217 
L 697.487558 77.584591 
L 698.9675 75.767747 
L 700.447442 90.789394 
L 703.407327 91.429572 
L 704.887269 90.054542 
L 706.367212 103.412627 
L 707.847154 88.120482 
L 709.327096 98.37235 
L 710.807038 96.239926 
L 712.286981 103.124096 
L 713.766923 93.259941 
L 715.246865 97.168635 
L 716.726808 92.714437 
L 718.20675 96.839529 
L 719.686692 79.613325 
L 721.166635 103.281886 
L 722.646577 103.209754 
L 724.126519 104.765116 
L 725.606462 97.691597 
L 727.086404 103.687633 
L 728.566346 100.346985 
L 730.046288 105.486444 
L 731.526231 111.649286 
L 733.006173 92.006634 
L 734.486115 69.099975 
L 735.966058 80.956797 
L 737.446 95.311216 
L 738.925942 84.84295 
L 740.405885 94.720629 
L 741.885827 88.39098 
L 743.365769 89.049191 
L 744.845712 74.343125 
L 746.325654 69.027842 
L 747.805596 88.566803 
L 749.285538 85.248697 
L 750.765481 88.350405 
L 752.245423 82.629376 
L 753.725365 101.861773 
L 755.205308 100.274852 
L 756.68525 92.461972 
L 758.165192 77.575574 
L 759.645135 102.925731 
L 761.125077 103.511809 
L 762.605019 115.021493 
L 764.084962 104.972498 
L 765.564904 117.180967 
L 767.044846 112.600537 
L 768.524788 110.828776 
L 770.004731 67.161407 
L 771.484673 90.672178 
L 772.964615 93.79192 
L 774.444558 110.882876 
L 775.9245 104.783149 
L 777.404442 121.986812 
L 778.884385 118.25845 
L 780.364327 107.839775 
L 781.844269 89.035666 
L 783.324212 107.695509 
L 784.804154 103.331478 
L 786.284096 111.523054 
L 787.764038 100.685107 
L 789.243981 110.612378 
L 790.723923 100.112553 
L 792.203865 97.592415 
L 793.683808 57.184545 
L 795.16375 81.308445 
L 796.643692 99.161302 
L 798.123635 109.76031 
L 799.603577 129.308287 
L 801.083519 132.98255 
L 802.563462 137.278957 
L 804.043404 102.763432 
L 805.523346 121.937221 
L 807.003288 118.781413 
L 808.483231 122.649532 
L 809.963173 102.916714 
L 811.443115 104.007722 
L 812.923058 101.654391 
L 815.882942 81.330986 
L 817.362885 40.86 
L 818.842827 54.84023 
L 820.322769 74.442308 
L 821.802712 86.925783 
L 823.282654 100.617483 
L 824.762596 133.893226 
L 826.242538 142.571698 
L 827.722481 40.86 
L 829.202423 101.92038 
L 832.162308 160.325374 
L 833.64225 150.055472 
L 835.122192 134.858002 
L 836.602135 101.866281 
L 838.082077 121.761397 
L 839.562019 138.185125 
L 841.041962 141.737663 
L 842.521904 141.71963 
L 844.001846 140.479848 
L 845.481788 134.848985 
L 846.961731 121.964271 
L 848.441673 127.982848 
L 849.921615 121.27901 
L 851.401558 128.875491 
L 852.8815 117.329741 
L 854.361442 132.355896 
L 855.841385 141.836846 
L 857.321327 145.114378 
L 858.801269 133.929292 
L 860.281212 140.461815 
L 861.761154 127.455377 
L 863.241096 128.794341 
L 864.721038 85.059348 
L 866.200981 96.375175 
L 869.160865 109.832442 
L 870.640808 108.46192 
L 872.12075 117.595731 
L 873.600692 123.668407 
L 875.080635 106.356545 
L 876.560577 57.14397 
L 878.040519 89.089766 
L 879.520462 110.743119 
L 881.000404 105.887682 
L 882.480346 87.097099 
L 883.960288 93.963235 
L 885.440231 81.948623 
L 886.920173 87.507354 
L 888.400115 66.065891 
L 889.880058 97.330934 
L 891.36 106.279904 
L 891.36 106.279904 
" style="fill:none;stroke:#1f77b4;stroke-linecap:square;stroke-width:0.7;"/>
   </g>
   <g id="patch_3">
    <path d="M 121.79 216.6836 
L 121.79 40.86 
" style="fill:none;stroke:#000000;stroke-linecap:square;stroke-linejoin:miter;stroke-width:0.8;"/>
   </g>
   <g id="patch_4">
    <path d="M 891.36 216.6836 
L 891.36 40.86 
" style="fill:none;stroke:#000000;stroke-linecap:square;stroke-linejoin:miter;stroke-width:0.8;"/>
   </g>
   <g id="patch_5">
    <path d="M 121.79 216.6836 
L 891.36 216.6836 
" style="fill:none;stroke:#000000;stroke-linecap:square;stroke-linejoin:miter;stroke-width:0.8;"/>
   </g>
   <g id="patch_6">
    <path d="M 121.79 40.86 
L 891.36 40.86 
" style="fill:none;stroke:#000000;stroke-linecap:square;stroke-linejoin:miter;stroke-width:0.8;"/>
   </g>
   <g id="legend_1">
    <g id="patch_7">
     <path d="M 356.699063 479.09678 
L 660.450938 479.09678 
Q 666.050938 479.09678 666.050938 473.49678 
L 666.050938 247.07478 
Q 666.050938 241.47478 660.450938 241.47478 
L 356.699063 241.47478 
Q 351.099063 241.47478 351.099063 247.07478 
L 351.099063 473.49678 
Q 351.099063 479.09678 356.699063 479.09678 
z
" style="fill:#4c4c4c;opacity:0.5;stroke:#4c4c4c;stroke-linejoin:miter;"/>
    </g>
    <g id="patch_8">
     <path d="M 354.699063 477.09678 
L 658.450938 477.09678 
Q 664.050938 477.09678 664.050938 471.49678 
L 664.050938 245.07478 
Q 664.050938 239.47478 658.450938 239.47478 
L 354.699063 239.47478 
Q 349.099063 239.47478 349.099063 245.07478 
L 349.099063 471.49678 
Q 349.099063 477.09678 354.699063 477.09678 
z
" style="fill:#ffffff;stroke:#cccccc;stroke-linejoin:miter;"/>
    </g>
    <g id="line2d_130">
     <path d="M 360.299063 359.123592 
L 416.299063 359.123592 
" style="fill:none;stroke:#1f77b4;stroke-linecap:square;stroke-width:0.7;"/>
    </g>
    <g id="line2d_131"/>
    <g id="text_10">
     <!-- Frames: 521  -->
     <defs>
      <path d="M 41.109375 46.296875 
Q 39.59375 47.171875 37.8125 47.578125 
Q 36.03125 48 33.890625 48 
Q 26.265625 48 22.1875 43.046875 
Q 18.109375 38.09375 18.109375 28.8125 
L 18.109375 0 
L 9.078125 0 
L 9.078125 54.6875 
L 18.109375 54.6875 
L 18.109375 46.1875 
Q 20.953125 51.171875 25.484375 53.578125 
Q 30.03125 56 36.53125 56 
Q 37.453125 56 38.578125 55.875 
Q 39.703125 55.765625 41.0625 55.515625 
z
" id="DejaVuSans-114"/>
      <path d="M 34.28125 27.484375 
Q 23.390625 27.484375 19.1875 25 
Q 14.984375 22.515625 14.984375 16.5 
Q 14.984375 11.71875 18.140625 8.90625 
Q 21.296875 6.109375 26.703125 6.109375 
Q 34.1875 6.109375 38.703125 11.40625 
Q 43.21875 16.703125 43.21875 25.484375 
L 43.21875 27.484375 
z
M 52.203125 31.203125 
L 52.203125 0 
L 43.21875 0 
L 43.21875 8.296875 
Q 40.140625 3.328125 35.546875 0.953125 
Q 30.953125 -1.421875 24.3125 -1.421875 
Q 15.921875 -1.421875 10.953125 3.296875 
Q 6 8.015625 6 15.921875 
Q 6 25.140625 12.171875 29.828125 
Q 18.359375 34.515625 30.609375 34.515625 
L 43.21875 34.515625 
L 43.21875 35.40625 
Q 43.21875 41.609375 39.140625 45 
Q 35.0625 48.390625 27.6875 48.390625 
Q 23 48.390625 18.546875 47.265625 
Q 14.109375 46.140625 10.015625 43.890625 
L 10.015625 52.203125 
Q 14.9375 54.109375 19.578125 55.046875 
Q 24.21875 56 28.609375 56 
Q 40.484375 56 46.34375 49.84375 
Q 52.203125 43.703125 52.203125 31.203125 
z
" id="DejaVuSans-97"/>
      <path d="M 52 44.1875 
Q 55.375 50.25 60.0625 53.125 
Q 64.75 56 71.09375 56 
Q 79.640625 56 84.28125 50.015625 
Q 88.921875 44.046875 88.921875 33.015625 
L 88.921875 0 
L 79.890625 0 
L 79.890625 32.71875 
Q 79.890625 40.578125 77.09375 44.375 
Q 74.3125 48.1875 68.609375 48.1875 
Q 61.625 48.1875 57.5625 43.546875 
Q 53.515625 38.921875 53.515625 30.90625 
L 53.515625 0 
L 44.484375 0 
L 44.484375 32.71875 
Q 44.484375 40.625 41.703125 44.40625 
Q 38.921875 48.1875 33.109375 48.1875 
Q 26.21875 48.1875 22.15625 43.53125 
Q 18.109375 38.875 18.109375 30.90625 
L 18.109375 0 
L 9.078125 0 
L 9.078125 54.6875 
L 18.109375 54.6875 
L 18.109375 46.1875 
Q 21.1875 51.21875 25.484375 53.609375 
Q 29.78125 56 35.6875 56 
Q 41.65625 56 45.828125 52.96875 
Q 50 49.953125 52 44.1875 
z
" id="DejaVuSans-109"/>
      <path d="M 56.203125 29.59375 
L 56.203125 25.203125 
L 14.890625 25.203125 
Q 15.484375 15.921875 20.484375 11.0625 
Q 25.484375 6.203125 34.421875 6.203125 
Q 39.59375 6.203125 44.453125 7.46875 
Q 49.3125 8.734375 54.109375 11.28125 
L 54.109375 2.78125 
Q 49.265625 0.734375 44.1875 -0.34375 
Q 39.109375 -1.421875 33.890625 -1.421875 
Q 20.796875 -1.421875 13.15625 6.1875 
Q 5.515625 13.8125 5.515625 26.8125 
Q 5.515625 40.234375 12.765625 48.109375 
Q 20.015625 56 32.328125 56 
Q 43.359375 56 49.78125 48.890625 
Q 56.203125 41.796875 56.203125 29.59375 
z
M 47.21875 32.234375 
Q 47.125 39.59375 43.09375 43.984375 
Q 39.0625 48.390625 32.421875 48.390625 
Q 24.90625 48.390625 20.390625 44.140625 
Q 15.875 39.890625 15.1875 32.171875 
z
" id="DejaVuSans-101"/>
      <path d="M 44.28125 53.078125 
L 44.28125 44.578125 
Q 40.484375 46.53125 36.375 47.5 
Q 32.28125 48.484375 27.875 48.484375 
Q 21.1875 48.484375 17.84375 46.4375 
Q 14.5 44.390625 14.5 40.28125 
Q 14.5 37.15625 16.890625 35.375 
Q 19.28125 33.59375 26.515625 31.984375 
L 29.59375 31.296875 
Q 39.15625 29.25 43.1875 25.515625 
Q 47.21875 21.78125 47.21875 15.09375 
Q 47.21875 7.46875 41.1875 3.015625 
Q 35.15625 -1.421875 24.609375 -1.421875 
Q 20.21875 -1.421875 15.453125 -0.5625 
Q 10.6875 0.296875 5.421875 2 
L 5.421875 11.28125 
Q 10.40625 8.6875 15.234375 7.390625 
Q 20.0625 6.109375 24.8125 6.109375 
Q 31.15625 6.109375 34.5625 8.28125 
Q 37.984375 10.453125 37.984375 14.40625 
Q 37.984375 18.0625 35.515625 20.015625 
Q 33.0625 21.96875 24.703125 23.78125 
L 21.578125 24.515625 
Q 13.234375 26.265625 9.515625 29.90625 
Q 5.8125 33.546875 5.8125 39.890625 
Q 5.8125 47.609375 11.28125 51.796875 
Q 16.75 56 26.8125 56 
Q 31.78125 56 36.171875 55.265625 
Q 40.578125 54.546875 44.28125 53.078125 
z
" id="DejaVuSans-115"/>
      <path d="M 11.71875 12.40625 
L 22.015625 12.40625 
L 22.015625 0 
L 11.71875 0 
z
M 11.71875 51.703125 
L 22.015625 51.703125 
L 22.015625 39.3125 
L 11.71875 39.3125 
z
" id="DejaVuSans-58"/>
      <path id="DejaVuSans-32"/>
     </defs>
     <g transform="translate(438.699063 271.950405)scale(0.28 -0.28)">
      <use xlink:href="#DejaVuSans-70"/>
      <use x="50.269531" xlink:href="#DejaVuSans-114"/>
      <use x="91.382812" xlink:href="#DejaVuSans-97"/>
      <use x="152.662109" xlink:href="#DejaVuSans-109"/>
      <use x="250.074219" xlink:href="#DejaVuSans-101"/>
      <use x="311.597656" xlink:href="#DejaVuSans-115"/>
      <use x="363.697266" xlink:href="#DejaVuSans-58"/>
      <use x="397.388672" xlink:href="#DejaVuSans-32"/>
      <use x="429.175781" xlink:href="#DejaVuSans-53"/>
      <use x="492.798828" xlink:href="#DejaVuSans-50"/>
      <use x="556.421875" xlink:href="#DejaVuSans-49"/>
      <use x="620.044922" xlink:href="#DejaVuSans-32"/>
     </g>
     <!-- Mean:86.194 -->
     <defs>
      <path d="M 54.890625 33.015625 
L 54.890625 0 
L 45.90625 0 
L 45.90625 32.71875 
Q 45.90625 40.484375 42.875 44.328125 
Q 39.84375 48.1875 33.796875 48.1875 
Q 26.515625 48.1875 22.3125 43.546875 
Q 18.109375 38.921875 18.109375 30.90625 
L 18.109375 0 
L 9.078125 0 
L 9.078125 54.6875 
L 18.109375 54.6875 
L 18.109375 46.1875 
Q 21.34375 51.125 25.703125 53.5625 
Q 30.078125 56 35.796875 56 
Q 45.21875 56 50.046875 50.171875 
Q 54.890625 44.34375 54.890625 33.015625 
z
" id="DejaVuSans-110"/>
      <path d="M 33.015625 40.375 
Q 26.375 40.375 22.484375 35.828125 
Q 18.609375 31.296875 18.609375 23.390625 
Q 18.609375 15.53125 22.484375 10.953125 
Q 26.375 6.390625 33.015625 6.390625 
Q 39.65625 6.390625 43.53125 10.953125 
Q 47.40625 15.53125 47.40625 23.390625 
Q 47.40625 31.296875 43.53125 35.828125 
Q 39.65625 40.375 33.015625 40.375 
z
M 52.59375 71.296875 
L 52.59375 62.3125 
Q 48.875 64.0625 45.09375 64.984375 
Q 41.3125 65.921875 37.59375 65.921875 
Q 27.828125 65.921875 22.671875 59.328125 
Q 17.53125 52.734375 16.796875 39.40625 
Q 19.671875 43.65625 24.015625 45.921875 
Q 28.375 48.1875 33.59375 48.1875 
Q 44.578125 48.1875 50.953125 41.515625 
Q 57.328125 34.859375 57.328125 23.390625 
Q 57.328125 12.15625 50.6875 5.359375 
Q 44.046875 -1.421875 33.015625 -1.421875 
Q 20.359375 -1.421875 13.671875 8.265625 
Q 6.984375 17.96875 6.984375 36.375 
Q 6.984375 53.65625 15.1875 63.9375 
Q 23.390625 74.21875 37.203125 74.21875 
Q 40.921875 74.21875 44.703125 73.484375 
Q 48.484375 72.75 52.59375 71.296875 
z
" id="DejaVuSans-54"/>
      <path d="M 10.6875 12.40625 
L 21 12.40625 
L 21 0 
L 10.6875 0 
z
" id="DejaVuSans-46"/>
      <path d="M 10.984375 1.515625 
L 10.984375 10.5 
Q 14.703125 8.734375 18.5 7.8125 
Q 22.3125 6.890625 25.984375 6.890625 
Q 35.75 6.890625 40.890625 13.453125 
Q 46.046875 20.015625 46.78125 33.40625 
Q 43.953125 29.203125 39.59375 26.953125 
Q 35.25 24.703125 29.984375 24.703125 
Q 19.046875 24.703125 12.671875 31.3125 
Q 6.296875 37.9375 6.296875 49.421875 
Q 6.296875 60.640625 12.9375 67.421875 
Q 19.578125 74.21875 30.609375 74.21875 
Q 43.265625 74.21875 49.921875 64.515625 
Q 56.59375 54.828125 56.59375 36.375 
Q 56.59375 19.140625 48.40625 8.859375 
Q 40.234375 -1.421875 26.421875 -1.421875 
Q 22.703125 -1.421875 18.890625 -0.6875 
Q 15.09375 0.046875 10.984375 1.515625 
z
M 30.609375 32.421875 
Q 37.25 32.421875 41.125 36.953125 
Q 45.015625 41.5 45.015625 49.421875 
Q 45.015625 57.28125 41.125 61.84375 
Q 37.25 66.40625 30.609375 66.40625 
Q 23.96875 66.40625 20.09375 61.84375 
Q 16.21875 57.28125 16.21875 49.421875 
Q 16.21875 41.5 20.09375 36.953125 
Q 23.96875 32.421875 30.609375 32.421875 
z
" id="DejaVuSans-57"/>
     </defs>
     <g transform="translate(438.699063 303.30428)scale(0.28 -0.28)">
      <use xlink:href="#DejaVuSans-77"/>
      <use x="86.279297" xlink:href="#DejaVuSans-101"/>
      <use x="147.802734" xlink:href="#DejaVuSans-97"/>
      <use x="209.082031" xlink:href="#DejaVuSans-110"/>
      <use x="272.460938" xlink:href="#DejaVuSans-58"/>
      <use x="306.152344" xlink:href="#DejaVuSans-56"/>
      <use x="369.775391" xlink:href="#DejaVuSans-54"/>
      <use x="433.398438" xlink:href="#DejaVuSans-46"/>
      <use x="465.185547" xlink:href="#DejaVuSans-49"/>
      <use x="528.808594" xlink:href="#DejaVuSans-57"/>
      <use x="592.431641" xlink:href="#DejaVuSans-52"/>
     </g>
     <!-- 0.01%: 66.584  -->
     <defs>
      <path d="M 72.703125 32.078125 
Q 68.453125 32.078125 66.03125 28.46875 
Q 63.625 24.859375 63.625 18.40625 
Q 63.625 12.0625 66.03125 8.421875 
Q 68.453125 4.78125 72.703125 4.78125 
Q 76.859375 4.78125 79.265625 8.421875 
Q 81.6875 12.0625 81.6875 18.40625 
Q 81.6875 24.8125 79.265625 28.4375 
Q 76.859375 32.078125 72.703125 32.078125 
z
M 72.703125 38.28125 
Q 80.421875 38.28125 84.953125 32.90625 
Q 89.5 27.546875 89.5 18.40625 
Q 89.5 9.28125 84.9375 3.921875 
Q 80.375 -1.421875 72.703125 -1.421875 
Q 64.890625 -1.421875 60.34375 3.921875 
Q 55.8125 9.28125 55.8125 18.40625 
Q 55.8125 27.59375 60.375 32.9375 
Q 64.9375 38.28125 72.703125 38.28125 
z
M 22.3125 68.015625 
Q 18.109375 68.015625 15.6875 64.375 
Q 13.28125 60.75 13.28125 54.390625 
Q 13.28125 47.953125 15.671875 44.328125 
Q 18.0625 40.71875 22.3125 40.71875 
Q 26.5625 40.71875 28.96875 44.328125 
Q 31.390625 47.953125 31.390625 54.390625 
Q 31.390625 60.6875 28.953125 64.34375 
Q 26.515625 68.015625 22.3125 68.015625 
z
M 66.40625 74.21875 
L 74.21875 74.21875 
L 28.609375 -1.421875 
L 20.796875 -1.421875 
z
M 22.3125 74.21875 
Q 30.03125 74.21875 34.609375 68.875 
Q 39.203125 63.53125 39.203125 54.390625 
Q 39.203125 45.171875 34.640625 39.84375 
Q 30.078125 34.515625 22.3125 34.515625 
Q 14.546875 34.515625 10.03125 39.859375 
Q 5.515625 45.21875 5.515625 54.390625 
Q 5.515625 63.484375 10.046875 68.84375 
Q 14.59375 74.21875 22.3125 74.21875 
z
" id="DejaVuSans-37"/>
     </defs>
     <g transform="translate(438.699063 334.658155)scale(0.28 -0.28)">
      <use xlink:href="#DejaVuSans-48"/>
      <use x="63.623047" xlink:href="#DejaVuSans-46"/>
      <use x="95.410156" xlink:href="#DejaVuSans-48"/>
      <use x="159.033203" xlink:href="#DejaVuSans-49"/>
      <use x="222.65625" xlink:href="#DejaVuSans-37"/>
      <use x="317.675781" xlink:href="#DejaVuSans-58"/>
      <use x="351.367188" xlink:href="#DejaVuSans-32"/>
      <use x="383.154297" xlink:href="#DejaVuSans-54"/>
      <use x="446.777344" xlink:href="#DejaVuSans-54"/>
      <use x="510.400391" xlink:href="#DejaVuSans-46"/>
      <use x="542.1875" xlink:href="#DejaVuSans-53"/>
      <use x="605.810547" xlink:href="#DejaVuSans-56"/>
      <use x="669.433594" xlink:href="#DejaVuSans-52"/>
      <use x="733.056641" xlink:href="#DejaVuSans-32"/>
     </g>
     <!-- 0.1%: 67.572  -->
     <defs>
      <path d="M 8.203125 72.90625 
L 55.078125 72.90625 
L 55.078125 68.703125 
L 28.609375 0 
L 18.3125 0 
L 43.21875 64.59375 
L 8.203125 64.59375 
z
" id="DejaVuSans-55"/>
     </defs>
     <g transform="translate(438.699063 366.01203)scale(0.28 -0.28)">
      <use xlink:href="#DejaVuSans-48"/>
      <use x="63.623047" xlink:href="#DejaVuSans-46"/>
      <use x="95.410156" xlink:href="#DejaVuSans-49"/>
      <use x="159.033203" xlink:href="#DejaVuSans-37"/>
      <use x="254.052734" xlink:href="#DejaVuSans-58"/>
      <use x="287.744141" xlink:href="#DejaVuSans-32"/>
      <use x="319.53125" xlink:href="#DejaVuSans-54"/>
      <use x="383.154297" xlink:href="#DejaVuSans-55"/>
      <use x="446.777344" xlink:href="#DejaVuSans-46"/>
      <use x="478.564453" xlink:href="#DejaVuSans-53"/>
      <use x="542.1875" xlink:href="#DejaVuSans-55"/>
      <use x="605.810547" xlink:href="#DejaVuSans-50"/>
      <use x="669.433594" xlink:href="#DejaVuSans-32"/>
     </g>
     <!-- 1%: 73.375  -->
     <g transform="translate(438.699063 397.365905)scale(0.28 -0.28)">
      <use xlink:href="#DejaVuSans-49"/>
      <use x="63.623047" xlink:href="#DejaVuSans-37"/>
      <use x="158.642578" xlink:href="#DejaVuSans-58"/>
      <use x="192.333984" xlink:href="#DejaVuSans-32"/>
      <use x="224.121094" xlink:href="#DejaVuSans-55"/>
      <use x="287.744141" xlink:href="#DejaVuSans-51"/>
      <use x="351.367188" xlink:href="#DejaVuSans-46"/>
      <use x="383.154297" xlink:href="#DejaVuSans-51"/>
      <use x="446.777344" xlink:href="#DejaVuSans-55"/>
      <use x="510.400391" xlink:href="#DejaVuSans-53"/>
      <use x="574.023438" xlink:href="#DejaVuSans-32"/>
     </g>
     <!-- 25%: 83.469  -->
     <g transform="translate(438.699063 428.71978)scale(0.28 -0.28)">
      <use xlink:href="#DejaVuSans-50"/>
      <use x="63.623047" xlink:href="#DejaVuSans-53"/>
      <use x="127.246094" xlink:href="#DejaVuSans-37"/>
      <use x="222.265625" xlink:href="#DejaVuSans-58"/>
      <use x="255.957031" xlink:href="#DejaVuSans-32"/>
      <use x="287.744141" xlink:href="#DejaVuSans-56"/>
      <use x="351.367188" xlink:href="#DejaVuSans-51"/>
      <use x="414.990234" xlink:href="#DejaVuSans-46"/>
      <use x="446.777344" xlink:href="#DejaVuSans-52"/>
      <use x="510.400391" xlink:href="#DejaVuSans-54"/>
      <use x="574.023438" xlink:href="#DejaVuSans-57"/>
      <use x="637.646484" xlink:href="#DejaVuSans-32"/>
     </g>
     <!-- 75%: 89.314 -->
     <g transform="translate(438.699063 460.073655)scale(0.28 -0.28)">
      <use xlink:href="#DejaVuSans-55"/>
      <use x="63.623047" xlink:href="#DejaVuSans-53"/>
      <use x="127.246094" xlink:href="#DejaVuSans-37"/>
      <use x="222.265625" xlink:href="#DejaVuSans-58"/>
      <use x="255.957031" xlink:href="#DejaVuSans-32"/>
      <use x="287.744141" xlink:href="#DejaVuSans-56"/>
      <use x="351.367188" xlink:href="#DejaVuSans-57"/>
      <use x="414.990234" xlink:href="#DejaVuSans-46"/>
      <use x="446.777344" xlink:href="#DejaVuSans-51"/>
      <use x="510.400391" xlink:href="#DejaVuSans-49"/>
      <use x="574.023438" xlink:href="#DejaVuSans-52"/>
     </g>
    </g>
   </g>
  </g>
 </g>
 <defs>
  <clipPath id="pc358356c3f">
   <rect height="175.8236" width="769.57" x="121.79" y="40.86"/>
  </clipPath>
 </defs>
</svg>
