<?xml version="1.0" encoding="utf-8" standalone="no"?>
<!DOCTYPE svg PUBLIC "-//W3C//DTD SVG 1.1//EN"
  "http://www.w3.org/Graphics/SVG/1.1/DTD/svg11.dtd">
<!-- Created with matplotlib (https://matplotlib.org/) -->
<svg height="518.4pt" version="1.1" viewBox="0 0 921.6 518.4" width="921.6pt" xmlns="http://www.w3.org/2000/svg" xmlns:xlink="http://www.w3.org/1999/xlink">
 <defs>
  <style type="text/css">
*{stroke-linecap:butt;stroke-linejoin:round;}
  </style>
 </defs>
 <g id="figure_1">
  <g id="patch_1">
   <path d="M 0 518.4 
L 921.6 518.4 
L 921.6 0 
L 0 0 
z
" style="fill:#ffffff;"/>
  </g>
  <g id="axes_1">
   <g id="patch_2">
    <path d="M 113.8925 207.2416 
L 893.52 207.2416 
L 893.52 37.98 
L 113.8925 37.98 
z
" style="fill:#ffffff;"/>
   </g>
   <g id="matplotlib.axis_1">
    <g id="xtick_1">
     <g id="line2d_1">
      <defs>
       <path d="M 0 0 
L 0 3.5 
" id="meae738bd65" style="stroke:#000000;stroke-width:0.8;"/>
      </defs>
      <g>
       <use style="stroke:#000000;stroke-width:0.8;" x="113.8925" xlink:href="#meae738bd65" y="207.2416"/>
      </g>
     </g>
     <g id="text_1">
      <!-- 0 -->
      <defs>
       <path d="M 31.78125 66.40625 
Q 24.171875 66.40625 20.328125 58.90625 
Q 16.5 51.421875 16.5 36.375 
Q 16.5 21.390625 20.328125 13.890625 
Q 24.171875 6.390625 31.78125 6.390625 
Q 39.453125 6.390625 43.28125 13.890625 
Q 47.125 21.390625 47.125 36.375 
Q 47.125 51.421875 43.28125 58.90625 
Q 39.453125 66.40625 31.78125 66.40625 
z
M 31.78125 74.21875 
Q 44.046875 74.21875 50.515625 64.515625 
Q 56.984375 54.828125 56.984375 36.375 
Q 56.984375 17.96875 50.515625 8.265625 
Q 44.046875 -1.421875 31.78125 -1.421875 
Q 19.53125 -1.421875 13.0625 8.265625 
Q 6.59375 17.96875 6.59375 36.375 
Q 6.59375 54.828125 13.0625 64.515625 
Q 19.53125 74.21875 31.78125 74.21875 
z
" id="DejaVuSans-48"/>
      </defs>
      <g transform="translate(105.62125 233.997537)scale(0.26 -0.26)">
       <use xlink:href="#DejaVuSans-48"/>
      </g>
     </g>
    </g>
    <g id="xtick_2">
     <g id="line2d_2">
      <g>
       <use style="stroke:#000000;stroke-width:0.8;" x="263.820865" xlink:href="#meae738bd65" y="207.2416"/>
      </g>
     </g>
     <g id="text_2">
      <!-- 100 -->
      <defs>
       <path d="M 12.40625 8.296875 
L 28.515625 8.296875 
L 28.515625 63.921875 
L 10.984375 60.40625 
L 10.984375 69.390625 
L 28.421875 72.90625 
L 38.28125 72.90625 
L 38.28125 8.296875 
L 54.390625 8.296875 
L 54.390625 0 
L 12.40625 0 
z
" id="DejaVuSans-49"/>
      </defs>
      <g transform="translate(239.007115 233.997537)scale(0.26 -0.26)">
       <use xlink:href="#DejaVuSans-49"/>
       <use x="63.623047" xlink:href="#DejaVuSans-48"/>
       <use x="127.246094" xlink:href="#DejaVuSans-48"/>
      </g>
     </g>
    </g>
    <g id="xtick_3">
     <g id="line2d_3">
      <g>
       <use style="stroke:#000000;stroke-width:0.8;" x="413.749231" xlink:href="#meae738bd65" y="207.2416"/>
      </g>
     </g>
     <g id="text_3">
      <!-- 200 -->
      <defs>
       <path d="M 19.1875 8.296875 
L 53.609375 8.296875 
L 53.609375 0 
L 7.328125 0 
L 7.328125 8.296875 
Q 12.9375 14.109375 22.625 23.890625 
Q 32.328125 33.6875 34.8125 36.53125 
Q 39.546875 41.84375 41.421875 45.53125 
Q 43.3125 49.21875 43.3125 52.78125 
Q 43.3125 58.59375 39.234375 62.25 
Q 35.15625 65.921875 28.609375 65.921875 
Q 23.96875 65.921875 18.8125 64.3125 
Q 13.671875 62.703125 7.8125 59.421875 
L 7.8125 69.390625 
Q 13.765625 71.78125 18.9375 73 
Q 24.125 74.21875 28.421875 74.21875 
Q 39.75 74.21875 46.484375 68.546875 
Q 53.21875 62.890625 53.21875 53.421875 
Q 53.21875 48.921875 51.53125 44.890625 
Q 49.859375 40.875 45.40625 35.40625 
Q 44.1875 33.984375 37.640625 27.21875 
Q 31.109375 20.453125 19.1875 8.296875 
z
" id="DejaVuSans-50"/>
      </defs>
      <g transform="translate(388.935481 233.997537)scale(0.26 -0.26)">
       <use xlink:href="#DejaVuSans-50"/>
       <use x="63.623047" xlink:href="#DejaVuSans-48"/>
       <use x="127.246094" xlink:href="#DejaVuSans-48"/>
      </g>
     </g>
    </g>
    <g id="xtick_4">
     <g id="line2d_4">
      <g>
       <use style="stroke:#000000;stroke-width:0.8;" x="563.677596" xlink:href="#meae738bd65" y="207.2416"/>
      </g>
     </g>
     <g id="text_4">
      <!-- 300 -->
      <defs>
       <path d="M 40.578125 39.3125 
Q 47.65625 37.796875 51.625 33 
Q 55.609375 28.21875 55.609375 21.1875 
Q 55.609375 10.40625 48.1875 4.484375 
Q 40.765625 -1.421875 27.09375 -1.421875 
Q 22.515625 -1.421875 17.65625 -0.515625 
Q 12.796875 0.390625 7.625 2.203125 
L 7.625 11.71875 
Q 11.71875 9.328125 16.59375 8.109375 
Q 21.484375 6.890625 26.8125 6.890625 
Q 36.078125 6.890625 40.9375 10.546875 
Q 45.796875 14.203125 45.796875 21.1875 
Q 45.796875 27.640625 41.28125 31.265625 
Q 36.765625 34.90625 28.71875 34.90625 
L 20.21875 34.90625 
L 20.21875 43.015625 
L 29.109375 43.015625 
Q 36.375 43.015625 40.234375 45.921875 
Q 44.09375 48.828125 44.09375 54.296875 
Q 44.09375 59.90625 40.109375 62.90625 
Q 36.140625 65.921875 28.71875 65.921875 
Q 24.65625 65.921875 20.015625 65.03125 
Q 15.375 64.15625 9.8125 62.3125 
L 9.8125 71.09375 
Q 15.4375 72.65625 20.34375 73.4375 
Q 25.25 74.21875 29.59375 74.21875 
Q 40.828125 74.21875 47.359375 69.109375 
Q 53.90625 64.015625 53.90625 55.328125 
Q 53.90625 49.265625 50.4375 45.09375 
Q 46.96875 40.921875 40.578125 39.3125 
z
" id="DejaVuSans-51"/>
      </defs>
      <g transform="translate(538.863846 233.997537)scale(0.26 -0.26)">
       <use xlink:href="#DejaVuSans-51"/>
       <use x="63.623047" xlink:href="#DejaVuSans-48"/>
       <use x="127.246094" xlink:href="#DejaVuSans-48"/>
      </g>
     </g>
    </g>
    <g id="xtick_5">
     <g id="line2d_5">
      <g>
       <use style="stroke:#000000;stroke-width:0.8;" x="713.605962" xlink:href="#meae738bd65" y="207.2416"/>
      </g>
     </g>
     <g id="text_5">
      <!-- 400 -->
      <defs>
       <path d="M 37.796875 64.3125 
L 12.890625 25.390625 
L 37.796875 25.390625 
z
M 35.203125 72.90625 
L 47.609375 72.90625 
L 47.609375 25.390625 
L 58.015625 25.390625 
L 58.015625 17.1875 
L 47.609375 17.1875 
L 47.609375 0 
L 37.796875 0 
L 37.796875 17.1875 
L 4.890625 17.1875 
L 4.890625 26.703125 
z
" id="DejaVuSans-52"/>
      </defs>
      <g transform="translate(688.792212 233.997537)scale(0.26 -0.26)">
       <use xlink:href="#DejaVuSans-52"/>
       <use x="63.623047" xlink:href="#DejaVuSans-48"/>
       <use x="127.246094" xlink:href="#DejaVuSans-48"/>
      </g>
     </g>
    </g>
    <g id="xtick_6">
     <g id="line2d_6">
      <g>
       <use style="stroke:#000000;stroke-width:0.8;" x="863.534327" xlink:href="#meae738bd65" y="207.2416"/>
      </g>
     </g>
     <g id="text_6">
      <!-- 500 -->
      <defs>
       <path d="M 10.796875 72.90625 
L 49.515625 72.90625 
L 49.515625 64.59375 
L 19.828125 64.59375 
L 19.828125 46.734375 
Q 21.96875 47.46875 24.109375 47.828125 
Q 26.265625 48.1875 28.421875 48.1875 
Q 40.625 48.1875 47.75 41.5 
Q 54.890625 34.8125 54.890625 23.390625 
Q 54.890625 11.625 47.5625 5.09375 
Q 40.234375 -1.421875 26.90625 -1.421875 
Q 22.3125 -1.421875 17.546875 -0.640625 
Q 12.796875 0.140625 7.71875 1.703125 
L 7.71875 11.625 
Q 12.109375 9.234375 16.796875 8.0625 
Q 21.484375 6.890625 26.703125 6.890625 
Q 35.15625 6.890625 40.078125 11.328125 
Q 45.015625 15.765625 45.015625 23.390625 
Q 45.015625 31 40.078125 35.4375 
Q 35.15625 39.890625 26.703125 39.890625 
Q 22.75 39.890625 18.8125 39.015625 
Q 14.890625 38.140625 10.796875 36.28125 
z
" id="DejaVuSans-53"/>
      </defs>
      <g transform="translate(838.720577 233.997537)scale(0.26 -0.26)">
       <use xlink:href="#DejaVuSans-53"/>
       <use x="63.623047" xlink:href="#DejaVuSans-48"/>
       <use x="127.246094" xlink:href="#DejaVuSans-48"/>
      </g>
     </g>
    </g>
   </g>
   <g id="matplotlib.axis_2">
    <g id="ytick_1">
     <g id="line2d_7">
      <defs>
       <path d="M 0 0 
L -3.5 0 
" id="m93228713b9" style="stroke:#000000;stroke-width:0.8;"/>
      </defs>
      <g>
       <use style="stroke:#000000;stroke-width:0.8;" x="113.8925" xlink:href="#m93228713b9" y="168.181231"/>
      </g>
     </g>
     <g id="text_7">
      <!-- 70 -->
      <defs>
       <path d="M 8.203125 72.90625 
L 55.078125 72.90625 
L 55.078125 68.703125 
L 28.609375 0 
L 18.3125 0 
L 43.21875 64.59375 
L 8.203125 64.59375 
z
" id="DejaVuSans-55"/>
      </defs>
      <g transform="translate(73.8075 178.0592)scale(0.26 -0.26)">
       <use xlink:href="#DejaVuSans-55"/>
       <use x="63.623047" xlink:href="#DejaVuSans-48"/>
      </g>
     </g>
    </g>
    <g id="ytick_2">
     <g id="line2d_8">
      <g>
       <use style="stroke:#000000;stroke-width:0.8;" x="113.8925" xlink:href="#m93228713b9" y="124.780821"/>
      </g>
     </g>
     <g id="text_8">
      <!-- 80 -->
      <defs>
       <path d="M 31.78125 34.625 
Q 24.75 34.625 20.71875 30.859375 
Q 16.703125 27.09375 16.703125 20.515625 
Q 16.703125 13.921875 20.71875 10.15625 
Q 24.75 6.390625 31.78125 6.390625 
Q 38.8125 6.390625 42.859375 10.171875 
Q 46.921875 13.96875 46.921875 20.515625 
Q 46.921875 27.09375 42.890625 30.859375 
Q 38.875 34.625 31.78125 34.625 
z
M 21.921875 38.8125 
Q 15.578125 40.375 12.03125 44.71875 
Q 8.5 49.078125 8.5 55.328125 
Q 8.5 64.0625 14.71875 69.140625 
Q 20.953125 74.21875 31.78125 74.21875 
Q 42.671875 74.21875 48.875 69.140625 
Q 55.078125 64.0625 55.078125 55.328125 
Q 55.078125 49.078125 51.53125 44.71875 
Q 48 40.375 41.703125 38.8125 
Q 48.828125 37.15625 52.796875 32.3125 
Q 56.78125 27.484375 56.78125 20.515625 
Q 56.78125 9.90625 50.3125 4.234375 
Q 43.84375 -1.421875 31.78125 -1.421875 
Q 19.734375 -1.421875 13.25 4.234375 
Q 6.78125 9.90625 6.78125 20.515625 
Q 6.78125 27.484375 10.78125 32.3125 
Q 14.796875 37.15625 21.921875 38.8125 
z
M 18.3125 54.390625 
Q 18.3125 48.734375 21.84375 45.5625 
Q 25.390625 42.390625 31.78125 42.390625 
Q 38.140625 42.390625 41.71875 45.5625 
Q 45.3125 48.734375 45.3125 54.390625 
Q 45.3125 60.0625 41.71875 63.234375 
Q 38.140625 66.40625 31.78125 66.40625 
Q 25.390625 66.40625 21.84375 63.234375 
Q 18.3125 60.0625 18.3125 54.390625 
z
" id="DejaVuSans-56"/>
      </defs>
      <g transform="translate(73.8075 134.658789)scale(0.26 -0.26)">
       <use xlink:href="#DejaVuSans-56"/>
       <use x="63.623047" xlink:href="#DejaVuSans-48"/>
      </g>
     </g>
    </g>
    <g id="ytick_3">
     <g id="line2d_9">
      <g>
       <use style="stroke:#000000;stroke-width:0.8;" x="113.8925" xlink:href="#m93228713b9" y="81.38041"/>
      </g>
     </g>
     <g id="text_9">
      <!-- 90 -->
      <defs>
       <path d="M 10.984375 1.515625 
L 10.984375 10.5 
Q 14.703125 8.734375 18.5 7.8125 
Q 22.3125 6.890625 25.984375 6.890625 
Q 35.75 6.890625 40.890625 13.453125 
Q 46.046875 20.015625 46.78125 33.40625 
Q 43.953125 29.203125 39.59375 26.953125 
Q 35.25 24.703125 29.984375 24.703125 
Q 19.046875 24.703125 12.671875 31.3125 
Q 6.296875 37.9375 6.296875 49.421875 
Q 6.296875 60.640625 12.9375 67.421875 
Q 19.578125 74.21875 30.609375 74.21875 
Q 43.265625 74.21875 49.921875 64.515625 
Q 56.59375 54.828125 56.59375 36.375 
Q 56.59375 19.140625 48.40625 8.859375 
Q 40.234375 -1.421875 26.421875 -1.421875 
Q 22.703125 -1.421875 18.890625 -0.6875 
Q 15.09375 0.046875 10.984375 1.515625 
z
M 30.609375 32.421875 
Q 37.25 32.421875 41.125 36.953125 
Q 45.015625 41.5 45.015625 49.421875 
Q 45.015625 57.28125 41.125 61.84375 
Q 37.25 66.40625 30.609375 66.40625 
Q 23.96875 66.40625 20.09375 61.84375 
Q 16.21875 57.28125 16.21875 49.421875 
Q 16.21875 41.5 20.09375 36.953125 
Q 23.96875 32.421875 30.609375 32.421875 
z
" id="DejaVuSans-57"/>
      </defs>
      <g transform="translate(73.8075 91.258379)scale(0.26 -0.26)">
       <use xlink:href="#DejaVuSans-57"/>
       <use x="63.623047" xlink:href="#DejaVuSans-48"/>
      </g>
     </g>
    </g>
    <g id="ytick_4">
     <g id="line2d_10">
      <g>
       <use style="stroke:#000000;stroke-width:0.8;" x="113.8925" xlink:href="#m93228713b9" y="37.98"/>
      </g>
     </g>
     <g id="text_10">
      <!-- 100 -->
      <g transform="translate(57.265 47.857969)scale(0.26 -0.26)">
       <use xlink:href="#DejaVuSans-49"/>
       <use x="63.623047" xlink:href="#DejaVuSans-48"/>
       <use x="127.246094" xlink:href="#DejaVuSans-48"/>
      </g>
     </g>
    </g>
    <g id="text_11">
     <!-- VMAF -->
     <defs>
      <path d="M 28.609375 0 
L 0.78125 72.90625 
L 11.078125 72.90625 
L 34.1875 11.53125 
L 57.328125 72.90625 
L 67.578125 72.90625 
L 39.796875 0 
z
" id="DejaVuSans-86"/>
      <path d="M 9.8125 72.90625 
L 24.515625 72.90625 
L 43.109375 23.296875 
L 61.8125 72.90625 
L 76.515625 72.90625 
L 76.515625 0 
L 66.890625 0 
L 66.890625 64.015625 
L 48.09375 14.015625 
L 38.1875 14.015625 
L 19.390625 64.015625 
L 19.390625 0 
L 9.8125 0 
z
" id="DejaVuSans-77"/>
      <path d="M 34.1875 63.1875 
L 20.796875 26.90625 
L 47.609375 26.90625 
z
M 28.609375 72.90625 
L 39.796875 72.90625 
L 67.578125 0 
L 57.328125 0 
L 50.6875 18.703125 
L 17.828125 18.703125 
L 11.1875 0 
L 0.78125 0 
z
" id="DejaVuSans-65"/>
      <path d="M 9.8125 72.90625 
L 51.703125 72.90625 
L 51.703125 64.59375 
L 19.671875 64.59375 
L 19.671875 43.109375 
L 48.578125 43.109375 
L 48.578125 34.8125 
L 19.671875 34.8125 
L 19.671875 0 
L 9.8125 0 
z
" id="DejaVuSans-70"/>
     </defs>
     <g transform="translate(47.857813 159.090019)rotate(-90)scale(0.26 -0.26)">
      <use xlink:href="#DejaVuSans-86"/>
      <use x="68.408203" xlink:href="#DejaVuSans-77"/>
      <use x="154.6875" xlink:href="#DejaVuSans-65"/>
      <use x="223.095703" xlink:href="#DejaVuSans-70"/>
     </g>
    </g>
   </g>
   <g id="line2d_11">
    <path clip-path="url(#pa693609d13)" d="M 113.8925 471.984103 
L 893.52 471.984103 
" style="fill:none;stroke:#808080;stroke-linecap:square;stroke-width:0.4;"/>
   </g>
   <g id="line2d_12">
    <path clip-path="url(#pa693609d13)" d="M 113.8925 467.644062 
L 893.52 467.644062 
" style="fill:none;stroke:#808080;stroke-linecap:square;stroke-width:0.4;"/>
   </g>
   <g id="line2d_13">
    <path clip-path="url(#pa693609d13)" d="M 113.8925 463.304021 
L 893.52 463.304021 
" style="fill:none;stroke:#808080;stroke-linecap:square;stroke-width:0.4;"/>
   </g>
   <g id="line2d_14">
    <path clip-path="url(#pa693609d13)" d="M 113.8925 458.963979 
L 893.52 458.963979 
" style="fill:none;stroke:#808080;stroke-linecap:square;stroke-width:0.4;"/>
   </g>
   <g id="line2d_15">
    <path clip-path="url(#pa693609d13)" d="M 113.8925 454.623938 
L 893.52 454.623938 
" style="fill:none;stroke:#808080;stroke-linecap:square;stroke-width:0.4;"/>
   </g>
   <g id="line2d_16">
    <path clip-path="url(#pa693609d13)" d="M 113.8925 450.283897 
L 893.52 450.283897 
" style="fill:none;stroke:#808080;stroke-linecap:square;stroke-width:0.4;"/>
   </g>
   <g id="line2d_17">
    <path clip-path="url(#pa693609d13)" d="M 113.8925 445.943856 
L 893.52 445.943856 
" style="fill:none;stroke:#808080;stroke-linecap:square;stroke-width:0.4;"/>
   </g>
   <g id="line2d_18">
    <path clip-path="url(#pa693609d13)" d="M 113.8925 441.603815 
L 893.52 441.603815 
" style="fill:none;stroke:#808080;stroke-linecap:square;stroke-width:0.4;"/>
   </g>
   <g id="line2d_19">
    <path clip-path="url(#pa693609d13)" d="M 113.8925 437.263774 
L 893.52 437.263774 
" style="fill:none;stroke:#808080;stroke-linecap:square;stroke-width:0.4;"/>
   </g>
   <g id="line2d_20">
    <path clip-path="url(#pa693609d13)" d="M 113.8925 432.923733 
L 893.52 432.923733 
" style="fill:none;stroke:#808080;stroke-linecap:square;stroke-width:0.4;"/>
   </g>
   <g id="line2d_21">
    <path clip-path="url(#pa693609d13)" d="M 113.8925 428.583692 
L 893.52 428.583692 
" style="fill:none;stroke:#808080;stroke-linecap:square;stroke-width:0.4;"/>
   </g>
   <g id="line2d_22">
    <path clip-path="url(#pa693609d13)" d="M 113.8925 424.243651 
L 893.52 424.243651 
" style="fill:none;stroke:#808080;stroke-linecap:square;stroke-width:0.4;"/>
   </g>
   <g id="line2d_23">
    <path clip-path="url(#pa693609d13)" d="M 113.8925 419.90361 
L 893.52 419.90361 
" style="fill:none;stroke:#808080;stroke-linecap:square;stroke-width:0.4;"/>
   </g>
   <g id="line2d_24">
    <path clip-path="url(#pa693609d13)" d="M 113.8925 415.563569 
L 893.52 415.563569 
" style="fill:none;stroke:#808080;stroke-linecap:square;stroke-width:0.4;"/>
   </g>
   <g id="line2d_25">
    <path clip-path="url(#pa693609d13)" d="M 113.8925 411.223528 
L 893.52 411.223528 
" style="fill:none;stroke:#808080;stroke-linecap:square;stroke-width:0.4;"/>
   </g>
   <g id="line2d_26">
    <path clip-path="url(#pa693609d13)" d="M 113.8925 406.883487 
L 893.52 406.883487 
" style="fill:none;stroke:#808080;stroke-linecap:square;stroke-width:0.4;"/>
   </g>
   <g id="line2d_27">
    <path clip-path="url(#pa693609d13)" d="M 113.8925 402.543446 
L 893.52 402.543446 
" style="fill:none;stroke:#808080;stroke-linecap:square;stroke-width:0.4;"/>
   </g>
   <g id="line2d_28">
    <path clip-path="url(#pa693609d13)" d="M 113.8925 398.203405 
L 893.52 398.203405 
" style="fill:none;stroke:#808080;stroke-linecap:square;stroke-width:0.4;"/>
   </g>
   <g id="line2d_29">
    <path clip-path="url(#pa693609d13)" d="M 113.8925 393.863364 
L 893.52 393.863364 
" style="fill:none;stroke:#808080;stroke-linecap:square;stroke-width:0.4;"/>
   </g>
   <g id="line2d_30">
    <path clip-path="url(#pa693609d13)" d="M 113.8925 389.523323 
L 893.52 389.523323 
" style="fill:none;stroke:#808080;stroke-linecap:square;stroke-width:0.4;"/>
   </g>
   <g id="line2d_31">
    <path clip-path="url(#pa693609d13)" d="M 113.8925 385.183282 
L 893.52 385.183282 
" style="fill:none;stroke:#808080;stroke-linecap:square;stroke-width:0.4;"/>
   </g>
   <g id="line2d_32">
    <path clip-path="url(#pa693609d13)" d="M 113.8925 380.843241 
L 893.52 380.843241 
" style="fill:none;stroke:#808080;stroke-linecap:square;stroke-width:0.4;"/>
   </g>
   <g id="line2d_33">
    <path clip-path="url(#pa693609d13)" d="M 113.8925 376.5032 
L 893.52 376.5032 
" style="fill:none;stroke:#808080;stroke-linecap:square;stroke-width:0.4;"/>
   </g>
   <g id="line2d_34">
    <path clip-path="url(#pa693609d13)" d="M 113.8925 372.163159 
L 893.52 372.163159 
" style="fill:none;stroke:#808080;stroke-linecap:square;stroke-width:0.4;"/>
   </g>
   <g id="line2d_35">
    <path clip-path="url(#pa693609d13)" d="M 113.8925 367.823118 
L 893.52 367.823118 
" style="fill:none;stroke:#808080;stroke-linecap:square;stroke-width:0.4;"/>
   </g>
   <g id="line2d_36">
    <path clip-path="url(#pa693609d13)" d="M 113.8925 363.483077 
L 893.52 363.483077 
" style="fill:none;stroke:#808080;stroke-linecap:square;stroke-width:0.4;"/>
   </g>
   <g id="line2d_37">
    <path clip-path="url(#pa693609d13)" d="M 113.8925 359.143036 
L 893.52 359.143036 
" style="fill:none;stroke:#808080;stroke-linecap:square;stroke-width:0.4;"/>
   </g>
   <g id="line2d_38">
    <path clip-path="url(#pa693609d13)" d="M 113.8925 354.802995 
L 893.52 354.802995 
" style="fill:none;stroke:#808080;stroke-linecap:square;stroke-width:0.4;"/>
   </g>
   <g id="line2d_39">
    <path clip-path="url(#pa693609d13)" d="M 113.8925 350.462954 
L 893.52 350.462954 
" style="fill:none;stroke:#808080;stroke-linecap:square;stroke-width:0.4;"/>
   </g>
   <g id="line2d_40">
    <path clip-path="url(#pa693609d13)" d="M 113.8925 346.122913 
L 893.52 346.122913 
" style="fill:none;stroke:#808080;stroke-linecap:square;stroke-width:0.4;"/>
   </g>
   <g id="line2d_41">
    <path clip-path="url(#pa693609d13)" d="M 113.8925 341.782872 
L 893.52 341.782872 
" style="fill:none;stroke:#808080;stroke-linecap:square;stroke-width:0.4;"/>
   </g>
   <g id="line2d_42">
    <path clip-path="url(#pa693609d13)" d="M 113.8925 337.442831 
L 893.52 337.442831 
" style="fill:none;stroke:#808080;stroke-linecap:square;stroke-width:0.4;"/>
   </g>
   <g id="line2d_43">
    <path clip-path="url(#pa693609d13)" d="M 113.8925 333.10279 
L 893.52 333.10279 
" style="fill:none;stroke:#808080;stroke-linecap:square;stroke-width:0.4;"/>
   </g>
   <g id="line2d_44">
    <path clip-path="url(#pa693609d13)" d="M 113.8925 328.762749 
L 893.52 328.762749 
" style="fill:none;stroke:#808080;stroke-linecap:square;stroke-width:0.4;"/>
   </g>
   <g id="line2d_45">
    <path clip-path="url(#pa693609d13)" d="M 113.8925 324.422708 
L 893.52 324.422708 
" style="fill:none;stroke:#808080;stroke-linecap:square;stroke-width:0.4;"/>
   </g>
   <g id="line2d_46">
    <path clip-path="url(#pa693609d13)" d="M 113.8925 320.082667 
L 893.52 320.082667 
" style="fill:none;stroke:#808080;stroke-linecap:square;stroke-width:0.4;"/>
   </g>
   <g id="line2d_47">
    <path clip-path="url(#pa693609d13)" d="M 113.8925 315.742626 
L 893.52 315.742626 
" style="fill:none;stroke:#808080;stroke-linecap:square;stroke-width:0.4;"/>
   </g>
   <g id="line2d_48">
    <path clip-path="url(#pa693609d13)" d="M 113.8925 311.402585 
L 893.52 311.402585 
" style="fill:none;stroke:#808080;stroke-linecap:square;stroke-width:0.4;"/>
   </g>
   <g id="line2d_49">
    <path clip-path="url(#pa693609d13)" d="M 113.8925 307.062544 
L 893.52 307.062544 
" style="fill:none;stroke:#808080;stroke-linecap:square;stroke-width:0.4;"/>
   </g>
   <g id="line2d_50">
    <path clip-path="url(#pa693609d13)" d="M 113.8925 302.722503 
L 893.52 302.722503 
" style="fill:none;stroke:#808080;stroke-linecap:square;stroke-width:0.4;"/>
   </g>
   <g id="line2d_51">
    <path clip-path="url(#pa693609d13)" d="M 113.8925 298.382462 
L 893.52 298.382462 
" style="fill:none;stroke:#808080;stroke-linecap:square;stroke-width:0.4;"/>
   </g>
   <g id="line2d_52">
    <path clip-path="url(#pa693609d13)" d="M 113.8925 294.042421 
L 893.52 294.042421 
" style="fill:none;stroke:#808080;stroke-linecap:square;stroke-width:0.4;"/>
   </g>
   <g id="line2d_53">
    <path clip-path="url(#pa693609d13)" d="M 113.8925 289.702379 
L 893.52 289.702379 
" style="fill:none;stroke:#808080;stroke-linecap:square;stroke-width:0.4;"/>
   </g>
   <g id="line2d_54">
    <path clip-path="url(#pa693609d13)" d="M 113.8925 285.362338 
L 893.52 285.362338 
" style="fill:none;stroke:#808080;stroke-linecap:square;stroke-width:0.4;"/>
   </g>
   <g id="line2d_55">
    <path clip-path="url(#pa693609d13)" d="M 113.8925 281.022297 
L 893.52 281.022297 
" style="fill:none;stroke:#808080;stroke-linecap:square;stroke-width:0.4;"/>
   </g>
   <g id="line2d_56">
    <path clip-path="url(#pa693609d13)" d="M 113.8925 276.682256 
L 893.52 276.682256 
" style="fill:none;stroke:#808080;stroke-linecap:square;stroke-width:0.4;"/>
   </g>
   <g id="line2d_57">
    <path clip-path="url(#pa693609d13)" d="M 113.8925 272.342215 
L 893.52 272.342215 
" style="fill:none;stroke:#808080;stroke-linecap:square;stroke-width:0.4;"/>
   </g>
   <g id="line2d_58">
    <path clip-path="url(#pa693609d13)" d="M 113.8925 268.002174 
L 893.52 268.002174 
" style="fill:none;stroke:#808080;stroke-linecap:square;stroke-width:0.4;"/>
   </g>
   <g id="line2d_59">
    <path clip-path="url(#pa693609d13)" d="M 113.8925 263.662133 
L 893.52 263.662133 
" style="fill:none;stroke:#808080;stroke-linecap:square;stroke-width:0.4;"/>
   </g>
   <g id="line2d_60">
    <path clip-path="url(#pa693609d13)" d="M 113.8925 259.322092 
L 893.52 259.322092 
" style="fill:none;stroke:#808080;stroke-linecap:square;stroke-width:0.4;"/>
   </g>
   <g id="line2d_61">
    <path clip-path="url(#pa693609d13)" d="M 113.8925 254.982051 
L 893.52 254.982051 
" style="fill:none;stroke:#808080;stroke-linecap:square;stroke-width:0.4;"/>
   </g>
   <g id="line2d_62">
    <path clip-path="url(#pa693609d13)" d="M 113.8925 250.64201 
L 893.52 250.64201 
" style="fill:none;stroke:#808080;stroke-linecap:square;stroke-width:0.4;"/>
   </g>
   <g id="line2d_63">
    <path clip-path="url(#pa693609d13)" d="M 113.8925 246.301969 
L 893.52 246.301969 
" style="fill:none;stroke:#808080;stroke-linecap:square;stroke-width:0.4;"/>
   </g>
   <g id="line2d_64">
    <path clip-path="url(#pa693609d13)" d="M 113.8925 241.961928 
L 893.52 241.961928 
" style="fill:none;stroke:#808080;stroke-linecap:square;stroke-width:0.4;"/>
   </g>
   <g id="line2d_65">
    <path clip-path="url(#pa693609d13)" d="M 113.8925 237.621887 
L 893.52 237.621887 
" style="fill:none;stroke:#808080;stroke-linecap:square;stroke-width:0.4;"/>
   </g>
   <g id="line2d_66">
    <path clip-path="url(#pa693609d13)" d="M 113.8925 233.281846 
L 893.52 233.281846 
" style="fill:none;stroke:#808080;stroke-linecap:square;stroke-width:0.4;"/>
   </g>
   <g id="line2d_67">
    <path clip-path="url(#pa693609d13)" d="M 113.8925 228.941805 
L 893.52 228.941805 
" style="fill:none;stroke:#808080;stroke-linecap:square;stroke-width:0.4;"/>
   </g>
   <g id="line2d_68">
    <path clip-path="url(#pa693609d13)" d="M 113.8925 224.601764 
L 893.52 224.601764 
" style="fill:none;stroke:#808080;stroke-linecap:square;stroke-width:0.4;"/>
   </g>
   <g id="line2d_69">
    <path clip-path="url(#pa693609d13)" d="M 113.8925 220.261723 
L 893.52 220.261723 
" style="fill:none;stroke:#808080;stroke-linecap:square;stroke-width:0.4;"/>
   </g>
   <g id="line2d_70">
    <path clip-path="url(#pa693609d13)" d="M 113.8925 215.921682 
L 893.52 215.921682 
" style="fill:none;stroke:#808080;stroke-linecap:square;stroke-width:0.4;"/>
   </g>
   <g id="line2d_71">
    <path clip-path="url(#pa693609d13)" d="M 113.8925 211.581641 
L 893.52 211.581641 
" style="fill:none;stroke:#808080;stroke-linecap:square;stroke-width:0.4;"/>
   </g>
   <g id="line2d_72">
    <path clip-path="url(#pa693609d13)" d="M 113.8925 207.2416 
L 893.52 207.2416 
" style="fill:none;stroke:#808080;stroke-linecap:square;stroke-width:0.4;"/>
   </g>
   <g id="line2d_73">
    <path clip-path="url(#pa693609d13)" d="M 113.8925 202.901559 
L 893.52 202.901559 
" style="fill:none;stroke:#808080;stroke-linecap:square;stroke-width:0.4;"/>
   </g>
   <g id="line2d_74">
    <path clip-path="url(#pa693609d13)" d="M 113.8925 198.561518 
L 893.52 198.561518 
" style="fill:none;stroke:#808080;stroke-linecap:square;stroke-width:0.4;"/>
   </g>
   <g id="line2d_75">
    <path clip-path="url(#pa693609d13)" d="M 113.8925 194.221477 
L 893.52 194.221477 
" style="fill:none;stroke:#808080;stroke-linecap:square;stroke-width:0.4;"/>
   </g>
   <g id="line2d_76">
    <path clip-path="url(#pa693609d13)" d="M 113.8925 189.881436 
L 893.52 189.881436 
" style="fill:none;stroke:#808080;stroke-linecap:square;stroke-width:0.4;"/>
   </g>
   <g id="line2d_77">
    <path clip-path="url(#pa693609d13)" d="M 113.8925 185.541395 
L 893.52 185.541395 
" style="fill:none;stroke:#808080;stroke-linecap:square;stroke-width:0.4;"/>
   </g>
   <g id="line2d_78">
    <path clip-path="url(#pa693609d13)" d="M 113.8925 181.201354 
L 893.52 181.201354 
" style="fill:none;stroke:#808080;stroke-linecap:square;stroke-width:0.4;"/>
   </g>
   <g id="line2d_79">
    <path clip-path="url(#pa693609d13)" d="M 113.8925 176.861313 
L 893.52 176.861313 
" style="fill:none;stroke:#808080;stroke-linecap:square;stroke-width:0.4;"/>
   </g>
   <g id="line2d_80">
    <path clip-path="url(#pa693609d13)" d="M 113.8925 172.521272 
L 893.52 172.521272 
" style="fill:none;stroke:#808080;stroke-linecap:square;stroke-width:0.4;"/>
   </g>
   <g id="line2d_81">
    <path clip-path="url(#pa693609d13)" d="M 113.8925 168.181231 
L 893.52 168.181231 
" style="fill:none;stroke:#808080;stroke-linecap:square;stroke-width:0.4;"/>
   </g>
   <g id="line2d_82">
    <path clip-path="url(#pa693609d13)" d="M 113.8925 163.84119 
L 893.52 163.84119 
" style="fill:none;stroke:#808080;stroke-linecap:square;stroke-width:0.4;"/>
   </g>
   <g id="line2d_83">
    <path clip-path="url(#pa693609d13)" d="M 113.8925 159.501149 
L 893.52 159.501149 
" style="fill:none;stroke:#808080;stroke-linecap:square;stroke-width:0.4;"/>
   </g>
   <g id="line2d_84">
    <path clip-path="url(#pa693609d13)" d="M 113.8925 155.161108 
L 893.52 155.161108 
" style="fill:none;stroke:#808080;stroke-linecap:square;stroke-width:0.4;"/>
   </g>
   <g id="line2d_85">
    <path clip-path="url(#pa693609d13)" d="M 113.8925 150.821067 
L 893.52 150.821067 
" style="fill:none;stroke:#808080;stroke-linecap:square;stroke-width:0.4;"/>
   </g>
   <g id="line2d_86">
    <path clip-path="url(#pa693609d13)" d="M 113.8925 146.481026 
L 893.52 146.481026 
" style="fill:none;stroke:#808080;stroke-linecap:square;stroke-width:0.4;"/>
   </g>
   <g id="line2d_87">
    <path clip-path="url(#pa693609d13)" d="M 113.8925 142.140985 
L 893.52 142.140985 
" style="fill:none;stroke:#808080;stroke-linecap:square;stroke-width:0.4;"/>
   </g>
   <g id="line2d_88">
    <path clip-path="url(#pa693609d13)" d="M 113.8925 137.800944 
L 893.52 137.800944 
" style="fill:none;stroke:#808080;stroke-linecap:square;stroke-width:0.4;"/>
   </g>
   <g id="line2d_89">
    <path clip-path="url(#pa693609d13)" d="M 113.8925 133.460903 
L 893.52 133.460903 
" style="fill:none;stroke:#808080;stroke-linecap:square;stroke-width:0.4;"/>
   </g>
   <g id="line2d_90">
    <path clip-path="url(#pa693609d13)" d="M 113.8925 129.120862 
L 893.52 129.120862 
" style="fill:none;stroke:#808080;stroke-linecap:square;stroke-width:0.4;"/>
   </g>
   <g id="line2d_91">
    <path clip-path="url(#pa693609d13)" d="M 113.8925 124.780821 
L 893.52 124.780821 
" style="fill:none;stroke:#808080;stroke-linecap:square;stroke-width:0.4;"/>
   </g>
   <g id="line2d_92">
    <path clip-path="url(#pa693609d13)" d="M 113.8925 120.440779 
L 893.52 120.440779 
" style="fill:none;stroke:#808080;stroke-linecap:square;stroke-width:0.4;"/>
   </g>
   <g id="line2d_93">
    <path clip-path="url(#pa693609d13)" d="M 113.8925 116.100738 
L 893.52 116.100738 
" style="fill:none;stroke:#808080;stroke-linecap:square;stroke-width:0.4;"/>
   </g>
   <g id="line2d_94">
    <path clip-path="url(#pa693609d13)" d="M 113.8925 111.760697 
L 893.52 111.760697 
" style="fill:none;stroke:#808080;stroke-linecap:square;stroke-width:0.4;"/>
   </g>
   <g id="line2d_95">
    <path clip-path="url(#pa693609d13)" d="M 113.8925 107.420656 
L 893.52 107.420656 
" style="fill:none;stroke:#808080;stroke-linecap:square;stroke-width:0.4;"/>
   </g>
   <g id="line2d_96">
    <path clip-path="url(#pa693609d13)" d="M 113.8925 103.080615 
L 893.52 103.080615 
" style="fill:none;stroke:#808080;stroke-linecap:square;stroke-width:0.4;"/>
   </g>
   <g id="line2d_97">
    <path clip-path="url(#pa693609d13)" d="M 113.8925 98.740574 
L 893.52 98.740574 
" style="fill:none;stroke:#808080;stroke-linecap:square;stroke-width:0.4;"/>
   </g>
   <g id="line2d_98">
    <path clip-path="url(#pa693609d13)" d="M 113.8925 94.400533 
L 893.52 94.400533 
" style="fill:none;stroke:#808080;stroke-linecap:square;stroke-width:0.4;"/>
   </g>
   <g id="line2d_99">
    <path clip-path="url(#pa693609d13)" d="M 113.8925 90.060492 
L 893.52 90.060492 
" style="fill:none;stroke:#808080;stroke-linecap:square;stroke-width:0.4;"/>
   </g>
   <g id="line2d_100">
    <path clip-path="url(#pa693609d13)" d="M 113.8925 85.720451 
L 893.52 85.720451 
" style="fill:none;stroke:#808080;stroke-linecap:square;stroke-width:0.4;"/>
   </g>
   <g id="line2d_101">
    <path clip-path="url(#pa693609d13)" d="M 113.8925 81.38041 
L 893.52 81.38041 
" style="fill:none;stroke:#808080;stroke-linecap:square;stroke-width:0.4;"/>
   </g>
   <g id="line2d_102">
    <path clip-path="url(#pa693609d13)" d="M 113.8925 77.040369 
L 893.52 77.040369 
" style="fill:none;stroke:#808080;stroke-linecap:square;stroke-width:0.4;"/>
   </g>
   <g id="line2d_103">
    <path clip-path="url(#pa693609d13)" d="M 113.8925 72.700328 
L 893.52 72.700328 
" style="fill:none;stroke:#808080;stroke-linecap:square;stroke-width:0.4;"/>
   </g>
   <g id="line2d_104">
    <path clip-path="url(#pa693609d13)" d="M 113.8925 68.360287 
L 893.52 68.360287 
" style="fill:none;stroke:#808080;stroke-linecap:square;stroke-width:0.4;"/>
   </g>
   <g id="line2d_105">
    <path clip-path="url(#pa693609d13)" d="M 113.8925 64.020246 
L 893.52 64.020246 
" style="fill:none;stroke:#808080;stroke-linecap:square;stroke-width:0.4;"/>
   </g>
   <g id="line2d_106">
    <path clip-path="url(#pa693609d13)" d="M 113.8925 59.680205 
L 893.52 59.680205 
" style="fill:none;stroke:#808080;stroke-linecap:square;stroke-width:0.4;"/>
   </g>
   <g id="line2d_107">
    <path clip-path="url(#pa693609d13)" d="M 113.8925 55.340164 
L 893.52 55.340164 
" style="fill:none;stroke:#808080;stroke-linecap:square;stroke-width:0.4;"/>
   </g>
   <g id="line2d_108">
    <path clip-path="url(#pa693609d13)" d="M 113.8925 51.000123 
L 893.52 51.000123 
" style="fill:none;stroke:#808080;stroke-linecap:square;stroke-width:0.4;"/>
   </g>
   <g id="line2d_109">
    <path clip-path="url(#pa693609d13)" d="M 113.8925 46.660082 
L 893.52 46.660082 
" style="fill:none;stroke:#808080;stroke-linecap:square;stroke-width:0.4;"/>
   </g>
   <g id="line2d_110">
    <path clip-path="url(#pa693609d13)" d="M 113.8925 42.320041 
L 893.52 42.320041 
" style="fill:none;stroke:#808080;stroke-linecap:square;stroke-width:0.4;"/>
   </g>
   <g id="line2d_111">
    <path clip-path="url(#pa693609d13)" d="M 113.8925 471.984103 
L 893.52 471.984103 
" style="fill:none;stroke:#000000;stroke-linecap:square;stroke-width:0.6;"/>
   </g>
   <g id="line2d_112">
    <path clip-path="url(#pa693609d13)" d="M 113.8925 450.283897 
L 893.52 450.283897 
" style="fill:none;stroke:#000000;stroke-linecap:square;stroke-width:0.6;"/>
   </g>
   <g id="line2d_113">
    <path clip-path="url(#pa693609d13)" d="M 113.8925 428.583692 
L 893.52 428.583692 
" style="fill:none;stroke:#000000;stroke-linecap:square;stroke-width:0.6;"/>
   </g>
   <g id="line2d_114">
    <path clip-path="url(#pa693609d13)" d="M 113.8925 406.883487 
L 893.52 406.883487 
" style="fill:none;stroke:#000000;stroke-linecap:square;stroke-width:0.6;"/>
   </g>
   <g id="line2d_115">
    <path clip-path="url(#pa693609d13)" d="M 113.8925 385.183282 
L 893.52 385.183282 
" style="fill:none;stroke:#000000;stroke-linecap:square;stroke-width:0.6;"/>
   </g>
   <g id="line2d_116">
    <path clip-path="url(#pa693609d13)" d="M 113.8925 363.483077 
L 893.52 363.483077 
" style="fill:none;stroke:#000000;stroke-linecap:square;stroke-width:0.6;"/>
   </g>
   <g id="line2d_117">
    <path clip-path="url(#pa693609d13)" d="M 113.8925 341.782872 
L 893.52 341.782872 
" style="fill:none;stroke:#000000;stroke-linecap:square;stroke-width:0.6;"/>
   </g>
   <g id="line2d_118">
    <path clip-path="url(#pa693609d13)" d="M 113.8925 320.082667 
L 893.52 320.082667 
" style="fill:none;stroke:#000000;stroke-linecap:square;stroke-width:0.6;"/>
   </g>
   <g id="line2d_119">
    <path clip-path="url(#pa693609d13)" d="M 113.8925 298.382462 
L 893.52 298.382462 
" style="fill:none;stroke:#000000;stroke-linecap:square;stroke-width:0.6;"/>
   </g>
   <g id="line2d_120">
    <path clip-path="url(#pa693609d13)" d="M 113.8925 276.682256 
L 893.52 276.682256 
" style="fill:none;stroke:#000000;stroke-linecap:square;stroke-width:0.6;"/>
   </g>
   <g id="line2d_121">
    <path clip-path="url(#pa693609d13)" d="M 113.8925 254.982051 
L 893.52 254.982051 
" style="fill:none;stroke:#000000;stroke-linecap:square;stroke-width:0.6;"/>
   </g>
   <g id="line2d_122">
    <path clip-path="url(#pa693609d13)" d="M 113.8925 233.281846 
L 893.52 233.281846 
" style="fill:none;stroke:#000000;stroke-linecap:square;stroke-width:0.6;"/>
   </g>
   <g id="line2d_123">
    <path clip-path="url(#pa693609d13)" d="M 113.8925 211.581641 
L 893.52 211.581641 
" style="fill:none;stroke:#000000;stroke-linecap:square;stroke-width:0.6;"/>
   </g>
   <g id="line2d_124">
    <path clip-path="url(#pa693609d13)" d="M 113.8925 189.881436 
L 893.52 189.881436 
" style="fill:none;stroke:#000000;stroke-linecap:square;stroke-width:0.6;"/>
   </g>
   <g id="line2d_125">
    <path clip-path="url(#pa693609d13)" d="M 113.8925 168.181231 
L 893.52 168.181231 
" style="fill:none;stroke:#000000;stroke-linecap:square;stroke-width:0.6;"/>
   </g>
   <g id="line2d_126">
    <path clip-path="url(#pa693609d13)" d="M 113.8925 146.481026 
L 893.52 146.481026 
" style="fill:none;stroke:#000000;stroke-linecap:square;stroke-width:0.6;"/>
   </g>
   <g id="line2d_127">
    <path clip-path="url(#pa693609d13)" d="M 113.8925 124.780821 
L 893.52 124.780821 
" style="fill:none;stroke:#000000;stroke-linecap:square;stroke-width:0.6;"/>
   </g>
   <g id="line2d_128">
    <path clip-path="url(#pa693609d13)" d="M 113.8925 103.080615 
L 893.52 103.080615 
" style="fill:none;stroke:#000000;stroke-linecap:square;stroke-width:0.6;"/>
   </g>
   <g id="line2d_129">
    <path clip-path="url(#pa693609d13)" d="M 113.8925 81.38041 
L 893.52 81.38041 
" style="fill:none;stroke:#000000;stroke-linecap:square;stroke-width:0.6;"/>
   </g>
   <g id="line2d_130">
    <path clip-path="url(#pa693609d13)" d="M 113.8925 59.680205 
L 893.52 59.680205 
" style="fill:none;stroke:#000000;stroke-linecap:square;stroke-width:0.6;"/>
   </g>
   <g id="line2d_131">
    <path clip-path="url(#pa693609d13)" d="M 113.8925 116.28302 
L 115.391784 108.740029 
L 116.891067 112.520205 
L 118.390351 99.096458 
L 119.889635 111.422174 
L 121.388918 109.495196 
L 122.888202 113.192911 
L 124.387486 84.826403 
L 125.886769 106.596049 
L 127.386053 108.85287 
L 128.885337 111.760697 
L 130.38462 99.951446 
L 131.883904 120.145657 
L 133.383188 116.929686 
L 134.882471 123.64373 
L 136.381755 91.696688 
L 137.881038 110.614927 
L 139.380322 110.853629 
L 140.879606 120.110936 
L 142.378889 112.824007 
L 143.878173 128.252853 
L 145.377457 124.481358 
L 146.87674 126.80328 
L 148.376024 100.242229 
L 149.875308 140.947473 
L 151.374591 136.685553 
L 152.873875 146.207603 
L 154.373159 122.155096 
L 155.872442 131.525244 
L 157.371726 119.585791 
L 158.87101 116.955727 
L 160.370293 76.272182 
L 161.869577 101.739543 
L 163.368861 109.729558 
L 164.868144 120.935544 
L 166.367428 118.591922 
L 167.866712 139.263537 
L 169.365995 134.029448 
L 170.865279 133.118039 
L 172.364563 96.605274 
L 173.863846 115.124229 
L 175.36313 119.45993 
L 176.862413 133.326361 
L 178.361697 114.386422 
L 179.860981 127.193883 
L 181.360264 115.15895 
L 182.859548 119.655232 
L 184.358832 89.756689 
L 185.858115 135.839245 
L 187.357399 130.305693 
L 188.856683 113.995819 
L 190.355966 60.339891 
L 191.85525 95.08192 
L 193.354534 135.917366 
L 194.853817 146.537446 
L 196.353101 124.108114 
L 197.852385 148.217042 
L 199.351668 148.308183 
L 200.850952 152.886926 
L 202.350236 141.186176 
L 203.849519 171.045658 
L 205.348803 142.839731 
L 206.848087 140.257407 
L 208.34737 97.581783 
L 209.846654 129.836968 
L 211.345937 153.668134 
L 212.845221 150.13968 
L 214.344505 166.03291 
L 215.843788 148.225722 
L 217.343072 150.573684 
L 218.842356 125.279925 
L 220.341639 183.484215 
L 221.840923 174.322389 
L 223.340207 146.637267 
L 224.83949 156.41104 
L 226.338774 139.454499 
L 227.838058 135.027657 
L 229.337341 101.552921 
L 230.836625 78.906587 
L 232.335909 87.972933 
L 233.835192 87.473828 
L 235.334476 93.949169 
L 236.83376 90.754899 
L 238.333043 100.35073 
L 239.832327 93.345903 
L 241.331611 102.681332 
L 242.830894 77.235671 
L 244.330178 91.774809 
L 245.829462 84.874143 
L 247.328745 94.08371 
L 248.828029 88.910381 
L 250.327313 91.93539 
L 251.826596 78.381442 
L 253.32588 77.465693 
L 254.825163 77.669675 
L 256.324447 93.00304 
L 257.823731 87.638749 
L 259.323014 95.910868 
L 260.822298 88.276735 
L 262.321582 98.658114 
L 263.820865 97.026258 
L 265.320149 98.510552 
L 266.819433 91.531766 
L 268.318716 106.379047 
L 269.818 109.677478 
L 271.317284 114.881187 
L 272.816567 105.67596 
L 274.315851 113.240651 
L 275.815135 106.570008 
L 277.314418 106.75229 
L 278.813702 85.295127 
L 280.312986 94.626215 
L 281.812269 102.043346 
L 283.311553 95.711226 
L 284.810837 105.853902 
L 286.31012 102.303748 
L 287.809404 104.347907 
L 289.308688 107.047413 
L 290.807971 81.888195 
L 292.307255 90.273154 
L 293.806538 92.239193 
L 295.305822 99.33082 
L 296.805106 91.423265 
L 298.304389 100.324689 
L 299.803673 98.497532 
L 301.302957 95.910868 
L 302.80224 82.547881 
L 304.301524 99.942766 
L 305.800808 101.882764 
L 307.300091 109.720878 
L 308.799375 93.063801 
L 310.298659 91.661967 
L 311.797942 97.360441 
L 313.297226 99.821245 
L 314.79651 81.224169 
L 316.295793 94.07069 
L 317.795077 95.785006 
L 319.294361 99.100798 
L 320.793644 90.264474 
L 322.292928 98.093908 
L 323.792212 93.975209 
L 325.291495 97.16948 
L 326.790779 82.534861 
L 328.290062 95.394403 
L 329.789346 93.380624 
L 331.28863 98.24147 
L 332.787913 86.085015 
L 334.287197 90.598657 
L 335.786481 93.220042 
L 337.285764 95.12098 
L 338.785048 74.093481 
L 340.284332 88.7064 
L 341.783615 90.468456 
L 343.282899 96.314491 
L 344.782183 87.916512 
L 346.281466 95.850107 
L 347.78075 93.0421 
L 349.280034 96.579234 
L 350.779317 92.655837 
L 352.278601 108.240924 
L 353.777885 105.767101 
L 355.277168 106.999672 
L 356.776452 99.257039 
L 358.275736 105.758421 
L 359.775019 104.443388 
L 361.274303 103.913903 
L 362.773587 88.415617 
L 364.27287 98.371671 
L 365.772154 72.952051 
L 367.271438 87.946892 
L 368.770721 85.499109 
L 370.270005 89.609128 
L 371.769288 78.320681 
L 373.268572 91.245324 
L 374.767856 86.59714 
L 376.267139 96.778876 
L 377.766423 63.147898 
L 379.265707 90.477136 
L 380.76499 98.731894 
L 382.264274 101.735203 
L 383.763558 93.354583 
L 385.262841 110.380564 
L 386.762125 102.45999 
L 388.261409 99.565182 
L 389.760692 63.34754 
L 391.259976 89.222864 
L 392.75926 99.018337 
L 394.258543 105.810501 
L 395.757827 101.327239 
L 397.257111 105.810501 
L 398.756394 95.181741 
L 400.255678 83.702332 
L 401.754962 75.920639 
L 403.254245 96.323172 
L 404.753529 107.711439 
L 406.252813 116.834205 
L 407.752096 99.560842 
L 409.25138 115.888076 
L 410.750663 106.491888 
L 412.249947 108.353765 
L 413.749231 63.864005 
L 415.248514 82.504481 
L 416.747798 88.563178 
L 418.247082 91.583847 
L 419.746365 98.757935 
L 421.245649 121.018005 
L 422.744933 115.588614 
L 424.244216 113.279712 
L 425.7435 83.415889 
L 427.242784 110.311124 
L 428.742067 110.614927 
L 430.241351 120.340959 
L 431.740635 107.277435 
L 433.239918 106.118644 
L 434.739202 94.964739 
L 436.238486 91.91803 
L 437.737769 79.28851 
L 439.237053 109.664458 
L 440.736337 108.622848 
L 442.23562 98.410731 
L 443.734904 120.939884 
L 445.234187 115.050449 
L 446.733471 114.10866 
L 448.232755 95.251181 
L 449.732038 111.344053 
L 451.231322 56.815778 
L 452.730606 72.682968 
L 454.229889 49.199006 
L 455.729173 110.510766 
L 457.228457 114.13904 
L 458.72774 113.492374 
L 460.227024 74.952809 
L 461.726308 91.583847 
L 464.724875 114.972328 
L 466.224159 104.886072 
L 467.723442 118.084137 
L 469.222726 108.86155 
L 470.72201 104.478109 
L 472.221293 76.819027 
L 473.720577 124.116794 
L 475.219861 111.101011 
L 476.719144 109.725218 
L 478.218428 101.748223 
L 479.717712 119.598812 
L 481.216995 114.212821 
L 482.716279 113.587855 
L 484.215563 74.418984 
L 485.714846 102.190907 
L 487.21413 122.862522 
L 488.713413 114.616444 
L 490.212697 122.966683 
L 491.711981 132.835937 
L 493.211264 109.564637 
L 494.710548 123.135945 
L 496.209832 116.795145 
L 497.709115 107.255735 
L 499.208399 113.279712 
L 500.707683 99.565182 
L 502.206966 68.885432 
L 503.70625 80.620903 
L 505.205534 88.432977 
L 506.704817 88.233335 
L 508.204101 96.418652 
L 509.703385 90.607337 
L 511.202668 104.117885 
L 512.701952 87.829711 
L 514.201236 97.521023 
L 515.700519 81.237189 
L 517.199803 94.930018 
L 518.699087 90.338255 
L 520.19837 96.687735 
L 521.697654 89.79141 
L 523.196937 90.359955 
L 524.696221 84.605061 
L 526.195505 85.815932 
L 527.694788 65.673802 
L 529.194072 84.592041 
L 530.693356 80.442961 
L 532.192639 85.386268 
L 533.691923 76.293882 
L 535.191207 95.758966 
L 536.69049 92.339014 
L 538.189774 92.295613 
L 539.689058 78.923947 
L 541.188341 90.659418 
L 542.687625 85.364568 
L 544.186909 87.339287 
L 545.686192 90.182013 
L 547.185476 98.666794 
L 548.68476 83.051326 
L 550.184043 82.118217 
L 551.683327 55.761148 
L 553.182611 75.438894 
L 554.681894 70.026863 
L 556.181178 72.89997 
L 557.680462 63.594922 
L 559.179745 76.918848 
L 560.679029 77.834597 
L 562.178312 73.008471 
L 563.677596 58.252332 
L 565.17688 71.346235 
L 566.676163 77.383232 
L 568.175447 79.627034 
L 569.674731 71.927801 
L 571.174014 81.293609 
L 574.172582 64.966375 
L 575.671865 37.98 
L 577.171149 64.562751 
L 578.670433 69.966102 
L 580.169716 80.117458 
L 581.669 70.630129 
L 583.168284 83.658932 
L 584.667567 90.971901 
L 586.166851 94.704336 
L 587.666135 80.981126 
L 589.165418 106.856451 
L 590.664702 100.467911 
L 592.163986 96.245051 
L 593.663269 87.71687 
L 595.162553 94.899638 
L 596.661837 84.687522 
L 598.16112 75.946679 
L 599.660404 49.316187 
L 601.159688 78.785066 
L 602.658971 79.778935 
L 604.158255 77.409273 
L 605.657538 75.360773 
L 607.156822 90.589977 
L 608.656106 89.76971 
L 610.155389 86.050294 
L 611.654673 67.145076 
L 613.153957 80.764124 
L 614.65324 80.482022 
L 616.152524 83.316069 
L 617.651808 67.418498 
L 619.151091 79.765915 
L 622.149659 72.496346 
L 623.648942 56.073631 
L 625.148226 73.590037 
L 626.64751 75.182832 
L 628.146793 82.877724 
L 629.646077 80.499382 
L 631.145361 92.490915 
L 632.644644 91.006621 
L 634.143928 92.117672 
L 635.643212 71.502477 
L 637.142495 86.284657 
L 638.641779 88.78018 
L 640.141062 96.535834 
L 641.640346 80.534102 
L 643.13963 84.713562 
L 644.638913 82.43504 
L 646.138197 89.274945 
L 647.637481 59.953628 
L 649.136764 78.620144 
L 650.636048 74.779208 
L 652.135332 90.290514 
L 653.634615 71.133573 
L 655.133899 80.729404 
L 656.633183 76.732226 
L 658.132466 87.109264 
L 659.63175 64.901274 
L 661.131034 81.458531 
L 662.630317 81.697233 
L 664.129601 86.558079 
L 665.628885 72.969411 
L 667.128168 89.222864 
L 668.627452 77.300772 
L 670.126736 78.17312 
L 671.626019 54.619717 
L 673.125303 76.07254 
L 674.624587 80.403901 
L 676.12387 101.296859 
L 677.623154 90.87208 
L 679.122438 98.579993 
L 680.621721 96.292791 
L 682.121005 106.639449 
L 683.620288 100.463571 
L 685.119572 110.840609 
L 686.618856 106.813051 
L 688.118139 110.141862 
L 689.617423 97.065319 
L 691.116707 93.363264 
L 692.61599 78.976028 
L 694.115274 79.670434 
L 695.614558 60.062129 
L 697.113841 73.333974 
L 698.613125 71.584938 
L 700.112409 86.045954 
L 703.110976 86.66224 
L 704.61026 85.338528 
L 706.109543 98.198069 
L 707.608827 83.47665 
L 709.108111 93.345903 
L 710.607394 91.293064 
L 712.106678 97.920307 
L 713.605962 88.424297 
L 715.105245 92.187112 
L 716.604529 87.899152 
L 718.103813 91.870289 
L 719.603096 75.286993 
L 721.10238 98.072208 
L 722.601663 98.002767 
L 724.100947 99.500082 
L 725.600231 92.690557 
L 727.099514 98.462812 
L 728.598798 95.246841 
L 730.098082 100.194488 
L 731.597365 106.127324 
L 733.096649 87.217765 
L 734.595933 65.166017 
L 736.095216 76.580325 
L 737.5945 90.399016 
L 739.093784 80.32144 
L 740.593067 89.83047 
L 742.092351 83.737053 
L 743.591635 84.370699 
L 745.090918 70.213485 
L 746.590202 65.096576 
L 748.089486 83.906314 
L 749.588769 80.712044 
L 751.088053 83.697992 
L 752.587337 78.19048 
L 754.08662 96.705095 
L 755.585904 95.177401 
L 757.085188 87.65611 
L 758.584471 73.325294 
L 760.083755 97.729345 
L 761.583038 98.29355 
L 763.082322 109.373675 
L 764.581606 99.699723 
L 766.080889 111.452555 
L 767.580173 107.043073 
L 769.079457 105.337437 
L 770.57874 63.299799 
L 772.078024 85.933113 
L 773.577308 88.936422 
L 775.076591 105.389517 
L 776.575875 99.517442 
L 778.075159 116.079038 
L 779.574442 112.489824 
L 781.073726 102.45999 
L 782.57301 84.357678 
L 784.072293 102.321108 
L 785.571577 98.119948 
L 787.070861 106.005803 
L 788.570144 95.572344 
L 790.069428 105.129115 
L 791.568712 95.021159 
L 793.067995 92.595076 
L 794.567279 53.695289 
L 796.066563 76.918848 
L 797.565846 94.105411 
L 799.06513 104.308847 
L 800.564413 123.127265 
L 802.063697 126.664398 
L 803.562981 130.800457 
L 805.062264 97.573103 
L 806.561548 116.031298 
L 808.060832 112.993269 
L 809.560115 116.717024 
L 811.059399 97.720665 
L 812.558683 98.770955 
L 814.057966 96.505453 
L 817.056534 76.940548 
L 818.555817 37.98 
L 820.055101 51.438467 
L 821.554385 70.308966 
L 823.053668 82.326539 
L 824.552952 95.507244 
L 826.052236 127.541087 
L 827.551519 135.895666 
L 829.050803 37.98 
L 830.550087 96.761516 
L 833.548654 152.986747 
L 835.047937 143.100134 
L 836.547221 128.469855 
L 838.046505 96.709435 
L 839.545788 115.862036 
L 841.045072 131.672806 
L 842.544356 135.092758 
L 844.043639 135.075398 
L 845.542923 133.881887 
L 847.042207 128.461175 
L 848.54149 116.057338 
L 850.040774 121.851293 
L 851.540058 115.397652 
L 853.039341 122.710621 
L 854.538625 111.595776 
L 856.037909 126.061133 
L 857.537192 135.188239 
L 859.036476 138.343449 
L 860.53576 127.575807 
L 862.035043 133.864526 
L 863.534327 121.343508 
L 865.033611 122.6325 
L 866.532894 80.529762 
L 868.032178 91.423265 
L 871.030745 104.378288 
L 872.530029 103.058915 
L 874.029313 111.851838 
L 875.528596 117.697874 
L 877.02788 101.032116 
L 878.527163 53.656228 
L 880.026447 84.409759 
L 881.525731 105.254976 
L 883.025014 100.580752 
L 884.524298 82.491461 
L 886.023582 89.101343 
L 887.522865 77.535134 
L 889.022149 82.886404 
L 890.521433 62.245169 
L 892.020716 92.343354 
L 893.52 100.958335 
L 893.52 100.958335 
" style="fill:none;stroke:#1f77b4;stroke-linecap:square;stroke-width:0.7;"/>
   </g>
   <g id="patch_3">
    <path d="M 113.8925 207.2416 
L 113.8925 37.98 
" style="fill:none;stroke:#000000;stroke-linecap:square;stroke-linejoin:miter;stroke-width:0.8;"/>
   </g>
   <g id="patch_4">
    <path d="M 893.52 207.2416 
L 893.52 37.98 
" style="fill:none;stroke:#000000;stroke-linecap:square;stroke-linejoin:miter;stroke-width:0.8;"/>
   </g>
   <g id="patch_5">
    <path d="M 113.8925 207.2416 
L 893.52 207.2416 
" style="fill:none;stroke:#000000;stroke-linecap:square;stroke-linejoin:miter;stroke-width:0.8;"/>
   </g>
   <g id="patch_6">
    <path d="M 113.8925 37.98 
L 893.52 37.98 
" style="fill:none;stroke:#000000;stroke-linecap:square;stroke-linejoin:miter;stroke-width:0.8;"/>
   </g>
   <g id="legend_1">
    <g id="patch_7">
     <path d="M 364.678594 480.467992 
L 646.733906 480.467992 
Q 651.933906 480.467992 651.933906 475.267992 
L 651.933906 235.90468 
Q 651.933906 230.70468 646.733906 230.70468 
L 364.678594 230.70468 
Q 359.478594 230.70468 359.478594 235.90468 
L 359.478594 475.267992 
Q 359.478594 480.467992 364.678594 480.467992 
z
" style="fill:#4c4c4c;opacity:0.5;stroke:#4c4c4c;stroke-linejoin:miter;"/>
    </g>
    <g id="patch_8">
     <path d="M 362.678594 478.467992 
L 644.733906 478.467992 
Q 649.933906 478.467992 649.933906 473.267992 
L 649.933906 233.90468 
Q 649.933906 228.70468 644.733906 228.70468 
L 362.678594 228.70468 
Q 357.478594 228.70468 357.478594 233.90468 
L 357.478594 473.267992 
Q 357.478594 478.467992 362.678594 478.467992 
z
" style="fill:#ffffff;stroke:#cccccc;stroke-linejoin:miter;"/>
    </g>
    <g id="line2d_132">
     <path d="M 367.878594 354.364305 
L 419.878594 354.364305 
" style="fill:none;stroke:#1f77b4;stroke-linecap:square;stroke-width:0.7;"/>
    </g>
    <g id="line2d_133"/>
    <g id="text_12">
     <!-- Frames: 521  -->
     <defs>
      <path d="M 41.109375 46.296875 
Q 39.59375 47.171875 37.8125 47.578125 
Q 36.03125 48 33.890625 48 
Q 26.265625 48 22.1875 43.046875 
Q 18.109375 38.09375 18.109375 28.8125 
L 18.109375 0 
L 9.078125 0 
L 9.078125 54.6875 
L 18.109375 54.6875 
L 18.109375 46.1875 
Q 20.953125 51.171875 25.484375 53.578125 
Q 30.03125 56 36.53125 56 
Q 37.453125 56 38.578125 55.875 
Q 39.703125 55.765625 41.0625 55.515625 
z
" id="DejaVuSans-114"/>
      <path d="M 34.28125 27.484375 
Q 23.390625 27.484375 19.1875 25 
Q 14.984375 22.515625 14.984375 16.5 
Q 14.984375 11.71875 18.140625 8.90625 
Q 21.296875 6.109375 26.703125 6.109375 
Q 34.1875 6.109375 38.703125 11.40625 
Q 43.21875 16.703125 43.21875 25.484375 
L 43.21875 27.484375 
z
M 52.203125 31.203125 
L 52.203125 0 
L 43.21875 0 
L 43.21875 8.296875 
Q 40.140625 3.328125 35.546875 0.953125 
Q 30.953125 -1.421875 24.3125 -1.421875 
Q 15.921875 -1.421875 10.953125 3.296875 
Q 6 8.015625 6 15.921875 
Q 6 25.140625 12.171875 29.828125 
Q 18.359375 34.515625 30.609375 34.515625 
L 43.21875 34.515625 
L 43.21875 35.40625 
Q 43.21875 41.609375 39.140625 45 
Q 35.0625 48.390625 27.6875 48.390625 
Q 23 48.390625 18.546875 47.265625 
Q 14.109375 46.140625 10.015625 43.890625 
L 10.015625 52.203125 
Q 14.9375 54.109375 19.578125 55.046875 
Q 24.21875 56 28.609375 56 
Q 40.484375 56 46.34375 49.84375 
Q 52.203125 43.703125 52.203125 31.203125 
z
" id="DejaVuSans-97"/>
      <path d="M 52 44.1875 
Q 55.375 50.25 60.0625 53.125 
Q 64.75 56 71.09375 56 
Q 79.640625 56 84.28125 50.015625 
Q 88.921875 44.046875 88.921875 33.015625 
L 88.921875 0 
L 79.890625 0 
L 79.890625 32.71875 
Q 79.890625 40.578125 77.09375 44.375 
Q 74.3125 48.1875 68.609375 48.1875 
Q 61.625 48.1875 57.5625 43.546875 
Q 53.515625 38.921875 53.515625 30.90625 
L 53.515625 0 
L 44.484375 0 
L 44.484375 32.71875 
Q 44.484375 40.625 41.703125 44.40625 
Q 38.921875 48.1875 33.109375 48.1875 
Q 26.21875 48.1875 22.15625 43.53125 
Q 18.109375 38.875 18.109375 30.90625 
L 18.109375 0 
L 9.078125 0 
L 9.078125 54.6875 
L 18.109375 54.6875 
L 18.109375 46.1875 
Q 21.1875 51.21875 25.484375 53.609375 
Q 29.78125 56 35.6875 56 
Q 41.65625 56 45.828125 52.96875 
Q 50 49.953125 52 44.1875 
z
" id="DejaVuSans-109"/>
      <path d="M 56.203125 29.59375 
L 56.203125 25.203125 
L 14.890625 25.203125 
Q 15.484375 15.921875 20.484375 11.0625 
Q 25.484375 6.203125 34.421875 6.203125 
Q 39.59375 6.203125 44.453125 7.46875 
Q 49.3125 8.734375 54.109375 11.28125 
L 54.109375 2.78125 
Q 49.265625 0.734375 44.1875 -0.34375 
Q 39.109375 -1.421875 33.890625 -1.421875 
Q 20.796875 -1.421875 13.15625 6.1875 
Q 5.515625 13.8125 5.515625 26.8125 
Q 5.515625 40.234375 12.765625 48.109375 
Q 20.015625 56 32.328125 56 
Q 43.359375 56 49.78125 48.890625 
Q 56.203125 41.796875 56.203125 29.59375 
z
M 47.21875 32.234375 
Q 47.125 39.59375 43.09375 43.984375 
Q 39.0625 48.390625 32.421875 48.390625 
Q 24.90625 48.390625 20.390625 44.140625 
Q 15.875 39.890625 15.1875 32.171875 
z
" id="DejaVuSans-101"/>
      <path d="M 44.28125 53.078125 
L 44.28125 44.578125 
Q 40.484375 46.53125 36.375 47.5 
Q 32.28125 48.484375 27.875 48.484375 
Q 21.1875 48.484375 17.84375 46.4375 
Q 14.5 44.390625 14.5 40.28125 
Q 14.5 37.15625 16.890625 35.375 
Q 19.28125 33.59375 26.515625 31.984375 
L 29.59375 31.296875 
Q 39.15625 29.25 43.1875 25.515625 
Q 47.21875 21.78125 47.21875 15.09375 
Q 47.21875 7.46875 41.1875 3.015625 
Q 35.15625 -1.421875 24.609375 -1.421875 
Q 20.21875 -1.421875 15.453125 -0.5625 
Q 10.6875 0.296875 5.421875 2 
L 5.421875 11.28125 
Q 10.40625 8.6875 15.234375 7.390625 
Q 20.0625 6.109375 24.8125 6.109375 
Q 31.15625 6.109375 34.5625 8.28125 
Q 37.984375 10.453125 37.984375 14.40625 
Q 37.984375 18.0625 35.515625 20.015625 
Q 33.0625 21.96875 24.703125 23.78125 
L 21.578125 24.515625 
Q 13.234375 26.265625 9.515625 29.90625 
Q 5.8125 33.546875 5.8125 39.890625 
Q 5.8125 47.609375 11.28125 51.796875 
Q 16.75 56 26.8125 56 
Q 31.78125 56 36.171875 55.265625 
Q 40.578125 54.546875 44.28125 53.078125 
z
" id="DejaVuSans-115"/>
      <path d="M 11.71875 12.40625 
L 22.015625 12.40625 
L 22.015625 0 
L 11.71875 0 
z
M 11.71875 51.703125 
L 22.015625 51.703125 
L 22.015625 39.3125 
L 11.71875 39.3125 
z
" id="DejaVuSans-58"/>
      <path id="DejaVuSans-32"/>
     </defs>
     <g transform="translate(440.678594 258.860617)scale(0.26 -0.26)">
      <use xlink:href="#DejaVuSans-70"/>
      <use x="50.269531" xlink:href="#DejaVuSans-114"/>
      <use x="91.382812" xlink:href="#DejaVuSans-97"/>
      <use x="152.662109" xlink:href="#DejaVuSans-109"/>
      <use x="250.074219" xlink:href="#DejaVuSans-101"/>
      <use x="311.597656" xlink:href="#DejaVuSans-115"/>
      <use x="363.697266" xlink:href="#DejaVuSans-58"/>
      <use x="397.388672" xlink:href="#DejaVuSans-32"/>
      <use x="429.175781" xlink:href="#DejaVuSans-53"/>
      <use x="492.798828" xlink:href="#DejaVuSans-50"/>
      <use x="556.421875" xlink:href="#DejaVuSans-49"/>
      <use x="620.044922" xlink:href="#DejaVuSans-32"/>
     </g>
     <!-- Mean:86.194 -->
     <defs>
      <path d="M 54.890625 33.015625 
L 54.890625 0 
L 45.90625 0 
L 45.90625 32.71875 
Q 45.90625 40.484375 42.875 44.328125 
Q 39.84375 48.1875 33.796875 48.1875 
Q 26.515625 48.1875 22.3125 43.546875 
Q 18.109375 38.921875 18.109375 30.90625 
L 18.109375 0 
L 9.078125 0 
L 9.078125 54.6875 
L 18.109375 54.6875 
L 18.109375 46.1875 
Q 21.34375 51.125 25.703125 53.5625 
Q 30.078125 56 35.796875 56 
Q 45.21875 56 50.046875 50.171875 
Q 54.890625 44.34375 54.890625 33.015625 
z
" id="DejaVuSans-110"/>
      <path d="M 33.015625 40.375 
Q 26.375 40.375 22.484375 35.828125 
Q 18.609375 31.296875 18.609375 23.390625 
Q 18.609375 15.53125 22.484375 10.953125 
Q 26.375 6.390625 33.015625 6.390625 
Q 39.65625 6.390625 43.53125 10.953125 
Q 47.40625 15.53125 47.40625 23.390625 
Q 47.40625 31.296875 43.53125 35.828125 
Q 39.65625 40.375 33.015625 40.375 
z
M 52.59375 71.296875 
L 52.59375 62.3125 
Q 48.875 64.0625 45.09375 64.984375 
Q 41.3125 65.921875 37.59375 65.921875 
Q 27.828125 65.921875 22.671875 59.328125 
Q 17.53125 52.734375 16.796875 39.40625 
Q 19.671875 43.65625 24.015625 45.921875 
Q 28.375 48.1875 33.59375 48.1875 
Q 44.578125 48.1875 50.953125 41.515625 
Q 57.328125 34.859375 57.328125 23.390625 
Q 57.328125 12.15625 50.6875 5.359375 
Q 44.046875 -1.421875 33.015625 -1.421875 
Q 20.359375 -1.421875 13.671875 8.265625 
Q 6.984375 17.96875 6.984375 36.375 
Q 6.984375 53.65625 15.1875 63.9375 
Q 23.390625 74.21875 37.203125 74.21875 
Q 40.921875 74.21875 44.703125 73.484375 
Q 48.484375 72.75 52.59375 71.296875 
z
" id="DejaVuSans-54"/>
      <path d="M 10.6875 12.40625 
L 21 12.40625 
L 21 0 
L 10.6875 0 
z
" id="DejaVuSans-46"/>
     </defs>
     <g transform="translate(440.678594 287.97493)scale(0.26 -0.26)">
      <use xlink:href="#DejaVuSans-77"/>
      <use x="86.279297" xlink:href="#DejaVuSans-101"/>
      <use x="147.802734" xlink:href="#DejaVuSans-97"/>
      <use x="209.082031" xlink:href="#DejaVuSans-110"/>
      <use x="272.460938" xlink:href="#DejaVuSans-58"/>
      <use x="306.152344" xlink:href="#DejaVuSans-56"/>
      <use x="369.775391" xlink:href="#DejaVuSans-54"/>
      <use x="433.398438" xlink:href="#DejaVuSans-46"/>
      <use x="465.185547" xlink:href="#DejaVuSans-49"/>
      <use x="528.808594" xlink:href="#DejaVuSans-57"/>
      <use x="592.431641" xlink:href="#DejaVuSans-52"/>
     </g>
     <!-- Median:86.652 -->
     <defs>
      <path d="M 45.40625 46.390625 
L 45.40625 75.984375 
L 54.390625 75.984375 
L 54.390625 0 
L 45.40625 0 
L 45.40625 8.203125 
Q 42.578125 3.328125 38.25 0.953125 
Q 33.9375 -1.421875 27.875 -1.421875 
Q 17.96875 -1.421875 11.734375 6.484375 
Q 5.515625 14.40625 5.515625 27.296875 
Q 5.515625 40.1875 11.734375 48.09375 
Q 17.96875 56 27.875 56 
Q 33.9375 56 38.25 53.625 
Q 42.578125 51.265625 45.40625 46.390625 
z
M 14.796875 27.296875 
Q 14.796875 17.390625 18.875 11.75 
Q 22.953125 6.109375 30.078125 6.109375 
Q 37.203125 6.109375 41.296875 11.75 
Q 45.40625 17.390625 45.40625 27.296875 
Q 45.40625 37.203125 41.296875 42.84375 
Q 37.203125 48.484375 30.078125 48.484375 
Q 22.953125 48.484375 18.875 42.84375 
Q 14.796875 37.203125 14.796875 27.296875 
z
" id="DejaVuSans-100"/>
      <path d="M 9.421875 54.6875 
L 18.40625 54.6875 
L 18.40625 0 
L 9.421875 0 
z
M 9.421875 75.984375 
L 18.40625 75.984375 
L 18.40625 64.59375 
L 9.421875 64.59375 
z
" id="DejaVuSans-105"/>
     </defs>
     <g transform="translate(440.678594 317.089242)scale(0.26 -0.26)">
      <use xlink:href="#DejaVuSans-77"/>
      <use x="86.279297" xlink:href="#DejaVuSans-101"/>
      <use x="147.802734" xlink:href="#DejaVuSans-100"/>
      <use x="211.279297" xlink:href="#DejaVuSans-105"/>
      <use x="239.0625" xlink:href="#DejaVuSans-97"/>
      <use x="300.341797" xlink:href="#DejaVuSans-110"/>
      <use x="363.720703" xlink:href="#DejaVuSans-58"/>
      <use x="397.412109" xlink:href="#DejaVuSans-56"/>
      <use x="461.035156" xlink:href="#DejaVuSans-54"/>
      <use x="524.658203" xlink:href="#DejaVuSans-46"/>
      <use x="556.445312" xlink:href="#DejaVuSans-54"/>
      <use x="620.068359" xlink:href="#DejaVuSans-53"/>
      <use x="683.691406" xlink:href="#DejaVuSans-50"/>
     </g>
     <!-- 0.01%: 66.584  -->
     <defs>
      <path d="M 72.703125 32.078125 
Q 68.453125 32.078125 66.03125 28.46875 
Q 63.625 24.859375 63.625 18.40625 
Q 63.625 12.0625 66.03125 8.421875 
Q 68.453125 4.78125 72.703125 4.78125 
Q 76.859375 4.78125 79.265625 8.421875 
Q 81.6875 12.0625 81.6875 18.40625 
Q 81.6875 24.8125 79.265625 28.4375 
Q 76.859375 32.078125 72.703125 32.078125 
z
M 72.703125 38.28125 
Q 80.421875 38.28125 84.953125 32.90625 
Q 89.5 27.546875 89.5 18.40625 
Q 89.5 9.28125 84.9375 3.921875 
Q 80.375 -1.421875 72.703125 -1.421875 
Q 64.890625 -1.421875 60.34375 3.921875 
Q 55.8125 9.28125 55.8125 18.40625 
Q 55.8125 27.59375 60.375 32.9375 
Q 64.9375 38.28125 72.703125 38.28125 
z
M 22.3125 68.015625 
Q 18.109375 68.015625 15.6875 64.375 
Q 13.28125 60.75 13.28125 54.390625 
Q 13.28125 47.953125 15.671875 44.328125 
Q 18.0625 40.71875 22.3125 40.71875 
Q 26.5625 40.71875 28.96875 44.328125 
Q 31.390625 47.953125 31.390625 54.390625 
Q 31.390625 60.6875 28.953125 64.34375 
Q 26.515625 68.015625 22.3125 68.015625 
z
M 66.40625 74.21875 
L 74.21875 74.21875 
L 28.609375 -1.421875 
L 20.796875 -1.421875 
z
M 22.3125 74.21875 
Q 30.03125 74.21875 34.609375 68.875 
Q 39.203125 63.53125 39.203125 54.390625 
Q 39.203125 45.171875 34.640625 39.84375 
Q 30.078125 34.515625 22.3125 34.515625 
Q 14.546875 34.515625 10.03125 39.859375 
Q 5.515625 45.21875 5.515625 54.390625 
Q 5.515625 63.484375 10.046875 68.84375 
Q 14.59375 74.21875 22.3125 74.21875 
z
" id="DejaVuSans-37"/>
     </defs>
     <g transform="translate(440.678594 346.203555)scale(0.26 -0.26)">
      <use xlink:href="#DejaVuSans-48"/>
      <use x="63.623047" xlink:href="#DejaVuSans-46"/>
      <use x="95.410156" xlink:href="#DejaVuSans-48"/>
      <use x="159.033203" xlink:href="#DejaVuSans-49"/>
      <use x="222.65625" xlink:href="#DejaVuSans-37"/>
      <use x="317.675781" xlink:href="#DejaVuSans-58"/>
      <use x="351.367188" xlink:href="#DejaVuSans-32"/>
      <use x="383.154297" xlink:href="#DejaVuSans-54"/>
      <use x="446.777344" xlink:href="#DejaVuSans-54"/>
      <use x="510.400391" xlink:href="#DejaVuSans-46"/>
      <use x="542.1875" xlink:href="#DejaVuSans-53"/>
      <use x="605.810547" xlink:href="#DejaVuSans-56"/>
      <use x="669.433594" xlink:href="#DejaVuSans-52"/>
      <use x="733.056641" xlink:href="#DejaVuSans-32"/>
     </g>
     <!-- 0.1%: 67.572  -->
     <g transform="translate(440.678594 375.317867)scale(0.26 -0.26)">
      <use xlink:href="#DejaVuSans-48"/>
      <use x="63.623047" xlink:href="#DejaVuSans-46"/>
      <use x="95.410156" xlink:href="#DejaVuSans-49"/>
      <use x="159.033203" xlink:href="#DejaVuSans-37"/>
      <use x="254.052734" xlink:href="#DejaVuSans-58"/>
      <use x="287.744141" xlink:href="#DejaVuSans-32"/>
      <use x="319.53125" xlink:href="#DejaVuSans-54"/>
      <use x="383.154297" xlink:href="#DejaVuSans-55"/>
      <use x="446.777344" xlink:href="#DejaVuSans-46"/>
      <use x="478.564453" xlink:href="#DejaVuSans-53"/>
      <use x="542.1875" xlink:href="#DejaVuSans-55"/>
      <use x="605.810547" xlink:href="#DejaVuSans-50"/>
      <use x="669.433594" xlink:href="#DejaVuSans-32"/>
     </g>
     <!-- 1%: 73.375  -->
     <g transform="translate(440.678594 404.43218)scale(0.26 -0.26)">
      <use xlink:href="#DejaVuSans-49"/>
      <use x="63.623047" xlink:href="#DejaVuSans-37"/>
      <use x="158.642578" xlink:href="#DejaVuSans-58"/>
      <use x="192.333984" xlink:href="#DejaVuSans-32"/>
      <use x="224.121094" xlink:href="#DejaVuSans-55"/>
      <use x="287.744141" xlink:href="#DejaVuSans-51"/>
      <use x="351.367188" xlink:href="#DejaVuSans-46"/>
      <use x="383.154297" xlink:href="#DejaVuSans-51"/>
      <use x="446.777344" xlink:href="#DejaVuSans-55"/>
      <use x="510.400391" xlink:href="#DejaVuSans-53"/>
      <use x="574.023438" xlink:href="#DejaVuSans-32"/>
     </g>
     <!-- 25%: 83.469  -->
     <g transform="translate(440.678594 433.546492)scale(0.26 -0.26)">
      <use xlink:href="#DejaVuSans-50"/>
      <use x="63.623047" xlink:href="#DejaVuSans-53"/>
      <use x="127.246094" xlink:href="#DejaVuSans-37"/>
      <use x="222.265625" xlink:href="#DejaVuSans-58"/>
      <use x="255.957031" xlink:href="#DejaVuSans-32"/>
      <use x="287.744141" xlink:href="#DejaVuSans-56"/>
      <use x="351.367188" xlink:href="#DejaVuSans-51"/>
      <use x="414.990234" xlink:href="#DejaVuSans-46"/>
      <use x="446.777344" xlink:href="#DejaVuSans-52"/>
      <use x="510.400391" xlink:href="#DejaVuSans-54"/>
      <use x="574.023438" xlink:href="#DejaVuSans-57"/>
      <use x="637.646484" xlink:href="#DejaVuSans-32"/>
     </g>
     <!-- 75%: 89.314 -->
     <g transform="translate(440.678594 462.660805)scale(0.26 -0.26)">
      <use xlink:href="#DejaVuSans-55"/>
      <use x="63.623047" xlink:href="#DejaVuSans-53"/>
      <use x="127.246094" xlink:href="#DejaVuSans-37"/>
      <use x="222.265625" xlink:href="#DejaVuSans-58"/>
      <use x="255.957031" xlink:href="#DejaVuSans-32"/>
      <use x="287.744141" xlink:href="#DejaVuSans-56"/>
      <use x="351.367188" xlink:href="#DejaVuSans-57"/>
      <use x="414.990234" xlink:href="#DejaVuSans-46"/>
      <use x="446.777344" xlink:href="#DejaVuSans-51"/>
      <use x="510.400391" xlink:href="#DejaVuSans-49"/>
      <use x="574.023438" xlink:href="#DejaVuSans-52"/>
     </g>
    </g>
   </g>
  </g>
 </g>
 <defs>
  <clipPath id="pa693609d13">
   <rect height="169.2616" width="779.6275" x="113.8925" y="37.98"/>
  </clipPath>
 </defs>
</svg>
