<?xml version="1.0" encoding="utf-8" standalone="no"?>
<!DOCTYPE svg PUBLIC "-//W3C//DTD SVG 1.1//EN"
  "http://www.w3.org/Graphics/SVG/1.1/DTD/svg11.dtd">
<!-- Created with matplotlib (https://matplotlib.org/) -->
<svg height="518.4pt" version="1.1" viewBox="0 0 921.6 518.4" width="921.6pt" xmlns="http://www.w3.org/2000/svg" xmlns:xlink="http://www.w3.org/1999/xlink">
 <defs>
  <style type="text/css">
*{stroke-linecap:butt;stroke-linejoin:round;}
  </style>
 </defs>
 <g id="figure_1">
  <g id="patch_1">
   <path d="M 0 518.4 
L 921.6 518.4 
L 921.6 0 
L 0 0 
z
" style="fill:#ffffff;"/>
  </g>
  <g id="axes_1">
   <g id="patch_2">
    <path d="M 66.35 357.8776 
L 906.48 357.8776 
L 906.48 20.43 
L 66.35 20.43 
z
" style="fill:#ffffff;"/>
   </g>
   <g id="matplotlib.axis_1">
    <g id="xtick_1">
     <g id="line2d_1">
      <defs>
       <path d="M 0 0 
L 0 3.5 
" id="m99f1361ee3" style="stroke:#000000;stroke-width:0.8;"/>
      </defs>
      <g>
       <use style="stroke:#000000;stroke-width:0.8;" x="66.35" xlink:href="#m99f1361ee3" y="357.8776"/>
      </g>
     </g>
     <g id="text_1">
      <!-- 0 -->
      <defs>
       <path d="M 31.78125 66.40625 
Q 24.171875 66.40625 20.328125 58.90625 
Q 16.5 51.421875 16.5 36.375 
Q 16.5 21.390625 20.328125 13.890625 
Q 24.171875 6.390625 31.78125 6.390625 
Q 39.453125 6.390625 43.28125 13.890625 
Q 47.125 21.390625 47.125 36.375 
Q 47.125 51.421875 43.28125 58.90625 
Q 39.453125 66.40625 31.78125 66.40625 
z
M 31.78125 74.21875 
Q 44.046875 74.21875 50.515625 64.515625 
Q 56.984375 54.828125 56.984375 36.375 
Q 56.984375 17.96875 50.515625 8.265625 
Q 44.046875 -1.421875 31.78125 -1.421875 
Q 19.53125 -1.421875 13.0625 8.265625 
Q 6.59375 17.96875 6.59375 36.375 
Q 6.59375 54.828125 13.0625 64.515625 
Q 19.53125 74.21875 31.78125 74.21875 
z
" id="DejaVuSans-48"/>
      </defs>
      <g transform="translate(61.89625 375.515412)scale(0.14 -0.14)">
       <use xlink:href="#DejaVuSans-48"/>
      </g>
     </g>
    </g>
    <g id="xtick_2">
     <g id="line2d_2">
      <g>
       <use style="stroke:#000000;stroke-width:0.8;" x="227.913462" xlink:href="#m99f1361ee3" y="357.8776"/>
      </g>
     </g>
     <g id="text_2">
      <!-- 100 -->
      <defs>
       <path d="M 12.40625 8.296875 
L 28.515625 8.296875 
L 28.515625 63.921875 
L 10.984375 60.40625 
L 10.984375 69.390625 
L 28.421875 72.90625 
L 38.28125 72.90625 
L 38.28125 8.296875 
L 54.390625 8.296875 
L 54.390625 0 
L 12.40625 0 
z
" id="DejaVuSans-49"/>
      </defs>
      <g transform="translate(214.552212 375.515412)scale(0.14 -0.14)">
       <use xlink:href="#DejaVuSans-49"/>
       <use x="63.623047" xlink:href="#DejaVuSans-48"/>
       <use x="127.246094" xlink:href="#DejaVuSans-48"/>
      </g>
     </g>
    </g>
    <g id="xtick_3">
     <g id="line2d_3">
      <g>
       <use style="stroke:#000000;stroke-width:0.8;" x="389.476923" xlink:href="#m99f1361ee3" y="357.8776"/>
      </g>
     </g>
     <g id="text_3">
      <!-- 200 -->
      <defs>
       <path d="M 19.1875 8.296875 
L 53.609375 8.296875 
L 53.609375 0 
L 7.328125 0 
L 7.328125 8.296875 
Q 12.9375 14.109375 22.625 23.890625 
Q 32.328125 33.6875 34.8125 36.53125 
Q 39.546875 41.84375 41.421875 45.53125 
Q 43.3125 49.21875 43.3125 52.78125 
Q 43.3125 58.59375 39.234375 62.25 
Q 35.15625 65.921875 28.609375 65.921875 
Q 23.96875 65.921875 18.8125 64.3125 
Q 13.671875 62.703125 7.8125 59.421875 
L 7.8125 69.390625 
Q 13.765625 71.78125 18.9375 73 
Q 24.125 74.21875 28.421875 74.21875 
Q 39.75 74.21875 46.484375 68.546875 
Q 53.21875 62.890625 53.21875 53.421875 
Q 53.21875 48.921875 51.53125 44.890625 
Q 49.859375 40.875 45.40625 35.40625 
Q 44.1875 33.984375 37.640625 27.21875 
Q 31.109375 20.453125 19.1875 8.296875 
z
" id="DejaVuSans-50"/>
      </defs>
      <g transform="translate(376.115673 375.515412)scale(0.14 -0.14)">
       <use xlink:href="#DejaVuSans-50"/>
       <use x="63.623047" xlink:href="#DejaVuSans-48"/>
       <use x="127.246094" xlink:href="#DejaVuSans-48"/>
      </g>
     </g>
    </g>
    <g id="xtick_4">
     <g id="line2d_4">
      <g>
       <use style="stroke:#000000;stroke-width:0.8;" x="551.040385" xlink:href="#m99f1361ee3" y="357.8776"/>
      </g>
     </g>
     <g id="text_4">
      <!-- 300 -->
      <defs>
       <path d="M 40.578125 39.3125 
Q 47.65625 37.796875 51.625 33 
Q 55.609375 28.21875 55.609375 21.1875 
Q 55.609375 10.40625 48.1875 4.484375 
Q 40.765625 -1.421875 27.09375 -1.421875 
Q 22.515625 -1.421875 17.65625 -0.515625 
Q 12.796875 0.390625 7.625 2.203125 
L 7.625 11.71875 
Q 11.71875 9.328125 16.59375 8.109375 
Q 21.484375 6.890625 26.8125 6.890625 
Q 36.078125 6.890625 40.9375 10.546875 
Q 45.796875 14.203125 45.796875 21.1875 
Q 45.796875 27.640625 41.28125 31.265625 
Q 36.765625 34.90625 28.71875 34.90625 
L 20.21875 34.90625 
L 20.21875 43.015625 
L 29.109375 43.015625 
Q 36.375 43.015625 40.234375 45.921875 
Q 44.09375 48.828125 44.09375 54.296875 
Q 44.09375 59.90625 40.109375 62.90625 
Q 36.140625 65.921875 28.71875 65.921875 
Q 24.65625 65.921875 20.015625 65.03125 
Q 15.375 64.15625 9.8125 62.3125 
L 9.8125 71.09375 
Q 15.4375 72.65625 20.34375 73.4375 
Q 25.25 74.21875 29.59375 74.21875 
Q 40.828125 74.21875 47.359375 69.109375 
Q 53.90625 64.015625 53.90625 55.328125 
Q 53.90625 49.265625 50.4375 45.09375 
Q 46.96875 40.921875 40.578125 39.3125 
z
" id="DejaVuSans-51"/>
      </defs>
      <g transform="translate(537.679135 375.515412)scale(0.14 -0.14)">
       <use xlink:href="#DejaVuSans-51"/>
       <use x="63.623047" xlink:href="#DejaVuSans-48"/>
       <use x="127.246094" xlink:href="#DejaVuSans-48"/>
      </g>
     </g>
    </g>
    <g id="xtick_5">
     <g id="line2d_5">
      <g>
       <use style="stroke:#000000;stroke-width:0.8;" x="712.603846" xlink:href="#m99f1361ee3" y="357.8776"/>
      </g>
     </g>
     <g id="text_5">
      <!-- 400 -->
      <defs>
       <path d="M 37.796875 64.3125 
L 12.890625 25.390625 
L 37.796875 25.390625 
z
M 35.203125 72.90625 
L 47.609375 72.90625 
L 47.609375 25.390625 
L 58.015625 25.390625 
L 58.015625 17.1875 
L 47.609375 17.1875 
L 47.609375 0 
L 37.796875 0 
L 37.796875 17.1875 
L 4.890625 17.1875 
L 4.890625 26.703125 
z
" id="DejaVuSans-52"/>
      </defs>
      <g transform="translate(699.242596 375.515412)scale(0.14 -0.14)">
       <use xlink:href="#DejaVuSans-52"/>
       <use x="63.623047" xlink:href="#DejaVuSans-48"/>
       <use x="127.246094" xlink:href="#DejaVuSans-48"/>
      </g>
     </g>
    </g>
    <g id="xtick_6">
     <g id="line2d_6">
      <g>
       <use style="stroke:#000000;stroke-width:0.8;" x="874.167308" xlink:href="#m99f1361ee3" y="357.8776"/>
      </g>
     </g>
     <g id="text_6">
      <!-- 500 -->
      <defs>
       <path d="M 10.796875 72.90625 
L 49.515625 72.90625 
L 49.515625 64.59375 
L 19.828125 64.59375 
L 19.828125 46.734375 
Q 21.96875 47.46875 24.109375 47.828125 
Q 26.265625 48.1875 28.421875 48.1875 
Q 40.625 48.1875 47.75 41.5 
Q 54.890625 34.8125 54.890625 23.390625 
Q 54.890625 11.625 47.5625 5.09375 
Q 40.234375 -1.421875 26.90625 -1.421875 
Q 22.3125 -1.421875 17.546875 -0.640625 
Q 12.796875 0.140625 7.71875 1.703125 
L 7.71875 11.625 
Q 12.109375 9.234375 16.796875 8.0625 
Q 21.484375 6.890625 26.703125 6.890625 
Q 35.15625 6.890625 40.078125 11.328125 
Q 45.015625 15.765625 45.015625 23.390625 
Q 45.015625 31 40.078125 35.4375 
Q 35.15625 39.890625 26.703125 39.890625 
Q 22.75 39.890625 18.8125 39.015625 
Q 14.890625 38.140625 10.796875 36.28125 
z
" id="DejaVuSans-53"/>
      </defs>
      <g transform="translate(860.806058 375.515412)scale(0.14 -0.14)">
       <use xlink:href="#DejaVuSans-53"/>
       <use x="63.623047" xlink:href="#DejaVuSans-48"/>
       <use x="127.246094" xlink:href="#DejaVuSans-48"/>
      </g>
     </g>
    </g>
   </g>
   <g id="matplotlib.axis_2">
    <g id="ytick_1">
     <g id="line2d_7">
      <defs>
       <path d="M 0 0 
L -3.5 0 
" id="m7a30ac211f" style="stroke:#000000;stroke-width:0.8;"/>
      </defs>
      <g>
       <use style="stroke:#000000;stroke-width:0.8;" x="66.35" xlink:href="#m7a30ac211f" y="323.26759"/>
      </g>
     </g>
     <g id="text_7">
      <!-- 65 -->
      <defs>
       <path d="M 33.015625 40.375 
Q 26.375 40.375 22.484375 35.828125 
Q 18.609375 31.296875 18.609375 23.390625 
Q 18.609375 15.53125 22.484375 10.953125 
Q 26.375 6.390625 33.015625 6.390625 
Q 39.65625 6.390625 43.53125 10.953125 
Q 47.40625 15.53125 47.40625 23.390625 
Q 47.40625 31.296875 43.53125 35.828125 
Q 39.65625 40.375 33.015625 40.375 
z
M 52.59375 71.296875 
L 52.59375 62.3125 
Q 48.875 64.0625 45.09375 64.984375 
Q 41.3125 65.921875 37.59375 65.921875 
Q 27.828125 65.921875 22.671875 59.328125 
Q 17.53125 52.734375 16.796875 39.40625 
Q 19.671875 43.65625 24.015625 45.921875 
Q 28.375 48.1875 33.59375 48.1875 
Q 44.578125 48.1875 50.953125 41.515625 
Q 57.328125 34.859375 57.328125 23.390625 
Q 57.328125 12.15625 50.6875 5.359375 
Q 44.046875 -1.421875 33.015625 -1.421875 
Q 20.359375 -1.421875 13.671875 8.265625 
Q 6.984375 17.96875 6.984375 36.375 
Q 6.984375 53.65625 15.1875 63.9375 
Q 23.390625 74.21875 37.203125 74.21875 
Q 40.921875 74.21875 44.703125 73.484375 
Q 48.484375 72.75 52.59375 71.296875 
z
" id="DejaVuSans-54"/>
      </defs>
      <g transform="translate(41.535 328.586496)scale(0.14 -0.14)">
       <use xlink:href="#DejaVuSans-54"/>
       <use x="63.623047" xlink:href="#DejaVuSans-53"/>
      </g>
     </g>
    </g>
    <g id="ytick_2">
     <g id="line2d_8">
      <g>
       <use style="stroke:#000000;stroke-width:0.8;" x="66.35" xlink:href="#m7a30ac211f" y="280.005077"/>
      </g>
     </g>
     <g id="text_8">
      <!-- 70 -->
      <defs>
       <path d="M 8.203125 72.90625 
L 55.078125 72.90625 
L 55.078125 68.703125 
L 28.609375 0 
L 18.3125 0 
L 43.21875 64.59375 
L 8.203125 64.59375 
z
" id="DejaVuSans-55"/>
      </defs>
      <g transform="translate(41.535 285.323983)scale(0.14 -0.14)">
       <use xlink:href="#DejaVuSans-55"/>
       <use x="63.623047" xlink:href="#DejaVuSans-48"/>
      </g>
     </g>
    </g>
    <g id="ytick_3">
     <g id="line2d_9">
      <g>
       <use style="stroke:#000000;stroke-width:0.8;" x="66.35" xlink:href="#m7a30ac211f" y="236.742564"/>
      </g>
     </g>
     <g id="text_9">
      <!-- 75 -->
      <g transform="translate(41.535 242.06147)scale(0.14 -0.14)">
       <use xlink:href="#DejaVuSans-55"/>
       <use x="63.623047" xlink:href="#DejaVuSans-53"/>
      </g>
     </g>
    </g>
    <g id="ytick_4">
     <g id="line2d_10">
      <g>
       <use style="stroke:#000000;stroke-width:0.8;" x="66.35" xlink:href="#m7a30ac211f" y="193.480051"/>
      </g>
     </g>
     <g id="text_10">
      <!-- 80 -->
      <defs>
       <path d="M 31.78125 34.625 
Q 24.75 34.625 20.71875 30.859375 
Q 16.703125 27.09375 16.703125 20.515625 
Q 16.703125 13.921875 20.71875 10.15625 
Q 24.75 6.390625 31.78125 6.390625 
Q 38.8125 6.390625 42.859375 10.171875 
Q 46.921875 13.96875 46.921875 20.515625 
Q 46.921875 27.09375 42.890625 30.859375 
Q 38.875 34.625 31.78125 34.625 
z
M 21.921875 38.8125 
Q 15.578125 40.375 12.03125 44.71875 
Q 8.5 49.078125 8.5 55.328125 
Q 8.5 64.0625 14.71875 69.140625 
Q 20.953125 74.21875 31.78125 74.21875 
Q 42.671875 74.21875 48.875 69.140625 
Q 55.078125 64.0625 55.078125 55.328125 
Q 55.078125 49.078125 51.53125 44.71875 
Q 48 40.375 41.703125 38.8125 
Q 48.828125 37.15625 52.796875 32.3125 
Q 56.78125 27.484375 56.78125 20.515625 
Q 56.78125 9.90625 50.3125 4.234375 
Q 43.84375 -1.421875 31.78125 -1.421875 
Q 19.734375 -1.421875 13.25 4.234375 
Q 6.78125 9.90625 6.78125 20.515625 
Q 6.78125 27.484375 10.78125 32.3125 
Q 14.796875 37.15625 21.921875 38.8125 
z
M 18.3125 54.390625 
Q 18.3125 48.734375 21.84375 45.5625 
Q 25.390625 42.390625 31.78125 42.390625 
Q 38.140625 42.390625 41.71875 45.5625 
Q 45.3125 48.734375 45.3125 54.390625 
Q 45.3125 60.0625 41.71875 63.234375 
Q 38.140625 66.40625 31.78125 66.40625 
Q 25.390625 66.40625 21.84375 63.234375 
Q 18.3125 60.0625 18.3125 54.390625 
z
" id="DejaVuSans-56"/>
      </defs>
      <g transform="translate(41.535 198.798958)scale(0.14 -0.14)">
       <use xlink:href="#DejaVuSans-56"/>
       <use x="63.623047" xlink:href="#DejaVuSans-48"/>
      </g>
     </g>
    </g>
    <g id="ytick_5">
     <g id="line2d_11">
      <g>
       <use style="stroke:#000000;stroke-width:0.8;" x="66.35" xlink:href="#m7a30ac211f" y="150.217538"/>
      </g>
     </g>
     <g id="text_11">
      <!-- 85 -->
      <g transform="translate(41.535 155.536445)scale(0.14 -0.14)">
       <use xlink:href="#DejaVuSans-56"/>
       <use x="63.623047" xlink:href="#DejaVuSans-53"/>
      </g>
     </g>
    </g>
    <g id="ytick_6">
     <g id="line2d_12">
      <g>
       <use style="stroke:#000000;stroke-width:0.8;" x="66.35" xlink:href="#m7a30ac211f" y="106.955026"/>
      </g>
     </g>
     <g id="text_12">
      <!-- 90 -->
      <defs>
       <path d="M 10.984375 1.515625 
L 10.984375 10.5 
Q 14.703125 8.734375 18.5 7.8125 
Q 22.3125 6.890625 25.984375 6.890625 
Q 35.75 6.890625 40.890625 13.453125 
Q 46.046875 20.015625 46.78125 33.40625 
Q 43.953125 29.203125 39.59375 26.953125 
Q 35.25 24.703125 29.984375 24.703125 
Q 19.046875 24.703125 12.671875 31.3125 
Q 6.296875 37.9375 6.296875 49.421875 
Q 6.296875 60.640625 12.9375 67.421875 
Q 19.578125 74.21875 30.609375 74.21875 
Q 43.265625 74.21875 49.921875 64.515625 
Q 56.59375 54.828125 56.59375 36.375 
Q 56.59375 19.140625 48.40625 8.859375 
Q 40.234375 -1.421875 26.421875 -1.421875 
Q 22.703125 -1.421875 18.890625 -0.6875 
Q 15.09375 0.046875 10.984375 1.515625 
z
M 30.609375 32.421875 
Q 37.25 32.421875 41.125 36.953125 
Q 45.015625 41.5 45.015625 49.421875 
Q 45.015625 57.28125 41.125 61.84375 
Q 37.25 66.40625 30.609375 66.40625 
Q 23.96875 66.40625 20.09375 61.84375 
Q 16.21875 57.28125 16.21875 49.421875 
Q 16.21875 41.5 20.09375 36.953125 
Q 23.96875 32.421875 30.609375 32.421875 
z
" id="DejaVuSans-57"/>
      </defs>
      <g transform="translate(41.535 112.273932)scale(0.14 -0.14)">
       <use xlink:href="#DejaVuSans-57"/>
       <use x="63.623047" xlink:href="#DejaVuSans-48"/>
      </g>
     </g>
    </g>
    <g id="ytick_7">
     <g id="line2d_13">
      <g>
       <use style="stroke:#000000;stroke-width:0.8;" x="66.35" xlink:href="#m7a30ac211f" y="63.692513"/>
      </g>
     </g>
     <g id="text_13">
      <!-- 95 -->
      <g transform="translate(41.535 69.011419)scale(0.14 -0.14)">
       <use xlink:href="#DejaVuSans-57"/>
       <use x="63.623047" xlink:href="#DejaVuSans-53"/>
      </g>
     </g>
    </g>
    <g id="ytick_8">
     <g id="line2d_14">
      <g>
       <use style="stroke:#000000;stroke-width:0.8;" x="66.35" xlink:href="#m7a30ac211f" y="20.43"/>
      </g>
     </g>
     <g id="text_14">
      <!-- 100 -->
      <g transform="translate(32.6275 25.748906)scale(0.14 -0.14)">
       <use xlink:href="#DejaVuSans-49"/>
       <use x="63.623047" xlink:href="#DejaVuSans-48"/>
       <use x="127.246094" xlink:href="#DejaVuSans-48"/>
      </g>
     </g>
    </g>
    <g id="text_15">
     <!-- VMAF -->
     <defs>
      <path d="M 28.609375 0 
L 0.78125 72.90625 
L 11.078125 72.90625 
L 34.1875 11.53125 
L 57.328125 72.90625 
L 67.578125 72.90625 
L 39.796875 0 
z
" id="DejaVuSans-86"/>
      <path d="M 9.8125 72.90625 
L 24.515625 72.90625 
L 43.109375 23.296875 
L 61.8125 72.90625 
L 76.515625 72.90625 
L 76.515625 0 
L 66.890625 0 
L 66.890625 64.015625 
L 48.09375 14.015625 
L 38.1875 14.015625 
L 19.390625 64.015625 
L 19.390625 0 
L 9.8125 0 
z
" id="DejaVuSans-77"/>
      <path d="M 34.1875 63.1875 
L 20.796875 26.90625 
L 47.609375 26.90625 
z
M 28.609375 72.90625 
L 39.796875 72.90625 
L 67.578125 0 
L 57.328125 0 
L 50.6875 18.703125 
L 17.828125 18.703125 
L 11.1875 0 
L 0.78125 0 
z
" id="DejaVuSans-65"/>
      <path d="M 9.8125 72.90625 
L 51.703125 72.90625 
L 51.703125 64.59375 
L 19.671875 64.59375 
L 19.671875 43.109375 
L 48.578125 43.109375 
L 48.578125 34.8125 
L 19.671875 34.8125 
L 19.671875 0 
L 9.8125 0 
z
" id="DejaVuSans-70"/>
     </defs>
     <g transform="translate(25.715938 208.796456)rotate(-90)scale(0.14 -0.14)">
      <use xlink:href="#DejaVuSans-86"/>
      <use x="68.408203" xlink:href="#DejaVuSans-77"/>
      <use x="154.6875" xlink:href="#DejaVuSans-65"/>
      <use x="223.095703" xlink:href="#DejaVuSans-70"/>
     </g>
    </g>
   </g>
   <g id="line2d_15">
    <path clip-path="url(#p564cc6653f)" style="fill:none;stroke:#808080;stroke-linecap:square;stroke-width:0.4;"/>
   </g>
   <g id="line2d_16">
    <path clip-path="url(#p564cc6653f)" style="fill:none;stroke:#808080;stroke-linecap:square;stroke-width:0.4;"/>
   </g>
   <g id="line2d_17">
    <path clip-path="url(#p564cc6653f)" style="fill:none;stroke:#808080;stroke-linecap:square;stroke-width:0.4;"/>
   </g>
   <g id="line2d_18">
    <path clip-path="url(#p564cc6653f)" style="fill:none;stroke:#808080;stroke-linecap:square;stroke-width:0.4;"/>
   </g>
   <g id="line2d_19">
    <path clip-path="url(#p564cc6653f)" style="fill:none;stroke:#808080;stroke-linecap:square;stroke-width:0.4;"/>
   </g>
   <g id="line2d_20">
    <path clip-path="url(#p564cc6653f)" style="fill:none;stroke:#808080;stroke-linecap:square;stroke-width:0.4;"/>
   </g>
   <g id="line2d_21">
    <path clip-path="url(#p564cc6653f)" style="fill:none;stroke:#808080;stroke-linecap:square;stroke-width:0.4;"/>
   </g>
   <g id="line2d_22">
    <path clip-path="url(#p564cc6653f)" style="fill:none;stroke:#808080;stroke-linecap:square;stroke-width:0.4;"/>
   </g>
   <g id="line2d_23">
    <path clip-path="url(#p564cc6653f)" style="fill:none;stroke:#808080;stroke-linecap:square;stroke-width:0.4;"/>
   </g>
   <g id="line2d_24">
    <path clip-path="url(#p564cc6653f)" style="fill:none;stroke:#808080;stroke-linecap:square;stroke-width:0.4;"/>
   </g>
   <g id="line2d_25">
    <path clip-path="url(#p564cc6653f)" style="fill:none;stroke:#808080;stroke-linecap:square;stroke-width:0.4;"/>
   </g>
   <g id="line2d_26">
    <path clip-path="url(#p564cc6653f)" style="fill:none;stroke:#808080;stroke-linecap:square;stroke-width:0.4;"/>
   </g>
   <g id="line2d_27">
    <path clip-path="url(#p564cc6653f)" style="fill:none;stroke:#808080;stroke-linecap:square;stroke-width:0.4;"/>
   </g>
   <g id="line2d_28">
    <path clip-path="url(#p564cc6653f)" style="fill:none;stroke:#808080;stroke-linecap:square;stroke-width:0.4;"/>
   </g>
   <g id="line2d_29">
    <path clip-path="url(#p564cc6653f)" style="fill:none;stroke:#808080;stroke-linecap:square;stroke-width:0.4;"/>
   </g>
   <g id="line2d_30">
    <path clip-path="url(#p564cc6653f)" style="fill:none;stroke:#808080;stroke-linecap:square;stroke-width:0.4;"/>
   </g>
   <g id="line2d_31">
    <path clip-path="url(#p564cc6653f)" style="fill:none;stroke:#808080;stroke-linecap:square;stroke-width:0.4;"/>
   </g>
   <g id="line2d_32">
    <path clip-path="url(#p564cc6653f)" style="fill:none;stroke:#808080;stroke-linecap:square;stroke-width:0.4;"/>
   </g>
   <g id="line2d_33">
    <path clip-path="url(#p564cc6653f)" style="fill:none;stroke:#808080;stroke-linecap:square;stroke-width:0.4;"/>
   </g>
   <g id="line2d_34">
    <path clip-path="url(#p564cc6653f)" style="fill:none;stroke:#808080;stroke-linecap:square;stroke-width:0.4;"/>
   </g>
   <g id="line2d_35">
    <path clip-path="url(#p564cc6653f)" style="fill:none;stroke:#808080;stroke-linecap:square;stroke-width:0.4;"/>
   </g>
   <g id="line2d_36">
    <path clip-path="url(#p564cc6653f)" style="fill:none;stroke:#808080;stroke-linecap:square;stroke-width:0.4;"/>
   </g>
   <g id="line2d_37">
    <path clip-path="url(#p564cc6653f)" style="fill:none;stroke:#808080;stroke-linecap:square;stroke-width:0.4;"/>
   </g>
   <g id="line2d_38">
    <path clip-path="url(#p564cc6653f)" style="fill:none;stroke:#808080;stroke-linecap:square;stroke-width:0.4;"/>
   </g>
   <g id="line2d_39">
    <path clip-path="url(#p564cc6653f)" style="fill:none;stroke:#808080;stroke-linecap:square;stroke-width:0.4;"/>
   </g>
   <g id="line2d_40">
    <path clip-path="url(#p564cc6653f)" style="fill:none;stroke:#808080;stroke-linecap:square;stroke-width:0.4;"/>
   </g>
   <g id="line2d_41">
    <path clip-path="url(#p564cc6653f)" style="fill:none;stroke:#808080;stroke-linecap:square;stroke-width:0.4;"/>
   </g>
   <g id="line2d_42">
    <path clip-path="url(#p564cc6653f)" style="fill:none;stroke:#808080;stroke-linecap:square;stroke-width:0.4;"/>
   </g>
   <g id="line2d_43">
    <path clip-path="url(#p564cc6653f)" style="fill:none;stroke:#808080;stroke-linecap:square;stroke-width:0.4;"/>
   </g>
   <g id="line2d_44">
    <path clip-path="url(#p564cc6653f)" style="fill:none;stroke:#808080;stroke-linecap:square;stroke-width:0.4;"/>
   </g>
   <g id="line2d_45">
    <path clip-path="url(#p564cc6653f)" style="fill:none;stroke:#808080;stroke-linecap:square;stroke-width:0.4;"/>
   </g>
   <g id="line2d_46">
    <path clip-path="url(#p564cc6653f)" style="fill:none;stroke:#808080;stroke-linecap:square;stroke-width:0.4;"/>
   </g>
   <g id="line2d_47">
    <path clip-path="url(#p564cc6653f)" style="fill:none;stroke:#808080;stroke-linecap:square;stroke-width:0.4;"/>
   </g>
   <g id="line2d_48">
    <path clip-path="url(#p564cc6653f)" style="fill:none;stroke:#808080;stroke-linecap:square;stroke-width:0.4;"/>
   </g>
   <g id="line2d_49">
    <path clip-path="url(#p564cc6653f)" style="fill:none;stroke:#808080;stroke-linecap:square;stroke-width:0.4;"/>
   </g>
   <g id="line2d_50">
    <path clip-path="url(#p564cc6653f)" style="fill:none;stroke:#808080;stroke-linecap:square;stroke-width:0.4;"/>
   </g>
   <g id="line2d_51">
    <path clip-path="url(#p564cc6653f)" style="fill:none;stroke:#808080;stroke-linecap:square;stroke-width:0.4;"/>
   </g>
   <g id="line2d_52">
    <path clip-path="url(#p564cc6653f)" style="fill:none;stroke:#808080;stroke-linecap:square;stroke-width:0.4;"/>
   </g>
   <g id="line2d_53">
    <path clip-path="url(#p564cc6653f)" style="fill:none;stroke:#808080;stroke-linecap:square;stroke-width:0.4;"/>
   </g>
   <g id="line2d_54">
    <path clip-path="url(#p564cc6653f)" style="fill:none;stroke:#808080;stroke-linecap:square;stroke-width:0.4;"/>
   </g>
   <g id="line2d_55">
    <path clip-path="url(#p564cc6653f)" style="fill:none;stroke:#808080;stroke-linecap:square;stroke-width:0.4;"/>
   </g>
   <g id="line2d_56">
    <path clip-path="url(#p564cc6653f)" style="fill:none;stroke:#808080;stroke-linecap:square;stroke-width:0.4;"/>
   </g>
   <g id="line2d_57">
    <path clip-path="url(#p564cc6653f)" style="fill:none;stroke:#808080;stroke-linecap:square;stroke-width:0.4;"/>
   </g>
   <g id="line2d_58">
    <path clip-path="url(#p564cc6653f)" d="M 66.35 513.622646 
L 906.48 513.622646 
" style="fill:none;stroke:#808080;stroke-linecap:square;stroke-width:0.4;"/>
   </g>
   <g id="line2d_59">
    <path clip-path="url(#p564cc6653f)" d="M 66.35 504.970144 
L 906.48 504.970144 
" style="fill:none;stroke:#808080;stroke-linecap:square;stroke-width:0.4;"/>
   </g>
   <g id="line2d_60">
    <path clip-path="url(#p564cc6653f)" d="M 66.35 496.317641 
L 906.48 496.317641 
" style="fill:none;stroke:#808080;stroke-linecap:square;stroke-width:0.4;"/>
   </g>
   <g id="line2d_61">
    <path clip-path="url(#p564cc6653f)" d="M 66.35 487.665138 
L 906.48 487.665138 
" style="fill:none;stroke:#808080;stroke-linecap:square;stroke-width:0.4;"/>
   </g>
   <g id="line2d_62">
    <path clip-path="url(#p564cc6653f)" d="M 66.35 479.012636 
L 906.48 479.012636 
" style="fill:none;stroke:#808080;stroke-linecap:square;stroke-width:0.4;"/>
   </g>
   <g id="line2d_63">
    <path clip-path="url(#p564cc6653f)" d="M 66.35 470.360133 
L 906.48 470.360133 
" style="fill:none;stroke:#808080;stroke-linecap:square;stroke-width:0.4;"/>
   </g>
   <g id="line2d_64">
    <path clip-path="url(#p564cc6653f)" d="M 66.35 461.707631 
L 906.48 461.707631 
" style="fill:none;stroke:#808080;stroke-linecap:square;stroke-width:0.4;"/>
   </g>
   <g id="line2d_65">
    <path clip-path="url(#p564cc6653f)" d="M 66.35 453.055128 
L 906.48 453.055128 
" style="fill:none;stroke:#808080;stroke-linecap:square;stroke-width:0.4;"/>
   </g>
   <g id="line2d_66">
    <path clip-path="url(#p564cc6653f)" d="M 66.35 444.402626 
L 906.48 444.402626 
" style="fill:none;stroke:#808080;stroke-linecap:square;stroke-width:0.4;"/>
   </g>
   <g id="line2d_67">
    <path clip-path="url(#p564cc6653f)" d="M 66.35 435.750123 
L 906.48 435.750123 
" style="fill:none;stroke:#808080;stroke-linecap:square;stroke-width:0.4;"/>
   </g>
   <g id="line2d_68">
    <path clip-path="url(#p564cc6653f)" d="M 66.35 427.097621 
L 906.48 427.097621 
" style="fill:none;stroke:#808080;stroke-linecap:square;stroke-width:0.4;"/>
   </g>
   <g id="line2d_69">
    <path clip-path="url(#p564cc6653f)" d="M 66.35 418.445118 
L 906.48 418.445118 
" style="fill:none;stroke:#808080;stroke-linecap:square;stroke-width:0.4;"/>
   </g>
   <g id="line2d_70">
    <path clip-path="url(#p564cc6653f)" d="M 66.35 409.792615 
L 906.48 409.792615 
" style="fill:none;stroke:#808080;stroke-linecap:square;stroke-width:0.4;"/>
   </g>
   <g id="line2d_71">
    <path clip-path="url(#p564cc6653f)" d="M 66.35 401.140113 
L 906.48 401.140113 
" style="fill:none;stroke:#808080;stroke-linecap:square;stroke-width:0.4;"/>
   </g>
   <g id="line2d_72">
    <path clip-path="url(#p564cc6653f)" d="M 66.35 392.48761 
L 906.48 392.48761 
" style="fill:none;stroke:#808080;stroke-linecap:square;stroke-width:0.4;"/>
   </g>
   <g id="line2d_73">
    <path clip-path="url(#p564cc6653f)" d="M 66.35 383.835108 
L 906.48 383.835108 
" style="fill:none;stroke:#808080;stroke-linecap:square;stroke-width:0.4;"/>
   </g>
   <g id="line2d_74">
    <path clip-path="url(#p564cc6653f)" d="M 66.35 375.182605 
L 906.48 375.182605 
" style="fill:none;stroke:#808080;stroke-linecap:square;stroke-width:0.4;"/>
   </g>
   <g id="line2d_75">
    <path clip-path="url(#p564cc6653f)" d="M 66.35 366.530103 
L 906.48 366.530103 
" style="fill:none;stroke:#808080;stroke-linecap:square;stroke-width:0.4;"/>
   </g>
   <g id="line2d_76">
    <path clip-path="url(#p564cc6653f)" d="M 66.35 357.8776 
L 906.48 357.8776 
" style="fill:none;stroke:#808080;stroke-linecap:square;stroke-width:0.4;"/>
   </g>
   <g id="line2d_77">
    <path clip-path="url(#p564cc6653f)" d="M 66.35 349.225097 
L 906.48 349.225097 
" style="fill:none;stroke:#808080;stroke-linecap:square;stroke-width:0.4;"/>
   </g>
   <g id="line2d_78">
    <path clip-path="url(#p564cc6653f)" d="M 66.35 340.572595 
L 906.48 340.572595 
" style="fill:none;stroke:#808080;stroke-linecap:square;stroke-width:0.4;"/>
   </g>
   <g id="line2d_79">
    <path clip-path="url(#p564cc6653f)" d="M 66.35 331.920092 
L 906.48 331.920092 
" style="fill:none;stroke:#808080;stroke-linecap:square;stroke-width:0.4;"/>
   </g>
   <g id="line2d_80">
    <path clip-path="url(#p564cc6653f)" d="M 66.35 323.26759 
L 906.48 323.26759 
" style="fill:none;stroke:#808080;stroke-linecap:square;stroke-width:0.4;"/>
   </g>
   <g id="line2d_81">
    <path clip-path="url(#p564cc6653f)" d="M 66.35 314.615087 
L 906.48 314.615087 
" style="fill:none;stroke:#808080;stroke-linecap:square;stroke-width:0.4;"/>
   </g>
   <g id="line2d_82">
    <path clip-path="url(#p564cc6653f)" d="M 66.35 305.962585 
L 906.48 305.962585 
" style="fill:none;stroke:#808080;stroke-linecap:square;stroke-width:0.4;"/>
   </g>
   <g id="line2d_83">
    <path clip-path="url(#p564cc6653f)" d="M 66.35 297.310082 
L 906.48 297.310082 
" style="fill:none;stroke:#808080;stroke-linecap:square;stroke-width:0.4;"/>
   </g>
   <g id="line2d_84">
    <path clip-path="url(#p564cc6653f)" d="M 66.35 288.657579 
L 906.48 288.657579 
" style="fill:none;stroke:#808080;stroke-linecap:square;stroke-width:0.4;"/>
   </g>
   <g id="line2d_85">
    <path clip-path="url(#p564cc6653f)" d="M 66.35 280.005077 
L 906.48 280.005077 
" style="fill:none;stroke:#808080;stroke-linecap:square;stroke-width:0.4;"/>
   </g>
   <g id="line2d_86">
    <path clip-path="url(#p564cc6653f)" d="M 66.35 271.352574 
L 906.48 271.352574 
" style="fill:none;stroke:#808080;stroke-linecap:square;stroke-width:0.4;"/>
   </g>
   <g id="line2d_87">
    <path clip-path="url(#p564cc6653f)" d="M 66.35 262.700072 
L 906.48 262.700072 
" style="fill:none;stroke:#808080;stroke-linecap:square;stroke-width:0.4;"/>
   </g>
   <g id="line2d_88">
    <path clip-path="url(#p564cc6653f)" d="M 66.35 254.047569 
L 906.48 254.047569 
" style="fill:none;stroke:#808080;stroke-linecap:square;stroke-width:0.4;"/>
   </g>
   <g id="line2d_89">
    <path clip-path="url(#p564cc6653f)" d="M 66.35 245.395067 
L 906.48 245.395067 
" style="fill:none;stroke:#808080;stroke-linecap:square;stroke-width:0.4;"/>
   </g>
   <g id="line2d_90">
    <path clip-path="url(#p564cc6653f)" d="M 66.35 236.742564 
L 906.48 236.742564 
" style="fill:none;stroke:#808080;stroke-linecap:square;stroke-width:0.4;"/>
   </g>
   <g id="line2d_91">
    <path clip-path="url(#p564cc6653f)" d="M 66.35 228.090062 
L 906.48 228.090062 
" style="fill:none;stroke:#808080;stroke-linecap:square;stroke-width:0.4;"/>
   </g>
   <g id="line2d_92">
    <path clip-path="url(#p564cc6653f)" d="M 66.35 219.437559 
L 906.48 219.437559 
" style="fill:none;stroke:#808080;stroke-linecap:square;stroke-width:0.4;"/>
   </g>
   <g id="line2d_93">
    <path clip-path="url(#p564cc6653f)" d="M 66.35 210.785056 
L 906.48 210.785056 
" style="fill:none;stroke:#808080;stroke-linecap:square;stroke-width:0.4;"/>
   </g>
   <g id="line2d_94">
    <path clip-path="url(#p564cc6653f)" d="M 66.35 202.132554 
L 906.48 202.132554 
" style="fill:none;stroke:#808080;stroke-linecap:square;stroke-width:0.4;"/>
   </g>
   <g id="line2d_95">
    <path clip-path="url(#p564cc6653f)" d="M 66.35 193.480051 
L 906.48 193.480051 
" style="fill:none;stroke:#808080;stroke-linecap:square;stroke-width:0.4;"/>
   </g>
   <g id="line2d_96">
    <path clip-path="url(#p564cc6653f)" d="M 66.35 184.827549 
L 906.48 184.827549 
" style="fill:none;stroke:#808080;stroke-linecap:square;stroke-width:0.4;"/>
   </g>
   <g id="line2d_97">
    <path clip-path="url(#p564cc6653f)" d="M 66.35 176.175046 
L 906.48 176.175046 
" style="fill:none;stroke:#808080;stroke-linecap:square;stroke-width:0.4;"/>
   </g>
   <g id="line2d_98">
    <path clip-path="url(#p564cc6653f)" d="M 66.35 167.522544 
L 906.48 167.522544 
" style="fill:none;stroke:#808080;stroke-linecap:square;stroke-width:0.4;"/>
   </g>
   <g id="line2d_99">
    <path clip-path="url(#p564cc6653f)" d="M 66.35 158.870041 
L 906.48 158.870041 
" style="fill:none;stroke:#808080;stroke-linecap:square;stroke-width:0.4;"/>
   </g>
   <g id="line2d_100">
    <path clip-path="url(#p564cc6653f)" d="M 66.35 150.217538 
L 906.48 150.217538 
" style="fill:none;stroke:#808080;stroke-linecap:square;stroke-width:0.4;"/>
   </g>
   <g id="line2d_101">
    <path clip-path="url(#p564cc6653f)" d="M 66.35 141.565036 
L 906.48 141.565036 
" style="fill:none;stroke:#808080;stroke-linecap:square;stroke-width:0.4;"/>
   </g>
   <g id="line2d_102">
    <path clip-path="url(#p564cc6653f)" d="M 66.35 132.912533 
L 906.48 132.912533 
" style="fill:none;stroke:#808080;stroke-linecap:square;stroke-width:0.4;"/>
   </g>
   <g id="line2d_103">
    <path clip-path="url(#p564cc6653f)" d="M 66.35 124.260031 
L 906.48 124.260031 
" style="fill:none;stroke:#808080;stroke-linecap:square;stroke-width:0.4;"/>
   </g>
   <g id="line2d_104">
    <path clip-path="url(#p564cc6653f)" d="M 66.35 115.607528 
L 906.48 115.607528 
" style="fill:none;stroke:#808080;stroke-linecap:square;stroke-width:0.4;"/>
   </g>
   <g id="line2d_105">
    <path clip-path="url(#p564cc6653f)" d="M 66.35 106.955026 
L 906.48 106.955026 
" style="fill:none;stroke:#808080;stroke-linecap:square;stroke-width:0.4;"/>
   </g>
   <g id="line2d_106">
    <path clip-path="url(#p564cc6653f)" d="M 66.35 98.302523 
L 906.48 98.302523 
" style="fill:none;stroke:#808080;stroke-linecap:square;stroke-width:0.4;"/>
   </g>
   <g id="line2d_107">
    <path clip-path="url(#p564cc6653f)" d="M 66.35 89.650021 
L 906.48 89.650021 
" style="fill:none;stroke:#808080;stroke-linecap:square;stroke-width:0.4;"/>
   </g>
   <g id="line2d_108">
    <path clip-path="url(#p564cc6653f)" d="M 66.35 80.997518 
L 906.48 80.997518 
" style="fill:none;stroke:#808080;stroke-linecap:square;stroke-width:0.4;"/>
   </g>
   <g id="line2d_109">
    <path clip-path="url(#p564cc6653f)" d="M 66.35 72.345015 
L 906.48 72.345015 
" style="fill:none;stroke:#808080;stroke-linecap:square;stroke-width:0.4;"/>
   </g>
   <g id="line2d_110">
    <path clip-path="url(#p564cc6653f)" d="M 66.35 63.692513 
L 906.48 63.692513 
" style="fill:none;stroke:#808080;stroke-linecap:square;stroke-width:0.4;"/>
   </g>
   <g id="line2d_111">
    <path clip-path="url(#p564cc6653f)" d="M 66.35 55.04001 
L 906.48 55.04001 
" style="fill:none;stroke:#808080;stroke-linecap:square;stroke-width:0.4;"/>
   </g>
   <g id="line2d_112">
    <path clip-path="url(#p564cc6653f)" d="M 66.35 46.387508 
L 906.48 46.387508 
" style="fill:none;stroke:#808080;stroke-linecap:square;stroke-width:0.4;"/>
   </g>
   <g id="line2d_113">
    <path clip-path="url(#p564cc6653f)" d="M 66.35 37.735005 
L 906.48 37.735005 
" style="fill:none;stroke:#808080;stroke-linecap:square;stroke-width:0.4;"/>
   </g>
   <g id="line2d_114">
    <path clip-path="url(#p564cc6653f)" d="M 66.35 29.082503 
L 906.48 29.082503 
" style="fill:none;stroke:#808080;stroke-linecap:square;stroke-width:0.4;"/>
   </g>
   <g id="line2d_115">
    <path clip-path="url(#p564cc6653f)" style="fill:none;stroke:#000000;stroke-linecap:square;stroke-width:0.6;"/>
   </g>
   <g id="line2d_116">
    <path clip-path="url(#p564cc6653f)" style="fill:none;stroke:#000000;stroke-linecap:square;stroke-width:0.6;"/>
   </g>
   <g id="line2d_117">
    <path clip-path="url(#p564cc6653f)" style="fill:none;stroke:#000000;stroke-linecap:square;stroke-width:0.6;"/>
   </g>
   <g id="line2d_118">
    <path clip-path="url(#p564cc6653f)" style="fill:none;stroke:#000000;stroke-linecap:square;stroke-width:0.6;"/>
   </g>
   <g id="line2d_119">
    <path clip-path="url(#p564cc6653f)" style="fill:none;stroke:#000000;stroke-linecap:square;stroke-width:0.6;"/>
   </g>
   <g id="line2d_120">
    <path clip-path="url(#p564cc6653f)" style="fill:none;stroke:#000000;stroke-linecap:square;stroke-width:0.6;"/>
   </g>
   <g id="line2d_121">
    <path clip-path="url(#p564cc6653f)" style="fill:none;stroke:#000000;stroke-linecap:square;stroke-width:0.6;"/>
   </g>
   <g id="line2d_122">
    <path clip-path="url(#p564cc6653f)" style="fill:none;stroke:#000000;stroke-linecap:square;stroke-width:0.6;"/>
   </g>
   <g id="line2d_123">
    <path clip-path="url(#p564cc6653f)" style="fill:none;stroke:#000000;stroke-linecap:square;stroke-width:0.6;"/>
   </g>
   <g id="line2d_124">
    <path clip-path="url(#p564cc6653f)" d="M 66.35 496.317641 
L 906.48 496.317641 
" style="fill:none;stroke:#000000;stroke-linecap:square;stroke-width:0.6;"/>
   </g>
   <g id="line2d_125">
    <path clip-path="url(#p564cc6653f)" d="M 66.35 453.055128 
L 906.48 453.055128 
" style="fill:none;stroke:#000000;stroke-linecap:square;stroke-width:0.6;"/>
   </g>
   <g id="line2d_126">
    <path clip-path="url(#p564cc6653f)" d="M 66.35 409.792615 
L 906.48 409.792615 
" style="fill:none;stroke:#000000;stroke-linecap:square;stroke-width:0.6;"/>
   </g>
   <g id="line2d_127">
    <path clip-path="url(#p564cc6653f)" d="M 66.35 366.530103 
L 906.48 366.530103 
" style="fill:none;stroke:#000000;stroke-linecap:square;stroke-width:0.6;"/>
   </g>
   <g id="line2d_128">
    <path clip-path="url(#p564cc6653f)" d="M 66.35 323.26759 
L 906.48 323.26759 
" style="fill:none;stroke:#000000;stroke-linecap:square;stroke-width:0.6;"/>
   </g>
   <g id="line2d_129">
    <path clip-path="url(#p564cc6653f)" d="M 66.35 280.005077 
L 906.48 280.005077 
" style="fill:none;stroke:#000000;stroke-linecap:square;stroke-width:0.6;"/>
   </g>
   <g id="line2d_130">
    <path clip-path="url(#p564cc6653f)" d="M 66.35 236.742564 
L 906.48 236.742564 
" style="fill:none;stroke:#000000;stroke-linecap:square;stroke-width:0.6;"/>
   </g>
   <g id="line2d_131">
    <path clip-path="url(#p564cc6653f)" d="M 66.35 193.480051 
L 906.48 193.480051 
" style="fill:none;stroke:#000000;stroke-linecap:square;stroke-width:0.6;"/>
   </g>
   <g id="line2d_132">
    <path clip-path="url(#p564cc6653f)" d="M 66.35 150.217538 
L 906.48 150.217538 
" style="fill:none;stroke:#000000;stroke-linecap:square;stroke-width:0.6;"/>
   </g>
   <g id="line2d_133">
    <path clip-path="url(#p564cc6653f)" d="M 66.35 106.955026 
L 906.48 106.955026 
" style="fill:none;stroke:#000000;stroke-linecap:square;stroke-width:0.6;"/>
   </g>
   <g id="line2d_134">
    <path clip-path="url(#p564cc6653f)" d="M 66.35 63.692513 
L 906.48 63.692513 
" style="fill:none;stroke:#000000;stroke-linecap:square;stroke-width:0.6;"/>
   </g>
   <g id="line2d_135">
    <path clip-path="url(#p564cc6653f)" d="M 66.35 176.538451 
L 67.965635 161.500402 
L 69.581269 169.036732 
L 71.196904 142.274541 
L 72.812538 166.847648 
L 74.428173 163.005937 
L 76.043808 170.377869 
L 77.659442 113.825113 
L 79.275077 157.226066 
L 80.890712 161.725367 
L 82.506346 167.522544 
L 84.121981 143.979084 
L 85.737615 184.239179 
L 87.35325 177.827674 
L 88.968885 191.213096 
L 90.584519 127.522024 
L 92.200154 165.238283 
L 93.815788 165.714171 
L 95.431423 184.169959 
L 97.047058 169.642407 
L 98.662692 200.402053 
L 100.278327 192.883029 
L 101.893962 197.512117 
L 103.509596 144.558802 
L 105.125231 225.710623 
L 106.740865 217.213866 
L 108.3565 236.197456 
L 109.972135 188.245287 
L 111.587769 206.92604 
L 113.203404 183.123006 
L 114.819038 177.879589 
L 116.434673 96.77103 
L 118.050308 147.543915 
L 119.665942 163.473172 
L 121.281577 185.813934 
L 122.897212 181.141583 
L 124.512846 222.353452 
L 126.128481 211.918534 
L 127.744115 210.101509 
L 129.35975 137.308005 
L 130.975385 174.228233 
L 132.591019 182.872083 
L 134.206654 210.516829 
L 135.822288 172.757308 
L 137.437923 198.290843 
L 139.053558 174.297453 
L 140.669192 183.261446 
L 142.284827 123.654356 
L 143.900462 215.526628 
L 145.516096 204.494687 
L 147.131731 171.978582 
L 148.747365 65.007693 
L 150.363 134.270976 
L 151.978635 215.682373 
L 153.594269 236.855047 
L 155.209904 192.138913 
L 156.825538 240.203565 
L 158.441173 240.385268 
L 160.056808 249.513658 
L 161.672442 226.186511 
L 163.288077 285.715729 
L 164.903712 229.483114 
L 166.519346 224.334875 
L 168.134981 139.254818 
L 169.750615 203.560217 
L 171.36625 251.071108 
L 172.981885 244.036624 
L 174.597519 275.722088 
L 176.213154 240.22087 
L 177.828788 244.901874 
L 179.444423 194.475089 
L 181.060058 310.513801 
L 182.675692 292.248368 
L 184.291327 237.054054 
L 185.906962 256.53949 
L 187.522596 222.734162 
L 189.138231 213.90861 
L 190.753865 147.171858 
L 192.3695 102.023099 
L 193.985135 120.098177 
L 195.600769 119.103139 
L 197.216404 132.012673 
L 198.832038 125.644431 
L 200.447673 144.775114 
L 202.063308 130.809975 
L 203.678942 149.421508 
L 205.294577 98.691886 
L 206.910212 127.677769 
L 208.525846 113.92029 
L 210.141481 132.280901 
L 211.757115 121.967118 
L 213.37275 127.997912 
L 214.988385 100.976146 
L 216.604019 99.150468 
L 218.219654 99.557136 
L 219.835288 130.126428 
L 221.450923 119.431934 
L 223.066558 135.923604 
L 224.682192 120.703852 
L 226.297827 141.400638 
L 227.913462 138.147297 
L 229.529096 141.106453 
L 231.144731 127.193229 
L 232.760365 156.79344 
L 234.376 163.369342 
L 235.991635 173.743693 
L 237.607269 155.391735 
L 239.222904 170.473047 
L 240.838538 157.174151 
L 242.454173 157.537556 
L 244.069808 114.759583 
L 245.685442 133.362463 
L 247.301077 148.14959 
L 248.916712 135.525589 
L 250.532346 155.746488 
L 252.147981 148.668741 
L 253.763615 152.744069 
L 255.37925 158.125926 
L 256.994885 107.967368 
L 258.610519 124.684003 
L 260.226154 128.603587 
L 261.841788 142.741776 
L 263.457423 126.976917 
L 265.073058 144.723199 
L 266.688692 141.080496 
L 268.304327 135.923604 
L 269.919962 109.282549 
L 271.535596 143.961779 
L 273.151231 147.829448 
L 274.766865 163.455867 
L 276.3825 130.247563 
L 277.998135 127.452804 
L 279.613769 138.81354 
L 281.229404 143.719509 
L 282.845038 106.643536 
L 284.460673 132.254943 
L 286.076308 135.672682 
L 287.691942 142.283194 
L 289.307577 124.666698 
L 290.923212 140.275813 
L 292.538846 132.064588 
L 294.154481 138.43283 
L 295.770115 109.256591 
L 297.38575 134.893956 
L 299.001385 130.879195 
L 300.617019 140.569998 
L 302.232654 116.334338 
L 303.848288 125.332941 
L 305.463923 130.559053 
L 307.079558 134.348849 
L 308.695192 92.427474 
L 310.310827 121.56045 
L 311.926462 125.073366 
L 313.542096 136.728287 
L 315.157731 119.985695 
L 316.773365 135.802469 
L 318.389 130.2043 
L 320.004635 137.25609 
L 321.620269 129.434227 
L 323.235904 160.505364 
L 324.851538 155.573438 
L 326.467173 158.030748 
L 328.082808 142.594684 
L 329.698442 155.556133 
L 331.314077 152.934424 
L 332.929712 151.878819 
L 334.545346 120.980732 
L 336.160981 140.829573 
L 337.776615 90.151866 
L 339.39225 120.046262 
L 341.007885 115.166251 
L 342.623519 123.360171 
L 344.239154 100.855011 
L 345.854788 126.622164 
L 347.470423 117.355334 
L 349.086058 137.654105 
L 350.701692 70.605862 
L 352.317327 125.090671 
L 353.932962 141.547731 
L 355.548596 147.535263 
L 357.164231 130.82728 
L 358.779865 164.771048 
L 360.3955 148.980231 
L 362.011135 143.209011 
L 363.626769 71.003877 
L 365.242404 122.590098 
L 366.858038 142.118796 
L 368.473673 155.659963 
L 370.089308 146.721927 
L 371.704942 155.659963 
L 373.320577 134.469984 
L 374.936212 111.584115 
L 376.551846 96.070177 
L 378.167481 136.745592 
L 379.783115 159.449759 
L 381.39875 177.637319 
L 383.014385 143.200359 
L 384.630019 175.751074 
L 386.245654 157.018405 
L 387.861288 160.730329 
L 389.476923 72.033525 
L 391.092558 109.196024 
L 392.708192 121.274917 
L 394.323827 127.297059 
L 395.939462 141.599646 
L 397.555096 185.978332 
L 399.170731 175.154051 
L 400.786365 170.550919 
L 402.402 111.013049 
L 404.017635 164.632608 
L 405.633269 165.238283 
L 407.248904 184.628541 
L 408.864538 158.584508 
L 410.480173 156.27429 
L 412.095808 134.037359 
L 413.711442 127.963302 
L 415.327077 102.784519 
L 416.942712 163.343385 
L 418.558346 161.266784 
L 420.173981 140.907446 
L 421.789615 185.822587 
L 423.40525 174.081141 
L 425.020885 172.203547 
L 426.636519 134.608424 
L 428.252154 166.691903 
L 429.867788 57.981861 
L 431.483423 89.615411 
L 433.099058 42.796719 
L 434.714692 165.030623 
L 436.330327 172.264115 
L 437.945962 170.974892 
L 439.561596 94.140669 
L 441.177231 127.297059 
L 444.4085 173.925395 
L 446.024135 153.81698 
L 447.639769 180.12924 
L 449.255404 161.742672 
L 450.871038 153.003644 
L 452.486673 97.861245 
L 454.102308 192.156218 
L 455.717942 166.207363 
L 457.333577 163.46452 
L 458.949212 147.56122 
L 460.564846 183.148963 
L 462.180481 172.411208 
L 463.796115 171.165247 
L 465.41175 93.076412 
L 467.027385 148.443775 
L 468.643019 189.655645 
L 470.258654 173.21589 
L 471.874288 189.863305 
L 473.489923 209.539096 
L 475.105558 163.144377 
L 476.721192 190.200753 
L 478.336827 177.559447 
L 479.952462 158.541246 
L 481.568096 170.550919 
L 483.183731 143.209011 
L 484.799365 82.044471 
L 486.415 105.440838 
L 488.030635 121.015342 
L 489.646269 120.617327 
L 491.261904 136.935947 
L 492.877538 125.350246 
L 494.493173 152.285487 
L 496.108808 119.812644 
L 497.724442 139.133683 
L 499.340077 106.669493 
L 500.955712 133.968139 
L 502.571346 124.813791 
L 504.186981 137.472402 
L 505.802615 123.723576 
L 507.41825 124.857053 
L 509.033885 113.383835 
L 510.649519 115.797883 
L 512.265154 75.641619 
L 513.880788 113.357878 
L 515.496423 105.086085 
L 517.112058 114.941286 
L 518.727692 96.814293 
L 520.343327 135.620767 
L 521.958962 128.802595 
L 523.574596 128.71607 
L 525.190231 102.057709 
L 526.805865 125.454076 
L 528.4215 114.898023 
L 530.037135 118.834912 
L 531.652769 124.502301 
L 533.268404 141.417943 
L 534.884038 110.286239 
L 536.499673 108.425951 
L 538.115308 55.879303 
L 539.730942 95.10975 
L 541.346577 84.320079 
L 542.962212 90.048036 
L 544.577846 71.49707 
L 546.193481 98.060253 
L 547.809115 99.885931 
L 549.42475 90.264348 
L 551.040385 60.845839 
L 552.656019 86.95044 
L 554.271654 98.986071 
L 555.887288 103.459415 
L 557.502923 88.109875 
L 559.118558 106.781976 
L 562.349827 74.231261 
L 563.965462 20.43 
L 565.581096 73.426578 
L 567.196731 84.198944 
L 568.812365 104.437147 
L 570.428 85.522777 
L 572.043635 111.497589 
L 573.659269 126.077056 
L 575.274904 133.518209 
L 576.890538 106.158995 
L 578.506173 157.745216 
L 580.121808 145.008732 
L 581.737442 136.589847 
L 583.353077 119.587679 
L 584.968712 133.907571 
L 586.584346 113.548233 
L 588.199981 96.122092 
L 589.815615 43.030337 
L 591.43125 101.780829 
L 593.046885 103.762252 
L 594.662519 99.037986 
L 596.278154 94.954005 
L 597.893788 125.315636 
L 599.509423 123.680313 
L 601.125058 116.265118 
L 602.740692 78.574817 
L 604.356327 105.72637 
L 605.971962 105.163958 
L 607.587596 110.814042 
L 609.203231 79.119925 
L 610.818865 103.736295 
L 614.050135 89.243353 
L 615.665769 56.502283 
L 617.281404 91.423784 
L 618.897038 94.599252 
L 620.512673 109.940139 
L 622.128308 105.198568 
L 623.743942 129.105432 
L 625.359577 126.146276 
L 626.975212 128.361317 
L 628.590846 87.26193 
L 630.206481 116.732354 
L 631.822115 121.707543 
L 633.43775 137.169565 
L 635.053385 105.267788 
L 636.669019 113.600148 
L 638.284654 109.057584 
L 639.900288 122.693928 
L 641.515923 64.23762 
L 643.131558 101.452034 
L 644.747192 93.794569 
L 646.362827 124.718613 
L 647.978462 86.526467 
L 649.594096 105.65715 
L 651.209731 97.688195 
L 652.825365 118.376329 
L 654.441 74.101473 
L 656.056635 107.110771 
L 657.672269 107.586658 
L 659.287904 117.277461 
L 660.903538 90.186476 
L 662.519173 122.590098 
L 664.134808 98.821673 
L 665.750442 100.560826 
L 667.366077 53.603695 
L 668.981712 96.373015 
L 670.597346 105.008213 
L 672.212981 146.66136 
L 673.828615 125.878049 
L 675.44425 141.244893 
L 677.059885 136.685024 
L 678.675519 157.312591 
L 680.291154 145.000079 
L 681.906788 165.688213 
L 683.522423 157.658691 
L 685.138058 164.29516 
L 686.753692 138.22517 
L 688.369327 130.844585 
L 689.984962 102.161539 
L 691.600596 103.54594 
L 693.216231 64.453933 
L 694.831865 90.913286 
L 696.4475 87.426327 
L 698.063135 116.256466 
L 701.294404 117.485121 
L 702.910038 114.846108 
L 704.525673 140.483473 
L 706.141308 111.134184 
L 707.756942 130.809975 
L 709.372577 126.717341 
L 710.988212 139.929713 
L 712.603846 120.998037 
L 714.219481 128.499757 
L 715.835115 119.951084 
L 717.45075 127.868124 
L 719.066385 94.806912 
L 720.682019 140.232551 
L 722.297654 140.09411 
L 723.913288 143.079224 
L 725.528923 129.503447 
L 727.144558 141.011276 
L 728.760192 134.599771 
L 730.375827 144.463624 
L 731.991462 156.291595 
L 733.607096 118.592642 
L 735.222731 74.629276 
L 736.838365 97.385358 
L 738.454 124.934926 
L 740.069635 104.843815 
L 741.685269 123.801448 
L 743.300904 111.653335 
L 744.916538 112.9166 
L 746.532173 84.692137 
L 748.147808 74.490836 
L 749.763442 111.990782 
L 751.379077 105.62254 
L 752.994712 111.575462 
L 754.610346 100.595436 
L 756.225981 137.507012 
L 757.841615 134.461331 
L 759.45725 119.466544 
L 761.072885 90.895981 
L 762.688519 139.549003 
L 764.304154 140.673828 
L 765.919788 162.763667 
L 767.535423 143.477239 
L 769.151058 166.908216 
L 770.766692 158.117273 
L 772.382327 154.71684 
L 773.997962 70.9087 
L 775.613596 116.031501 
L 777.229231 122.019033 
L 778.844865 154.82067 
L 780.4605 143.113834 
L 782.076135 176.131784 
L 783.691769 168.976164 
L 785.307404 148.980231 
L 786.923038 112.890642 
L 788.538673 148.703351 
L 790.154308 140.327728 
L 791.769942 156.049325 
L 793.385577 135.248709 
L 795.001212 154.30152 
L 796.616846 134.149841 
L 798.232481 129.313092 
L 799.848115 51.760712 
L 801.46375 98.060253 
L 803.079385 132.324163 
L 804.695019 152.666197 
L 806.310654 190.183448 
L 807.926288 197.235237 
L 809.541923 205.481072 
L 811.157558 139.237513 
L 812.773192 176.036606 
L 814.388827 169.979854 
L 816.004462 177.403702 
L 817.620096 139.531698 
L 819.235731 141.625603 
L 820.851365 137.108997 
L 824.082635 98.103516 
L 825.698269 20.43 
L 827.313904 47.26141 
L 828.929538 84.882492 
L 830.545173 108.841271 
L 832.160808 135.118921 
L 833.776442 198.983043 
L 835.392077 215.63911 
L 837.007712 20.43 
L 838.623346 137.619495 
L 841.854615 249.712665 
L 843.47025 230.002265 
L 845.085885 200.834678 
L 846.701519 137.515665 
L 848.317154 175.699159 
L 849.932788 207.220225 
L 851.548423 214.038397 
L 853.164058 214.003787 
L 854.779692 211.624349 
L 856.395327 200.817373 
L 858.010962 176.088521 
L 859.626596 187.639612 
L 861.242231 174.773341 
L 862.857865 189.352808 
L 864.4735 167.193748 
L 866.089135 196.03254 
L 867.704769 214.228752 
L 869.320404 220.519122 
L 870.936038 199.052263 
L 872.551673 211.589739 
L 874.167308 186.627269 
L 875.782942 189.197063 
L 877.398577 105.259135 
L 879.014212 126.976917 
L 882.245481 152.804637 
L 883.861115 150.174276 
L 885.47675 167.704246 
L 887.092385 179.359167 
L 888.708019 146.133557 
L 890.323654 51.682839 
L 891.939288 112.994472 
L 893.554923 154.552442 
L 895.170558 145.233697 
L 896.786192 109.170066 
L 898.401827 122.347828 
L 900.017462 99.288908 
L 901.633096 109.957444 
L 903.248731 68.806142 
L 904.864365 128.811247 
L 906.48 145.986465 
L 906.48 145.986465 
" style="fill:none;stroke:#1f77b4;stroke-linecap:square;stroke-width:0.7;"/>
   </g>
   <g id="patch_3">
    <path d="M 66.35 357.8776 
L 66.35 20.43 
" style="fill:none;stroke:#000000;stroke-linecap:square;stroke-linejoin:miter;stroke-width:0.8;"/>
   </g>
   <g id="patch_4">
    <path d="M 906.48 357.8776 
L 906.48 20.43 
" style="fill:none;stroke:#000000;stroke-linecap:square;stroke-linejoin:miter;stroke-width:0.8;"/>
   </g>
   <g id="patch_5">
    <path d="M 66.35 357.8776 
L 906.48 357.8776 
" style="fill:none;stroke:#000000;stroke-linecap:square;stroke-linejoin:miter;stroke-width:0.8;"/>
   </g>
   <g id="patch_6">
    <path d="M 66.35 20.43 
L 906.48 20.43 
" style="fill:none;stroke:#000000;stroke-linecap:square;stroke-linejoin:miter;stroke-width:0.8;"/>
   </g>
   <g id="legend_1">
    <g id="patch_7">
     <path d="M 412.477031 502.56098 
L 564.352969 502.56098 
Q 567.152969 502.56098 567.152969 499.76098 
L 567.152969 386.54998 
Q 567.152969 383.74998 564.352969 383.74998 
L 412.477031 383.74998 
Q 409.677031 383.74998 409.677031 386.54998 
L 409.677031 499.76098 
Q 409.677031 502.56098 412.477031 502.56098 
z
" style="fill:#4c4c4c;opacity:0.5;stroke:#4c4c4c;stroke-linejoin:miter;"/>
    </g>
    <g id="patch_8">
     <path d="M 410.477031 500.56098 
L 562.352969 500.56098 
Q 565.152969 500.56098 565.152969 497.76098 
L 565.152969 384.54998 
Q 565.152969 381.74998 562.352969 381.74998 
L 410.477031 381.74998 
Q 407.677031 381.74998 407.677031 384.54998 
L 407.677031 497.76098 
Q 407.677031 500.56098 410.477031 500.56098 
z
" style="fill:#ffffff;stroke:#cccccc;stroke-linejoin:miter;"/>
    </g>
    <g id="line2d_136">
     <path d="M 413.277031 441.574386 
L 441.277031 441.574386 
" style="fill:none;stroke:#1f77b4;stroke-linecap:square;stroke-width:0.7;"/>
    </g>
    <g id="line2d_137"/>
    <g id="text_16">
     <!-- Frames: 521  -->
     <defs>
      <path d="M 41.109375 46.296875 
Q 39.59375 47.171875 37.8125 47.578125 
Q 36.03125 48 33.890625 48 
Q 26.265625 48 22.1875 43.046875 
Q 18.109375 38.09375 18.109375 28.8125 
L 18.109375 0 
L 9.078125 0 
L 9.078125 54.6875 
L 18.109375 54.6875 
L 18.109375 46.1875 
Q 20.953125 51.171875 25.484375 53.578125 
Q 30.03125 56 36.53125 56 
Q 37.453125 56 38.578125 55.875 
Q 39.703125 55.765625 41.0625 55.515625 
z
" id="DejaVuSans-114"/>
      <path d="M 34.28125 27.484375 
Q 23.390625 27.484375 19.1875 25 
Q 14.984375 22.515625 14.984375 16.5 
Q 14.984375 11.71875 18.140625 8.90625 
Q 21.296875 6.109375 26.703125 6.109375 
Q 34.1875 6.109375 38.703125 11.40625 
Q 43.21875 16.703125 43.21875 25.484375 
L 43.21875 27.484375 
z
M 52.203125 31.203125 
L 52.203125 0 
L 43.21875 0 
L 43.21875 8.296875 
Q 40.140625 3.328125 35.546875 0.953125 
Q 30.953125 -1.421875 24.3125 -1.421875 
Q 15.921875 -1.421875 10.953125 3.296875 
Q 6 8.015625 6 15.921875 
Q 6 25.140625 12.171875 29.828125 
Q 18.359375 34.515625 30.609375 34.515625 
L 43.21875 34.515625 
L 43.21875 35.40625 
Q 43.21875 41.609375 39.140625 45 
Q 35.0625 48.390625 27.6875 48.390625 
Q 23 48.390625 18.546875 47.265625 
Q 14.109375 46.140625 10.015625 43.890625 
L 10.015625 52.203125 
Q 14.9375 54.109375 19.578125 55.046875 
Q 24.21875 56 28.609375 56 
Q 40.484375 56 46.34375 49.84375 
Q 52.203125 43.703125 52.203125 31.203125 
z
" id="DejaVuSans-97"/>
      <path d="M 52 44.1875 
Q 55.375 50.25 60.0625 53.125 
Q 64.75 56 71.09375 56 
Q 79.640625 56 84.28125 50.015625 
Q 88.921875 44.046875 88.921875 33.015625 
L 88.921875 0 
L 79.890625 0 
L 79.890625 32.71875 
Q 79.890625 40.578125 77.09375 44.375 
Q 74.3125 48.1875 68.609375 48.1875 
Q 61.625 48.1875 57.5625 43.546875 
Q 53.515625 38.921875 53.515625 30.90625 
L 53.515625 0 
L 44.484375 0 
L 44.484375 32.71875 
Q 44.484375 40.625 41.703125 44.40625 
Q 38.921875 48.1875 33.109375 48.1875 
Q 26.21875 48.1875 22.15625 43.53125 
Q 18.109375 38.875 18.109375 30.90625 
L 18.109375 0 
L 9.078125 0 
L 9.078125 54.6875 
L 18.109375 54.6875 
L 18.109375 46.1875 
Q 21.1875 51.21875 25.484375 53.609375 
Q 29.78125 56 35.6875 56 
Q 41.65625 56 45.828125 52.96875 
Q 50 49.953125 52 44.1875 
z
" id="DejaVuSans-109"/>
      <path d="M 56.203125 29.59375 
L 56.203125 25.203125 
L 14.890625 25.203125 
Q 15.484375 15.921875 20.484375 11.0625 
Q 25.484375 6.203125 34.421875 6.203125 
Q 39.59375 6.203125 44.453125 7.46875 
Q 49.3125 8.734375 54.109375 11.28125 
L 54.109375 2.78125 
Q 49.265625 0.734375 44.1875 -0.34375 
Q 39.109375 -1.421875 33.890625 -1.421875 
Q 20.796875 -1.421875 13.15625 6.1875 
Q 5.515625 13.8125 5.515625 26.8125 
Q 5.515625 40.234375 12.765625 48.109375 
Q 20.015625 56 32.328125 56 
Q 43.359375 56 49.78125 48.890625 
Q 56.203125 41.796875 56.203125 29.59375 
z
M 47.21875 32.234375 
Q 47.125 39.59375 43.09375 43.984375 
Q 39.0625 48.390625 32.421875 48.390625 
Q 24.90625 48.390625 20.390625 44.140625 
Q 15.875 39.890625 15.1875 32.171875 
z
" id="DejaVuSans-101"/>
      <path d="M 44.28125 53.078125 
L 44.28125 44.578125 
Q 40.484375 46.53125 36.375 47.5 
Q 32.28125 48.484375 27.875 48.484375 
Q 21.1875 48.484375 17.84375 46.4375 
Q 14.5 44.390625 14.5 40.28125 
Q 14.5 37.15625 16.890625 35.375 
Q 19.28125 33.59375 26.515625 31.984375 
L 29.59375 31.296875 
Q 39.15625 29.25 43.1875 25.515625 
Q 47.21875 21.78125 47.21875 15.09375 
Q 47.21875 7.46875 41.1875 3.015625 
Q 35.15625 -1.421875 24.609375 -1.421875 
Q 20.21875 -1.421875 15.453125 -0.5625 
Q 10.6875 0.296875 5.421875 2 
L 5.421875 11.28125 
Q 10.40625 8.6875 15.234375 7.390625 
Q 20.0625 6.109375 24.8125 6.109375 
Q 31.15625 6.109375 34.5625 8.28125 
Q 37.984375 10.453125 37.984375 14.40625 
Q 37.984375 18.0625 35.515625 20.015625 
Q 33.0625 21.96875 24.703125 23.78125 
L 21.578125 24.515625 
Q 13.234375 26.265625 9.515625 29.90625 
Q 5.8125 33.546875 5.8125 39.890625 
Q 5.8125 47.609375 11.28125 51.796875 
Q 16.75 56 26.8125 56 
Q 31.78125 56 36.171875 55.265625 
Q 40.578125 54.546875 44.28125 53.078125 
z
" id="DejaVuSans-115"/>
      <path d="M 11.71875 12.40625 
L 22.015625 12.40625 
L 22.015625 0 
L 11.71875 0 
z
M 11.71875 51.703125 
L 22.015625 51.703125 
L 22.015625 39.3125 
L 11.71875 39.3125 
z
" id="DejaVuSans-58"/>
      <path id="DejaVuSans-32"/>
     </defs>
     <g transform="translate(452.477031 397.987792)scale(0.14 -0.14)">
      <use xlink:href="#DejaVuSans-70"/>
      <use x="50.269531" xlink:href="#DejaVuSans-114"/>
      <use x="91.382812" xlink:href="#DejaVuSans-97"/>
      <use x="152.662109" xlink:href="#DejaVuSans-109"/>
      <use x="250.074219" xlink:href="#DejaVuSans-101"/>
      <use x="311.597656" xlink:href="#DejaVuSans-115"/>
      <use x="363.697266" xlink:href="#DejaVuSans-58"/>
      <use x="397.388672" xlink:href="#DejaVuSans-32"/>
      <use x="429.175781" xlink:href="#DejaVuSans-53"/>
      <use x="492.798828" xlink:href="#DejaVuSans-50"/>
      <use x="556.421875" xlink:href="#DejaVuSans-49"/>
      <use x="620.044922" xlink:href="#DejaVuSans-32"/>
     </g>
     <!-- Mean:86.194 -->
     <defs>
      <path d="M 54.890625 33.015625 
L 54.890625 0 
L 45.90625 0 
L 45.90625 32.71875 
Q 45.90625 40.484375 42.875 44.328125 
Q 39.84375 48.1875 33.796875 48.1875 
Q 26.515625 48.1875 22.3125 43.546875 
Q 18.109375 38.921875 18.109375 30.90625 
L 18.109375 0 
L 9.078125 0 
L 9.078125 54.6875 
L 18.109375 54.6875 
L 18.109375 46.1875 
Q 21.34375 51.125 25.703125 53.5625 
Q 30.078125 56 35.796875 56 
Q 45.21875 56 50.046875 50.171875 
Q 54.890625 44.34375 54.890625 33.015625 
z
" id="DejaVuSans-110"/>
      <path d="M 10.6875 12.40625 
L 21 12.40625 
L 21 0 
L 10.6875 0 
z
" id="DejaVuSans-46"/>
     </defs>
     <g transform="translate(452.477031 413.66473)scale(0.14 -0.14)">
      <use xlink:href="#DejaVuSans-77"/>
      <use x="86.279297" xlink:href="#DejaVuSans-101"/>
      <use x="147.802734" xlink:href="#DejaVuSans-97"/>
      <use x="209.082031" xlink:href="#DejaVuSans-110"/>
      <use x="272.460938" xlink:href="#DejaVuSans-58"/>
      <use x="306.152344" xlink:href="#DejaVuSans-56"/>
      <use x="369.775391" xlink:href="#DejaVuSans-54"/>
      <use x="433.398438" xlink:href="#DejaVuSans-46"/>
      <use x="465.185547" xlink:href="#DejaVuSans-49"/>
      <use x="528.808594" xlink:href="#DejaVuSans-57"/>
      <use x="592.431641" xlink:href="#DejaVuSans-52"/>
     </g>
     <!-- 0.01%: 66.584  -->
     <defs>
      <path d="M 72.703125 32.078125 
Q 68.453125 32.078125 66.03125 28.46875 
Q 63.625 24.859375 63.625 18.40625 
Q 63.625 12.0625 66.03125 8.421875 
Q 68.453125 4.78125 72.703125 4.78125 
Q 76.859375 4.78125 79.265625 8.421875 
Q 81.6875 12.0625 81.6875 18.40625 
Q 81.6875 24.8125 79.265625 28.4375 
Q 76.859375 32.078125 72.703125 32.078125 
z
M 72.703125 38.28125 
Q 80.421875 38.28125 84.953125 32.90625 
Q 89.5 27.546875 89.5 18.40625 
Q 89.5 9.28125 84.9375 3.921875 
Q 80.375 -1.421875 72.703125 -1.421875 
Q 64.890625 -1.421875 60.34375 3.921875 
Q 55.8125 9.28125 55.8125 18.40625 
Q 55.8125 27.59375 60.375 32.9375 
Q 64.9375 38.28125 72.703125 38.28125 
z
M 22.3125 68.015625 
Q 18.109375 68.015625 15.6875 64.375 
Q 13.28125 60.75 13.28125 54.390625 
Q 13.28125 47.953125 15.671875 44.328125 
Q 18.0625 40.71875 22.3125 40.71875 
Q 26.5625 40.71875 28.96875 44.328125 
Q 31.390625 47.953125 31.390625 54.390625 
Q 31.390625 60.6875 28.953125 64.34375 
Q 26.515625 68.015625 22.3125 68.015625 
z
M 66.40625 74.21875 
L 74.21875 74.21875 
L 28.609375 -1.421875 
L 20.796875 -1.421875 
z
M 22.3125 74.21875 
Q 30.03125 74.21875 34.609375 68.875 
Q 39.203125 63.53125 39.203125 54.390625 
Q 39.203125 45.171875 34.640625 39.84375 
Q 30.078125 34.515625 22.3125 34.515625 
Q 14.546875 34.515625 10.03125 39.859375 
Q 5.515625 45.21875 5.515625 54.390625 
Q 5.515625 63.484375 10.046875 68.84375 
Q 14.59375 74.21875 22.3125 74.21875 
z
" id="DejaVuSans-37"/>
     </defs>
     <g transform="translate(452.477031 429.341667)scale(0.14 -0.14)">
      <use xlink:href="#DejaVuSans-48"/>
      <use x="63.623047" xlink:href="#DejaVuSans-46"/>
      <use x="95.410156" xlink:href="#DejaVuSans-48"/>
      <use x="159.033203" xlink:href="#DejaVuSans-49"/>
      <use x="222.65625" xlink:href="#DejaVuSans-37"/>
      <use x="317.675781" xlink:href="#DejaVuSans-58"/>
      <use x="351.367188" xlink:href="#DejaVuSans-32"/>
      <use x="383.154297" xlink:href="#DejaVuSans-54"/>
      <use x="446.777344" xlink:href="#DejaVuSans-54"/>
      <use x="510.400391" xlink:href="#DejaVuSans-46"/>
      <use x="542.1875" xlink:href="#DejaVuSans-53"/>
      <use x="605.810547" xlink:href="#DejaVuSans-56"/>
      <use x="669.433594" xlink:href="#DejaVuSans-52"/>
      <use x="733.056641" xlink:href="#DejaVuSans-32"/>
     </g>
     <!-- 0.1%: 67.572  -->
     <g transform="translate(452.477031 445.018605)scale(0.14 -0.14)">
      <use xlink:href="#DejaVuSans-48"/>
      <use x="63.623047" xlink:href="#DejaVuSans-46"/>
      <use x="95.410156" xlink:href="#DejaVuSans-49"/>
      <use x="159.033203" xlink:href="#DejaVuSans-37"/>
      <use x="254.052734" xlink:href="#DejaVuSans-58"/>
      <use x="287.744141" xlink:href="#DejaVuSans-32"/>
      <use x="319.53125" xlink:href="#DejaVuSans-54"/>
      <use x="383.154297" xlink:href="#DejaVuSans-55"/>
      <use x="446.777344" xlink:href="#DejaVuSans-46"/>
      <use x="478.564453" xlink:href="#DejaVuSans-53"/>
      <use x="542.1875" xlink:href="#DejaVuSans-55"/>
      <use x="605.810547" xlink:href="#DejaVuSans-50"/>
      <use x="669.433594" xlink:href="#DejaVuSans-32"/>
     </g>
     <!-- 1%: 73.375  -->
     <g transform="translate(452.477031 460.695542)scale(0.14 -0.14)">
      <use xlink:href="#DejaVuSans-49"/>
      <use x="63.623047" xlink:href="#DejaVuSans-37"/>
      <use x="158.642578" xlink:href="#DejaVuSans-58"/>
      <use x="192.333984" xlink:href="#DejaVuSans-32"/>
      <use x="224.121094" xlink:href="#DejaVuSans-55"/>
      <use x="287.744141" xlink:href="#DejaVuSans-51"/>
      <use x="351.367188" xlink:href="#DejaVuSans-46"/>
      <use x="383.154297" xlink:href="#DejaVuSans-51"/>
      <use x="446.777344" xlink:href="#DejaVuSans-55"/>
      <use x="510.400391" xlink:href="#DejaVuSans-53"/>
      <use x="574.023438" xlink:href="#DejaVuSans-32"/>
     </g>
     <!-- 25%: 83.469  -->
     <g transform="translate(452.477031 476.37248)scale(0.14 -0.14)">
      <use xlink:href="#DejaVuSans-50"/>
      <use x="63.623047" xlink:href="#DejaVuSans-53"/>
      <use x="127.246094" xlink:href="#DejaVuSans-37"/>
      <use x="222.265625" xlink:href="#DejaVuSans-58"/>
      <use x="255.957031" xlink:href="#DejaVuSans-32"/>
      <use x="287.744141" xlink:href="#DejaVuSans-56"/>
      <use x="351.367188" xlink:href="#DejaVuSans-51"/>
      <use x="414.990234" xlink:href="#DejaVuSans-46"/>
      <use x="446.777344" xlink:href="#DejaVuSans-52"/>
      <use x="510.400391" xlink:href="#DejaVuSans-54"/>
      <use x="574.023438" xlink:href="#DejaVuSans-57"/>
      <use x="637.646484" xlink:href="#DejaVuSans-32"/>
     </g>
     <!-- 75%: 89.314 -->
     <g transform="translate(452.477031 492.049417)scale(0.14 -0.14)">
      <use xlink:href="#DejaVuSans-55"/>
      <use x="63.623047" xlink:href="#DejaVuSans-53"/>
      <use x="127.246094" xlink:href="#DejaVuSans-37"/>
      <use x="222.265625" xlink:href="#DejaVuSans-58"/>
      <use x="255.957031" xlink:href="#DejaVuSans-32"/>
      <use x="287.744141" xlink:href="#DejaVuSans-56"/>
      <use x="351.367188" xlink:href="#DejaVuSans-57"/>
      <use x="414.990234" xlink:href="#DejaVuSans-46"/>
      <use x="446.777344" xlink:href="#DejaVuSans-51"/>
      <use x="510.400391" xlink:href="#DejaVuSans-49"/>
      <use x="574.023438" xlink:href="#DejaVuSans-52"/>
     </g>
    </g>
   </g>
  </g>
 </g>
 <defs>
  <clipPath id="p564cc6653f">
   <rect height="337.4476" width="840.13" x="66.35" y="20.43"/>
  </clipPath>
 </defs>
</svg>
